<?xml version="1.0" encoding="UTF-8" standalone="no"?>
<!DOCTYPE svg PUBLIC "-//W3C//DTD SVG 1.1//EN" "http://www.w3.org/Graphics/SVG/1.1/DTD/svg11.dtd">
<!-- Generated by Microsoft Visio, SVG Export AM.IAM.Configuration RedSecurity Play Ground.svg Page-1 -->
<svg xmlns="http://www.w3.org/2000/svg" xmlns:xlink="http://www.w3.org/1999/xlink" xmlns:ev="http://www.w3.org/2001/xml-events"
		width="7.85387in" height="9.77128in" viewBox="0 0 565.478 703.532" xml:space="preserve" color-interpolation-filters="sRGB"
		class="st36">
	<style type="text/css">
	<![CDATA[
		.st1 {fill:#ffffff;stroke:#000000;stroke-linecap:round;stroke-linejoin:round;stroke-width:0.24}
		.st2 {fill:#000000;font-family:Helvetica;font-size:0.666664em}
		.st3 {fill:#fdf5ff;stroke:#a52641;stroke-linecap:round;stroke-linejoin:round;stroke-width:0.24}
		.st4 {fill:#000000;font-family:Helvetica;font-size:1.00001em}
		.st5 {fill:#eff6fe;stroke:#1c59aa;stroke-linecap:round;stroke-linejoin:round;stroke-width:0.24}
		.st6 {fill:#000000;font-family:Helvetica;font-size:0.833336em}
		.st7 {fill:#effff4;stroke:#218041;stroke-linecap:round;stroke-linejoin:round;stroke-width:0.75}
		.st8 {fill:none;stroke:none;stroke-linecap:round;stroke-linejoin:round;stroke-width:0.75}
		.st9 {fill:#fefbf3;stroke:#d6a042;stroke-linecap:round;stroke-linejoin:round;stroke-width:0.24}
		.st10 {fill:#a6a6a6;stroke:none;stroke-linecap:butt;stroke-width:1.44424}
		.st11 {fill:#d9d9d9;stroke:none;stroke-linecap:butt;stroke-width:1.44424}
		.st12 {fill:#bfbfbf;stroke:none;stroke-linecap:butt;stroke-width:1.44424}
		.st13 {fill:#a6a6a6;stroke:none;stroke-linecap:butt;stroke-width:0.75}
		.st14 {fill:#ffffff;stroke:none;stroke-linecap:butt;stroke-width:0.75}
		.st15 {fill:#5c5c5c;stroke:none;stroke-linecap:butt;stroke-width:0.75}
		.st16 {fill:#bfbfbf;stroke:#bfbfbf;stroke-linecap:butt;stroke-width:0.75}
		.st17 {fill:#5c5c5c;stroke:#ffffff;stroke-linecap:butt;stroke-width:0.75}
		.st18 {marker-end:url(#mrkr13-156);stroke:#000000;stroke-linecap:round;stroke-linejoin:round;stroke-width:0.75}
		.st19 {fill:#000000;fill-opacity:1;stroke:#000000;stroke-opacity:1;stroke-width:0.22935779816514}
		.st20 {font-size:1em}
		.st21 {stroke:#000000;stroke-linecap:round;stroke-linejoin:round;stroke-width:0.75}
		.st22 {fill:#ffffff;stroke:none;stroke-linecap:butt;stroke-width:7.2}
		.st23 {fill:#d9d9d9;stroke:#a6a6a6;stroke-linecap:round;stroke-linejoin:round;stroke-width:0.24}
		.st24 {fill:#fef5f6;stroke:#d3433f;stroke-linecap:round;stroke-linejoin:round;stroke-width:0.75}
		.st25 {fill:#fef5f6;fill-opacity:0.99;stroke:#d3433f;stroke-linecap:round;stroke-linejoin:round;stroke-width:0.75}
		.st26 {fill:#a5a5a5;stroke:#ffffff;stroke-linecap:butt;stroke-width:5.5}
		.st27 {fill:#d8d8d8;stroke:#ffffff;stroke-linecap:butt;stroke-width:5.5}
		.st28 {fill:#a6a6a6;stroke:none;stroke-linecap:butt;stroke-width:1.19531}
		.st29 {stroke:#a5a5a5;stroke-dasharray:6,12;stroke-linecap:round;stroke-linejoin:round;stroke-width:6}
		.st30 {fill:#f8c583;stroke:none;stroke-linecap:butt;stroke-width:0.75}
		.st31 {fill:#eebc7a;stroke:none;stroke-linecap:butt;stroke-width:0.75}
		.st32 {fill:#90a7ba;stroke:none;stroke-linecap:butt;stroke-width:0.75}
		.st33 {fill:#889fb2;stroke:none;stroke-linecap:butt;stroke-width:0.75}
		.st34 {stroke:#d3433f;stroke-linecap:round;stroke-linejoin:round;stroke-width:0.75}
		.st35 {fill:#d3433f;font-family:Helvetica;font-size:0.666664em}
		.st36 {fill:none;fill-rule:evenodd;font-size:12px;overflow:visible;stroke-linecap:square;stroke-miterlimit:3}
	]]>
	</style>

	<defs id="Markers">
		<g id="lend13">
			<path d="M 3 1 L 0 0 L 3 -1 L 3 1 " style="stroke:none"/>
		</g>
		<marker id="mrkr13-156" class="st19" refX="-13.08" orient="auto" markerUnits="strokeWidth" overflow="visible">
			<use xlink:href="#lend13" transform="scale(-4.36,-4.36) "/>
		</marker>
	</defs>
	<g>
		<g id="shape338-1" transform="translate(0.12,-0.12)">
			<rect x="0" y="204.634" width="559.276" height="498.898" class="st1"/>
			<text x="4" y="215.83" class="st2">v22019037991984672</text>		</g>
		<g id="shape13-4" transform="translate(17.5531,-200.787)">
			<rect x="0" y="510.776" width="170.079" height="192.756" class="st3"/>
			<text x="48.41" y="525.58" class="st4">Access Domain</text>		</g>
		<g id="shape15-7" transform="translate(193.025,-200.503)">
			<rect x="0" y="510.776" width="170.079" height="192.756" class="st5"/>
			<text x="35.19" y="525.58" class="st4">Governance Domain</text>		</g>
		<g id="shape49-10" transform="translate(24.6397,-207.873)">
			<rect x="0" y="622.745" width="76.5354" height="80.7874" class="st1"/>
			<text x="10.87" y="635.74" class="st6">MServer pmg</text>		</g>
		<g id="shape51-13" transform="translate(27.4743,-251.81)">
			<rect x="0" y="686.524" width="70.8661" height="17.0079" class="st7"/>
			<text x="10.39" y="697.72" class="st2">Policy Manager</text>		</g>
		<g id="shape52-16" transform="translate(27.4743,-212.125)">
			<rect x="0" y="686.524" width="70.8661" height="17.0079" class="st8"/>
			<text x="20.21" y="697.72" class="st2">JRF/OPSS</text>		</g>
		<g id="shape54-19" transform="translate(23.2224,-292.913)">
			<rect x="0" y="622.745" width="158.74" height="80.7874" class="st1"/>
			<text x="56.16" y="635.74" class="st6">AServer iad</text>		</g>
		<g id="shape5-22" transform="translate(105.427,-336.85)">
			<rect x="0" y="686.524" width="70.8661" height="17.0079" class="st7"/>
			<text x="12.79" y="697.72" class="st2">FMW Console</text>		</g>
		<g id="shape6-25" transform="translate(67.1594,-318.425)">
			<rect x="0" y="686.524" width="70.8661" height="17.0079" class="st7"/>
			<text x="13.22" y="697.72" class="st2">OAM Console</text>		</g>
		<g id="shape7-28" transform="translate(67.1594,-298.582)">
			<rect x="0" y="686.524" width="70.8661" height="17.0079" class="st8"/>
			<text x="20.21" y="697.72" class="st2">JRF/OPSS</text>		</g>
		<g id="shape8-31" transform="translate(28.8917,-336.85)">
			<rect x="0" y="686.524" width="70.8661" height="17.0079" class="st7"/>
			<text x="14.53" y="697.72" class="st2">WLS Console</text>		</g>
		<g id="shape59-34" transform="translate(199.679,-207.873)">
			<rect x="0" y="604.319" width="76.5354" height="99.2126" class="st1"/>
			<text x="12.07" y="617.32" class="st6">MServer oim</text>		</g>
		<g id="shape23-37" transform="translate(202.514,-250.393)">
			<rect x="0" y="686.524" width="70.8661" height="17.0079" class="st7"/>
			<text x="11.2" y="697.72" class="st2">Administration</text>		</g>
		<g id="shape24-40" transform="translate(202.514,-270.236)">
			<rect x="0" y="686.524" width="70.8661" height="17.0079" class="st7"/>
			<text x="16.93" y="697.72" class="st2">Self Service </text>		</g>
		<g id="shape25-43" transform="translate(202.514,-212.125)">
			<rect x="0" y="686.524" width="70.8661" height="17.0079" class="st8"/>
			<text x="20.21" y="697.72" class="st2">JRF/OPSS</text>		</g>
		<g id="shape60-46" transform="translate(279.049,-207.873)">
			<rect x="0" y="604.319" width="76.5354" height="99.2126" class="st1"/>
			<text x="12.86" y="617.32" class="st6">MServer soa</text>		</g>
		<g id="shape43-49" transform="translate(281.884,-250.393)">
			<rect x="0" y="686.524" width="70.8661" height="17.0079" class="st7"/>
			<text x="26.62" y="697.72" class="st2">WSM</text>		</g>
		<g id="shape44-52" transform="translate(281.884,-270.236)">
			<rect x="0" y="686.524" width="70.8661" height="17.0079" class="st7"/>
			<text x="28.63" y="697.72" class="st2">SOA</text>		</g>
		<g id="shape45-55" transform="translate(281.884,-212.125)">
			<rect x="0" y="686.524" width="70.8661" height="17.0079" class="st8"/>
			<text x="20.21" y="697.72" class="st2">JRF/OPSS</text>		</g>
		<g id="shape46-58" transform="translate(202.514,-230.551)">
			<rect x="0" y="686.524" width="70.8661" height="17.0079" class="st7"/>
			<text x="13.19" y="697.72" class="st2">Authorization</text>		</g>
		<g id="shape58-61" transform="translate(198.695,-313.759)">
			<rect x="0" y="643.591" width="158.74" height="59.9414" class="st1"/>
			<text x="56.2" y="656.59" class="st6">AServer igd</text>		</g>
		<g id="shape18-64" transform="translate(279.758,-336.85)">
			<rect x="0" y="686.524" width="70.8661" height="17.0079" class="st7"/>
			<text x="12.79" y="697.72" class="st2">FMW Console</text>		</g>
		<g id="shape20-67" transform="translate(242.199,-318.425)">
			<rect x="0" y="686.524" width="70.8661" height="17.0079" class="st8"/>
			<text x="20.21" y="697.72" class="st2">JRF/OPSS</text>		</g>
		<g id="shape21-70" transform="translate(204.64,-336.85)">
			<rect x="0" y="686.524" width="70.8661" height="17.0079" class="st7"/>
			<text x="14.53" y="697.72" class="st2">WLS Console</text>		</g>
		<g id="shape63-73" transform="translate(369.758,-200.787)">
			<rect x="0" y="510.776" width="170.079" height="192.756" class="st9"/>
			<text x="31.26" y="525.58" class="st4">Configuration Domain</text>		</g>
		<g id="shape64-76" transform="translate(376.844,-207.873)">
			<rect x="0" y="622.745" width="76.5354" height="80.7874" class="st1"/>
			<text x="13.44" y="635.74" class="st6">MServer bip</text>		</g>
		<g id="shape66-79" transform="translate(379.679,-251.81)">
			<rect x="0" y="686.524" width="70.8661" height="17.0079" class="st7"/>
			<text x="16.19" y="697.72" class="st2">BI Publisher</text>		</g>
		<g id="shape67-82" transform="translate(379.679,-212.125)">
			<rect x="0" y="686.524" width="70.8661" height="17.0079" class="st8"/>
			<text x="20.21" y="697.72" class="st2">JRF/OPSS</text>		</g>
		<g id="shape68-85" transform="translate(456.214,-207.873)">
			<rect x="0" y="622.745" width="76.5354" height="80.7874" class="st1"/>
			<text x="12.2" y="635.74" class="st6">MServer ppa</text>		</g>
		<g id="shape69-88" transform="translate(459.049,-231.968)">
			<rect x="0" y="686.524" width="70.8661" height="17.0079" class="st7"/>
			<text x="26.62" y="697.72" class="st2">WSM</text>		</g>
		<g id="shape70-91" transform="translate(459.049,-251.81)">
			<rect x="0" y="686.524" width="70.8661" height="17.0079" class="st7"/>
			<text x="11.48" y="697.72" class="st2">Human Capital</text>		</g>
		<g id="shape71-94" transform="translate(459.049,-212.125)">
			<rect x="0" y="686.524" width="70.8661" height="17.0079" class="st8"/>
			<text x="20.21" y="697.72" class="st2">JRF/OPSS</text>		</g>
		<g id="shape73-97" transform="translate(375.427,-292.913)">
			<rect x="0" y="622.745" width="158.74" height="80.7874" class="st1"/>
			<text x="56.44" y="635.74" class="st6">AServer icd</text>		</g>
		<g id="shape74-100" transform="translate(456.923,-336.85)">
			<rect x="0" y="686.524" width="70.8661" height="17.0079" class="st7"/>
			<text x="12.79" y="697.72" class="st2">FMW Console</text>		</g>
		<g id="shape75-103" transform="translate(419.364,-298.582)">
			<rect x="0" y="686.524" width="70.8661" height="17.0079" class="st8"/>
			<text x="20.21" y="697.72" class="st2">JRF/OPSS</text>		</g>
		<g id="shape76-106" transform="translate(380.388,-336.85)">
			<rect x="0" y="686.524" width="70.8661" height="17.0079" class="st7"/>
			<text x="14.53" y="697.72" class="st2">WLS Console</text>		</g>
		<g id="shape77-109" transform="translate(419.364,-318.425)">
			<rect x="0" y="686.524" width="70.8661" height="17.0079" class="st7"/>
			<text x="11.24" y="697.72" class="st2">ODSM Console</text>		</g>
		<g id="shape94-112" transform="translate(242.632,-580.892)">
			<rect x="0" y="686.524" width="70.8661" height="17.0079" class="st8"/>
			<text x="22.17" y="697.72" class="st2">Internet</text>		</g>
		<g id="group103-115" transform="translate(203.222,-555.38)">
			<g id="shape104-116" transform="translate(33.0964,1368.16) rotate(180)">
				<path d="M17.8 681.84 L32.18 681.84 L1.67 703.53 L13.79 686.33 L0 686.33 L29.67 665.38 L17.8 681.84 Z" class="st10"/>
			</g>
			<g id="shape105-118">
				<path d="M2.59 703.53 C2.38 703.53 2.17 703.46 2.05 703.35 C1.76 703.08 1.67 702.71 1.88 702.37 L13.21 686.33 L0.92
							 686.33 C0.54 686.33 0.25 686.14 0.13 685.84 C0 685.54 0.13 685.2 0.42 685.02 L30.09 664.07 C30.42 663.85
							 30.88 663.85 31.17 664.11 C31.47 664.37 31.55 664.74 31.3 665.08 L20.27 680.34 L33.1 680.34 C33.47 680.34
							 33.77 680.53 33.89 680.83 C34.02 681.13 33.89 681.46 33.64 681.65 L3.13 703.35 C2.97 703.49 2.76 703.53
							 2.59 703.53 ZM3.34 684.83 L14.71 684.83 C15 684.83 15.29 684.98 15.46 685.2 C15.63 685.43 15.59 685.73
							 15.42 685.95 L5.93 699.46 L30.71 681.84 L18.72 681.84 C18.43 681.84 18.14 681.69 17.97 681.46 C17.8
							 681.24 17.84 680.94 18.01 680.72 L27.16 668 L3.34 684.83 Z" class="st11"/>
			</g>
			<g id="group106-120" transform="translate(6.35184,-4.48841)">
				<g id="shape107-121">
					<path d="M0 703.53 L24.24 686.33 L18.39 686.33 L0 703.53 Z" class="st12"/>
				</g>
				<g id="shape108-123" transform="translate(7.93979,-17.9536)">
					<path d="M13.37 690.07 L0 703.53 L1.8 703.53 C2.76 703.53 3.68 703.08 4.22 702.37 L13.37 690.07 Z" class="st12"/>
				</g>
			</g>
		</g>
		<g id="group109-125" transform="translate(19.6791,-634.751)">
			<g id="group110-126" transform="translate(0,-17.5518)">
				<g id="shape111-127" transform="translate(0.719057,-0.721139)">
					<path d="M2.16 703.53 C0.81 703.53 0 702.72 0 701.37 L0 656.66 C0 655.3 0.81 654.49 2.16 654.49 L65.43 654.49
								 C66.79 654.49 67.59 655.3 67.59 656.66 L67.59 701.37 C67.59 702.72 66.79 703.53 65.43 703.53 L2.16
								 703.53 Z" class="st13"/>
				</g>
				<g id="shape112-129">
					<path d="M66.15 654.49 C67.09 654.49 67.59 655 67.59 655.94 L67.59 700.65 C67.59 701.58 67.09 702.09 66.15 702.09
								 L2.88 702.09 C1.94 702.09 1.44 701.58 1.44 700.65 L1.44 655.94 C1.44 655 1.94 654.49 2.88 654.49
								 L66.15 654.49 ZM66.15 653.05 L2.88 653.05 C1.14 653.05 0 654.19 0 655.94 L0 700.65 C0 702.39 1.14
								 703.53 2.88 703.53 L66.15 703.53 C67.89 703.53 69.03 702.39 69.03 700.65 L69.03 655.94 C69.03 654.19
								 67.89 653.05 66.15 653.05 Z" class="st13"/>
				</g>
			</g>
			<g id="shape113-131" transform="translate(4.31434,-29.09)">
				<path d="M2.88 668.92 L57.52 668.92 C59.26 668.92 60.4 670.06 60.4 671.8 L60.4 700.65 C60.4 702.39 59.26 703.53 57.52
							 703.53 L2.88 703.53 C1.14 703.53 0 702.39 0 700.65 L0 671.8 C0 670.06 1.14 668.92 2.88 668.92 Z"
						class="st14"/>
			</g>
			<g id="group114-133" transform="translate(12.943,-1.68673)">
				<g id="shape115-134" transform="translate(0.719057,-0.721139)">
					<path d="M1.44 703.53 C0.65 703.53 0 702.88 0 702.09 C0 701.3 0.65 700.65 1.44 700.65 L14.38 700.65 L14.38 694.16
								 C14.38 692.96 15.34 691.99 16.54 691.99 L25.17 691.99 C26.36 691.99 27.32 692.96 27.32 694.16 L27.32
								 700.65 L40.27 700.65 C41.06 700.65 41.71 701.3 41.71 702.09 C41.71 702.88 41.06 703.53 40.27 703.53
								 L1.44 703.53 Z" class="st15"/>
				</g>
				<g id="shape116-136">
					<path d="M25.89 691.99 C26.68 691.99 27.32 692.64 27.32 693.44 L27.32 699.21 L27.32 700.65 L28.76 700.65 L40.99
								 700.65 C41.39 700.65 41.71 700.96 41.71 701.37 C41.71 701.77 41.39 702.09 40.99 702.09 L25.89 702.09
								 L17.26 702.09 L2.16 702.09 C1.75 702.09 1.44 701.77 1.44 701.37 C1.44 700.96 1.75 700.65 2.16 700.65
								 L14.38 700.65 L15.82 700.65 L15.82 699.21 L15.82 693.44 C15.82 692.64 16.47 691.99 17.26 691.99
								 L25.89 691.99 ZM25.89 690.55 L17.26 690.55 C15.68 690.55 14.38 691.84 14.38 693.44 L14.38 699.21
								 L2.16 699.21 C0.96 699.21 0 700.17 0 701.37 C0 702.57 0.96 703.53 2.16 703.53 L17.26 703.53 L25.89
								 703.53 L40.99 703.53 C42.18 703.53 43.14 702.57 43.14 701.37 C43.14 700.17 42.18 699.21 40.99 699.21
								 L28.76 699.21 L28.76 693.44 C28.76 691.84 27.48 690.55 25.89 690.55 Z" class="st15"/>
				</g>
			</g>
			<g id="group117-138" transform="translate(67.2013,-35.4696)">
				<g id="shape118-139" transform="translate(0.540308,-0.543084)">
					<path d="M9.19 703.53 C4.12 703.53 0 699.39 0 694.3 C0 689.21 4.12 685.07 9.19 685.07 C14.25 685.07 18.37 689.21
								 18.37 694.3 C18.37 699.39 14.25 703.53 9.19 703.53 Z" class="st16"/>
				</g>
				<g id="shape119-141">
					<path d="M9.73 685.07 C14.49 685.07 18.37 688.97 18.37 693.76 C18.37 698.55 14.49 702.45 9.73 702.45 C4.96 702.45
								 1.08 698.55 1.08 693.76 C1.08 688.97 4.96 685.07 9.73 685.07 ZM9.73 683.98 C4.35 683.98 0 688.36
								 0 693.76 C0 699.15 4.35 703.53 9.73 703.53 C15.1 703.53 19.45 699.15 19.45 693.76 C19.45 688.36
								 15.1 683.98 9.73 683.98 Z" class="st16"/>
				</g>
			</g>
			<g id="group120-143" transform="translate(57.4758,-3.41061E-13)">
				<g id="shape121-144" transform="translate(0.540308,-0.543084)">
					<path d="M1.62 703.53 C0.72 703.53 0 702.8 0 701.9 L0 675.83 C0 674.93 0.72 674.21 1.62 674.21 L11.94 674.21
								 L18.91 687.9 L25.72 674.21 L36.2 674.21 C37.1 674.21 37.82 674.93 37.82 675.83 L37.82 701.9 C37.82
								 702.8 37.1 703.53 36.2 703.53 L1.62 703.53 Z" class="st17"/>
				</g>
				<g id="shape122-146">
					<path d="M36.74 674.21 C37.34 674.21 37.82 674.69 37.82 675.29 L37.82 701.36 C37.82 701.96 37.34 702.45 36.74
								 702.45 L2.16 702.45 C1.57 702.45 1.08 701.96 1.08 701.36 L1.08 675.29 C1.08 674.69 1.57 674.21 2.16
								 674.21 L12.16 674.21 L18.49 686.65 L19.46 688.56 L20.41 686.64 L26.6 674.21 L36.74 674.21 ZM36.74
								 673.12 L25.93 673.12 L19.45 686.15 L12.82 673.12 L2.16 673.12 C0.97 673.12 0 674.1 0 675.29 L0 701.36
								 C0 702.57 0.97 703.53 2.16 703.53 L36.74 703.53 C37.94 703.53 38.9 702.57 38.9 701.36 L38.9 675.29
								 C38.9 674.1 37.94 673.12 36.74 673.12 Z" class="st17"/>
				</g>
			</g>
		</g>
		<g id="shape123-148" transform="translate(32.435,-618.048)">
			<rect x="0" y="686.524" width="70.8661" height="17.0079" class="st8"/>
			<text x="15.26" y="697.72" class="st2">Workstation</text>		</g>
		<g id="shape139-151" transform="translate(438.498,-651.374)">
			<path d="M0 696.45 L-72.39 696.45" class="st18"/>
		</g>
		<g id="shape141-157" transform="translate(19.6791,-536.571)">
			<rect x="0" y="659.211" width="70.8661" height="44.3212" class="st8"/>
			<text x="4" y="670.41" class="st2">Web Tier <tspan x="4" dy="1.2em" class="st20">Public Zone</tspan><tspan x="4" dy="2.4em" class="st20">Firewall</tspan></text>
    </g>
		<g id="shape142-162" transform="translate(325.112,-498.303)">
			<rect x="0" y="622.745" width="79.3701" height="80.7874" class="st8"/>
			<text x="35" y="643.54" class="st2">Ports Open  <tspan x="30" dy="2.4em" class="st20">HTTPS </tspan>(443) <tspan
						x="35" dy="1.2em" class="st20">SSH </tspan>(1522) <tspan x="19.8" dy="1.2em" class="st20">SQL</tspan>*Net (7021) <tspan
						x="1" dy="1.2em" class="st20">LDAP</tspan>(S) (7389/7636)</text>
    </g>
		<g id="group145-169" transform="translate(353.459,-555.38) scale(-1,1)">
			<g id="shape146-170" transform="translate(33.0964,1368.16) rotate(180)">
				<path d="M17.8 681.84 L32.18 681.84 L1.67 703.53 L13.79 686.33 L0 686.33 L29.67 665.38 L17.8 681.84 Z" class="st10"/>
			</g>
			<g id="shape147-172">
				<path d="M2.59 703.53 C2.38 703.53 2.17 703.46 2.05 703.35 C1.76 703.08 1.67 702.71 1.88 702.37 L13.21 686.33 L0.92
							 686.33 C0.54 686.33 0.25 686.14 0.13 685.84 C0 685.54 0.13 685.2 0.42 685.02 L30.09 664.07 C30.42 663.85
							 30.88 663.85 31.17 664.11 C31.47 664.37 31.55 664.74 31.3 665.08 L20.27 680.34 L33.1 680.34 C33.47 680.34
							 33.77 680.53 33.89 680.83 C34.02 681.13 33.89 681.46 33.64 681.65 L3.13 703.35 C2.97 703.49 2.76 703.53
							 2.59 703.53 ZM3.34 684.83 L14.71 684.83 C15 684.83 15.29 684.98 15.46 685.2 C15.63 685.43 15.59 685.73
							 15.42 685.95 L5.93 699.46 L30.71 681.84 L18.72 681.84 C18.43 681.84 18.14 681.69 17.97 681.46 C17.8
							 681.24 17.84 680.94 18.01 680.72 L27.16 668 L3.34 684.83 Z" class="st11"/>
			</g>
			<g id="group148-174" transform="translate(6.35184,-4.48841)">
				<g id="shape149-175">
					<path d="M0 703.53 L24.24 686.33 L18.39 686.33 L0 703.53 Z" class="st12"/>
				</g>
				<g id="shape150-177" transform="translate(7.93979,-17.9536)">
					<path d="M13.37 690.07 L0 703.53 L1.8 703.53 C2.76 703.53 3.68 703.08 4.22 702.37 L13.37 690.07 Z" class="st12"/>
				</g>
			</g>
		</g>
		<g id="shape151-179" transform="translate(242.632,-558.215)">
			<rect x="0" y="686.524" width="70.8661" height="17.0079" class="st8"/>
			<text x="15.73" y="697.72" class="st2">HTTPS (443)</text>
    </g>
		<g id="shape267-182" transform="translate(95.5058,-394.322)">
			<path d="M7.09 703.53 L7.09 663.85" class="st21"/>
			<rect x="-22.4644" y="678.89" width="59.1023" height="9.59985" class="st22"/>
			<text x="-22.46" y="686.09" class="st2">HTTP (7003/8009)</text>		</g>
		<g id="shape269-187" transform="translate(105.427,-207.873)">
			<rect x="0" y="622.745" width="76.5354" height="80.7874" class="st1"/>
			<text x="10.82" y="635.74" class="st6">MServer oam</text>		</g>
		<g id="shape270-190" transform="translate(108.262,-231.968)">
			<rect x="0" y="686.524" width="70.8661" height="17.0079" class="st7"/>
			<text x="4.22" y="697.72" class="st2">Identity Federation</text>		</g>
		<g id="shape271-193" transform="translate(108.262,-251.81)">
			<rect x="0" y="686.524" width="70.8661" height="17.0079" class="st7"/>
			<text x="13.3" y="697.72" class="st2">Access Server</text>		</g>
		<g id="shape272-196" transform="translate(108.262,-212.125)">
			<rect x="0" y="686.524" width="70.8661" height="17.0079" class="st8"/>
			<text x="20.21" y="697.72" class="st2">JRF/OPSS</text>		</g>
		<g id="shape273-199" transform="translate(447.711,-394.322)">
			<path d="M7.09 703.53 L7.09 663.85" class="st21"/>
			<rect x="-32.119" y="678.89" width="78.4113" height="9.59985" class="st22"/>
			<text x="-32.12" y="686.09" class="st2">HTTP (7005/8003/8008)</text>		</g>
		<g id="shape78-204" transform="translate(93.8128,-435.861)">
			<rect x="0" y="643.591" width="368.504" height="59.9414" class="st23"/>
			<text x="155.73" y="656.59" class="st6">Load Balancer</text>		</g>
		<g id="shape79-207" transform="translate(98.3405,-439.856)">
			<rect x="0" y="686.524" width="175.748" height="17.0079" class="st7"/>
			<text x="72.45" y="697.72" class="st2">WebGate</text>		</g>
		<g id="shape80-210" transform="translate(279.758,-439.856)">
			<rect x="0" y="686.524" width="175.748" height="17.0079" class="st7"/>
			<text x="70.78" y="697.72" class="st2">WLS Proxy</text>		</g>
		<g id="shape276-213" transform="translate(173.459,-434.007)">
			<path d="M7.09 703.53 L7.09 743.22" class="st21"/>
			<rect x="-10.4778" y="719.63" width="35.1291" height="9.59985" class="st22"/>
			<text x="-10.48" y="726.83" class="st2">OAP(5575)</text>		</g>
		<g id="shape312-218" transform="translate(19.2665,-142.677)">
			<rect x="0" y="686.524" width="517.596" height="17.0079" class="st24"/>
			<text x="219.95" y="697.72" class="st2">www.cinnamonstar.dev</text>		</g>
		<g id="shape284-221" transform="translate(98.3405,-456.864)">
			<rect x="0" y="686.524" width="79.3701" height="17.0079" class="st24"/>
			<text x="4.48" y="697.72" class="st2">iad.cinnamonstar.dev</text>		</g>
		<g id="shape285-224" transform="translate(238.38,-456.864)">
			<rect x="0" y="686.524" width="79.3701" height="17.0079" class="st24"/>
			<text x="4.52" y="697.72" class="st2">igd.cinnamonstar.dev</text>		</g>
		<g id="shape286-227" transform="translate(376.136,-456.864)">
			<rect x="0" y="686.524" width="79.3701" height="17.0079" class="st25"/>
			<text x="4.71" y="697.72" class="st2">icd.cinnamonstar.dev</text>		</g>
		<g id="shape290-230" transform="translate(136.608,-161.881)">
			<path d="M7.09 703.53 L7.09 666.68" class="st21"/>
			<rect x="-12.8763" y="680.307" width="39.926" height="9.59985" class="st22"/>
			<text x="-12.88" y="687.51" class="st2">LDAP (7389)</text>		</g>
		<g id="shape291-235" transform="translate(55.8208,-161.881)">
			<path d="M7.09 703.53 L7.09 666.68" class="st21"/>
			<rect x="-18.468" y="680.307" width="51.1095" height="9.59985" class="st22"/>
			<text x="-18.47" y="687.51" class="st2">SQL*Net (7021)</text>		</g>
		<g id="shape292-240" transform="translate(230.86,-161.881)">
			<path d="M7.09 703.53 L7.09 666.68" class="st21"/>
			<rect x="-18.468" y="680.307" width="51.1095" height="9.59985" class="st22"/>
			<text x="-18.47" y="687.51" class="st2">SQL*Net (7021)</text>		</g>
		<g id="shape293-245" transform="translate(310.23,-161.881)">
			<path d="M7.09 703.53 L7.09 666.68" class="st21"/>
			<rect x="-18.468" y="680.307" width="51.1095" height="9.59985" class="st22"/>
			<text x="-18.47" y="687.51" class="st2">SQL*Net (7021)</text>		</g>
		<g id="shape294-250" transform="translate(408.026,-161.881)">
			<path d="M7.09 703.53 L7.09 666.68" class="st21"/>
			<rect x="-18.468" y="680.307" width="51.1095" height="9.59985" class="st22"/>
			<text x="-18.47" y="687.51" class="st2">SQL*Net (7021)</text>		</g>
		<g id="shape295-255" transform="translate(487.396,-161.881)">
			<path d="M7.09 703.53 L7.09 666.68" class="st21"/>
			<rect x="-18.468" y="680.307" width="51.1095" height="9.59985" class="st22"/>
			<text x="-18.47" y="687.51" class="st2">SQL*Net (7021)</text>		</g>
		<g id="group301-260" transform="translate(184.578,-595.834)">
			<g id="group91-261" transform="translate(40.3641,-8.91374)">
				<g id="shape92-262" transform="translate(-0.937988,-10.0893)">
					<path d="M108.64 703.53 C121.88 702.47 132.42 691.14 132.42 678.03 C132.42 664.24 120.83 653.02 106.6 653.02
								 C105.33 653.02 104.01 653.13 102.79 653.3 C99.37 643.42 89.66 636.28 78.29 636.28 C75.87 636.28
								 73.49 636.61 71.23 637.23 C66.71 630.08 58.54 625.34 49.22 625.34 C34.98 625.34 23.39 636.56 23.39
								 650.34 C23.39 651.57 23.5 652.74 23.67 653.92 C10.43 654.81 0 665.47 0 678.47 C0 692.03 11.37 703.53
								 25.44 703.53 L108.64 703.53 Z" class="st26"/>
				</g>
			</g>
			<g id="group89-264">
				<g id="shape90-265">
					<path d="M85.36 703.53 C95.77 702.7 104.05 693.8 104.05 683.49 C104.05 672.66 94.94 663.85 83.76 663.85 C82.76
								 663.85 81.72 663.93 80.77 664.07 C78.08 656.3 70.45 650.69 61.52 650.69 C59.61 650.69 57.75 650.95
								 55.97 651.44 C52.41 645.82 46 642.1 38.67 642.1 C27.49 642.1 18.38 650.91 18.38 661.74 C18.38 662.71
								 18.47 663.63 18.6 664.55 C8.19 665.25 0 673.63 0 683.84 C0 694.5 8.93 703.53 19.99 703.53 L85.36
								 703.53 Z" class="st27"/>
				</g>
			</g>
			<g id="group87-267" transform="translate(54.5521,-1.13687E-13)">
				<g id="shape88-268">
					<path d="M108.64 703.53 C121.88 702.47 132.42 691.14 132.42 678.03 C132.42 664.24 120.83 653.02 106.6 653.02
								 C105.33 653.02 104.01 653.13 102.79 653.3 C99.37 643.42 89.66 636.28 78.29 636.28 C75.87 636.28
								 73.49 636.61 71.23 637.23 C66.71 630.08 58.54 625.34 49.22 625.34 C34.98 625.34 23.39 636.56 23.39
								 650.34 C23.39 651.57 23.5 652.74 23.67 653.92 C10.43 654.81 0 665.47 0 678.47 C0 692.03 11.37 703.53
								 25.44 703.53 L108.64 703.53 Z" class="st26"/>
				</g>
			</g>
		</g>
		<g id="shape138-270" transform="translate(118.183,-651.374)">
			<path d="M0 696.45 L92.24 696.45" class="st18"/>
		</g>
		<g id="group304-275" transform="translate(286.42,-16.6766)">
			<g id="shape305-276">
				<path d="M30.9 657.35 C37.27 657.35 43.16 656.68 48.69 655.46 C54.22 654.12 58.55 652.23 61.79 649.67 L61.79 657.35
							 C61.79 659.37 60.47 661.39 57.71 663.14 C54.94 664.89 51.22 666.37 46.41 667.31 C41.6 668.25 36.55 668.93
							 30.9 668.93 C25.25 668.93 20.2 668.39 15.39 667.31 C10.58 666.24 6.85 664.89 4.09 663.14 C1.32 661.39
							 0 659.5 0 657.35 L0 649.67 C3.25 652.23 7.57 654.12 13.1 655.46 C18.63 656.68 24.53 657.35 30.9 657.35
							 ZM30.9 691.95 C37.27 691.95 43.16 691.28 48.69 690.07 C54.22 688.72 58.55 686.84 61.79 684.28 L61.79
							 691.95 C61.79 693.97 60.47 695.99 57.71 697.74 C54.94 699.49 51.22 700.97 46.41 701.92 C41.6 702.86
							 36.43 703.53 30.9 703.53 C25.37 703.53 20.2 702.99 15.39 701.92 C10.58 700.84 6.85 699.49 4.09 697.74
							 C1.32 695.99 0 694.11 0 691.95 L0 684.28 C3.25 686.84 7.57 688.72 13.1 690.07 C18.63 691.28 24.53 691.95
							 30.9 691.95 ZM30.9 674.72 C37.27 674.72 43.16 674.04 48.69 672.83 C54.22 671.62 58.55 669.6 61.79 667.04
							 L61.79 674.72 C61.79 676.74 60.47 678.76 57.71 680.51 C54.94 682.26 51.22 683.74 46.41 684.68 C41.6
							 685.76 36.55 686.3 30.9 686.3 C25.25 686.3 20.2 685.76 15.39 684.68 C10.58 683.6 6.85 682.26 4.09 680.51
							 C1.32 678.76 0 676.87 0 674.72 L0 667.04 C3.25 669.6 7.57 671.49 13.1 672.83 C18.63 674.18 24.53 674.72
							 30.9 674.72 ZM30.9 622.74 C36.43 622.74 41.6 623.28 46.41 624.36 C51.22 625.44 54.94 626.78 57.71 628.53
							 C60.47 630.28 61.79 632.17 61.79 634.32 L61.79 640.11 C61.79 642.13 60.47 644.15 57.71 645.9 C54.94
							 647.65 51.22 649.14 46.41 650.08 C41.6 651.02 36.55 651.69 30.9 651.69 C25.25 651.69 20.2 651.15 15.39
							 650.08 C10.58 649 6.85 647.65 4.09 645.9 C1.32 644.15 0 642.27 0 640.11 L0 634.32 C0 632.3 1.32 630.28
							 4.09 628.53 C6.85 626.78 10.58 625.3 15.39 624.36 C20.2 623.28 25.37 622.74 30.9 622.74 Z"
						class="st13"/>
			</g>
		</g>
		<g id="group306-278" transform="translate(97.8183,-16.6766)">
			<g id="shape307-279">
				<path d="M0 689.17 L0 701.17 C0 702.47 1.2 703.53 2.69 703.53 L40.5 703.53 C41.99 703.53 43.19 702.47 43.19 701.17
							 L43.19 689.17 L0 689.17 Z" class="st28"/>
			</g>
			<g id="shape308-281" transform="translate(24.3719,-66.4287)">
				<path d="M40.32 693.91 L19.93 693.91 L15.34 689.87 C14.84 689.42 14.15 689.17 13.44 689.17 L2.69 689.17 C1.2 689.17
							 0 690.23 0 691.54 L0 703.53 L43.01 703.53 L43.01 696.27 C43.01 694.97 41.81 693.91 40.32 693.91 Z"
						class="st28"/>
			</g>
			<g id="shape309-283" transform="translate(0,-19.0923)">
				<path d="M89.06 694.06 L80.82 694.06 L80.82 682.23 C80.82 680.92 79.62 679.86 78.13 679.86 L48.56 679.86 L48.56 675.13
							 L64.69 675.13 C66.18 675.13 67.38 674.07 67.38 672.76 L67.38 660.93 L24.37 660.93 L24.37 672.76 C24.37
							 674.07 25.57 675.13 27.06 675.13 L43.19 675.13 L43.19 679.86 L13.62 679.86 C12.13 679.86 10.93 680.92
							 10.93 682.23 L10.93 689.33 L2.69 689.33 C1.2 689.33 0 690.39 0 691.7 L0 703.53 L43.19 703.53 L43.19
							 696.43 C43.19 695.12 41.99 694.06 40.5 694.06 L20.11 694.06 L16.31 690.72 L16.31 684.6 L75.45 684.6
							 L75.45 694.06 L68.49 694.06 L63.91 690.02 C63.4 689.58 62.72 689.33 62 689.33 L51.25 689.33 C49.77 689.33
							 48.56 690.39 48.56 691.7 L48.56 703.53 L91.75 703.53 L91.75 696.43 C91.75 695.12 90.55 694.06 89.06
							 694.06 Z" class="st28"/>
			</g>
			<g id="shape310-285" transform="translate(48.5646,0)">
				<path d="M0 689.17 L0 701.17 C0 702.47 1.2 703.53 2.69 703.53 L40.5 703.53 C41.99 703.53 43.19 702.47 43.19 701.17
							 L43.19 689.17 L0 689.17 Z" class="st28"/>
			</g>
		</g>
		<g id="shape311-287" transform="translate(136.608,-99.5191)">
			<path d="M7.09 703.53 L7.09 663.85" class="st21"/>
			<rect x="-12.8763" y="678.89" width="39.926" height="9.59985" class="st22"/>
			<text x="-12.88" y="686.09" class="st2">LDAP (7389)</text>		</g>
		<g id="shape313-292" transform="translate(310.23,-99.5191)">
			<path d="M7.09 703.53 L7.09 663.85" class="st21"/>
			<rect x="-18.468" y="678.89" width="51.1095" height="9.59985" class="st22"/>
			<text x="-18.47" y="686.09" class="st2">SQL*Net (7021)</text>		</g>
		<g id="shape314-297" transform="translate(354.876,-81.0939)">
			<rect x="0" y="672.351" width="183" height="31.1811" class="st5"/>
			<text x="4" y="685.35" class="st6">IGD Scheme</text>		</g>
		<g id="shape315-300" transform="translate(354.876,-48.4955)">
			<rect x="0" y="672.351" width="183" height="31.1811" class="st3"/>
			<text x="4" y="685.35" class="st6">IAD Scheme</text>		</g>
		<g id="shape316-303" transform="translate(354.876,-15.897)">
			<rect x="0" y="672.351" width="183" height="31.1811" class="st9"/>
			<text x="4" y="685.35" class="st6">ICD Scheme</text>		</g>
		<g id="shape317-306" transform="translate(360.545,-81.0734)">
			<rect x="0" y="686.524" width="155.906" height="17.0079" class="st8"/>
			<text x="4" y="697.72" class="st2">SVC,WLS,OPSS,OWSM,MDS,OIM,SOAINFRA</text>		</g>
		<g id="shape318-309" transform="translate(360.545,-48.4955)">
			<rect x="0" y="686.524" width="155.906" height="17.0079" class="st8"/>
			<text x="4" y="697.72" class="st2">SVC,WLS,OPSS,OWSM,MDS,OAM,AUD</text>		</g>
		<g id="shape319-312" transform="translate(360.545,-15.897)">
			<rect x="0" y="686.524" width="155.906" height="17.0079" class="st8"/>
			<text x="4" y="697.72" class="st2">SVC,WLS,OPSS,OWSM</text>		</g>
		<g id="shape143-315" transform="translate(407.317,-554.053)">
			<path d="M0 696.54 L130.39 696.36" class="st29"/>
		</g>
		<g id="shape144-318" transform="translate(412.183,-562.467)">
			<path d="M0 696.45 L117.06 696.45" class="st29"/>
		</g>
		<g id="shape140-321" transform="translate(24.6397,-545.459)">
			<path d="M0 696.45 L517.6 696.45" class="st29"/>
		</g>
		<g id="shape327-324" transform="translate(270.978,-394.322)">
			<path d="M7.09 703.53 L7.09 663.85" class="st21"/>
			<rect x="-32.119" y="678.89" width="78.4113" height="9.59985" class="st22"/>
			<text x="-32.12" y="686.09" class="st2">HTTP (7001/8001/8005)</text>		</g>
		<g id="group339-329" transform="translate(445.858,-634.751)">
			<g id="group340-330" transform="translate(0,-16.3167)">
				<g id="shape341-331" transform="translate(0.71652,-0.738783)">
					<path d="M2.15 703.53 C0.8 703.53 0 702.7 0 701.32 L0 655.51 C0 654.12 0.8 653.29 2.15 653.29 L65.2 653.29 C66.55
								 653.29 67.35 654.12 67.35 655.51 L67.35 701.32 C67.35 702.7 66.55 703.53 65.2 703.53 L2.15 703.53
								 Z" class="st13"/>
				</g>
				<g id="shape342-333">
					<path d="M65.92 653.29 C66.85 653.29 67.35 653.81 67.35 654.77 L67.35 700.58 C67.35 701.54 66.85 702.05 65.92
								 702.05 L2.87 702.05 C1.93 702.05 1.43 701.54 1.43 700.58 L1.43 654.77 C1.43 653.81 1.93 653.29 2.87
								 653.29 L65.92 653.29 ZM65.92 651.82 L2.87 651.82 C1.13 651.82 0 652.98 0 654.77 L0 700.58 C0 702.36
								 1.13 703.53 2.87 703.53 L65.92 703.53 C67.65 703.53 68.79 702.36 68.79 700.58 L68.79 654.77 C68.79
								 652.98 67.65 651.82 65.92 651.82 Z" class="st13"/>
				</g>
			</g>
			<g id="shape343-335" transform="translate(4.29912,-28.1372)">
				<path d="M2.87 668.07 L57.32 668.07 C59.06 668.07 60.19 669.24 60.19 671.03 L60.19 700.58 C60.19 702.36 59.06 703.53
							 57.32 703.53 L2.87 703.53 C1.13 703.53 0 702.36 0 700.58 L0 671.03 C0 669.24 1.13 668.07 2.87 668.07
							 Z" class="st14"/>
			</g>
			<g id="group344-337" transform="translate(12.8974,-0.0634368)">
				<g id="shape345-338" transform="translate(0.71652,-0.738783)">
					<path d="M1.43 703.53 C0.64 703.53 0 702.87 0 702.05 C0 701.24 0.64 700.58 1.43 700.58 L14.33 700.58 L14.33 693.93
								 C14.33 692.7 15.29 691.71 16.48 691.71 L25.08 691.71 C26.27 691.71 27.23 692.7 27.23 693.93 L27.23
								 700.58 L40.13 700.58 C40.91 700.58 41.56 701.24 41.56 702.05 C41.56 702.87 40.91 703.53 40.13 703.53
								 L1.43 703.53 Z" class="st15"/>
				</g>
				<g id="shape346-340">
					<path d="M25.79 691.71 C26.58 691.71 27.23 692.38 27.23 693.19 L27.23 699.1 L27.23 700.58 L28.66 700.58 L40.84
								 700.58 C41.24 700.58 41.56 700.9 41.56 701.32 C41.56 701.73 41.24 702.05 40.84 702.05 L25.79 702.05
								 L17.2 702.05 L2.15 702.05 C1.75 702.05 1.43 701.73 1.43 701.32 C1.43 700.9 1.75 700.58 2.15 700.58
								 L14.33 700.58 L15.76 700.58 L15.76 699.1 L15.76 693.19 C15.76 692.38 16.41 691.71 17.2 691.71 L25.79
								 691.71 ZM25.79 690.23 L17.2 690.23 C15.62 690.23 14.33 691.55 14.33 693.19 L14.33 699.1 L2.15 699.1
								 C0.96 699.1 0 700.09 0 701.32 C0 702.54 0.96 703.53 2.15 703.53 L17.2 703.53 L25.79 703.53 L40.84
								 703.53 C42.03 703.53 42.99 702.54 42.99 701.32 C42.99 700.09 42.03 699.1 40.84 699.1 L28.66 699.1
								 L28.66 693.19 C28.66 691.55 27.39 690.23 25.79 690.23 Z" class="st15"/>
				</g>
			</g>
			<g id="group347-342" transform="translate(55.8642,0)">
				<g id="group348-343" transform="translate(10.1284,-34.8105)">
					<g id="shape349-344" transform="translate(0.562691,-0.580174)">
						<path d="M9.57 703.53 C4.29 703.53 0 699.11 0 693.67 C0 688.23 4.29 683.81 9.57 683.81 C14.84 683.81 19.13
									 688.23 19.13 693.67 C19.13 699.11 14.84 703.53 9.57 703.53 Z" class="st30"/>
					</g>
					<g id="shape350-346">
						<path d="M10.13 683.81 C15.09 683.81 19.13 687.97 19.13 693.09 C19.13 698.21 15.09 702.37 10.13 702.37 C5.17
									 702.37 1.13 698.21 1.13 693.09 C1.13 687.97 5.17 683.81 10.13 683.81 ZM10.13 682.65 C4.54 682.65
									 0 687.32 0 693.09 C0 698.86 4.54 703.53 10.13 703.53 C15.72 703.53 20.26 698.86 20.26 693.09
									 C20.26 687.32 15.72 682.65 10.13 682.65 Z" class="st31"/>
					</g>
				</g>
				<g id="group351-348">
					<g id="shape352-349" transform="translate(0.562691,-0.580174)">
						<path d="M1.69 703.53 C0.75 703.53 0 702.75 0 701.79 L0 673.94 C0 672.98 0.75 672.2 1.69 672.2 L12.44 672.2
									 L19.69 686.83 L26.78 672.2 L37.7 672.2 C38.63 672.2 39.39 672.98 39.39 673.94 L39.39 701.79
									 C39.39 702.75 38.63 703.53 37.7 703.53 L1.69 703.53 Z" class="st32"/>
					</g>
					<g id="shape353-351">
						<path d="M38.26 672.2 C38.88 672.2 39.39 672.72 39.39 673.36 L39.39 701.21 C39.39 701.85 38.88 702.37 38.26
									 702.37 L2.25 702.37 C1.63 702.37 1.13 701.85 1.13 701.21 L1.13 673.36 C1.13 672.72 1.63 672.2
									 2.25 672.2 L12.66 672.2 L19.26 685.5 L20.27 687.54 L21.26 685.49 L27.71 672.2 L38.26 672.2 ZM38.26
									 671.04 L27.01 671.04 L20.26 684.97 L13.35 671.04 L2.25 671.04 C1.01 671.04 0 672.09 0 673.36
									 L0 701.21 C0 702.5 1.01 703.53 2.25 703.53 L38.26 703.53 C39.51 703.53 40.51 702.5 40.51 701.21
									 L40.51 673.36 C40.51 672.09 39.51 671.04 38.26 671.04 Z" class="st33"/>
					</g>
				</g>
			</g>
		</g>
		<g id="shape354-353" transform="translate(473.182,-618.048)">
			<rect x="0" y="686.524" width="70.8661" height="17.0079" class="st8"/>
			<text x="4.63" y="697.72" class="st2">Technical Manager</text>		</g>
		<g id="shape355-356" transform="translate(431,-621.094)">
			<path d="M0 703.53 L0 748.89" class="st21"/>
			<rect x="-20.52" y="721.409" width="35.215" height="9.59985" class="st22"/>
			<text x="-20.52" y="728.61" class="st2">SSH (1522)</text>		</g>
		<g id="shape356-361" transform="translate(528,-621.094)">
			<path d="M0 703.53 L0 748.89" class="st34"/>
			<rect x="-18.47" y="721.409" width="51.1095" height="9.59985" class="st22"/>
			<text x="-18.47" y="728.61" class="st35">SQL*Net (7021)</text>		</g>
		<g id="shape357-366" transform="translate(470,-621.094)">
			<path d="M8 703.53 L8 748.89" class="st34"/>
			<rect x="-14.71" y="721.409" width="43.6017" height="9.59985" class="st22"/>
			<text x="-14.71" y="728.61" class="st35">LDAPS (7636)</text>		</g>
		<g id="shape358-371" transform="translate(431,-546.826)">
			<path d="M0 703.53 L0 748.89" class="st21"/>
			<rect x="-20.52" y="721.409" width="35.215" height="9.59985" class="st22"/>
			<text x="-20.52" y="728.61" class="st2">SSH (1522)</text>		</g>
		<g id="shape359-376" transform="translate(528,-546.826)">
			<path d="M2 703.53 L2 748.89" class="st34"/>
			<rect x="-18.47" y="721.409" width="51.1095" height="9.59985" class="st22"/>
			<text x="-18.47" y="728.61" class="st35">SQL*Net (7021)</text>		</g>
		<g id="shape360-381" transform="translate(470,-546.826)">
			<path d="M8 703.53 L8 748.89" class="st34"/>
			<rect x="-14.71" y="721.409" width="43.6017" height="9.59985" class="st22"/>
			<text x="-14.71" y="728.61" class="st35">LDAPS (7636)</text>		</g>
		<g id="shape361-386" transform="translate(270.978,-546.826)">
			<path d="M0 703.53 L0 748.89" class="st21"/>
			<rect x="-12.62" y="721.409" width="39.4143" height="9.59985" class="st22"/>
			<text x="-12.62" y="728.61" class="st2">HTTPS (443)</text>		</g>
	</g>
</svg>