<svg id="Layer_1" data-name="Layer 1" xmlns="http://www.w3.org/2000/svg" viewBox="0 0 42 42">
    <defs>
        <style>
            .cls-1{fill:#fff}.cls-2{fill:#AE562C}
        </style>
    </defs>
    <rect class="cls-1" x=".5" y=".5" width="41" height="41" rx="2.38"/>
    <path class="cls-1" d="M39.13 1A1.88 1.88 0 0 1 41 2.88v36.25A1.87 1.87 0 0 1 39.13 41H2.88A1.88 1.88 0 0 1 1 39.13V2.88A1.88 1.88 0 0 1 2.88 1h36.25m0-1H2.88A2.88 2.88 0 0 0 0 2.88v36.25A2.88 2.88 0 0 0 2.88 42h36.25A2.88 2.88 0 0 0 42 39.13V2.88A2.88 2.88 0 0 0 39.13 0Z"/>
    <path class="cls-2" d="M39.13 1H2.88A1.88 1.88 0 0 0 1 2.88v36.25A1.88 1.88 0 0 0 2.88 41h36.25A1.87 1.87 0 0 0 41 39.13V2.88A1.88 1.88 0 0 0 39.13 1ZM2.88 2.67h36.25a.2.2 0 0 1 .2.21v4.79H2.67V2.88a.21.21 0 0 1 .21-.21Zm36.25 36.66H2.88a.2.2 0 0 1-.21-.2V9.33h36.66v29.8a.2.2 0 0 1-.2.2Z"/>
    <circle class="cls-2" cx="5.48" cy="5.31" r="1.04"/>
    <circle class="cls-2" cx="9.16" cy="5.31" r="1.04"/>
    <circle class="cls-2" cx="12.77" cy="5.31" r="1.04"/>
    <path class="cls-2" d="M21 17.9a6.23 6.23 0 1 0 6.23 6.23A6.23 6.23 0 0 0 21 17.9Zm0 10.79a4.57 4.57 0 1 1 4.56-4.56A4.56 4.56 0 0 1 21 28.69Z"/>
    <path class="cls-2" d="m30.67 19.74 2-2.5-4.78-4.79-2.5 2-.65-.27-.36-3.18h-6.76l-.36 3.18-.65.27-2.5-2-4.78 4.79 2 2.5c-.1.21-.19.43-.27.65l-3.18.35v6.77l3.18.35c.08.22.17.44.27.65l-2 2.5 4.78 4.79 2.5-2 .65.27.36 3.18h6.76l.36-3.18.65-.27 2.5 2 4.78-4.8-2-2.5c.1-.21.19-.43.27-.65l3.19-.35v-6.76l-3.19-.35c-.08-.22-.17-.39-.27-.65ZM32.46 26l-2.76.3-.17.52a9 9 0 0 1-.58 1.4l-.25.48 1.74 2.17-2.67 2.67-2.17-1.71-.49.25a9.15 9.15 0 0 1-1.4.58l-.51.16-.31 2.76h-3.78l-.31-2.76-.51-.16a9.15 9.15 0 0 1-1.4-.58l-.49-.25-2.17 1.73-2.67-2.67 1.74-2.17-.25-.48a9 9 0 0 1-.58-1.4l-.17-.52L9.54 26v-3.77l2.76-.3.17-.52a9 9 0 0 1 .58-1.4l.25-.48-1.74-2.17 2.67-2.67 2.17 1.73.49-.25a9.15 9.15 0 0 1 1.4-.58l.51-.16.31-2.76h3.78l.31 2.76.51.16a9.15 9.15 0 0 1 1.4.58l.49.25 2.17-1.73 2.67 2.67-1.74 2.17.3.47a9 9 0 0 1 .58 1.4l.17.52 2.76.3Z"/>
</svg>
