<!-- Created with Inkscape (http://www.inkscape.org/) -->
<svg xmlns:rdf="http://www.w3.org/1999/02/22-rdf-syntax-ns#" xmlns="http://www.w3.org/2000/svg" height="530" width="530" version="1.0" xmlns:cc="http://creativecommons.org/ns#" xmlns:dc="http://purl.org/dc/elements/1.1/">
<metadata>
<rdf:RDF>
<cc:Work rdf:about="">
<dc:format>image/svg+xml</dc:format>
<dc:type rdf:resource="http://purl.org/dc/dcmitype/StillImage"/>
<dc:title/>
</cc:Work>
</rdf:RDF>
</metadata>
<path d="m103.59,325.37c-10.64,0-18.122-4.0664-20.054-10.898-0.0287-0.0765-0.04784-0.14352-0.06697-0.22006-0.91853-3.5402-0.22006-7.243,1.9997-10.697,4.296-6.6497,14.409-12.352,25.173-14.208,0,0,160.8-28.723,160.9-28.723,0.40185,0,0.77499,0.13395,1.1003,0.36358,0.40186,0.30618,0.66976,0.75587,0.73674,1.2534,0.36358,1.3969,0.55494,2.1911,0.57408,2.3728,0.0191,0.0383,0.0957,0.34445,0.45926,1.5309,0.28704,0.94723-0.22006,1.9423-1.1482,2.2772l-153.83,54.145c-5.0423,1.8084-10.668,2.8034-15.835,2.8034m154.87-55.974c-0.38272,0-0.77501-0.13395-1.1003-0.37315-0.37315-0.2679-0.63148-0.6889-0.7176-1.1482-0.22963-0.92809-0.38271-1.5787-0.47839-1.9901-0.1818-0.36358-0.30618-0.92809-0.59322-2.1337-0.21049-0.90895,0.29661-1.8466,1.1769-2.1624l153.83-54.145c5.0136-1.8084,10.62-2.813,15.797-2.813,10.764,0,18.256,4.1621,20.054,11.128,0.94723,3.5019,0.28704,7.2047-1.9136,10.649-4.3152,6.755-14.228,12.352-25.25,14.266,0,0-160.69,28.723-160.81,28.723m52.654,177.5c-10.601,0-19.394-14.027-21.777-27.575l-28.742-160.52c-0.16266-0.97593,0.4784-1.9232,1.4639-2.1241,0.22963-0.0574,4.1812-1.062,4.1812-1.062,0.15308-0.0383,0.30617-0.0574,0.44969-0.0574,0.76544,0,1.4735,0.4784,1.7318,1.2247l54.107,153.8c3.7028,10.314,3.7124,21.959,0.01,28.962-1.904,3.6071-4.7744,6.0182-8.2859,6.9272-0.98551,0.28704-2.0476,0.43056-3.1383,0.43056m-47.8-172.41c-0.76544,0-1.4735-0.48797-1.7318-1.2438l-54.12-153.83c-3.7506-10.506-3.7698-21.872-0.0478-28.934,1.8753-3.5497,4.6883-5.9417,8.1328-6.8985,0.0765-0.0287,0.16265-0.04784,0.22963-0.07654,1.0429-0.25834,2.0954-0.38272,3.1-0.38272,10.62,0,19.413,13.998,21.796,27.537l28.608,160.52c0.11482,0.59321-0.0765,1.196-0.5071,1.617-0.55495,0.57407-2.325,0.96636-3.3297,1.1482l-1.6361,0.45927c-0.16266,0.0478-0.32531,0.0765-0.48797,0.0765m3.9888-0.17884c-0.42099,0-0.85155-0.15309-1.196-0.44969l-123.81-106.13c-8.3337-7.0899-14.151-17.165-14.457-25.068-0.15308-4.0951,1.129-7.6352,3.722-10.199,2.4494-2.4207,5.6068-3.655,9.3958-3.655,8.0562,0,18.428,5.9226,25.824,14.725l105.1,124.66c0.33488,0.39229,0.4784,0.91853,0.41143,1.4352-0.067,0.5071-0.35402,0.97593-0.78458,1.263-0.13395,0.14352-2.9087,2.88-2.9087,2.88-0.35402,0.34445-0.82285,0.53581-1.2917,0.53581m121.62,126.9c-8.0658,0-18.39-5.9226-25.671-14.716l-105.13-124.65c-0.32531-0.39229-0.4784-0.88982-0.43056-1.3778,0.0574-0.5071,0.31575-0.9568,0.69846-1.263,0.19136-0.17222,1.5309-1.55,2.9374-2.9278,0.36359-0.35402,0.82285-0.53581,1.2917-0.53581,0.42099,0,0.85155,0.16266,1.196,0.45926l123.79,106.11c8.3528,7.109,14.17,17.184,14.495,25.097,0.17223,3.9994-1.0525,7.4439-3.5114,9.989-0.0957,0.13395-0.22007,0.24876-0.36359,0.35401-0.0861,0.0574-0.18179,0.12439-0.27747,0.16266-2.392,2.1911-5.425,3.301-9.0322,3.301m-246.95,0.95297c-3.7985,0-7.0899-1.2917-9.5201-3.7411-2.5929-2.6025-3.8559-6.1331-3.6645-10.228,0.36358-7.9032,6.2862-17.93,14.735-24.944l124.69-105.09c0.32532-0.28704,0.74631-0.44013,1.1864-0.44013,0.10525,0,0.22007,0.0191,0.33488,0.0287,0.54538,0.10524,1.0142,0.44012,1.2725,0.93766l0.59322,0.52624,0.88982,0.91852,1.2438,1.196c0.69846,0.67933,0.73673,1.7796,0.11481,2.5164l-106.16,123.82c-7.3578,8.6686-17.691,14.495-25.719,14.495m118.67-129.83c-0.43056,0-0.87069-0.15309-1.2247-0.46883-0.12438-0.11482-1.0525-1.0333-1.5596-1.55-0.13395-0.13395-0.55494-0.61235-0.65062-0.79415,0.01,0.0287,0.0191,0.0478,0.01,0.0478-0.0383,0-0.32531-0.28703-0.91852-0.88025-0.6889-0.66976-0.73674-1.7605-0.10525-2.4972l106.05-123.82c7.3386-8.6686,17.71-14.505,25.805-14.505,3.808,0,7.109,1.2917,9.5393,3.7315,2.5451,2.6025,3.7889,6.1331,3.588,10.219-0.39229,7.884-6.2766,17.921-14.658,24.953l-124.69,105.13c-0.34445,0.27747-0.76544,0.43056-1.1864,0.43056m-150.53-30.248c-10.907-1.9806-20.715-7.6352-24.972-14.409-2.2006-3.4828-2.8417-7.2047-1.8753-10.735,1.7988-6.8507,9.2044-10.946,19.777-10.946,5.272,0,10.994,1.0333,16.112,2.9278l153.4,55.418c0.72717,0.25833,1.2247,0.94723,1.2247,1.7318,0,0.48797-0.53581,2.3154-0.81328,3.033,0.0287-0.0383,0.0383-0.067,0.0383-0.067,0.0191,0-0.10525,0.39229-0.44013,1.5022-0.24877,0.82285-1.0812,1.55-1.9136,1.55-0.0957,0-160.54-30.005-160.54-30.005m316.84,81.935c-5.2528,0-10.984-1.0429-16.141-2.9278l-153.32-55.38c-0.79414-0.29661-1.3012-1.0908-1.2056-1.9232,0.0478-0.42099,0.65062-2.5738,0.87068-3.033l0.27747-1.4161c0.20093-0.85155,0.9568-1.4161,1.7892-1.4161,0.11481,0,0.22006,0.01,0.34444,0.0287l160.29,30.015c10.774,1.9423,20.858,7.7501,25.068,14.448,2.1337,3.3775,2.7938,6.9751,1.9423,10.41-0.01,0.0957-0.0287,0.20093-0.0574,0.29661-1.8945,6.8315-9.3192,10.917-19.863,10.917m-206.71,123.21c-1.0908,0-2.1719-0.15309-3.2435-0.44969-3.5306-0.94723-6.4201-3.3966-8.3146-7.042-3.6837-7.1281-3.5784-18.476,0.27747-28.924l55.36-153.36c0.26791-0.73674,0.96637-1.2151,1.7318-1.2151,0.12438,0,0.2392,0.0191,0.36358,0.0383,0.19136,0.0383,2.2676,0.59321,2.6025,0.69846,0.2392,0.0765,0.5071,0.16265,1.7509,0.46883,0.94723,0.2392,1.55,1.1673,1.3778,2.1241l-29.996,160.29c-2.526,13.443-11.405,27.364-21.911,27.364m43.275-173.54c-0.20093-0.067-4.2386-1.1482-4.2386-1.1482-0.9281-0.24876-1.5022-1.1673-1.3204-2.105l29.986-160.28c2.4207-13.453,11.281-27.384,21.92-27.384,1.0716,0,2.1624,0.14352,3.2244,0.43056,3.5306,0.9568,6.3914,3.3871,8.2667,7.0133,3.6741,7.0803,3.5976,18.447-0.21049,28.962l-55.38,153.38c-0.27747,0.76544-0.97593,1.2247-1.7318,1.2247-0.17222,0-0.35402-0.0191-0.52624-0.0765" fill-rule="nonzero" stroke="#000" stroke-width="4" fill="#FFF"/>
<path d="m255.68,250.33c-0.68889,0-1.3874-0.2679-1.7127-0.82285l-104.38-180.79c-0.5071-0.88982-0.2105-2.0093,0.67933-2.5259,7.6735-4.4395,14.936-6.6784,21.595-6.6784,10.821,0,25.786,6.0757,35.545,35.048l51.925,152.55c0.22006,0.66976,0.0478,1.4065-0.4497,1.8945-0.30617,0.30617-0.47839,0.39229-2.3059,1.1577-0.2679,0.10525-0.57408,0.16266-0.88982,0.16266m-2.0074,1.6447c-0.53581,0-0.92809-0.40186-1.2917-0.82285l-106.17-121.2c-12.524-14.295-17.902-27.412-15.988-38.97,1.5978-9.6924,8.3433-18.026,20.026-24.752,0.2966-0.18179,0.61235-0.24877,0.91852-0.24877,0.64106,0,1.263,0.32531,1.5978,0.91853l104.39,180.79c0.46883,0.81327,0.2392,1.8562-0.52624,2.4111-0.66976,0.49753-1.3969,0.99507-1.6074,1.1769-0.29661,0.5071-0.66019,0.64105-1.2343,0.69846h-0.10525m104.44,218.51c-15.625,0-27.604-11.797-35.612-35.048l-51.916-152.56c-0.15308-0.46883-0.11481-0.97593,0.10525-1.4161,0.2105-0.44013,0.59322-0.76544,1.0525-0.91853,0.88982-0.38272,1.617-0.69846,2.0762-0.86112,0.20093-0.067,0.41142-0.10524,0.61235-0.10524,0.64105,0,1.263,0.34444,1.5978,0.91852l104.39,180.81c0.24876,0.42099,0.31574,0.9281,0.18179,1.3969-0.12439,0.4784-0.43056,0.87068-0.85155,1.1099-7.6927,4.4395-14.974,6.6784-21.633,6.6784m20.253-6.5052c-0.46883-0.12438-0.87069-0.44013-1.1194-0.86112l-104.39-180.81c-0.4784-0.81328-0.24876-1.8658,0.51667-2.4111,0,0,1.7892-1.3299,1.8753-1.3874,0.30617-0.17223,0.65062-0.26791,0.97593-0.26791,0.52624,0,1.0333,0.2105,1.3874,0.62192l106.19,121.23c12.486,14.199,17.854,27.288,15.95,38.894-1.6074,9.7211-8.3241,18.074-19.988,24.81-0.28703,0.16266-0.60278,0.25834-0.91852,0.25834-0.15309,0-0.32531-0.0191-0.4784-0.067m-311.08-83.36c-0.46883-0.12438-0.87069-0.43056-1.1195-0.85155-6.7359-11.682-8.4007-22.255-4.9466-31.469,4.1238-10.974,15.318-19.633,33.277-25.767l152.57-51.88c0.19136-0.0574,0.40185-0.0861,0.59321-0.0861,0.33488,0,0.66976,0.0861,0.96637,0.26791,0.46883,0.2966,0.77501,0.76544,0.86112,1.3012,0.39228,0.69846,0.66019,1.3108,0.80371,1.6648,0.29661,0.84198-0.0383,1.7796-0.81328,2.2293l-180.79,104.41c-0.28704,0.17222-0.60278,0.25834-0.91853,0.25834-0.16266,0-0.32531-0.0287-0.4784-0.067m28.294,19.507c-11.702,0-21.595-6.8411-29.412-20.351-0.24877-0.42099-0.30618-0.92809-0.18179-1.3969,0.12438-0.45927,0.44013-0.87069,0.85155-1.1099l180.81-104.39c0.28704-0.17223,0.60278-0.24877,0.91853-0.24877,0.55494,0,1.1099,0.25834,1.4735,0.73674,1.3682,1.8083,1.4543,1.9327,1.5691,2.2867,0.22963,0.69846,0.0191,1.4735-0.54537,1.9614l-121.16,106.18c-12.37,10.83-23.92,16.33-34.314,16.33m186.6-140.69c-0.37315,0-0.75587-0.12438-1.0812-0.35402-0.35402-0.23919-0.60278-0.62191-0.69846-1.0429l-0.72717-1.8466c-0.29661-0.84199,0.0383-1.7701,0.81328-2.2198l180.8-104.39c0.29661-0.16265,0.61235-0.24877,0.91852-0.24877,0.63149,0,1.263,0.33488,1.6074,0.91853,6.7263,11.644,8.3816,22.217,4.918,31.412-4.1238,11.003-15.366,19.672-33.373,25.795l-152.58,51.868c-0.20092,0.067-0.40185,0.10525-0.59321,0.10525m-0.77309-2.0572c-0.49753,0-0.97593-0.19136-1.33-0.58365-0.31574-0.32531-0.73673-0.88025-1.0716-1.33-0.4497-0.33487-0.76544-0.96636-0.79414-1.5213-0.0191-0.54538,0.16265-1.196,0.58364-1.5596l121.25-106.17c12.285-10.841,23.824-16.342,34.301-16.342,11.702,0,21.604,6.8507,29.402,20.361,0.5071,0.88025,0.2105,2.0093-0.66019,2.5068l-180.77,104.38c-0.28704,0.17223-0.60279,0.24877-0.91853,0.24877m-32.831-0.0258c-0.31574,0-0.63149-0.0765-0.91853-0.24877l-180.8-104.41c-0.42099-0.22964-0.73673-0.64106-0.86112-1.1099-0.12438-0.46883-0.05741-0.97593,0.18179-1.3969,7.8075-13.5,17.701-20.342,29.393-20.342,10.4,0,21.949,5.492,34.339,16.342l121.25,106.18c0.41143,0.35401,0.64106,0.88025,0.62192,1.4352-0.01,0.53581-0.2679,1.0525-0.70803,1.3969-0.0287,0.0765-0.67932,0.93766-0.9855,1.3778-0.36358,0.5071-0.92809,0.78457-1.5117,0.78457m-0.9157,2.0562c-0.19136,0-0.39229-0.0383-0.59321-0.10525l-152.54-51.88c-17.95-6.1044-29.163-14.763-33.287-25.747-3.4732-9.1948-1.8083-19.777,4.9275-31.45,0.34445-0.58365,0.9568-0.91853,1.5979-0.91853,0.30618,0,0.63149,0.0861,0.90896,0.24877l180.82,104.39c0.75587,0.44013,1.1003,1.3778,0.80371,2.2102-0.52623,1.4735-0.9855,2.392-1.3682,2.7556-0.35401,0.32531-0.80371,0.49753-1.263,0.49753m186.68,140.75c-10.486,0-22.025-5.5112-34.292-16.342l-121.25-106.18c-0.43056-0.36359-0.66019-0.88982-0.63149-1.4543,0.0191-0.55494,0.28704-1.0716,0.72717-1.3969h-0.01c-0.0383,0,0.22007-0.39229,0.4784-0.75587,0.44013-0.62192,1.4639-1.2917,2.2868-1.2917,0.21049,0,0.40185,0.0478,0.56451,0.14352l180.88,104.39c0.41143,0.24876,0.72717,0.65062,0.85155,1.1099,0.12439,0.4784,0.0574,0.97594-0.18179,1.3969-7.8075,13.51-17.71,20.37-29.422,20.37m27.846-19.48c-0.32531,0-0.63149-0.0765-0.91853-0.24877l-180.8-104.37c-0.775-0.4497-1.1194-1.3682-0.80371-2.2293l0.44013-1.1482c0.0957-0.53581,0.5358-1.2534,0.99507-1.5404,0.36358-0.22007,0.88025-0.46883,1.33-0.46883,0.11481,0,0.22963,0.0191,0.32531,0.0383l152.57,51.868c17.959,6.0948,29.163,14.754,33.325,25.738,3.4732,9.2044,1.8179,19.777-4.8892,31.44-0.2392,0.43056-0.64105,0.73673-1.1099,0.86111-0.15309,0.0478-0.31574,0.067-0.4784,0.067m-311.07,83.328c-0.31574,0-0.62192-0.0765-0.91853-0.24877-11.682-6.7263-18.418-15.05-20.026-24.762-1.9232-11.577,3.4636-24.695,15.988-38.961l106.19-121.22c0.34445-0.39229,0.85155-0.62192,1.3778-0.62192,0.11482,0,0.2105,0.01,0.31574,0.0191,0.56451,0.10525,1.062,0.45927,1.3204,0.96637-0.0287-0.0765-0.01-0.0957,0.0287-0.0957,0.10525,0,0.36358,0.17222,0.60278,0.34445,0.76544,0.55494,1.5978,2.0284,1.129,2.8608l-104.43,180.78c-0.33487,0.59321-0.95679,0.92809-1.5883,0.92809m20.683,6.4612c-6.6497,0-13.912-2.2485-21.585-6.6784-0.88025-0.49753-1.1864-1.6266-0.66976-2.5068l104.41-180.82c0.33488-0.58365,0.9568-0.91853,1.5979-0.91853,0.2679,0,0.55494,0.067,0.81327,0.2105,0.40186,0.19136,1.2343,0.5358,1.6553,0.71759,0.88026,0.37316,1.5787,1.4735,1.263,2.392l-51.916,152.53c-9.7498,28.991-24.714,35.076-35.564,35.076m104.43-218.69c-0.34445,0-0.66976-0.0861-0.97593-0.28704-0.12439-0.0765-0.81328-0.57408-1.4065-1.0238-0.75587-0.54538-1.4735-1.9423-1.0142-2.7652l104.41-180.81c0.24876-0.42099,0.64105-0.73674,1.1194-0.85155,0.16265-0.04784,0.31574-0.06698,0.46883-0.06698,0.32531,0,0.65062,0.08611,0.91853,0.24877,11.673,6.7454,18.39,15.089,19.988,24.8,1.904,11.606-3.4636,24.685-15.95,38.923l-106.19,121.22c-0.35402,0.40186-0.86112,0.62192-1.3778,0.62192m-1.8141-1.3472c-0.22006,0-0.44013-0.0383-0.66019-0.13395-0.0191-0.01-2.0284-0.78458-2.4398-1.1003-0.63149-0.4784-0.88983-1.3012-0.63149-2.0571l51.811-152.57c8.0467-23.26,20.045-35.048,35.66-35.048,6.6497,0,13.921,2.258,21.595,6.6784,0.87069,0.5071,1.1769,1.6361,0.66976,2.5164l-104.42,180.79c-0.32531,0.57408-0.94723,0.91853-1.5883,0.91853m-237.18,16.37c-1.0142,0-1.8466-0.82285-1.8466-1.8466,0-30.732,19.739-37.181,36.301-37.181,6.7646,0,12.888,1.0525,16.907,1.8466l158.02,31.354c0.94723,0.20093,1.5883,1.1099,1.4639,2.0667-0.0287,0.1818-0.18179,1.4448-0.20092,2.0188-0.0574,0.97593-0.87069,1.7414-1.8466,1.7414h-208.79zm34.45,35.389c-16.553,0-36.291-6.4488-36.291-37.181,0-1.0142,0.83241-1.8466,1.8371-1.8466h208.8c0.97593,0,1.7796,0.76544,1.837,1.7509,0.0287,0.57408,0.17223,1.8562,0.20093,2.0188,0.13395,0.96637-0.5071,1.8753-1.4543,2.0667l-158.03,31.34c-4.0281,0.79414-10.152,1.8466-16.907,1.8466m386.49,0.0259c-6.755,0-12.831-1.0429-16.83-1.837l-158.09-31.33c-0.85155-0.17222-1.4735-0.92809-1.4735-1.8179,0-0.16265,0.19136-1.8083,0.33488-2.5546,0.16266-0.86111,0.91853-1.4926,1.8084-1.4926h208.71c0.48797,0,0.9568,0.19136,1.3012,0.53581,0.34445,0.35401,0.54538,0.81327,0.54538,1.3108-0.0191,30.742-19.748,37.181-36.291,37.181m-174.28-35.39c-0.87069,0-1.6266-0.61235-1.7988-1.483-0.15309-0.73673-0.34445-2.3824-0.34445-2.5451,0-0.88982,0.61235-1.6457,1.483-1.8084l158.1-31.35c3.9898-0.78457,10.066-1.837,16.82-1.837,16.562,0,36.282,6.4488,36.301,37.181,0,0.49754-0.19136,0.9568-0.54537,1.3012-0.33488,0.35401-0.81328,0.54537-1.2917,0.54537h-208.72zm-19.012,227.72c-13.443-0.01-23.422-3.875-29.67-11.482-7.463-9.0896-9.3766-23.107-5.7025-41.697l31.383-158.07c0.18179-0.86112,0.93767-1.483,1.8179-1.483,0.18179,0,1.7988,0.20093,2.459,0.29661,0.88982,0.13395,1.5596,0.90896,1.5596,1.8179v208.77c0,0.48797-0.20093,0.9568-0.54538,1.3108-0.34444,0.33488-0.81327,0.53581-1.3012,0.53581m0.0172,0c-0.48797,0-0.9568-0.20093-1.3012-0.53581-0.34445-0.35401-0.54538-0.82284-0.54538-1.3108v-208.77c0-0.92809,0.69846-1.7127,1.6074-1.8275,0.75587-0.0957,2.3442-0.28704,2.526-0.28704,0.88025,0,1.6266,0.63149,1.7988,1.483l31.316,158.07c3.6454,18.629,1.7318,32.665-5.693,41.716-6.2479,7.5874-16.246,11.453-29.709,11.462m-0.13105-246.66c-0.90896-0.13395-1.5787-0.90896-1.5787-1.8275v-208.78c0-1.0046,0.81328-1.8371,1.8371-1.8371,13.405,0,23.355,3.8463,29.594,11.405,7.4343,9.0417,9.3479,23.097,5.693,41.774l-31.32,158.07c-0.17223,0.87069-0.93767,1.483-1.7988,1.483-0.0957,0-2.4303-0.27747-2.4303-0.27747m-1.3462,0.18845c-0.9568,0-2.325-0.53581-2.5068-1.3874l-31.29-158.06c-3.6645-18.686-1.7509-32.742,5.6834-41.783,6.2288-7.5587,16.189-11.395,29.603-11.395,1.0046,0,1.837,0.81328,1.837,1.8371v208.77c0,0.91852-0.67933,1.6935-1.5883,1.8275,0,0-1.6361,0.19136-1.7318,0.19136" fill-rule="nonzero" stroke="#000" stroke-width="4" fill="#FFF"/>
<path d="m232.21,215.18c-0.58365,0-1.1482-0.27747-1.5022-0.78457l-97.43-137.76c-6.267-8.6973-9.1757-19.681-7.3865-27.967,1.0716-4.9658,3.7794-8.8121,7.817-11.128,2.4398-1.4065,5.071-2.1145,7.8553-2.1145,10.907,0,21.442,10.707,26.207,21.298l70.59,153.26c0.39228,0.84198,0.0861,1.8466-0.70803,2.3346-1.2247,0.6889-4.5352,2.6121-4.5352,2.6121-0.28704,0.17223-0.60279,0.24877-0.91853,0.24877m156.22,279.41c-10.898,0-21.423-10.707-26.188-21.298l-70.6-153.26c-0.20093-0.44969-0.22006-0.9568-0.0478-1.4161,0.17222-0.45926,0.51667-0.83241,0.97593-1.0333l4.3056-2.4685c0.29661-0.16265,0.60279-0.24877,0.90896-0.24877,0.58365,0,1.1482,0.28704,1.5117,0.78458l97.412,137.73c6.2766,8.793,9.1566,19.806,7.3482,28.072-1.0716,4.9084-3.7602,8.726-7.7692,11.022-2.4111,1.4065-5.0519,2.1241-7.8553,2.1241m-334.59-89.97c-7.4439,0-13.252-2.9469-16.361-8.305-2.3059-4.0281-2.6886-8.7164-1.129-13.529,2.6216-8.0658,10.63-16.16,20.418-20.571l153.15-70.57c0.24876-0.11481,0.51667-0.17222,0.775-0.17222,0.51667,0,1.0142,0.21049,1.3682,0.62192,0.16266,0.18179,1.5787,2.4877,1.7796,2.8226,0.21049,0.44969,0.43056,0.83241,1.062,1.8753,0.50711,0.82285,0.27747,1.904-0.49753,2.459l-137.78,97.49c-6.8411,4.9275-15.357,7.8744-22.772,7.8744m265.39-166.04c-0.27747,0-0.56451-0.067-0.81328-0.19136-0.41142-0.20093-0.72716-0.54537-0.88982-0.9568-0.14352-0.27747-0.57408-1.0046-0.90896-1.5692-0.11481-0.19136-0.63148-1.129-0.65062-1.3586,0,0.0383,0,0.0478-0.01,0.0478-0.0574,0-0.30617-0.41142-0.84198-1.3395-0.48797-0.81327-0.2679-1.8849,0.51667-2.4398l137.79-97.44c6.8507-4.9562,15.357-7.9032,22.781-7.9032,7.4056,0,13.185,2.9469,16.246,8.305,2.3346,4.0186,2.746,8.7069,1.196,13.539-2.6025,8.0658-10.592,16.132-20.389,20.533l-153.26,70.602c-0.2392,0.11481-0.5071,0.17222-0.76544,0.17222m-108.4-0.10704c-0.25834,0-0.52624-0.0574-0.76544-0.17222l-153.32-70.54c-9.788-4.4395-17.787-12.515-20.361-20.59-1.4639-4.5926-1.1577-9.0322,0.88982-12.926,0.07654-0.41142,0.28704-0.775,0.60278-1.0429,3.1192-5.0615,8.7643-7.8362,15.979-7.8362,7.4056,0,15.912,2.9374,22.791,7.8744l137.78,97.421c0.43056,0.30618,0.70803,0.77501,0.76544,1.3012,0.0574,0.52623-0.11482,1.0525-0.46883,1.4352-0.0383,0.10525-1.7031,3.033-2.2772,4.1047-0.32531,0.60279-0.96637,0.96637-1.617,0.96637m265.28,166.22c-7.3865,0-15.921-2.9565-22.82-7.8936l-137.69-97.42c-0.61235-0.43055-0.89939-1.1769-0.7463-1.904,0.16265-0.66976,1.7031-3.1096,1.7127-3.1287-0.0383,0.0383-0.067,0.067-0.067,0.067-0.0287,0,0.20093-0.41142,1.1099-1.9327,0.34444-0.56451,0.94723-0.89939,1.5787-0.89939,0.25834,0,0.51667,0.0478,0.76544,0.17223l153.29,70.545c9.7976,4.43,17.806,12.505,20.38,20.581,1.5404,4.8223,1.129,9.501-1.2056,13.5-3.0904,5.3676-8.8886,8.3241-16.304,8.3241m-334.59,89.871c-2.7938,0-5.4155-0.7176-7.8362-2.1145-4.0186-2.3154-6.7167-6.1522-7.7979-11.099-1.8083-8.2763,1.0525-19.27,7.2908-28.005l97.51-137.8c0.36359-0.48797,0.91853-0.76544,1.5022-0.76544,0.30617,0,0.59321,0.067,0.88025,0.22007l4.4682,2.6408c0.79414,0.48796,1.1003,1.483,0.70803,2.3346l-70.497,153.31c-4.8414,10.573-15.404,21.27-26.216,21.27m156.31-279.32c-0.30618,0-0.60278-0.0765-0.89939-0.22963l-2.5164-1.483-1.9519-1.0716c-0.84198-0.46883-1.1864-1.5022-0.775-2.3729l70.58-153.3c4.7553-10.592,15.299-21.317,26.226-21.317,2.7843,0,5.425,0.70803,7.8553,2.105,4.0281,2.325,6.7263,6.1809,7.7979,11.147,1.7701,8.2954-1.1482,19.279-7.4248,27.977l-97.41,137.75c-0.35401,0.5071-0.91852,0.78457-1.5022,0.78457m-266.1,69.89c-14.247,0-29.374-7.0516-29.374-20.131,0-13.07,15.127-20.121,29.364-20.121,1.4352,0,2.8704,0.0574,4.2769,0.20093l168.02,15.51c0.93766,0.0957,1.6648,0.88982,1.6648,1.8466v5.0902c0,0.9568-0.72717,1.7509-1.6648,1.8466l-168.03,15.54c-1.3969,0.14352-2.8226,0.2105-4.2578,0.2105m466.54,0.0717c-1.4256,0-2.8417-0.067-4.2482-0.20093l-168.01-15.5c-0.94722-0.0765-1.6648-0.87069-1.6648-1.8275v-5.1284c0-0.9568,0.7176-1.7509,1.6648-1.8466l168.03-15.538c1.3682-0.14352,2.7747-0.20092,4.1908-0.20092,14.275,0,29.441,7.0516,29.441,20.112,0,6.0374-3.3871,11.395-9.5584,15.098-5.3294,3.1957-12.553,5.0328-19.844,5.0328m-233.59,242.46c-4.5544-0.0765-8.6877-2.0476-12.027-5.7216-5.6929-6.2957-8.7069-17.251-7.664-27.929l15.567-168.01c0.0957-0.94723,0.88026-1.6744,1.8275-1.6744h5.0902c0.94723,0,1.7414,0.72717,1.837,1.6744l15.586,168.02c1.0429,10.687-1.971,21.652-7.6831,27.929-3.3297,3.6837-7.4917,5.6547-12.017,5.7121-0.0861,0.01-0.16265,0.0191-0.25833,0.0191-0.0861,0-0.1818-0.01-0.25834-0.0191m-2.236-321.92c-0.9568,0-1.7414-0.72717-1.837-1.6744l-15.49-168.01c-1.0525-10.716,1.9519-21.691,7.6448-27.958,3.3775-3.7315,7.6065-5.7121,12.209-5.7121,4.7266,0,8.9556,1.9806,12.333,5.7121,5.6834,6.267,8.6877,17.241,7.6352,27.967l-15.46,168c-0.0957,0.94723-0.88982,1.6744-1.8466,1.6744h-5.1858z" fill-rule="nonzero" stroke="#000" stroke-width="4" fill="#FFF"/>
<path d="m376.66,127.75-223.32,0,0,161.22c0,25.087,5.5877,46.682,16.658,64.153,9.0035,14.199,21.547,25.623,37.306,34.052,26.379,14.074,53.495,15.003,57.437,15.079h0.0478,0.0287,0.37315,0.0191,0.0574c3.942-0.0765,31.029-1.0046,57.446-15.079,15.739-8.4294,28.302-19.854,37.277-34.052,11.061-17.471,16.667-39.066,16.667-64.153v-161.22zm-111.84,268.23-0.0287,0-0.0191,0,0.0478,0m0.41143,0-0.0383,0,0.0383,0m-0.22007,0,0.14352,0-0.33488,0,0.19136,0" fill-rule="nonzero" stroke="#000" stroke-width="6" fill="#FFF"/>
<g stroke="#000" transform="translate(411.18292,389.73071)">
<path d="m-138.84-222.38c2.7631,0,5.6957,0.89844,8.7301,2.1529-2.2207-1.3392-2.8479,0.6272-5.967-0.89844,4.2718,2.0511,6.1534,5.7127,2.9326,12.849l-0.0848,0.18646c0,1.424,0.54245-7.8655-0.71196-7.8655-0.98319,0-0.98319,9.9167-2.6784,11.697-0.52551,0.54245,0.0847-5.4415-0.44075-4.8143-2.4071,2.7631-4.1023,6.4247-4.4583,7.5774,0.35598-2.4919,0.61025-5.0007,0.88147-7.4079,9.815-1.9494,7.7638-12.222,1.7969-13.477" fill-rule="evenodd" stroke-width="1.23908734" fill="#231f20"/>
<path stroke-linejoin="miter" d="m-119.55-98.5c-1.068-2.4919-1.1527-9.8997-2.4919-11.052-11.51-10.001-4.1023-25.444-4.2888-49.278-0.52551,10.357,1.1697,35.531,2.5936,39.277,2.8479,7.4079,5.8822,5.7974,9.5438,2.1359,0.54246-1.9664,0.35599-27.665,2.5936-32.123-1.5256,21.783,5.967,60.144,23.732,58.805-2.6784-18.206-7.6791-48.532-8.6623-70.044,4.4752,12.493,9.5607,33.734,15.799,45.515l6.6959,12.493c0.44074,0.88148,4.916,5.7974,4.916,6.2382,2.6784,0,6.6959,2.2376,9.815,2.2376,0-6.2551-7.1366-17.409-9.3742-23.207-4.4583-11.595-4.4583-25.97-9.0182-37.209-2.7631-6.7806-3.1191-11.154-9.0013-19.732,12.493,13.833,25.97,36.243,34.802,30.174-7.4078-9.0182-28.207-45.973-31.327-52.296,7.9334,8.6453,17.223,21.139,29.275,13.477-13.392-9.2047-16.782-14.104-26.784-23.393,12.493,5.8992,25.885,1.9664,26.784-6.3399-1.1697,0-31.242-3.7463-32.225-6.1534,20.715,1.7799,22.851-9.7302,22.851-13.646-16.155,4.7295-24.105,2.2206-35.514,2.4919-9.3742,0.35599-20.359,14.188-3.848,24.461-0.44075,20.969-13.019,12.036-13.29,18.02,1.3392,8.2046,17.85-3.4751,15.426-16.324-0.25427,0.61026,1.9664-0.54245,1.7121,0.0848,0.25427,7.7638-1.6104,15.341-5.8992,20.884-4.187,5.4415-11.866,9.3742-21.325,9.3742-0.35599,0-0.44074,14.358-0.0847,14.714-0.71197-3.3903,0.44074-9.459-0.18646-14.629-0.16952-1.6104-3.3903-2.5936-3.9328-2.6784-7.8486-4.8143-1.5934-7.0519,0.27123-6.3399-2.7631-4.187-0.16952-9.2725,0.62721-10.798,0.18646-0.44073,1.3392-6.5094,1.3392-6.5094s-1.1527,5.0007,0,6.3399c0.89844,0.96624,3.2208-0.18647,4.204-0.81369-3.848-4.187,1.2375-12.663,0.44074-16.782,1.6952-0.1695,3.6616,0,5.0855,0.27124-6.7806-0.62721-3.8311-18.562-12.053-20.257,2.8648-1.3392,5.1872-4.187,3.1191-3.3056-7.6621,5.0007-19.63-4.6278-24.003,3.5768-0.52549,1.1527-3.6616,0.18647-4.2718,2.4919-5.0007,0.4577-9.5607,6.6959-4.6448,12.239,0-7.1536,6.6959-9.0182,10.713-4.0175,4.187-4.1023,9.1878-2.8648,9.815,3.1191l-0.89844,0.89844c-13.833-5.3567-25.529,5.1702-31.767,7.8486,0.44074,1.9664,11.781-8.5606,31.954-6.1534,0.44075,4.1023-11.341,0.96625-14.019,3.6616,1.8816,1.1527,7.1366,1.5935,10.527,3.1191,2.8648,1.2544-0.98319,5.4415-4.543,6.2382-2.9496,0.62722-5.8992,1.8816-8.6623,5.8144,0,0.44074-1.3392,2.2206-1.3392,2.6614,1.7799-1.7799,4.0175-3.2886,6.6959-3.2886l4.8143-0.72892c-2.1359,2.9496-7.3061,8.391-8.8318,10.713-1.3392,1.3392-3.2039,2.3224-5.7975,2.6784v0.45769c0.88149,0.88149,3.5598-0.10173,4.4583,0.79674-0.6272,1.3392-0.0848,3.6615-1.068,4.8142-4.6447,0.27123-5.1702,0.81368-7.7638,3.9328-0.0847,0,0.0848,14.46-0.0847,14.46-0.18646,0,0-14.46-0.27122-14.46-3.848-0.0848-13.748,0.16952-22.495-8.6623-7.2214-8.6623-8.3063-20.257-6.5094-21.054l1.7799-0.81368c0.89844,2.2376,0.44074,10.273,2.4919,12.951,0.45768,0.71197,4.0175,3.5598,4.0175,4.4583,0.4577,0,7.6791,5.6279,8.9335-0.89844,0.71197-3.3903-13.477,0.45769-12.324-17.036,0.10173-1.6952,3.0343-1.3392,3.848-3.4751,3.4751-4.56,6.1534-12.239-1.3392-17.85-5.3567-4.1192-20.088-2.6784-29.445-2.6784-4.916,0-9.8319-1.7969-14.731-1.7969,0,8.4758,10.256,15.087,23.817,13.121-5.7127,2.2376-23.919,6.3399-32.293,6.9671,2.0512,12.578,20.613,9.1878,27.038,5.611-6.6111,8.3063-17.681,17.409-26.156,23.834,10.442,7.4926,23.919-5.272,29.191-13.917-3.2208,6.7806-11.612,21.512-12.765,24.444-4.8143,11.968-10.612,19.901-16.782,28.479,10.273,7.4078,34.276-31.869,33.835-31.14-11.425,15.528-8.5775,46.837-25.004,80.486,9.6455,3.8311,18.308-16.782,20.986-22.58,5.7974-11.595,10.696-30.699,13.917-45.244,1.1527,14.544-5.3567,64.433-6.3399,70.942,19.986,0.35599,24.817-40.599,22.139-59.517,2.2207,4.4583,4.0175,22.037,3.7463,26.953-0.45769,9.2725,7.7638,11.324,9.5438,2.3224,1.6952-3.7632,2.4071-32.14,1.2544-39.192,1.3392,8.2215,2.9496,28.835,3.4751,33.734,0.89844,8.8488-1.6952,13.748-6.5942,19.816-0.98319,1.3392-1.6104,4.2888-2.2376,6.6111,0,0.27124,6.4246,4.8143,6.2551,5.0007,3.2886,0.9832,3.9158,1.5935,4.8142,0.27123,2.2207-4.0175,6.6959-24.376,7.5774-6.6959,0.54246,11.154-2.1359,13.833-13.832,14.714-5.7975,0.45769-4.4583,8.3063-6.4247,10.086,3.848,1.3392,1.4239,0.81368,5.4415-0.98319,5.272,0.89843,8.4928-0.16951,13.121-1.1527-0.44074,1.3392-3.2038,7.5774-5.0007,9.0183-1.2375,3.6446-16.494,6.0687-19.63,6.2382-29.445,1.8816-17.392,37.039,1.3392,28.106-10.256,0-15.172-10.256-10.256-18.291,0.88149-1.3392,7.3062-5.611,7.4926-4.187,0.18647,1.3392-13.392,10.086-5.3567,15.172,9.1878-10.442,22.495-12.137,28.648-18.121,2.8648-3.4751,2.6784-3.4751,5.7974-7.5943,3.136,6.2551-6.6959,16.07-12.493,16.511-4.4583,0.4577-7.5774,2.6953-5.3567,7.1536-0.88149,0.88149-9.3573,5.7974-9.3573,6.2382,20.511-3.3903,23.376-9.3742,29.886-18.732,0.18646,10.34,0.45769,14.9-4.4583,23.19,0,2.2376-4.0175,6.6959-0.44073,8.9335,3.5598,2.2206,5.7974,4.4583,8.0351,8.9166,0-4.0175,5.3398-7.5774,8.0181-8.9166,2.2376-1.3392,0.89843-4.4583,0.89843-6.2552-2.3224-4.6278-7.4926-18.647-5.7127-25.868,3.4751,11.866,20.172,20.071,30.259,20.071,0-0.44075-7.5943-4.4583-8.4758-5.3567-1.7969-1.7799,1.3392-6.2382-3.5768-7.1366-5.7974-1.3392-12.324-4.187-14.273-9.815-6.2551-17.579,0.88149,0,12.934,4.916,1.8816,0.71197,12.493,4.899,12.493,7.1366,0.89844,0,3.1191,1.3392,3.1191,2.2207,0.45768,0,1.3392,0.89843,1.3392,1.3392,4.4752,3.9328,3.5768,1.3392,5.3567,1.3392,1.068-3.0343-0.44074-6.2382-4.0175-9.3742-7.5774-6.6789,1.9664-3.4751,4.8312,0.54245,4.4583,7.6791,3.9158,15.087-10.629,17.308,8.6623,4.8312,19.003-2.3054,18.748-10.696-0.35598-12.239-8.9335-18.308-21.868-18.308-2.2376,0-14.731-2.2207-14.731-4.899-0.44074,0-1.7799-1.3392-1.7799-1.7799-0.45769,0-9.815-11.612-1.3392-8.4928,4.4583,1.3392,12.934,1.3392,16.952,1.3392,0-0.44074,0.44075-1.3392,0.44075-2.2206-2.6614,0-2.6614-8.0351-7.5774-8.0351-8.0351,0-13.833-1.7799-13.833-10.713,0-6.2382,0.71197-10.357,2.4919-9.5438,1.1697,0.5255,2.3224,11.51,3.7632,13.561h2.2207c1.3392-0.98319,2.9496-2.3224,3.8311-2.3224,0-0.71196,4.6447-4.7295,5.9839-3.6616z" fill-rule="evenodd" stroke-linecap="butt" stroke-miterlimit="2.41400003" stroke-dasharray="none" stroke-width="0.71196777" fill="#da121a"/>
<path stroke-linejoin="miter" d="m-151.76-230.76c-0.27122-0.0848-0.98319,4.2888,6.5094,6.5264,17.85,1.8647,10.527,13.917,6.6959,14.9-3.3903,0-9.459,0.62721-12.324-1.6952,3.848-1.4409,9.3742,1.0679,11.781-0.18647,9.9167-3.5598-3.4751-16.68-10.256-8.9166-4.0175-5.0007-10.798-3.136-10.798,4.0175-4.916-5.5432-0.35599-11.781,4.6448-12.239,0.61025-2.3054,3.2038-1.3392,3.7463-2.4071z" fill-rule="evenodd" stroke-linecap="butt" stroke-miterlimit="2.41400003" stroke-dasharray="none" stroke-width="0.71196777" fill="#fcdd09"/>
<path stroke-linejoin="miter" d="m-148.39-226.76c1.6952-5.8144,14.646-4.3735,21.868-7.3231-2.9496,2.7631-7.5774,4.899-17.664,6.1534l8.2046-1.2544c16.24,6.4416,8.1198,14.205,17.765,18.477-6.3399-0.25428-6.9671-2.3224-7.5096-4.2718" stroke-linecap="butt" stroke-miterlimit="2.41400003" stroke-dasharray="none" stroke-width="0.62720972" fill="none"/>
<path stroke-linejoin="miter" d="m-141.33-228.87c2.0342-0.28818,3.7294,0.13561,3.7802,0.93234,0.0678,0.77977-1.5426,1.6443-3.5768,1.9325-2.0342,0.27123-3.7294-0.13561-3.7802-0.93234-0.0678-0.77977,1.5426-1.6612,3.5768-1.9325z" stroke-linecap="butt" stroke-miterlimit="2.41400003" stroke-dasharray="none" stroke-width="0.72891945" fill="none"/>
<path stroke-linejoin="miter" d="m-141.69-228.59c0.96624-0.0508,1.746,0.28817,1.7799,0.76282,0.017,0.45769-0.74587,0.86453-1.6952,0.91539-0.94929,0.034-1.746-0.28818-1.763-0.76282-0.034-0.4577,0.72892-0.88149,1.6782-0.91539z" fill-rule="nonzero" stroke-linecap="butt" stroke-miterlimit="2.41400003" stroke-dasharray="none" stroke-width="0.72891945" fill="#231f20"/>
<path stroke-linejoin="miter" d="m-134.69-197.23c0,8.391-0.54246,6.7806,1.9664,4.2888m-6.9671,5.967c-1.7799,12.409,2.2376,3.7463,2.2376,2.2376m-4.4583,4.187c-0.35599-4.0175,0.35598,11.697,3.8311,8.2215m-6.9671-4.56c2.0511,11.781,0.89842,6.1704,4.0175,6.2552m-7.3062-8.6623c-2.5936,9.103,0.9832,15.002,2.0512,9.3742m-7.6791-9.0183c0,0.62722-1.068,6.7806,2.7631,5.8992m-9.8997-10.188,10.442-0.25428m-5.1872-2.9496c1.6952,0.44074,4.204,0.18647,5.9839,0.18647l-0.62721,0.16952" stroke-linecap="round" stroke-miterlimit="2.41400003" stroke-dasharray="none" stroke-width="1.42393553" fill="none"/>
<path stroke-linejoin="round" d="m-164.22-163.93c1.1527,12.68,5.4415,14.104,4.7295,1.3392,0.98319,13.833,6.5942,17.223,6.9502-1.2544,0.27124,21.868,11.341,20.444,11.612-0.35599-1.4239,19.376,5.611,16.511,6.2382,0.54245,0.89844,16.867,4.8312,10.086,5.3567,0m-21.054,2.5936c0.79672,14.816,7.2214,10.527,7.2214-0.37294m-17.138,16.884c5.272,16.68,9.103,14.714,8.3063-0.81367,1.9664,19.986,9.103,19.986,12.307-1.068-4.2718,19.816,5.4584,13.833,7.3231,0.62721m-17.494,4.543c2.3224,12.849,6.2552,7.9503,7.1366,0m-13.833,13.121c4.4752,14.731,7.3231,9.0183,5.8144-1.5934,1.3392,16.596,7.6621,18.02,9.2725,0.25428-3.1191,15.087,3.5768,13.307,6.6959-0.25428m-14.273,3.2038c1.2375,6.7806,3.7463,9.0183,6.4247-1.7799m1.7799,18.02c3.0343,13.833-4.2888,1.7969-4.0175,70.502,2.4071-67.823-6.5094-55.686-4.2888-69.875m3.6616-3.9328c0.0848,2.0511,0.35598,8.6623,0.35598,9.6455m-80.181-121.46c6.3399,0,13.663,2.3224,20.444,2.3224,0-1.0849-2.0512-2.0511-2.3224-2.7801l4.543-0.25427m-7.3061,13.917c-8.3063,3.2208-14.917,4.6447-25.258,4.8142m23.105,8.2215c-6.9502,6.323-9.5438,9.9845-18.104,15.799m-1.3392,32.564c12.036-9.6455,15.07-24.546,22.936-37.395m-10.001,75.858c7.8486-16.24,11.425-35.971,16.07-54.533m7.8486,61.229c6.8654-12.68,2.9496-29.716,7.0519-48.821m14.273,31.055c0.89844-12.053,1.6952-17.494-0.27123-27.479m-31.225-47.566c-4.2888-0.27124-8.6623,5.7974,0.71197,5.7974-10.357,0.35599-2.3224,7.4079,0.88148,5.8822-5.0855,1.5256-9.7133,10.544,2.3224,6.1704-8.8318,4.6278-6.2382,11.239,3.0343,5.3567-11.951,12.934,2.3224,11.866,4.56,4.7295-6.6111,12.578,2.0512,15.884,6.0687,4.2718-4.7295,18.037,7.4078,15.002,8.4758,3.6616-5.0855,18.206,10.442,13.121,9.5438,1.8816m-4.543,0c0,1.2375-1.5256,5.611-1.5256,6.0687m-7.4079-9.103c0,0.5255-1.5087,6.6959-1.9664,6.2382m-6.0687-10.713c0,0.72892-1.6952,4.916-2.4071,5.8992m-2.4919-10.171c-0.0848,0.0847-2.9496,3.4751-3.3056,3.1191m-0.44075-8.8318c-0.54245,0.27122-3.492,2.7631-3.492,2.4919m0.45769-8.0351c-0.71196,0.27122-2.7631,1.5256-3.5768,1.5256m2.5936-7.7638c-0.44074-0.18647-2.9496-0.71196-2.9496,0m2.0511-5.3567-3.2038-0.0847m138.82-32.089c-6.3399,0-15.172,3.4751-21.952,3.4751,0-1.068,3.5768-2.0512,3.8311-2.7631l-6.0687-0.27122m9.5607,14.019c8.2893,3.2039,13.748,3.7463,24.088,3.9158m-20.172,8.2215c6.9671,6.323,6.9671,9.6285,15.528,15.426m3.3056,34.191c-9.5438-10.713-16.68-25.173-24.546-38.022m13.392,75.418c-7.8486-16.24-12.934-36.056-19.46-54.093m-4.8143,61.755c-6.8654-12.663-4.2887-30.157-8.391-49.261m-12.663,32.937c-0.89844-12.053-3.3903-18.562-1.4409-28.563m29.631-48.448c4.2888-0.27122,8.6623,5.7974-0.71197,5.7974,10.357,0.35598,2.3224,7.4078-0.88148,5.8822,5.0855,1.5256,9.7133,10.544-2.3224,6.1704,8.8318,4.6278,6.2382,11.239-3.0343,5.3567,11.951,12.934-1.4239,12.663-3.6616,5.5262,6.5942,12.578-2.0511,15.884-6.0687,4.2888,4.7295,18.02-7.4926,14.985-8.5606,3.6616,5.0855,18.189-10.629,13.205-9.7302,1.9494m4.543,0c0,1.2544,1.6952,5.5432,1.6952,5.9839m7.4926-9.103c0,0.54245,1.5256,6.6959,1.9664,6.2552m6.0687-10.713c0,0.71197,1.6952,4.899,2.4071,5.8822m2.6784-10.883c0.10173,0.0848,2.9496,3.4751,3.3056,3.1191m-0.62722-8.9166c0.54246,0.27124,3.492,2.7631,3.492,2.4919m-0.4577-8.0351c0.71197,0.27123,2.7631,1.5256,3.5768,1.5256m-2.5936-7.7638c0.44074-0.18647,2.9496-0.71196,2.9496,0m-2.0512-5.3567,3.2039-0.0847m-127.67,124.29c0.62722,0.81367,1.068,1.7799,0.62722,2.5936" stroke-linecap="round" stroke-miterlimit="2.41400003" stroke-dasharray="none" stroke-width="1.06795168" fill="none"/>
<path stroke-linejoin="miter" d="m-164.8-93.855c-0.89844-2.0511-3.0343-4.187-4.6448-4.1023-2.2206,0.0847-5.255,7.0519-7.5774,9.815-0.89844,1.068-5.4415,7.6791-6.7806,7.6791,0,5.7974-5.3567,5.3567-7.1536,0.88148-1.3222-4.0006-3.1191-3.5598-6.6789-4.899-0.89844,0-4.4752-0.89844-4.4752-2.2376-1.3222,0-5.7974-0.88149-5.7974,1.7969,7.4078,0.0848-0.52551,5.3398,8.4758,4.4583,4.4752-0.44075,6.6959,6.9502,2.2376,5.3567-1.6952-0.54245-5.5262-3.6615-7.9503-1.6952-2.4071,1.9664-10.798,3.4751-10.798,7.9334,4.4752-3.0343,2.4241,1.7799,5.3567,2.6784,0.89843,0.27124,3.3056-4.3735,4.204-4.8142,0.44074-0.45769,4.7295,0.35598,5.611,0.35598,0-2.2376,5.6279-0.89844,8.5775-0.81367-0.62721,0.81367-0.62721,1.0849-2.2376,3.0513-1.2544,0.35598-8.391,5.967-8.9165,7.2214-2.6784,3.3056-3.1191,6.3399-2.7631,6.6959,0.52551,0.52551,3.2886-5.6279,3.6446,0,0.27123,0.27123,2.5936-0.98319,3.0343-0.98319,0-2.6784,2.6784-7.1366,5.8144-7.1366,0-2.2376,6.5094-6.8824,7.4078-6.4247,3.1191-1.3392,10.442,1.5087,13.561,1.5087,0-1.3392,0.44074-1.3392-0.89843-2.6784,0.89843-0.88148,1.7799-1.7799,3.1191-1.7799,0-4.4583-11.154,1.3392-12.036-0.89844-0.45769-0.88148,7.5774-9.815,8.4758-10.696,0.88147-0.89843,8.1198-10.171,9.1878-10.273z" fill-rule="nonzero" stroke-linecap="butt" stroke-miterlimit="2.41400003" stroke-dasharray="none" stroke-width="0.71196777" fill="#fcdd09"/>
<path stroke-linejoin="round" d="m-213.9-72.191c0.62722,0.81367,1.068,1.7799,0.62722,2.5936m11.137-17.138c0.62721,0.81368-1.6952,2.2376-2.1359,3.0343m-0.62722,25.207c0.62722,0.79673,1.2544,1.4239,0.79674,2.2207m30.53-13.951c-0.6272-0.79672-1.068-2.4071-0.6272-3.2039" stroke-linecap="round" stroke-miterlimit="2.41400003" stroke-dasharray="none" stroke-width="0.71196777" fill="none"/>
<path stroke-linejoin="miter" d="m-115.26-82.972c1.0679,1.4409,4.6447,5.6279,4.6447,7.4078,3.7463,2.5088-1.7969,2.6784-3.5768,2.6784-2.2376,0-7.5774-2.6784-7.5774,1.7969,2.6784-2.6784,4.3735,0.44074,2.0512,3.0343,1.6952,1.5087,2.9326,0.79673,4.6278,0.52551,1.0849-2.7631,12.493-2.0512,13.833-1.1527,1.7969,1.3392,5.8992,4.0175,10.713,10.086,0.81367,1.068-0.16952-6.0687,4.916-1.3392,0-3.136-1.7969-4.3735-3.3056-5.5432-3.7463-0.79672-4.7295-4.187-10.001-5.611,1.9664,0.35599,6.9671-0.4577,8.8488-0.4577,2.1359,0,2.1359-0.98319,4.3566-0.98319,0-1.7799,5.4584,2.3224,5.4584,3.6616,4.0175,0,4.0175,2.2376,4.0175-2.6784,0-1.7799,3.1191-0.88147,3.5598-0.44073,0-4.916-9.3742-2.2376-12.053-4.916-3.5598-3.1191-8.0181,3.5768-11.154,1.7969-1.7799-0.89844,2.2376-4.0175,1.7969-5.3567l0.88149-0.89844c0.89844,0.45769,2.6784,0.45769,4.0175,0.45769,0-0.45769,0.89844-1.3392,1.3392-1.3392v-1.7969c-3.1191,0,0.89844-2.2207,2.6784-2.2207,0-4.0175-12.934,2.2207-13.392,4.0175-2.2206,6.2382-5.5262,9.2725-9.3573,0.88148-0.6272-1.2375-4.0175-5.3567-4.0175-6.6959-0.89844,0-9.103-13.833-9.103-14.714-5.2719,3.0343-3.492,7.3231-3.848,6.8654,2.8648,3.1191,8.8487,12.053,9.6455,12.934z" fill-rule="nonzero" stroke-linecap="butt" stroke-miterlimit="2.41400003" stroke-dasharray="none" stroke-width="0.71196777" fill="#fcdd09"/>
<path stroke-linejoin="round" d="m-117.77-73.445c-0.27122,0.54246-0.54244,1.068-0.79672,1.6952m28.733-15.426c-0.27124,0.52549,0.44074,2.1359,1.4239,1.6952m11.629,10.29c-0.25427,0.54245-0.52549,2.6784,0.54246,3.6616m-11.154,7.4417c-0.25428,0.54246-2.1359,1.5257-1.5935,2.6784" stroke-linecap="round" stroke-miterlimit="2.41400003" stroke-dasharray="none" stroke-width="0.71196777" fill="none"/>
<path stroke-linejoin="round" d="m-152.42-85.278c0.15257,1.8138-1.2036,5.967-1.8308,7.8656,0.42379-1.0002,1.5765-5.238,1.8647-7.018-5.3059,4.0006-12.578,2.3902-15.918,5.0855,0-4.9838,12.9-2.2376,15.884-5.9331z" fill-rule="evenodd" stroke-linecap="round" stroke-miterlimit="2.41400003" stroke-dasharray="none" stroke-width="0.72891945" fill="#231f20"/>
<path stroke-linejoin="round" d="m-139.22-85.43c-0.15256,1.8138,1.3222,7.4587,1.9325,9.3573-0.40684-0.98319-1.6782-6.7298-1.9833-8.5097,5.3059,4.0006,12.595,2.4071,15.935,5.0855,0-4.9838-12.917-2.2376-15.884-5.9331z" fill-rule="evenodd" stroke-linecap="round" stroke-miterlimit="2.41400003" stroke-dasharray="none" stroke-width="0.72891945" fill="#231f20"/>
<path stroke-linejoin="round" d="m-198.31-209.18c-0.15257,0.1187-0.37294,0.20342-0.57636,0.33903-1.4409,24.376,9.9167,38.107,32.818,38.192l-0.034,5.7975c-33.395-3.9497-35.988-28.58-34.225-44.159-0.64417,0.66112-1.4748,0.98319-2.3732,0.98319-2.0681,0-3.7124-1.6443-3.7124-3.6954,0-1.8477,1.3561-3.3734,3.136-3.6616-0.0508-0.28817-0.0847-0.54244-0.0847-0.77977,0-2.0681,1.6443-3.7124,3.6954-3.7124,2.0512,0,3.6954,1.6443,3.6954,3.7124,0,0.23733-0.0339,0.4916-0.0678,0.72892,0.1187-0.0848,0.23732-0.0848,0.35599-0.0848,2.0681,0,3.7124,1.6613,3.7124,3.7124,0,2.0512-1.6443,3.6955-3.7124,3.6955-1.0171,0-1.9664-0.40684-2.6275-1.068z" fill-rule="nonzero" stroke-linecap="round" stroke-miterlimit="2.41400003" stroke-dasharray="none" stroke-width="1.15270984" fill="#fcdd09"/>
<path stroke-linejoin="round" d="m-93.904-208.43c0.16952,0.1187,0.37294,0.20342,0.57636,0.33902,1.4409,24.376-9.8997,38.107-32.801,38.192l0.0339,5.7974c33.395-3.9497,35.988-28.58,34.208-44.159,0.66111,0.66112,1.4917,0.9832,2.3902,0.9832,2.0512,0,3.6955-1.6443,3.6955-3.6955,0-1.8477-1.3561-3.3734-3.1191-3.6616,0.034-0.28818,0.0847-0.54245,0.0847-0.77977,0-2.0681-1.6443-3.7124-3.6954-3.7124-2.0681,0-3.7124,1.6443-3.7124,3.7124,0,0.23732,0.0508,0.49159,0.0847,0.72892-0.1187-0.0848-0.23732-0.0848-0.37294-0.0848-2.0511,0-3.6954,1.6613-3.6954,3.7124,0,2.0512,1.6443,3.6954,3.6954,3.6954,1.034,0,1.9833-0.40684,2.6275-1.068z" fill-rule="nonzero" stroke-linecap="round" stroke-miterlimit="2.41400003" stroke-dasharray="none" stroke-width="1.15270984" fill="#fcdd09"/>
</g>
</svg>
