<?xml version="1.0" encoding="utf-8"?>
<!-- Generator: Adobe Illustrator 24.3.0, SVG Export Plug-In . SVG Version: 6.00 Build 0)  -->
<svg version="1.1" id="Nebenlogo_100_x2F_60" xmlns="http://www.w3.org/2000/svg" xmlns:xlink="http://www.w3.org/1999/xlink"
	 x="0px" y="0px" viewBox="0 0 400 110.8" style="enable-background:new 0 0 400 110.8;" xml:space="preserve">
<style type="text/css">
	.st0{fill:#D9DADA;}
	.st1{fill-rule:evenodd;clip-rule:evenodd;fill:#005CA9;}
</style>
<g>
	<polygon class="st0" points="400,110.7 304.7,110.7 266.7,0 400,0 	"/>
	<path class="st1" d="M258.4,0h-43.3l-29.8,85.6l-20.6-31.1L197.4,0h-44l-24.6,47.2V0H90.6v69.7c-0.9-2.9-2.2-5.5-4.1-7.7
		c-3.6-4.3-9-7.3-16.4-8.8c5.4-1.2,9.5-3.8,12.4-7.9c2.9-4,4.4-9,4.4-15.1c0-9.5-3.1-16.9-9.3-22.2c-6.2-5.3-14.8-8-25.9-8H0v110.8
		h51.6c13.2,0,23.3-2.6,30.1-7.9c4.4-3.4,7.3-7.8,8.9-13.3v21.2h38.1V64.5l26.2,46.3h21.6H202h16.3l3.3-13.9h29.3l3.5,13.9h41.8
		L258.4,0z M36.5,26.4h5.1c3.1,0,5.5,0.6,7.2,2c1.6,1.3,2.5,3.2,2.5,5.8c0,2.5-0.8,4.4-2.5,5.8c-1.7,1.3-4.1,2-7.2,2h-5.1V26.4z
		 M51.9,81.1c-2.1,1.5-5.1,2.3-9,2.3h-6.5V65.7H43c3.9,0,6.9,0.8,9,2.3c2.1,1.5,3.1,3.7,3.1,6.6C55.1,77.4,54,79.5,51.9,81.1z
		 M228.1,70.5l3.3-12.6c1.6-6.4,2.7-11.3,3.3-14.7c0.6-3.4,0.9-6.6,1.1-9.7h0.7c0.2,3,0.5,6.3,1.1,9.7c0.6,3.4,1.7,8.3,3.3,14.7
		l3.3,12.6H228.1z"/>
</g>
</svg>
