<?xml version="1.0" encoding="UTF-8" standalone="no"?>
<!-- Created with Inkscape (http://www.inkscape.org/) -->

<svg
   xmlns:dc="http://purl.org/dc/elements/1.1/"
   xmlns:cc="http://creativecommons.org/ns#"
   xmlns:rdf="http://www.w3.org/1999/02/22-rdf-syntax-ns#"
   xmlns:svg="http://www.w3.org/2000/svg"
   xmlns="http://www.w3.org/2000/svg"
   version="1.0"
   width="594.92169"
   height="583.4931"
   id="svg2828">
  <metadata
     id="metadata27">
    <rdf:RDF>
      <cc:Work
         rdf:about="">
        <dc:format>image/svg+xml</dc:format>
        <dc:type
           rdf:resource="http://purl.org/dc/dcmitype/StillImage" />
        <dc:title></dc:title>
      </cc:Work>
    </rdf:RDF>
  </metadata>
  <defs
     id="defs2830" />
  <path
     d="m 295.63333,10.096177 c 0,0 0.245,0 0.245,0 6.44294,3.468658 9.78865,10.159235 13.50494,15.609824 7.18406,14.120535 1.48666,29.605674 3.09717,43.853526 2.72401,-1.362041 4.95538,-5.82208 8.54609,-6.195302 3.96393,2.106685 4.83243,6.939046 6.1953,11.273569 1.7352,6.690577 -0.99145,12.883247 -0.99145,19.200602 0.12469,0.248469 0.37233,0.373154 0.62086,0.496107 1.73257,-0.866697 4.45921,-2.849529 6.565,-1.114335 4.33452,6.195234 0.86669,14.245222 1.36287,20.936622 1.36197,0.12206 3.3448,-1.73519 4.8298,-0.37322 2.10578,1.7352 1.85814,4.45921 4.08945,5.32854 2.22873,-0.86933 3.71546,-3.22275 6.81353,-3.09807 1.36197,0.61913 2.22873,2.22874 2.84952,3.46866 0.86587,0.37059 1.36205,-1.23992 1.36205,-2.10579 2.10578,-5.57444 4.82979,-12.63554 10.52975,-15.48513 1.60968,-0.74375 2.97165,-0.24764 3.84098,0.24763 l 2.35342,5.32598 c 0.37059,0 0.49355,0 0.86677,-0.37059 3.84098,-9.910699 6.56499,-20.9358 16.84711,-24.529142 1.23909,-0.247637 2.10579,0.247638 2.60196,0.620861 l 1.7352,4.955313 c 0.12205,0.248538 0.37059,0.248538 0.61822,0.370591 2.10579,-1.735195 2.84953,-4.955314 4.46004,-7.431689 2.35342,-6.317355 5.07744,-11.273569 7.80491,-16.849743 6.31736,-9.786013 16.47659,-14.368173 27.87222,-18.209152 1.36204,-0.122953 2.35342,0.122952 3.22018,0.743743 0.24764,0.122122 0.37316,0.247638 0.62079,0.495275 7.18413,16.970134 0.74382,35.552439 -9.29246,47.942143 -2.6019,3.591611 -4.8298,7.05937 -6.81347,10.65271 l 8.42398,-0.24764 c 2.60106,4.83243 0,11.0251 -1.9811,15.98041 -1.98284,4.95539 -5.82208,8.05255 -8.30102,12.38708 0,0.37322 0,0.49617 0.12551,0.86933 l 5.69657,0.86586 c 1.98366,2.72491 0,7.062 -1.36204,9.78601 -2.72485,3.7163 -5.45149,6.81353 -8.05082,10.28219 0,0.37232 0.12295,0.74291 0.37059,0.74291 l 4.08952,0.12552 c 1.60961,0.49617 2.35079,2.22874 1.85814,4.33452 -0.12558,1.23909 -0.12558,1.7352 -0.62086,2.72665 0,0.4961 0.49528,0.74374 0.8685,0.98965 l 7.05854,0.74381 c 1.3646,1.85725 0.4961,4.33625 0.24847,6.56499 0.37322,0.49611 0.74381,0.49611 0.86849,0.49611 6.06972,-5.57444 12.13944,-13.37936 21.18164,-11.39562 0.49617,0.24763 1.3646,0.86586 1.61314,1.73256 l -0.86933,4.70774 c 0,0.6208 0.86933,0.86843 1.11697,0.24764 3.71539,-3.22019 7.67932,-5.07833 11.27267,-8.54609 5.3268,-2.10579 11.51864,-4.08952 16.47485,-2.60196 l -0.61912,5.82208 c 0,0.61823 0.12295,0.86586 0.61912,1.1144 15.85746,-9.66306 32.58162,-24.52741 55.12793,-16.72506 0.98965,0.74375 1.85815,1.23992 2.47721,2.10662 1.60968,5.32854 -2.47721,11.02766 -4.2124,15.98041 -6.19441,15.60983 -23.90828,18.70789 -35.80271,27.62721 l 5.82471,3.34307 c 0.74118,1.23909 0.8667,3.09724 0.12295,3.96567 -3.22019,5.69739 -8.54872,10.1566 -13.5023,12.75856 -3.71803,1.36197 -6.81354,2.35342 -9.54011,3.84098 -0.12295,0.24764 -0.37059,0.61823 -0.37059,0.8667 1.48492,1.1144 3.96393,1.73519 3.96393,4.21157 0,2.35342 -1.36204,3.46782 -1.98283,4.95538 l -14.86435,6.56582 c -0.12552,0.12469 -0.24764,0.49528 -0.24764,0.86587 0.49528,1.48755 2.72402,1.3646 3.22019,3.22275 0,0.37059 0,0.49617 0,0.86677 l -4.33452,4.95531 c 0,0.24764 0,0.61823 0.245,0.86677 l 7.30964,4.4592 -2.72484,5.32854 c 0,0.37059 0,0.61906 0.37059,0.74118 7.55727,-0.74118 16.47652,-4.58216 23.04241,0.49611 0.8667,0.86849 0.99138,2.479 0.12552,3.84098 -1.11697,1.73519 -3.09807,2.60196 -3.59335,4.08951 3.84098,1.23646 8.67168,-0.99228 12.88325,-1.3646 6.06972,-0.86677 12.38707,0.49527 17.46797,3.22185 0.98882,0.74118 1.85815,1.9811 1.48493,3.46866 -0.98882,2.10578 -3.46776,2.72401 -4.33452,4.70774 0,0.12206 0,0.49528 0.37059,0.61823 17.34328,-1.36204 38.52672,-4.33452 51.65843,8.42314 2.72658,1.98366 5.94677,4.33709 6.565,7.80574 -6.19184,7.18412 -13.627,12.13944 -22.79395,15.48431 -0.61823,0 -0.98882,0 -1.11433,0.12552 l -34.93338,0.86676 c 0.86586,2.72402 4.45921,3.46776 4.95538,6.565 -0.12558,2.10578 -2.23137,3.46865 -3.96393,4.08688 -8.54873,4.95532 -17.71651,0.24764 -26.0167,1.36461 l 2.10579,5.3259 c -1.61051,2.97255 -5.57445,3.71629 -9.16515,4.21157 -4.45921,-0.49528 -9.29247,-3.3448 -13.50404,-1.98283 -0.37059,1.61224 1.48755,2.23137 1.98283,3.96656 0,0.24764 0,0.8667 0,1.23729 l -5.82381,3.84098 c -0.12296,0 -0.12296,0.24764 -0.37059,0.61823 l 3.3448,5.82208 c -0.74374,2.84959 -3.71539,3.09723 -5.94676,4.58479 0,0.24764 0,0.61823 0,0.74374 7.68022,2.8496 16.59954,3.96394 20.19288,11.64333 0.37059,0.99228 0.49528,1.36287 0.49528,1.98366 l -7.43176,2.97256 c -0.12552,0.12468 -0.12552,0.49527 -0.12552,0.86586 9.41542,4.08945 20.68899,6.69051 25.76643,16.84974 0.24847,0.61823 0.37315,0.98882 0.37315,1.36198 0,1.23992 -1.36197,2.10578 -2.35342,2.72491 -1.7352,0 -2.84953,0.37315 -4.21157,0.49527 -0.24847,0.24847 -0.86933,0.24847 -0.62169,0.8667 14.24868,9.54011 35.43038,13.75168 40.3857,32.58252 1.85731,3.0946 2.97428,6.56589 3.34487,9.90813 l -1.73263,2.23131 c -9.29247,3.46782 -19.82223,3.46782 -29.23682,0.74381 -10.52975,-4.46011 -17.83856,-12.01648 -27.75009,-17.09482 -0.74381,0.24764 -0.99145,0.61823 -1.23645,1.23646 l 1.60961,5.82208 c 0,1.23992 -1.36461,2.479 -2.47894,2.97511 -10.77746,1.60968 -18.0862,-6.69141 -25.64347,-12.26495 -0.24591,0 -0.49355,0 -0.86677,0.24764 l -1.11433,6.19523 -6.5659,-0.37315 -14.12226,-10.15924 -0.8667,6.07235 c -1.7352,1.73347 -4.58479,0 -7.06117,0.24847 l -0.12552,8.29846 c -0.24763,0.24763 -0.37059,0.37232 -0.49527,0.49527 l -7.05944,-0.24764 c -0.74291,0.24764 0.12296,1.36204 0.24591,1.85815 4.2142,4.33716 10.15833,8.42314 10.90215,15.23667 l 0,5.9476 c -1.23909,0.99145 -3.59335,0.86586 -4.95539,0 -1.11433,-0.74375 -1.73256,-1.23992 -2.60106,-1.23992 -0.24847,0 -0.37142,0.37322 -0.4961,0.62086 l 4.21157,5.07826 c 4.46004,6.31736 10.53239,14.24522 9.16778,23.53769 -2.22874,1.61051 -5.57444,0.12296 -8.29845,-0.49527 -0.37323,0 -0.49618,0.12212 -0.6217,0.49527 7.18669,14.61671 22.54714,26.38556 19.44908,46.3299 0.24763,2.72658 -0.86587,4.83327 -0.24508,7.68279 -0.4961,2.47638 -1.11696,4.8298 -2.84953,5.32598 -10.03628,-0.86677 -18.46025,-6.1953 -25.52142,-12.38797 -8.54609,-9.66306 -11.39562,-21.8025 -18.70526,-31.59024 -0.24763,0 -0.49527,0 -0.74381,0.24764 l -1.73256,8.67167 c -1.11697,1.36461 -3.59334,0.86843 -4.95538,0 -9.41543,-5.20385 -11.39826,-15.85573 -15.60983,-24.27977 -0.37059,-0.12468 -0.61906,-0.12468 -0.8667,0 l -1.98283,4.08689 c -0.49617,0.62086 -0.98972,0.74381 -1.85814,1.11696 -2.72492,-0.24846 -4.8307,-2.47893 -6.81354,-4.83326 -2.10578,-4.82979 -2.47637,-10.89951 -5.94503,-14.12226 l -2.35342,4.33715 c -0.86933,0.49528 -2.2313,0.24764 -3.47039,0 l -4.83063,-3.84188 c -1.98283,1.36287 -0.86676,6.31826 -4.08862,7.062 -0.49354,0.12469 -0.86676,0.37322 -0.86676,0.37322 l -6.19267,-4.70774 c -0.49611,0 -0.49611,0.37059 -0.86843,1.1144 2.10578,7.92787 6.31735,17.46534 0.86843,24.52651 -0.49611,0.24847 -0.86843,0.49611 -0.86843,0.49611 -2.97255,0.24763 -3.96393,-2.22874 -6.19267,-3.59071 -0.37322,0 -0.49618,0 -0.74381,0.37059 0.37059,6.06971 2.22873,12.51258 1.60968,18.95289 -0.37233,3.96393 -1.36205,8.05255 -3.22019,10.77746 l -3.47039,0.74375 -4.8298,-4.70768 c 0,0 -0.49611,0 -0.74374,0.24764 -0.49618,14.61837 5.20295,30.97028 -2.22874,44.47432 -2.60196,5.69649 -5.69913,10.90034 -9.9107,14.86428 -1.1144,0.86849 -2.23137,1.48672 -3.3457,1.3646 -6.44031,-6.07228 -11.8918,-12.51259 -14.98904,-21.55742 -2.35425,-4.58216 -1.48755,-9.41286 -1.85814,-13.99758 0.37059,-8.54873 1.36204,-16.59954 1.23909,-24.77505 -0.12469,-0.24763 -0.37233,-0.74374 -0.8685,-0.74374 -2.35343,2.10578 -3.59071,6.19267 -7.43169,6.93641 -3.59334,-1.23992 -3.96393,-5.57444 -5.69913,-8.67161 -1.48499,-7.68022 0.74291,-14.74139 1.60961,-22.29866 0,-0.3706 -0.12295,-0.86587 -0.49527,-1.23902 -2.47721,0.12468 -4.21241,4.33708 -6.93642,2.60189 -2.8496,-3.46866 -3.46866,-8.29846 -2.35432,-12.14027 0.37059,-3.71546 1.73519,-6.81353 1.48756,-10.28129 -0.12469,-0.37322 -0.37316,-0.86676 -0.86843,-0.62086 l -1.73347,1.61225 c -1.1135,0.37059 -2.23047,2.10578 -4.08861,1.23735 l -3.22019,-7.18412 c -2.60189,0.61823 -4.21157,4.45921 -7.43169,4.08862 -2.35432,-0.86843 -2.72748,-3.96567 -3.84188,-6.1944 0,-0.12552 -0.24764,-0.12552 -0.61823,-0.37316 -3.3457,6.19524 -3.3457,15.36219 -8.91924,19.82223 -1.23992,0.99145 -3.84098,2.23047 -5.57618,0.86586 l -2.72491,-7.92786 c -2.72401,3.3457 -2.97248,10.15923 -5.45149,14.12317 -2.47638,6.06971 -6.93558,11.39562 -13.0053,13.99758 -2.2313,-0.74118 -2.72748,-3.7163 -3.22275,-6.19267 0,-0.74382 0,-1.23992 -0.37059,-1.61051 -0.12552,-0.12469 -0.49611,-0.37232 -0.8667,-0.49528 -2.23137,2.72402 -3.22275,6.68795 -5.32854,9.66306 -4.8307,9.53748 -7.18412,20.43789 -16.47659,26.63312 l -1.36197,1.23909 c -5.69656,2.84953 -11.39569,6.19267 -18.58237,7.92787 -1.36197,-0.24764 -2.60189,-1.48756 -3.34307,-2.8496 -1.11697,-5.07827 -1.85815,-10.15917 -2.35343,-15.2375 0.12205,-13.25377 7.18405,-22.91683 13.25377,-31.83615 2.23047,-3.47038 3.96393,-6.56499 6.1944,-9.5401 0,-0.24764 0,-0.49611 0,-0.8667 l -9.66306,1.98366 c -2.60106,-4.33708 -0.61822,-10.4068 0.86677,-15.24006 2.72658,-6.19184 8.79629,-9.78518 11.52121,-15.60726 l -6.81353,0.74381 c -2.10579,-3.71629 -0.37059,-8.67168 1.60968,-11.39825 2.97511,-3.59078 6.56582,-7.062 8.6716,-10.28219 0,0 0,-0.61823 0,-0.74291 -2.59932,-0.12295 -5.82208,1.23909 -7.55464,-0.98965 l 0.61823,-7.06117 c -0.86587,-0.86933 -2.35342,0.37059 -3.34487,0.61823 l -3.7163,-0.24764 c -2.47637,-1.98283 -0.4961,-5.57444 -1.36197,-8.1755 -3.96393,0.24764 -7.30964,6.93558 -11.0251,9.04227 -3.09807,2.84953 -7.55727,1.98283 -11.27357,2.84953 -0.24764,0 -0.49527,-0.12296 -0.74374,-0.37059 l 0.99138,-8.17634 c -0.12469,-0.24764 -0.24764,-0.37322 -0.62079,-0.49527 -8.67168,5.94413 -15.48514,15.11191 -27.7467,14.74132 -0.62169,-0.37059 -0.99228,-0.4961 -1.11697,-0.74374 -1.9811,-2.35432 0.12469,-5.82208 1.11697,-8.54699 0,-0.49528 -0.24847,-0.74292 -0.86933,-0.86843 -15.607189,9.78857 -31.83614,27.75009 -54.87855,20.19281 -1.9802,-1.11433 -4.08599,-1.9811 -4.8298,-3.71629 0.86586,-7.30964 4.21157,-14.61837 7.80235,-20.31494 5.45149,-8.54865 14.74395,-11.76884 23.04241,-16.47652 3.963932,-1.73519 8.796293,-3.46866 12.016481,-6.56589 -1.858147,-2.35342 -7.308805,0 -8.793731,-3.7163 l 0.370591,-3.3448 c 4.955314,-8.91932 14.245219,-12.88325 24.403559,-16.106 0.24846,-0.24847 0.37142,-0.37059 0.61905,-0.74118 l -5.07826,-2.72748 c -1.11441,-1.73256 0.37059,-3.96393 1.11433,-5.45059 4.08862,-4.83069 11.64589,-5.57444 17.46797,-8.29845 0.24764,-0.37322 0.24764,-0.74381 0,-0.86933 l -4.46004,-2.59933 -0.86586,-1.48672 4.45921,-6.19524 -5.32854,-2.60196 c -0.61823,-0.98882 -1.73263,-2.72401 -0.99145,-4.45921 l 2.72664,-3.83924 c -8.05254,0.24853 -19.07764,6.06971 -25.766422,-0.62079 l 3.220122,-7.06117 c -9.910699,0.8685 -22.29777,4.08861 -30.72174,-2.60189 -1.11441,-0.86677 -1.36204,-2.10579 -1.36204,-2.72402 l 3.59078,-4.21247 c 0,0 0,-0.49527 -0.24764,-0.61823 -2.60196,-0.74374 -4.95539,0 -7.92787,-0.24763 -10.28218,0.74381 -20.56347,3.71546 -30.10358,-0.99138 -7.0611,-2.35433 -11.76884,-6.69141 -17.34328,-11.39916 -1.36198,-1.36197 -2.22874,-2.47637 -1.85815,-4.08598 6.31825,-8.05345 13.75257,-12.88325 23.90918,-16.22896 11.64589,-2.22873 22.67092,0.61823 34.19213,0.61823 0.24763,-0.24763 0.86676,-0.37059 0.74118,-0.86586 l -4.8298,-5.07827 c -0.49611,-0.62086 -1.23992,-1.98283 -0.49611,-3.22275 6.81346,-6.68795 18.58231,-6.06972 27.624577,-3.96393 1.239919,0.37315 2.108348,0 2.975114,0.12551 1.732559,-1.11433 -2.727477,-4.2124 -0.743814,-6.44287 2.476373,-2.60196 5.699123,-3.59078 9.042273,-3.59078 4.58472,0.98882 9.29247,2.22791 13.50403,2.72402 1.23902,0 0.61823,-1.23902 0.3706,-1.7352 -1.23736,-1.36197 -2.35433,-2.47637 -2.22874,-4.08688 l 1.60961,-2.10579 4.70774,-2.47894 -3.59334,-6.19267 c 0.86933,-2.47901 3.46866,-3.71802 6.19523,-4.45921 0.24764,-0.12558 0.37059,-0.49617 0.37059,-0.86932 -8.05081,-3.22019 -19.07584,-4.21157 -22.2986,-12.38708 -0.24763,-0.49617 -0.24763,-0.86676 -0.24763,-0.86676 1.73519,-2.35342 5.69912,-2.47894 8.6716,-3.7154 0.12469,0 0.12469,-0.37322 0.12469,-0.74381 -9.78511,-4.08945 -22.050132,-6.69141 -26.88249,-16.9727 -0.24854,-0.74374 -0.12296,-1.23901 -0.24854,-1.60961 1.11697,-2.72491 5.577073,-1.85814 7.804911,-3.3457 C 78.59374,188.11293 57.16184,181.05183 51.96055,159.24934 c -0.4961,-2.10579 -0.86843,-4.46011 0.37059,-5.82471 10.65451,-4.70512 24.77505,-4.70512 35.92566,0.49617 8.052553,4.83236 15.11455,10.53149 23.41211,14.24779 l -1.23902,-7.68279 c 0.12551,-0.74119 0.86843,-1.36205 1.73519,-1.73264 7.18405,-1.23901 15.8583,1.85815 20.44046,6.19267 2.60196,2.60196 5.07833,4.45921 7.55727,6.19531 0.37059,0 0.61823,-0.24854 0.74381,-0.37059 0,-2.23137 -0.99145,-5.20386 0.98882,-6.69141 6.69051,-1.23909 11.52121,3.59334 15.98042,7.18405 1.48755,1.61314 3.3457,3.3457 5.08089,3.84188 0,0 0.24847,-0.24854 0.24847,-0.24854 l 0.24764,-6.68794 c 2.60196,-1.7352 5.69657,1.1144 8.54609,0.74381 0.37323,-2.23137 -2.35342,-5.57708 -0.61822,-8.4266 2.22873,-1.73264 5.07833,0.12551 7.67939,0.12551 0.24847,0 0.37316,-0.12551 0.49611,-0.61823 -5.07827,-6.56845 -13.37936,-12.14199 -12.63554,-21.4319 0.12295,-0.62169 0.24763,-0.99228 0.4961,-1.36287 l 6.19267,-1.98283 c -1.61051,-2.35426 -3.09543,-4.70768 -4.95621,-6.93642 -4.21157,-5.20302 -7.92696,-12.51266 -6.56499,-19.82139 0.12468,-0.49618 0.49527,-0.86677 0.49527,-0.86677 3.59334,-1.11696 7.18669,2.10579 10.28219,3.09724 0.24764,-0.12469 0.24764,-0.24764 0.24764,-0.62086 -4.33453,-3.83835 -7.05854,-9.28984 -10.90042,-14.122268 -8.91924,-10.529756 -12.76022,-25.767257 -10.52892,-40.507752 0.74381,-2.23137 1.48499,-4.460108 2.60106,-5.947665 11.27357,0.496176 21.30722,6.690578 28.36838,13.379354 5.57445,7.557275 9.28984,17.590924 13.99759,25.643474 0.4961,1.735194 1.23992,2.476375 1.85814,3.345704 0.24764,0.122953 0.49611,0.122953 0.74375,0 l 3.46782,-8.671608 c 0.74375,-0.868498 2.35426,0 3.22275,0.496106 3.22012,2.228738 6.56583,5.078336 9.16779,7.927865 l 7.67933,17.34245 c 0.37059,0 0.49617,0 0.86676,-0.12468 l 2.97248,-5.20129 1.48673,-0.12552 c 7.18668,3.46866 7.92786,12.01732 11.15062,18.9538 0.24763,0.12468 0.61905,0.37232 0.86669,0.37232 l 3.34488,-5.45066 6.19267,3.96394 c 0.24846,0 0.4961,0 0.86932,-0.12296 0.98882,-2.10578 0.98882,-5.82464 3.7154,-6.56582 3.09807,0.37059 4.70774,2.22874 6.93648,3.83925 0.12552,-7.92787 -5.32597,-17.96152 0.86933,-25.271152 0.49264,-0.743813 0.86587,-0.743813 1.1135,-0.866766 l 6.19267,4.956215 c 0.37316,-10.159166 -5.07833,-23.290051 2.6019,-31.838707 0.86849,-0.992282 2.72664,0 3.59334,0.495275 1.73519,1.239919 2.8496,2.972482 4.21157,3.84098 1.36204,-10.035382 -2.47638,-21.679542 -0.74375,-32.334051 2.47894,-11.025032 6.93905,-18.828212 14.49632,-26.385486 0.86587,-0.373223 1.23646,-0.991451 2.10579,-0.991451 z"
     id="path27"
     style="fill:#000000;fill-opacity:1;fill-rule:evenodd;stroke:#000000;stroke-width:2;stroke-linecap:square;stroke-linejoin:miter;stroke-miterlimit:10;stroke-opacity:1;stroke-dasharray:none" />
  <path
     d="m 296.23738,12.04008 0.44422,170.7937 c -1.11177,1.11178 -2.89116,0.2234 -4.00293,0.66755 -5.33629,-37.1378 -4.00286,-76.27839 -10.451,-113.41882 -0.22339,-13.342157 -4.67048,-26.907637 0,-39.140585 2.22355,-5.783151 5.55976,-9.78345 8.0067,-14.453928 2.22354,-1.558558 3.11192,-4.003762 6.00301,-4.447917 z M 433.2286,48.066112 c 0.66754,0 0.89094,0 1.33516,0.444224 l -74.94586,134.990994 -6.67062,0.44423 c 0,0 -0.44423,-0.44423 -0.44423,-0.44423 27.79865,-44.03272 33.5809,-107.63657 78.94879,-134.767601 0.66498,0 1.33253,-0.667617 1.77676,-0.667617 z m -277.76447,4.002931 c 26.46605,42.476731 52.04108,86.508627 77.39279,130.099757 l -6.00564,0 c -2.88943,-4.00376 -5.33637,-7.56247 -8.67168,-11.5654 -15.56826,-21.57217 -26.9102,-44.70027 -46.47966,-63.82468 -6.00564,-7.118244 -10.00851,-14.679882 -15.12404,-21.572172 -4.89131,-10.009405 -4.89131,-22.239721 -2.00015,-32.69335 0,-0.444155 0.22076,-0.444155 0.66755,-0.888378 0,0 0.22083,0.444223 0.22083,0.444223 z M 320.03309,66.525534 308.46776,182.83378 c 0,0.66755 -0.66498,0.66755 -1.3326,0.2234 -0.66755,-4.22633 1.11177,-9.56262 0.66762,-14.67732 4.44708,-33.80512 -1.33517,-70.942927 10.23017,-100.741723 0.66498,-1.112603 1.3326,-1.112603 1.3326,-1.558558 0,0 0.66754,0.445955 0.66754,0.445955 z m -47.14721,1.777587 c 0,0 0.44416,0 0.66755,0.446787 1.78022,8.894171 2.22445,18.901013 3.78037,28.242802 2.00278,28.91042 5.3381,56.93066 8.45002,85.39685 0,0.44422 -0.22083,0.44422 -0.66499,0.44422 -3.11455,-15.78909 -4.89387,-33.57916 -7.56163,-50.0358 -0.2234,-20.90719 -10.45357,-41.364958 -6.4507,-61.603699 0,-1.111771 0.44678,-2.223543 1.11177,-2.89116 0,0 0,0 0.66761,0 z m -69.16277,16.903427 c 0,0 0.44422,0 0.44422,0 L 247.9784,182.1688 c 0,0.66498 -0.66762,0.66498 -1.33517,0.66498 0,0 -0.44422,0 -0.66498,-0.44422 -12.67717,-32.46996 -38.91983,-61.15691 -43.36691,-96.518027 0,-0.220761 0.89101,-0.664985 0.89101,-0.664985 0,0 0,0 0.22076,0 z m 184.13843,0.664985 c 0,0 0,0 0,0 -3.33615,10.897783 -8.45085,20.239637 -12.23032,30.246417 -6.89492,15.78909 -13.78977,30.68973 -20.6838,46.0346 -3.55614,7.56247 -5.78051,15.12148 -10.45099,21.79301 0,-0.44423 0,-0.44423 -0.2234,-0.44423 12.23295,-30.69057 23.3515,-61.60113 36.24943,-91.846647 2.67033,-2.447836 4.44972,-4.224592 7.33908,-5.78315 z M 263.1007,94.545774 c 0,0 0.44679,0 0.44679,0 l 15.5657,87.843786 c -0.44422,0.44422 -0.88838,0.44422 -1.11177,0.44422 -0.44423,0 -0.44423,0 -0.66762,-0.44422 -2.89109,-14.67725 -6.2273,-30.24378 -9.56262,-44.92367 -2.00015,-10.23023 -3.77947,-18.68018 -6.44806,-27.79864 -1.33517,-5.33547 -0.66762,-10.674391 1.77758,-15.565631 0,0 0,0.444155 0,0.444155 z m 66.71841,0.667617 c 0,0 0.44422,0 0.44422,0 -4.00293,29.577969 -9.11846,58.709979 -14.45393,87.843789 -0.44678,0 -0.66755,0 -1.11433,-0.2234 0,-3.33531 1.77932,-6.89228 1.33516,-10.23023 5.78225,-25.57247 2.6677,-54.26206 13.34472,-77.390159 0,0 0.44416,0 0.44416,0 z m 36.24949,9.118389 -29.13464,79.16955 c -0.22083,0 -0.22083,0 -0.66762,0 5.33893,-18.01346 11.5654,-34.91426 16.90433,-52.48267 2.89109,-8.00669 2.89109,-15.56916 7.33817,-22.46318 l 5.33637,-4.2237 c 0,0 0.22339,0 0.22339,0 z m -138.54977,1.11178 c 0,0 0,0.22083 0.66761,0.22083 l 28.24281,76.72517 c -0.44423,0 -1.11178,0 -1.11178,0 -9.11846,-19.79278 -16.90086,-42.92095 -26.68687,-62.71291 -1.33254,-4.22715 -5.3363,-9.56262 -1.77932,-14.01226 0,0 0.66755,-0.22083 0.66755,-0.22083 z m 200.15091,1.33516 c 0,0 0.44415,0 0.89094,0.44422 0.66498,0 -0.89094,0.22076 0,0.66755 l -53.37451,76.05507 c -0.66762,0.66754 -2.22355,0.22339 -2.89116,0.22339 13.78894,-24.6841 30.69063,-48.47981 45.81211,-72.94314 l 9.56262,-4.44709 z m -263.53137,2.88853 4.44709,4.00293 49.14735,68.05183 c -0.22076,1.11177 -1.33253,0.66755 -2.4443,0.44679 -13.34472,-14.45649 -21.57217,-32.46996 -38.02881,-45.14713 -4.00377,-3.55871 -6.22731,-8.67334 -10.23024,-12.67454 -2.22354,-4.22625 -4.22625,-8.45258 -4.00286,-13.12132 l 0.88838,-1.55856 c 0,0 0.22339,0 0.22339,0 z m 172.79559,6.4507 -15.12148,67.38338 c 0,0 -0.66761,0 -0.66761,0 4.44798,-22.01633 6.2273,-45.81204 14.45649,-66.71577 0.22083,-0.22339 0.66498,-0.22339 1.11177,-0.66761 0,0 0.22083,0 0.22083,0 z m -82.06071,0.44422 c 0,0 0.44422,0 0.44422,0 l 15.78903,65.60663 c 0,0.22076 0,0 0,0.66498 -4.00286,-6.2273 -4.66785,-14.45392 -7.11478,-22.01639 -4.00377,-12.89794 -6.89493,-24.90749 -10.89779,-37.3612 -0.66762,-1.77939 -0.66762,-5.1147 0.66755,-6.67063 0.44422,-0.22339 0.44422,-0.22339 0.44422,-0.22339 0,0 0.66755,0 0.66755,0 z m -10.67439,3.11448 c 6.67153,19.79196 13.34216,42.4759 19.79286,62.71291 -0.44423,0.66762 -0.89102,0.44422 -1.55683,0.44422 -4.22633,-10.89522 -7.78503,-23.12816 -12.45378,-34.24671 -1.11177,-5.1147 -3.33788,-10.0094 -5.11463,-15.56826 -0.44679,-1.77939 -1.11177,-3.55698 -2.22355,-5.78315 -0.66761,-2.88853 0,-5.33546 1.11178,-7.7824 0,0 0.44415,0.22339 0.44415,0.22339 z m 103.18866,-0.22339 c 0,0 0.44422,0.22339 0.44422,0.22339 l -17.56841,63.15713 c -0.44422,0.2234 -0.88838,0.66755 -1.55599,0.2234 l 15.56569,-60.71276 c 0.66755,-1.11177 2.00272,-1.77939 2.89109,-2.89116 0,0 0.2234,0 0.2234,0 z m 74.27831,18.01263 c 0.22076,0 0.66754,0 1.11177,0 0.66755,0.2234 -1.11177,0.2234 0,0.66755 l -11.5654,14.67732 c -0.44416,0 -0.66755,0.44679 -0.66755,0.89094 l -10.89522,13.34299 -12.9005,16.45664 c -0.44422,0.44423 -1.77675,1.11177 -2.88852,0.66762 10.45099,-15.12148 21.56954,-30.24558 33.13494,-45.36789 1.77932,-0.66762 3.11448,-1.11177 4.67048,-1.33517 z m 95.62702,9.56519 13.78894,0.44422 6.2264,1.55593 c -9.11756,7.7833 -22.01549,13.56555 -32.91328,20.68379 -34.91426,20.23618 -69.83115,42.25251 -105.41303,61.37775 l 0,-6.22731 c 5.78308,-5.78225 13.56548,-9.78338 20.4604,-15.12148 14.67726,-10.00677 28.4662,-19.12523 42.92006,-28.68695 6.00391,-4.45055 11.11861,-8.45348 17.56931,-11.5654 2.89109,-5.33893 9.78601,-6.4507 14.0097,-11.11855 7.56157,-4.67138 13.78888,-10.45363 23.3515,-11.342 z m -463.014669,7.5599 151.668469,85.84274 0.44423,4.67138 C 167.47368,229.98099 133.22697,208.40882 94.751372,193.95496 78.518121,186.83665 61.173111,180.16602 55.834181,163.70855 c -1.11177,-3.55871 -3.33532,-5.33547 -1.77939,-9.11757 0,0 0.22339,0 0.22339,0 z m 420.982089,3.7821 2.89199,0 c -6.44806,6.44724 -16.90169,12.45371 -24.90749,18.90095 -5.33629,3.783 -9.56262,7.33907 -15.1223,10.45363 -7.56164,6.2273 -14.67732,11.34193 -22.23889,17.12418 -5.78315,3.55698 -10.45363,8.22746 -16.68094,11.34201 -0.66498,0 -0.22076,-1.33516 0,-1.77939 l 34.9169,-28.02197 17.34591,-12.89793 c 3.55871,-5.1147 9.78512,-8.45085 14.4565,-12.23295 3.5587,-1.77676 6.44723,-2.22354 9.33832,-2.88853 z m -59.37669,0.66499 2.89109,0 c -6.22731,8.67424 -13.78888,15.79165 -21.34878,24.46326 -1.11177,0.66762 -2.44694,1.11177 -3.55871,0.66762 0,0 -0.22339,0 -0.66755,-0.22339 l 1.77932,-2.88853 c 0.44422,0 0.44422,0 0.66762,0 l 1.55592,-2.22618 c 6.67153,-5.33629 10.00685,-15.56653 18.68109,-19.79278 z m -302.45119,1.77932 33.13667,23.79571 59.37759,42.4759 c -0.44415,1.11177 -1.77932,-0.44415 -2.4443,-0.66498 -7.33908,-3.7821 -12.67717,-8.00579 -19.12787,-12.00956 -9.11756,-6.44979 -18.45679,-11.78872 -26.68681,-17.56841 -11.11861,-6.89485 -20.45957,-13.78887 -31.35472,-20.90455 -4.67138,-2.89116 -7.56247,-5.3381 -11.78879,-7.56164 -1.77676,-1.33517 -2.6677,-4.22716 -2.6677,-6.89486 0,-0.22339 0.89094,-1.11177 1.55593,-0.66761 z m 59.37932,1.33516 c 0.44423,0 0.66762,0 1.11177,0 4.67138,4.00293 8.67168,9.11847 12.89884,13.12133 6.2264,6.89492 12.67627,12.89793 19.12433,20.4604 l 0,1.556 c 0,0.22076 -0.44415,0.66754 -0.66754,0.66754 -10.89523,-9.11839 -19.56947,-19.57202 -29.13118,-28.2428 -1.77939,-1.77932 -3.78301,-4.22715 -3.78301,-7.11824 0,0 0.44679,-0.44423 0.44679,-0.44423 z m 275.54092,0.88838 1.33261,0 c -2.88853,4.22716 -8.89418,8.23009 -12.89794,12.45378 -9.11756,6.67409 -18.45679,15.12404 -26.68687,21.79557 -4.00287,2.66769 -7.11479,6.67062 -10.89779,8.895 -0.22076,-0.66755 -0.22076,-1.11177 -0.22076,-1.77932 1.11177,-2.89199 4.22453,-4.44799 6.00391,-7.11568 7.56157,-6.67153 15.12404,-12.00956 21.57218,-18.45943 7.56157,-4.66874 12.00865,-13.34298 20.90372,-15.78992 0.44679,0 0.44679,-0.44415 0.44679,-0.44415 0,0 0.44415,0.44415 0.44415,0.44415 z m -305.34228,3.11455 61.15698,49.81498 c 0.66755,0.22339 0.66755,0.66755 1.33517,0.66755 0.44415,0.44422 0.88838,0.66761 0.88838,1.33343 0,0.44679 -0.44423,0.44679 -0.88838,0.44679 l -62.26876,-47.59144 c -0.66754,-0.66754 -1.33516,-1.77932 -1.33516,-3.5587 0,-0.2234 0.22339,-0.66845 0.66762,-1.11261 0,0 0.44415,0 0.44415,0 z m 281.10241,0.88921 2.44521,0 c 1.11177,0.89101 -2.00105,3.11456 -3.11282,3.7821 -6.4498,6.89146 -14.67726,14.89809 -21.35052,21.34878 -1.33343,0.22257 -1.77932,1.11177 -2.4452,1.33517 -0.66755,-0.66755 -0.44679,-2.00361 0,-2.89199 5.78052,-6.4498 11.56277,-11.7879 16.23415,-17.12419 2.22354,-2.66777 4.22625,-3.77954 5.78225,-5.78225 l 2.44693,-0.66762 z m -258.41846,3.11456 40.25235,37.1378 c 0,0.22339 0.66762,1.11177 0.44423,2.22354 -5.55886,-2.00015 -9.78345,-8.00662 -14.89809,-11.56277 -7.56247,-9.78601 -22.90733,-15.56826 -26.91027,-27.79857 0.2234,0 0.2234,0 1.11178,0 z m 327.58207,24.90748 10.451,1.77932 c 0,0 0,0 0,0.44423 L 399.20264,245.1051 c -0.22076,0 -0.66498,0 -0.88838,-0.44679 0,-0.22083 0.2234,-0.66498 0.2234,-1.11177 6.44813,-4.22459 14.0097,-7.11568 20.90462,-11.342 24.90749,-12.67454 49.37076,-24.6841 73.83409,-37.13781 z m -402.081142,5.78225 c 14.009702,5.3363 27.351862,11.56277 40.917342,17.56925 5.78315,2.22354 11.5654,5.33546 17.56931,7.559 18.90358,9.11847 37.80798,16.9017 55.82062,26.01926 -27.57526,-9.33922 -55.37383,-21.7921 -82.72916,-32.91328 -10.45273,-4.00113 -24.907484,-4.89214 -30.913128,-14.67725 -0.664984,-1.55683 -1.776751,-1.78022 -2.223541,-2.89199 0.44679,-0.44423 0.667616,-0.66499 1.558557,-0.66499 z m 385.623602,18.01347 6.00391,1.11177 c -8.895,4.89124 -19.79279,8.22655 -29.79873,12.45371 -5.11553,1.77939 -10.45363,3.55871 -15.56916,5.3381 -12.89793,5.55968 -25.57504,9.78338 -38.25221,14.23046 l 77.61619,-33.13404 z m -367.61097,4.89124 95.62702,34.91689 c -6.00391,-0.89094 -11.78616,-3.7821 -17.56841,-5.33892 -6.2273,-2.44694 -11.56277,-3.11193 -17.34585,-5.78225 -19.79195,-9.33923 -47.81483,-9.78338 -61.60377,-23.79572 0,-0.22076 0.44679,0 0.89101,0 z m 356.26986,12.00955 3.77954,0.66762 c 0,0.44416 0.22339,0.66755 0.22339,1.11177 l -70.49877,21.12795 c 0,-1.33516 1.77932,-1.33516 3.11275,-2.44693 7.56164,-1.33517 13.78895,-4.67131 20.90373,-6.89486 14.01234,-4.22369 28.91125,-11.11861 42.47936,-13.56555 z m -339.81239,6.00392 79.83717,23.57405 c 0.88838,0.22083 -1.33517,0.66762 0,0.88838 -3.11192,0 -6.44987,-1.33253 -9.56262,-2.00015 -14.0097,-3.33532 -27.13103,-7.33818 -40.69658,-10.45356 -10.23017,-3.33532 -20.90456,-4.44709 -29.57797,-8.67078 -0.44415,-1.11177 -0.66755,-1.55856 -1.11177,-2.22617 0,-0.22166 0,-1.11177 0.44422,-1.33344 0,0 0.66755,0.22167 0.66755,0.22167 z m -4.22715,12.00872 79.17301,17.56924 -77.17023,-15.12147 c -1.33517,0 -1.33517,-1.33517 -2.00278,-2.44777 0,0 0,0 0,0 z m 362.94056,1.1126 8.45084,0.89101 c -27.57525,6.89402 -56.4865,9.78255 -85.17346,15.12148 l 76.72262,-16.01249 z m -383.84429,6.44987 c 11.78616,0.66755 23.79572,3.11192 35.58188,4.89124 20.23874,2.89199 40.25236,6.67409 60.04694,10.23023 l -93.62604,-11.56276 c -1.33516,-0.44679 -2.00278,-2.22355 -2.44693,-3.55871 0,0 0.44415,0 0.44415,0 z m 407.19578,1.77932 c 4.67048,0 9.56262,0.22083 13.34472,3.11192 0,0.44678 -0.44679,0.44678 -0.44679,0.44678 -39.58474,5.33637 -78.50193,8.00407 -118.08674,11.78617 l 105.18881,-15.34487 z m -436.774579,7.5599 134.323449,12.9005 c 0.66755,0.44422 0.2234,0.44422 0.2234,0.66762 -30.91057,-0.66762 -61.82453,-3.7821 -92.51427,-4.89478 -8.67168,-0.88837 -16.901694,-0.88837 -25.128319,-1.55592 -5.78308,-0.66762 -11.78872,0.66755 -15.12404,-3.55871 -0.66761,-1.11177 -2.22444,-2.22354 -2.4452,-2.89116 -0.44679,-0.44415 0,-1.11177 0.66498,-0.66755 z m 472.356459,2.89109 c 7.11741,-0.44415 15.1241,1.33517 21.35051,4.89388 4.22459,3.33621 8.45085,5.78315 11.78616,9.56262 0,0 0,0.66761 0,0.88837 -3.55871,1.11177 -7.56157,0 -11.5645,0.44679 -2.89199,0.66498 -5.11553,-0.44679 -7.55984,0.66498 -11.12117,-0.22076 -22.23979,-0.22076 -33.36097,0 -24.4607,0 -48.7032,0.44679 -73.16563,0.44679 -4.22453,0 -8.22746,-0.66755 -12.67537,-0.44679 -4.00293,0 -7.56164,0.44679 -11.78616,0.44679 -9.34096,0 -18.45943,-0.44679 -27.35443,0 -1.11177,-1.11177 -0.44422,-2.89109 -0.44422,-4.67048 48.7032,-5.11553 95.85048,-6.2273 144.77445,-12.23295 z m -358.93763,19.79286 19.79285,0 1.77932,0.66755 c 0,1.11177 0.44423,2.22354 -0.44415,2.89116 -7.11568,0.66754 -14.2331,1.11177 -21.12802,1.77932 -37.3612,4.44708 -75.16662,3.33531 -111.194449,10.45362 -10.89515,0.44416 -21.79294,2.44431 -32.02317,1.11178 -9.1184,-1.77939 -16.23325,-6.4507 -22.01633,-12.90057 -0.44422,-0.44415 -0.66762,-0.88838 -0.66762,-1.55593 18.68109,-1.77938 38.47304,-0.66761 57.82167,-1.77938 23.351494,-0.44416 45.811219,-0.44416 69.606929,-0.44416 12.89793,-0.22339 25.57504,0 38.47297,-0.22339 z m 214.82816,5.78225 c 40.03243,5.33803 86.06704,-0.44422 122.98408,12.23295 0.22083,0.22076 0.66498,1.11177 0.66498,1.11177 -1.77675,0.88838 -4.44708,-0.44423 -6.2264,0 -29.13208,-4.00293 -57.15405,-5.78225 -85.62025,-9.11847 -10.45099,-0.66754 -20.90462,-2.22354 -30.9114,-3.5587 -0.44422,0 -0.89101,0 -1.11177,-0.44416 0,0 0.22076,-0.22339 0.22076,-0.22339 z m -196.5913,3.55871 c 0.89101,0 1.11177,0 1.55599,0 0.66755,0 0.66755,0.44415 0.66755,0.66754 -44.25522,2.44521 -90.06733,19.12524 -132.544059,14.67733 15.12231,-4.89131 33.137499,-4.22633 49.814979,-7.11742 26.9111,-2.22354 54.04213,-5.1147 80.50554,-8.22745 z m 197.03809,3.55953 c 3.33621,0.44423 5.78052,1.11178 9.33923,1.556 25.13088,2.89109 49.81497,7.56157 74.94585,9.33832 4.22633,1.33607 8.89507,1.33607 10.67439,5.33893 0,0 0,0.44423 -0.22076,0.66762 l -95.40626,-15.78909 c -0.44422,-0.66755 0.22076,-1.11178 0.66755,-1.11178 z m -205.48894,5.11471 c -2.89109,0.66754 -5.11463,1.33253 -8.45085,2.00015 -21.79466,5.11553 -45.36699,8.00662 -66.93916,14.90064 -5.78225,1.77939 -12.45378,3.11282 -18.01264,0 -0.22339,0 -0.22339,-0.44415 -0.22339,-0.44415 4.89387,-2.22355 10.45363,-2.44694 15.34487,-3.55871 26.68688,-4.00293 52.70614,-9.34186 78.28117,-12.89793 z m 204.82139,1.33253 c 15.78993,2.22354 32.02317,5.78315 47.59143,8.67424 8.89501,2.22354 17.79181,2.89116 26.24266,6.22647 l 1.33253,2.00272 c 0,0 0,0.44422 -0.22076,0.88837 l -74.94586,-17.34501 c -0.44422,0 -0.44422,0 0,-0.44679 z m -196.37054,3.55871 c 0.89101,0 1.11177,0 1.55599,0 -2.88852,1.77939 -7.11568,1.55682 -9.78345,3.33621 -23.79571,5.11463 -46.70305,15.56826 -70.05371,17.34758 -0.88921,0 -0.88921,-0.89094 -0.88921,-1.11177 l 79.17038,-19.57202 c 0,0 0,0 0,0 z m 195.70292,2.66859 68.71946,17.12426 4.22369,4.67048 c 0,0.44415 0,0.88838 -0.22083,0.88838 l -72.72232,-21.57134 c 0,0 -0.44415,-0.44416 0,-1.11178 0,0 0,0 0,0 z m -193.47938,2.89116 c 0,0 0.44422,0.2234 0.44422,0.2234 -24.90748,9.11756 -50.70335,19.56856 -76.72261,26.24265 -1.55599,-0.89101 -2.22354,-0.89101 -3.5587,-1.33516 25.79842,-9.34186 54.26206,-17.34592 79.83709,-25.13089 z m 193.47938,4.22626 83.39671,27.79865 4.00293,4.67131 c -29.57797,-8.67424 -58.04416,-21.57218 -87.39964,-31.80234 0,0 -0.88837,-1.11178 0,-0.66762 z m -193.03516,2.22354 c 0,0 0.2234,0 0.2234,0 -30.24559,12.23039 -61.15698,28.02031 -91.62333,36.69365 -0.89094,0 -1.11177,-0.44415 -1.55856,-0.66755 29.13382,-13.12132 61.60287,-24.23994 92.95849,-36.0261 z m 193.03516,4.89214 c 34.91434,16.68004 76.27846,25.35428 105.85726,47.36977 0.22339,0.66762 0.66762,0.66762 0.66762,0.88928 -36.47289,-13.12132 -70.7196,-32.02317 -107.41325,-47.36804 0,-0.44678 0.44422,-1.11177 0.88837,-0.89101 z m -191.25584,2.00278 c 0,0.22076 0,0.22076 0,0.66755 0,0.22083 0,0.22083 0,0.66499 l -79.6137,39.58737 c -11.12118,4.66874 -21.57217,15.12147 -34.916891,12.23038 -0.667617,-0.22339 -0.667617,-0.22339 -0.667617,-0.22339 37.363828,-18.90184 74.501698,-36.0261 114.754058,-52.9269 0,0 0.44415,0 0.44415,0 z m 188.58815,5.55886 c 30.68974,12.6771 58.48921,27.57609 87.84379,41.58835 16.23324,8.22663 35.80527,13.34216 48.25898,25.12832 3.55614,5.11463 7.33824,10.45273 9.33922,16.45664 0.44423,1.55593 0,2.67033 0.44423,3.33531 -1.77766,1.11178 -3.55698,-1.3326 -6.22731,-1.77938 -1.77675,-1.11177 -2.88853,-2.22355 -4.22369,-3.33532 -1.77939,-0.22076 -2.22354,-0.22076 -2.89116,-0.88838 l -64.49313,-36.91704 -69.3861,-39.80813 1.11177,-3.78037 c 0,0 0,0 0.2234,0 z m -187.47638,5.55969 c 0.2234,0 1.11178,0 1.33517,0 l 1.55683,2.44693 c -30.69057,24.23994 -64.49313,44.0319 -95.85042,67.60678 -6.00391,4.00377 -11.78616,8.45085 -17.568407,12.45378 -4.447986,3.78037 -9.118462,6.44807 -14.010602,8.22746 -4.44709,1.11177 -7.56157,1.77932 -11.5645,1.77932 -4.44792,-1.11178 -10.23017,0 -13.78715,-3.33532 10.451,-7.11824 22.01633,-12.45371 32.914117,-19.79278 27.351862,-16.45664 54.706282,-32.69252 82.060702,-48.9266 7.56247,-5.1147 14.67816,-9.3384 22.68395,-14.00971 4.22452,-1.55855 7.78323,-4.67047 12.23032,-6.44986 z m 183.25005,8.89417 89.62318,59.15683 c 1.11177,2.00271 3.33532,5.33803 2.44694,8.67424 -21.57218,-14.23309 -41.36413,-28.91125 -62.49215,-44.47951 -5.11463,-3.11192 -8.45085,-6.00308 -12.23032,-8.89417 -6.22647,-4.67138 -13.12132,-8.23009 -18.45942,-13.78894 0,-0.22166 0.44423,-0.88921 1.11177,-0.66845 z m -178.57867,0.44679 c 0,0 0.2234,0.22166 0.2234,0.22166 -2.44784,4.00293 -6.67409,6.67062 -10.45363,9.11756 l -10.67439,8.67424 c -4.44709,3.11192 -8.67424,7.11568 -13.34209,10.451 -8.00669,6.00564 -15.56826,11.5654 -22.68394,18.0152 -11.5654,7.5599 -19.79459,18.01346 -31.58075,23.79571 -2.6686,1.3326 -4.89214,0.66762 -6.89485,0.88838 -1.11178,-0.66755 0.22339,-1.77932 1.11177,-2.00015 5.33892,-4.67048 11.12117,-8.67424 16.90342,-13.78887 4.66875,-2.89116 8.67161,-5.78315 12.89794,-8.89507 7.11568,-5.11464 14.01053,-10.23017 20.4604,-14.90065 7.33907,-4.89131 14.45386,-10.45363 22.01633,-15.78909 3.33531,-2.89199 6.44986,-5.11553 9.78601,-7.56247 4.66791,-2.44694 7.559,-6.44724 12.23038,-8.22745 z m 175.24253,6.89228 63.82551,48.25905 c 1.33516,0 1.33516,1.77932 1.77939,3.11449 0.44678,1.55599 0.44678,2.44693 -0.44423,3.55871 -21.79293,-17.56842 -44.47688,-35.13683 -66.27244,-54.70885 0.44415,0 0,-0.2234 0.88921,-0.2234 0,0 0.22256,0 0.22256,0 z m -172.35144,0.2234 c 0,0.44422 0,0.66762 -0.44415,1.11177 l -1.77939,1.11177 -17.34585,16.45754 c -16.90342,11.5645 -29.80136,32.91328 -50.03837,40.47575 4.67131,-6.4507 13.78631,-12.67717 19.5694,-18.01346 7.78503,-5.3381 14.67732,-12.23295 21.79556,-18.0152 1.556,-1.556 3.33532,-2.44438 4.89131,-3.33532 7.11742,-7.11568 15.34487,-14.0106 23.35149,-19.79285 0,0 0,0 0,0 z m 168.79273,5.55976 c 15.56826,12.23204 32.46996,26.24265 47.59143,40.47575 l 0.2234,3.77946 c 0,0 -0.2234,0.66762 -0.66762,1.11177 -6.00391,-4.00286 -11.11854,-11.34193 -17.34502,-15.56562 -6.67146,-6.89493 -14.67815,-13.34472 -20.4604,-19.57203 -1.33517,-0.66762 -2.22354,-1.77939 -3.55871,-3.11192 l -6.44806,-6.2273 c 0,-0.66762 0,-0.89011 0.22076,-0.89011 0,0 0,0 0.44422,0 z m -164.78979,0.22249 c 0,0 0.22339,0.44505 0.66754,1.11267 l -3.33531,3.55871 -1.33517,1.55592 -38.91719,40.25236 c -1.77932,1.33516 -5.11553,2.44694 -7.56247,2.89116 0.44423,-3.33531 5.78315,-6.22647 8.0067,-9.11756 2.44693,-2.44694 4.22369,-4.22716 7.11478,-6.67153 10.67439,-10.23017 23.13073,-22.68395 34.91689,-33.58173 0,0 0.44423,0 0.44423,0 z m 160.78686,5.33636 c 6.22647,4.44965 10.89778,11.34194 16.23588,16.01242 5.78308,5.78315 13.78631,12.45378 19.12524,18.01346 3.5587,4.22633 10.67439,8.22919 8.89417,14.01234 l -4.66792,-3.55961 c 0,-0.44415 -0.22339,-0.88837 -0.66755,-1.55592 -12.23294,-13.34472 -27.79864,-26.91027 -39.5848,-42.4759 0,-0.44679 0.44422,-0.44679 0.66498,-0.44679 z m -157.22816,0.44679 c 0,0 0.22166,0 0.66755,0.44415 0.44422,0 0.44422,0.66762 0.44422,1.33517 l -40.03159,47.14464 -8.00579,2.67033 c 2.89116,-5.55885 8.45258,-9.56262 12.23294,-14.90064 11.56277,-11.5654 22.46056,-24.46334 34.24589,-36.69365 0,0 0.44678,0 0.44678,0 z m 4.66875,5.33546 c 0.22339,0.44416 0.22339,0.44416 0.66755,1.1126 l -48.70321,64.93909 -7.11568,2.00015 36.47026,-45.58872 c 0.22339,-0.44679 0.22339,-0.89094 0.66761,-1.11177 l 17.56925,-21.35135 c 0,0 0.44422,0 0.44422,0 z m 148.33572,0.44416 c 16.45664,16.90432 30.91057,36.25205 48.47898,52.93036 0.89094,1.11177 0.89094,1.77938 1.55856,2.22354 1.33343,2.00278 2.4452,4.89387 2.4452,7.78503 0,0 -0.22083,0.44415 -0.66762,0.88838 -6.89229,-5.78225 -12.67454,-14.45649 -18.45762,-20.90373 l -34.4701,-42.25514 c 0.44505,-0.22166 0,-0.66844 0.66754,-1.1126 0,0 0.44506,0.44416 0.44506,0.44416 z m -142.99769,5.33892 1.11177,1.11177 c -0.66755,4.00294 -4.22369,6.89403 -6.22641,10.89779 -3.11192,4.22369 -5.33892,8.22662 -8.22745,12.23038 -12.23295,18.23596 -22.90734,35.58361 -35.13772,54.04123 -2.67033,3.55871 -4.44965,7.56247 -7.56157,10.45363 l -9.78602,3.55608 c 1.33517,-4.00286 5.33803,-7.33818 7.56247,-11.56277 4.67048,-6.2264 8.22656,-11.12118 12.23032,-16.90079 1.33516,-2.67033 3.55871,-5.11554 5.1147,-7.34171 4.89387,-6.67063 8.89764,-12.45371 13.56548,-18.90095 7.11832,-10.89778 14.01234,-20.90462 22.0164,-31.13479 1.77932,-2.00278 2.22611,-4.67048 4.89387,-6.44987 0,0 0.44416,0 0.44416,0 z m 137.21461,0 c 0.44415,0 0.66754,0 1.11177,0.44423 l 29.80136,38.02881 12.00782,15.56826 c 4.67048,5.3363 10.00851,11.11855 14.2331,16.9008 4.00286,4.00376 6.4498,9.33922 6.2264,15.56916 -1.11177,1.11177 -2.22354,-0.66762 -2.4443,-1.55856 -10.45363,-12.89793 -19.57203,-26.24092 -29.35721,-39.14148 -0.88837,-1.77932 -2.00098,-3.33532 -3.11275,-4.44709 -9.11756,-12.45371 -17.34765,-25.13088 -27.13103,-37.3612 -0.22339,-1.33516 -1.33516,-1.33516 -1.77939,-2.89116 0,0 0,-1.11177 0.44423,-1.11177 z m -5.3381,5.11471 c 22.90651,29.57879 40.25236,61.15691 63.60392,91.1791 0,0.22339 0.44415,0.66845 0.44415,0.66845 4.00294,4.00286 6.00565,9.34095 10.00941,14.0097 6.89402,9.78511 5.33546,22.68305 5.1147,33.80422 -0.66762,0.44423 -1.55599,1.556 -2.22354,1.77939 -4.22716,-4.00293 -5.33893,-9.34096 -9.34186,-13.56555 -1.11177,-2.89109 -2.4443,-4.67048 -3.55871,-7.34081 -8.00406,-12.45371 -15.12147,-25.12825 -22.68131,-37.36119 -4.44972,-7.11569 -7.56247,-14.45393 -12.23295,-20.90463 -10.45099,-18.45679 -21.34878,-36.02603 -31.35735,-53.59444 -0.66582,-2.22355 -1.55683,-2.89116 -2.22438,-4.00293 0.44679,-2.44777 2.892,-3.55954 4.44792,-4.67131 z m -122.53466,3.11448 c 1.55593,0.88928 2.88853,1.11177 3.55608,2.6686 -12.89793,30.91056 -29.79873,60.48936 -42.03168,92.51426 -4.00293,6.44814 -6.44813,12.89794 -9.78345,19.3478 -4.22625,14.45476 -15.34486,22.68395 -28.68958,27.13187 -1.55593,0.22083 -2.6677,0.66761 -4.00287,0.66761 l 20.23875,-37.14043 c 0.22076,-1.11177 1.33253,-1.11177 1.77675,-2.00015 3.11539,-8.45348 8.67424,-16.01332 12.45634,-23.79572 1.55593,-2.22617 2.22355,-3.783 3.33532,-5.11553 3.11275,-6.44987 7.11568,-11.7888 10.00677,-18.45942 11.11861,-18.68102 20.23701,-38.02882 32.91418,-55.81889 0,0 0.22339,0 0.22339,0 z m 10.23017,6.89229 c 0,0 0.66499,0.44679 0.66499,0.44679 -1.11178,4.22369 -2.8911,6.89228 -4.00287,11.11861 -7.5599,20.4604 -16.6783,38.47297 -23.12817,58.26582 -0.22076,0 -1.11177,0 -1.11177,0.89094 -1.33343,4.2237 -2.66859,9.3384 -4.89214,12.89794 -0.66754,6.44986 -5.11463,10.67439 -9.34095,13.56555 -0.88921,0 -1.11261,0 -1.11261,0 -0.44422,-2.00105 2.44777,-5.78315 2.44777,-8.45085 2.66777,-5.55886 4.67048,-10.89779 6.89402,-15.56826 8.22746,-18.45769 16.23325,-35.58188 24.46334,-54.03957 2.4443,-5.78225 5.11463,-11.7879 7.55983,-17.34758 0.66762,-1.11177 0.66762,-1.3326 1.55856,-2.00015 0,0 0,0.22076 0,0.22076 z m 98.51818,-0.22076 c 0,0 0.44422,0.22076 0.44422,0.66755 14.00971,31.35562 36.2486,59.37759 43.81107,93.8477 -0.2234,0.89011 -0.2234,1.55599 -0.66762,1.55599 -0.44415,0.44679 -0.44415,0.44679 -0.66755,0.44679 0,0 -0.44422,0 -1.11177,-0.44679 l -42.4759,-94.73871 c 0,-0.44415 0,-0.66498 0,-1.11177 0,0 0.2225,0 0.66755,-0.22076 z m -91.84755,3.77947 c 0.44422,0 0.66762,0.44422 0.66762,0.89101 l -16.01249,52.03851 c -0.44415,0.44506 -0.89094,0.88921 -1.11177,1.11261 -3.33532,6.44723 -3.33532,17.34502 -9.78601,20.90372 -0.44416,0 -1.11178,0 -1.11178,0 7.56247,-25.57503 18.45769,-49.37075 27.13104,-74.50163 0,0 0.22339,-0.44422 0.22339,-0.44422 z m 84.7293,0 c 0.2234,0 0.2234,0.44422 0.66755,0.89101 2.44694,6.67146 5.78315,12.45371 8.0067,20.01361 5.55885,17.34758 18.68018,33.13751 18.90357,50.92675 -0.22339,0.66755 -0.66762,0.89094 -0.66762,1.33516 -8.895,-18.68018 -15.78902,-39.14058 -23.79571,-58.93344 -1.11177,-5.11463 -3.11449,-8.44994 -4.22626,-13.12132 0,-0.22076 0.66755,-1.11177 1.11177,-1.11177 z m -77.83438,2.89199 c 0.44415,0 0.66499,0 0.66499,0 0.44678,5.1147 -1.77676,10.45273 -2.88853,15.12147 -4.89477,14.90072 -4.67138,31.35736 -14.01234,42.4759 -0.22166,0 -0.22166,0.44679 -0.22166,0.44679 3.78037,-19.34773 10.23024,-38.25221 16.01075,-58.04416 0,0 0.44679,0 0.44679,0 z m 70.49531,0 c 0.44505,0 1.1126,0 1.1126,0.44422 l 18.0152,48.9257 -1.33517,6.4507 c -0.44415,0.44422 -0.89094,0.44422 -1.11177,0 l -17.34848,-54.26463 c 0,-0.44422 0,-0.66762 0.44679,-1.55599 0,0 0.22083,0 0.22083,0 z m -62.9363,2.66776 c 0.44505,0 0.66844,0 1.1126,0.2234 0.22339,2.66769 -0.66755,6.2264 -1.1126,9.33922 -4.2237,15.56826 -2.89116,35.80437 -12.67454,48.03732 -0.2234,0 -0.66762,0.22083 -0.66762,0.22083 l 12.89793,-57.59737 c 0,0 0,0 0.44423,-0.2234 z m 55.82145,0 c 0,0 0.44422,0.2234 0.44422,0.2234 3.77947,10.45356 6.4498,23.1281 10.45356,34.02505 0.66498,7.78323 6.67063,15.3457 2.00015,22.68394 -4.89214,-18.01263 -10.67439,-38.2522 -13.34209,-56.70899 0,0 0,0 0.44416,-0.2234 z m -48.9266,1.77932 c 0,0 0.22339,0 0.66762,0.2234 l -1.11177,11.342 c -0.66762,8.44995 -2.22355,16.9008 -2.89116,25.57504 -4.00377,12.89793 0.44422,30.91057 -8.89501,39.58481 l 11.78617,-76.50185 c 0,0 0.44415,-0.2234 0.44415,-0.2234 z m 41.36413,0 c 0.44422,0 0,0.66762 0.66761,0.66762 3.33615,25.13088 14.45476,51.15014 12.67711,75.6134 -2.22355,-3.33531 -1.55856,-7.56247 -3.55871,-11.78872 -2.6677,-21.34878 -7.33908,-42.92012 -10.23017,-64.2689 0,0 0,0 0.44416,-0.2234 z m -33.80166,1.33517 c 0.22083,0 1.11177,0 1.11177,0 0,23.57232 -2.22437,47.14728 -2.89199,71.38715 -2.22354,11.11861 2.00105,24.90748 -6.89402,32.68988 -0.66755,0.66762 -0.66755,0.66762 -1.55593,1.11177 l 9.56262,-104.74458 c 0,0 0.22249,0 0.66755,-0.44422 z m 25.5751,0 c 0,0 0.22076,0.44422 0.22076,0.44422 5.78225,29.80136 8.67341,60.04514 14.90072,90.06733 -1.11177,4.22626 -1.11177,9.56262 -4.44799,12.23295 0,0 0,0 0,-0.44679 -4.89387,-33.80255 -8.22918,-67.60421 -11.12027,-101.85349 0,0 0.44678,0 0.44678,-0.44422 z m -12.00955,0.88837 4.44708,0 c 5.33803,40.25236 6.4498,83.39671 11.56534,125.20506 0.88837,12.23295 -5.78309,23.13073 -12.00956,30.91313 -1.33516,0.66755 -2.44694,1.78022 -3.55871,2.6686 -2.22354,-41.80918 -0.66754,-84.72931 -2.44693,-127.20604 0.22339,-10.45273 -0.44416,-20.90635 0.22339,-30.91313 l 1.556,-0.66762 c 0,0 0.22339,0 0.22339,0 z m 165.23395,-167.23673 4.44972,1.11178 c 0.22076,0 0.22076,0.44422 0,1.11177 l -72.05477,16.90086 67.60505,-19.12441 z m -61.82453,26.01926 c 0,0 0.66761,0 0.66761,0 l -6.00391,1.33517 5.3363,-1.33517 z m -209.49007,38.91983 1.77932,0 -1.77932,0.22076 c -0.89101,-0.22076 0,-0.22076 0,-0.22076 z m -22.46055,-171.46389 33.57909,41.1442 -2.22354,3.55607 -22.9047,-27.35442 c 0,0 -6.67327,-5.33629 -8.45085,-17.34585"
     id="path29"
     style="fill:#ffffff;fill-opacity:1;fill-rule:evenodd;stroke:none" />
  <g
     transform="translate(-480.33297,2)"
     id="g3159">
    <path
       d="m 687.38936,182.76452 188.80627,0 0,152.98195 -188.80627,0 0,-152.98195 z"
       id="path33"
       style="fill:#000000;fill-opacity:1;fill-rule:evenodd;stroke:#000000;stroke-width:1.87026966;stroke-linecap:butt;stroke-linejoin:miter;stroke-miterlimit:10;stroke-opacity:1;stroke-dasharray:none" />
    <path
       d="m 781.79378,256.6696 c 52.12947,0 94.40449,34.41899 94.40449,76.85852 0,42.44126 -42.27502,76.86032 -94.40449,76.86032 -52.1294,0 -94.40442,-34.41906 -94.40442,-76.86032 0,-42.43953 42.27502,-76.85852 94.40442,-76.85852 z"
       id="path35"
       style="fill:#000000;fill-opacity:1;fill-rule:evenodd;stroke:#000000;stroke-width:1.87026966;stroke-linecap:butt;stroke-linejoin:miter;stroke-miterlimit:10;stroke-opacity:1;stroke-dasharray:none" />
    <path
       d="m 690.98007,185.76907 181.8283,0 0,148.47252 -181.8283,0 0,-148.47252 z"
       id="path37"
       style="fill:#ffffff;fill-opacity:1;fill-rule:evenodd;stroke:#ffffff;stroke-width:1.87026966;stroke-linecap:butt;stroke-linejoin:miter;stroke-miterlimit:10;stroke-opacity:1;stroke-dasharray:none" />
    <path
       d="m 781.89422,257.49474 c 50.20032,0 90.91415,33.40426 90.91415,74.59694 0,41.19006 -40.71383,74.59515 -90.91415,74.59515 -50.20289,0 -90.91415,-33.40509 -90.91415,-74.59515 0,-41.19268 40.71126,-74.59694 90.91415,-74.59694 z"
       id="path39"
       style="fill:#ffffff;fill-opacity:1;fill-rule:evenodd;stroke:#ffffff;stroke-width:1.87026966;stroke-linecap:butt;stroke-linejoin:miter;stroke-miterlimit:10;stroke-opacity:1;stroke-dasharray:none" />
    <path
       d="m 690.63636,285.13663 3.01404,7.18668 -2.67809,-0.96714 -0.33595,-6.21954 z"
       id="path59"
       style="fill:#0000ff;fill-opacity:1;fill-rule:evenodd;stroke:#0000ff;stroke-width:1.87026966;stroke-linecap:butt;stroke-linejoin:miter;stroke-miterlimit:10;stroke-opacity:1;stroke-dasharray:none" />
    <path
       d="m 848.38923,315.67397 24.63997,10.86835 0.19395,2.97948 -0.2459,5.39261 -1.12653,7.21868 -2.01747,9.32191 -3.52663,8.92881 -17.91739,-44.70984 z m -36.94385,29.31392 50.38901,22.75667 -8.61017,11.05274 -7.29142,6.29055 -7.49839,5.41685 -7.19188,4.2557 -19.79715,-49.77251 z m 43.97558,-159.52534 17.70431,7.58845 -0.0666,45.30381 -10.52463,-4.4324 -19.33132,-48.26854 12.21827,-0.19132 z m -59.39665,0.032 8.37465,21.33147 -52.11734,-21.1522 43.74269,-0.17927 z m 9.0102,22.17745 58.71434,26.518 9.26559,21.63798 -0.13507,26.26773 L 827.1314,263.23023 805.03451,207.672 z m -59.45379,-22.05532 20.83529,49.09111 -59.3447,-24.62265 -9.69249,-24.36975 48.2019,-0.0987 z m -54.52272,17.51299 16.11812,7.6404 22.72807,53.66288 -39.00032,-16.19605 0.15413,-45.10723 z m 75.55715,32.08898 58.71435,26.5171 22.7307,53.66378 -59.34816,-24.62265 -22.09689,-55.55823 z m -36.33774,29.31557 58.71517,26.51454 22.72724,53.66378 -59.34552,-24.62002 -22.09689,-55.5583 z m 45.23974,108.42112 52.74853,23.43981 -9.63362,4.12845 -10.29431,3.36302 -9.55223,1.84776 -10.06309,1.05552 -13.20528,-33.83456 z m -81.96026,-80.54198 58.71434,26.518 22.72814,53.66378 -59.3456,-24.62348 -22.09688,-55.5583 z m -2.97249,43.04827 25.01832,11.30038 21.78255,50.50684 -7.7434,-4.09382 -4.98219,-3.15348 -8.92971,-6.60309 -7.44644,-7.31137 -7.21613,-9.76869 -5.14234,-9.54967 -3.03572,-8.44392 -2.30494,-12.88318 z"
       id="path65"
       style="fill:#0000ff;fill-opacity:1;fill-rule:evenodd;stroke:#0000ff;stroke-width:1.87026966;stroke-linecap:butt;stroke-linejoin:miter;stroke-miterlimit:10;stroke-opacity:1;stroke-dasharray:none" />
  </g>
</svg>
