<svg id="Layer_1" data-name="Layer 1" xmlns="http://www.w3.org/2000/svg" xmlns:xlink="http://www.w3.org/1999/xlink" viewBox="0 0 1500 1000"><defs><style>.cls-1{fill:none;}.cls-2{clip-path:url(#clip-path);}.cls-3{fill:#010101;}.cls-4{fill:#db1f26;}.cls-5{fill:#fdcd0a;}</style><clipPath id="clip-path"><path class="cls-1" d="M702.6,833.54c-2.33,1.25-4.6,3-7.16,3.73-3.72,1-6.83-.6-8.91-3.92s-4.35-5.18-8.58-4.5c-1.42.23-3.09-1.53-4.74-2.15-1.46-.56-3.08-.74-4.61-1.18-1.1-.3-2.39-.38-3.21-1-3.9-3.13-7.68-6.4-11.47-9.66-1.81-1.56-3.46-1.47-5.23.22,3.15,5.77,12.14,5.83,13.46,13.16l-.9.81a62,62,0,0,1-4.83-5.54c-1.67-2.38-4.2-3.27-6.24-2-3.27,2-6.24,1.87-9.54.66-2-.73-2.83,0-3.82,2-.84,1.68-3.08,2.72-4.82,3.85-.27.17-1.2-.74-2-1.21,1.47-2,2.94-3.72,4.17-5.59,1.47-2.2.41-4.14-2.2-4.71-3.71-.82-7.34-1.87-11-2.83v-1.11c-1.17,1.26-2.35,2.51-3.49,3.79-1.6,1.76-3.21,3.51-4.73,5.34s-3.67,3.8-1.53,6.52c.51.66,1.66,1.47,2.28,1.29,3.45-.94,4.09,1.35,4.83,3.74-6.6,2.3-10.27,1.28-15-3.77-1.21-1.31-3-2.08-4.62-3.16-1.27,1.09-2.7,1.81-3.35,2.94-3.55,6.3-9,4.11-13.87,2.88-2.44-.62-3.74-.54-5.3,1.38-.91,1.12-2.52,1.68-4.2,2.74-.81-3-1.54-5.26-2-7.58-.57-2.88-2-3.48-4.7-2.54-4,1.41-4.63,1-5.53-3.21-.73-3.52-1.46-7-2-10.61-.41-2.69.34-4.6,3.29-5.87,3.67-1.58,3.67-5.51,4.18-8.94.7-4.94.92-10,2.28-14.76,1.11-3.92,3.58-7.44,5.4-11.16a23,23,0,0,0,1.17-3c1.29-4,2.36-8.07,3.84-12,2-5.27,3.58-10.86,6.6-15.52,2.87-4.47,7.29-8,11.09-11.8a3.51,3.51,0,0,1,1.83-.61c4.29-.74,5.57-2.2,6.6-6.34,1.1-4.46,2.54-8.81,4-13.87a22,22,0,0,0-10.91-7.25c-2.42-.63-4.57-2.51-6.7-4a5.13,5.13,0,0,0-6.12-.19c-5.38,3.58-10.63,1.88-15.7-.33a10,10,0,0,1-4.41-4.51c-1.41-2.82-2.06-6-5.92-6.6-.84-.14-1.55-1.13-1.7-1.25-1,1.68-1.6,4.14-3.16,5.13-2.84,1.8-7.27-.45-11.25-4.57l-4.24,5-1.47-1.18a84,84,0,0,0-3-7.83,5.77,5.77,0,0,0-2.93-2.56c-.44-.17-1.55,1.38-2.32,2.17-1.51,1.55-3,3.12-5.05,5.28-1.41-3.12-2.2-5.34-3.38-7.4-1.52-2.74-2.85-5.82-5.07-7.91-2.93-2.74-3.2-5.75-2.73-9.2.52-3.83-1.28-6-5.18-6.06a5.79,5.79,0,0,1-2.28,0c-1.78-.84-4.55-1.6-4.92-2.93a4.34,4.34,0,0,1,3.14-5.59c1.14-.3,2.25-.66,3.35-1-2.47-5.07-2.5-5.73,1.36-9.89,3.23-3.48,2.67-7.44,1.71-11.35-.26-1-2-2.2-3.26-2.4-2.94-.53-4.58-2.21-6.49-4.41-2.75-3.15-3.79-7.34-7.58-10-2.67-1.87-2.09-5.87-1-9.19a38.19,38.19,0,0,0,1-6.11c2.72-3.75,5.74-8.15,9.06-12.31.89-1.13,2.69-1.54,4.07-2.28l.46.82,3.82-4.27a10.61,10.61,0,0,1-1.61-2.7,53.65,53.65,0,0,1-1.27-6.76c-.11-1,.27-2,.22-2.94-.13-2.45-1.32-3.39-3.9-3-1.35.19-3.92-.25-4-.81-.44-2-.9-4.85.13-6.32,2.71-3.87,2.67-5.06-1.26-7.21-1.13-.62-1.89-2.41-2.26-3.81-.73-2.88-.56-5.88-3.67-7.92-2.32-1.54-1.87-6.31.09-8.39,1.51-1.62,1.26-7.29-.48-10-.52-.83-1.13-1.61-1.7-2.41-1.19-1.64-2.44-3.58-.86-5.3.85-.93,2.81-1.12,4.29-1.14,4.4-.07,7.93-4.34,6.6-8.56-.36-1.16-1.77-2.06-2.81-2.94a26.94,26.94,0,0,0-3.23-1.92c3-3.43,5.82-6.45,8.37-9.67a12.44,12.44,0,0,0,1.78-4.29c.73-2.56.91-5.32,1.94-7.74s.42-4-1.89-4.87c-5.37-2-6.91-4.82-5-10.4,1-3.06.7-5.42-1.62-7.7a26.65,26.65,0,0,1-3.88-4.85c-.67-1-1.47-2.81-1-3.54.6-.95,2.32-1.23,3.59-1.71a2.39,2.39,0,0,1,1.3,0c3.83.82,6.37-.54,7.5-5.21,2.45,1.4,4.62,2.49,6.61,3.83,1.72,1.16,3.26,2.6,4.87,3.91,1-1.57,2-3.13,3.34-5.14,3.06,1.47,5.81.41,8.21-2.57,1.22-1.52,2.89-1.37,4.54.13,1.93,1.77,3.94,1.73,5.38-.85a11.5,11.5,0,0,1,.73-1.09c4-5.74,3.93-7.68-1-13.15.55-.45,1.06-1.2,1.64-1.27,3.63-.39,5.33-2.93,7.08-5.69s4-5.41,8-5.54c2.56-.08,4.18-1.89,4.69-4.35a70.2,70.2,0,0,0,1.1-7.79,2.24,2.24,0,0,0-.86-1.82c-3.75-2.08-5.28-5.1-4.65-9.38a4,4,0,0,0-1.31-2.78c-.3-.28-1.56.22-2.28.57-2.26,1.07-4.33,2.51-7.06,1.09s-3-3.34-1.9-5.7c1-2.06,3.13-3.95,3.16-5.94,0-1.71-2.2-3.44-3.52-5.24,6.23-2.59,11.89,2.29,17.56,1.42,1.71-7.51,2.94-14.57,5.05-21.38.91-2.93,3.33-5.58,5.62-7.77,1.9-1.82,3.12-3.54,2-5.93-2.16-4.84-1.33-9.54-.15-14.41.87-3.58,1.17-7.3,1.76-11,.14-.9.43-1.78.73-2.93,4.64,6.29,4.64,6.29,8.91,5.87,1.1-3.91-2.76-8.29-6.48-9.17-5.06-1.2-10.22-2-15.47-3-1.38-5.93-.27-7.95,5.38-9.35,2.39-.59,3.06-2.2,1.79-4.32-2.2-3.58-1.9-4.18,2.26-5.4a3.65,3.65,0,0,0,2-1.4A10.28,10.28,0,0,1,586.27,271c1.85,1.19,3.67,1.74,5.75.28a32.78,32.78,0,0,1,4.28-2.41c.74-.38,1.94-1.05,2.39-.74,4.45,2.89,9.21.49,13.79.9,4,.37,4.93,1.34,6,5.24.73,2.69,2.7,5.05,4.26,7.78a29.66,29.66,0,0,0-3.93,3.67,3.38,3.38,0,0,0-.09,3,60.61,60.61,0,0,0,4.71,7.06c.88,1.15,2.43,2.94,3.24,2.75a7.33,7.33,0,0,0,4.1-3.17,9.61,9.61,0,0,0,0-10c-1.82-3.16-1.31-6.12,1-7.81,1.62-1.17,2.52-.82,3.76.68a59.9,59.9,0,0,0,5.53,5.26l1.24-.35a50.61,50.61,0,0,0,.85-5.76,28.17,28.17,0,0,0-.44-5.87c-.88-5.14,4.11-8.24,4.46-13,.23-3.15,2.45-4.83,5.23-5.52,3-.73,4.81,1.27,6.45,3.46a11.44,11.44,0,0,0,12.24,3.94c1.57-.47,3.14-1,4.74-1.3,5.65-1.2,9.65.67,12.93,5.34,1.9,2.69,4.4,5,6.6,7.45,1.82,2,3.61,4.07,5.37,6.14a26.83,26.83,0,0,0,4.85,4.85c-1.73-3.26-3.53-6.51-5.18-9.82-1.22-2.43-2.1-5.05-3.42-7.42-3.77-6.84-10.31-9.77-17.35-11.92-1.88-.57-3.77-1.11-5.63-1.74-4.71-1.58-5.64-6.23-8-9.35,2.34-5,5.87-1.6,8.71-1.76,2.21-6.15-.66-10.4-6.86-10.75a12.14,12.14,0,0,1-4.19-1.47c-1.88-.91-2.14-2.32-.89-4,2.2-2.93,4.36-5.94,7.27-9.92-2.2.32-3.77.24-5,.82-2.36,1.1-4.47,2.75-6.84,3.84-1.07.49-3.31.74-3.67.17-1.09-1.75-3.26-3.3-1.6-6.09a14.66,14.66,0,0,1,11-6.91c7.4-1,9.15-7.1,8.22-13a4.44,4.44,0,0,0-1.76-2.54,59.23,59.23,0,0,0-6.9-4.4,4,4,0,0,1-2.3-4.23c.1-2.28-.22-4.59-.14-6.88.12-3.35-1.08-5.87-3.23-8.55-1.56-2-1.59-5.14-2.31-7.79,2.29.17,4.73-.09,6.86.61,2.33.73,4.4,2.4,6.52,3.67,3.55-4.78,4.55-5,10-2.2,5.14,2.62,10.33,5.2,15.48,7.81,2.66,1.36,4.28.26,5.52-2.15.74-1.41,1.43-3.2,2.66-3.94,2.47-1.47,5.14-1.75,7,1.35,1.13,1.9,2.82,2.36,5,2.27a36.42,36.42,0,0,1,7.45.57c3.88.66,5.51,2.73,5.67,6.75,0,1.1,0,2.21.11,3.28.33,2.54-.57,4.22-2.72,5.79-2.93,2.2-5.52,4.89-8.3,7.34-1.21,1.06-2.54,2-3.77,2.93,4.32,1.87,7.45.49,9-3.67.38-1,1.88-1.59,2.86-2.37a12.76,12.76,0,0,1,1.33,2.94,46.43,46.43,0,0,1,.73,7.06,4.33,4.33,0,0,1-1.31,2.7,23.29,23.29,0,0,0-3.46,3.44c3.11-.42,6.25-.67,9.32-1.28,3.35-.69,5.36,1.35,7.29,3.36.5.52.15,2-.07,3a38.25,38.25,0,0,1-1.33,4c3.34,1,7.54-2,7.85-5.74.25-2.94,1.33-3,3.8-2.31,2.86.83,4.78,2.62,7,4.47,4.11,3.44,8.28,7.85,14.55,6.12a6.63,6.63,0,0,0,4.08-3.58c1.13-3.73,4.12-4,6.74-3.79,1.54.13,3.5,2.11,4.24,3.73,2.37,5.13,2,10.09-2.15,14.48a19.62,19.62,0,0,0-3.56,5.43c-2.41,5.35-5.65,6-9.59,1.2a51.74,51.74,0,0,0-2.21,6.42c-.14.67.89,1.66,1.47,2.41a55.49,55.49,0,0,1,4.18,5.14c.34.54-.25,2-.82,2.75-1.47,1.88-3.28,3.52-4.77,5.4-3.37,4.26-3.31,4.4,0,9.16,2.5-2.58,5-5.22,7.62-7.85,2.72-2.8,5.37-5.67,8.22-8.33a66.4,66.4,0,0,1,5.71-4.33l1,.83c-.13,1.35-.17,2.7-.41,4a4.37,4.37,0,0,0,5.61,4.84c2-.66,4.34-2.09,6.06-1.59s3.06,2.94,4.57,4.52a14.5,14.5,0,0,0,1.32,1,38.06,38.06,0,0,0,3.67-5.14A71.31,71.31,0,0,0,815,243a3.46,3.46,0,0,0-.63-2.57,18.82,18.82,0,0,0-2.69-2.59c3.67-3.82,7.76-5.63,13-4.67a19.62,19.62,0,0,0,5.87.26,5.42,5.42,0,0,0,3.07-2,42.51,42.51,0,0,0,2.94-4.85c2.39,2.76,2.2,8.25,7.86,6.45,0-.09.34-.56.22-.89-1.6-4.67,1.26-7.69,4-10.69a54,54,0,0,1,5.6-5.52,10.65,10.65,0,0,0,4.23-8c.44-6.08,7.46-9.21,12.66-6.22a10.16,10.16,0,0,0,5.14,1.07c3.53-.14,7-.69,10.55-1.06.09.43.17.86.25,1.29-4.79,1.18-9.54,2.56-14.38,3.49-6.29,1.21-10,5.35-12.19,10.77-.68,1.62.5,4,.83,6l1.35.17,2.81-6.33c1.47-3.38,2.08-7.68,6.87-8.12a11.72,11.72,0,0,1,5.52.86c2.32,1,4.15,1.76,5.82-1,.41-.66,2-1.39,2.43-1.12,2.94,1.84,4.6-.12,6.39-2.2,3,3.62,3.15,7.55,1.87,11.48-.68,2.08,0,2.85,1.67,3.43,5,1.72,9.06,5.82,14.79,5.87.83,0,1.77,1.46,2.44,2.39.86,1.18,1.47,2.52,2.8,4.77,1.32-6.75,5.36-5.73,9.39-4.82,2.58.58,5.23.88,7.76,1.65,1.86.56,2.5,2.09,1.33,3.9-2.47,3.81-2.11,7.28,1,10.56a5.3,5.3,0,0,1,.95,2c1.47,4.41,2.69,8.91,4.4,13.21.41,1,2.36,2,3.59,2,2.88,0,4.8.88,5.93,3.59.85,2,2.28,2.88,4.35,1.39,2.74-1.95,5.61-.85,7.54.8,1.39,1.19,1.57,3.91,2.13,6,.73,2.81,1.38,5.68,2,8.52a12.65,12.65,0,0,1,.73,3.81c-.25,3.63.78,6.78,2.24,10.07.86,1.92.16,4.54.16,7.08,3.29,1.76,4.91,8.41,2.93,12.21-3.09,6-5.79,12.17-8.85,18.18-1.07,2.07-2.76,3.81-4.11,5.73s-2.51,3.67-3.77,5.46c-1.89,2.71-.57,4,2,5.13a21.81,21.81,0,0,1,4.3,2.94c1.21.93,2.15,2.44,3.49,2.94,8.48,3.09,12.42,11.25,18.8,16.67,2.83,2.4,2.94,8.44.39,11a6.75,6.75,0,0,0-1.88,7.11c1.22,4.59,1.76,9.54,7.41,11.31,2.68.86,2.13,3.61,2.26,5.64.31,4.76.36,9.54.41,14.33a12.24,12.24,0,0,1-.65,3.17c-.44,1.69-1.37,3.37-1.34,5a14.55,14.55,0,0,1-3,9.44c-2,2.71-1.79,5.21,1,7.34a4.86,4.86,0,0,1,1.86,2.2,10.83,10.83,0,0,0,5.81,7.69c1.61.83.77,6.6-.9,8.42-2,2.13-1.81,2.73,1.09,3.4a14.39,14.39,0,0,0,3.57.46,8.26,8.26,0,0,1,7.79,4.33c1.54,2.52,2.9,4.59.18,7.22-.6.59-.43,2.4-.07,3.45.69,1.94,1.82,3.72,2.69,5.59,1.56,3.34,1.16,6.46.09,10.06s-.74,8-.74,12c0,7.92-2.4,15.3-5.48,22.41-1.82,4.21-9.19,3.92-11.46-.2a3.47,3.47,0,0,1,.13-2.4c.44-1.33,1.1-2.58,1.71-4-.52-.29-.89-.66-1.25-.67-3.52-.11-6.1-.85-4.68-5.37.23-.74-.55-2.14-1.28-2.71-5-3.91-10.55-4.65-16.58-2.73a84.41,84.41,0,0,1,3.42,8.41,4.27,4.27,0,0,1-1.27,3.43,70,70,0,0,1-7.59,6.14,6.4,6.4,0,0,1-4.06,1.38c-5-.81-8.65,1.38-11.87,4.81a4.82,4.82,0,0,1-1.73,1.47c-5.4,1.64-10.8,3.37-16.3,4.67-2.65.64-5.09.82-5.64,4.24-.15.89-1.38,1.91-2.35,2.33-3.92,1.66-7.94,3.06-11.87,4.67a12,12,0,0,0-3.26,2.12c-5.14,4.55-10.2,9.24-15.41,13.69a4.81,4.81,0,0,1-3.88.85c-7.45-2.34-13.79-.49-19.33,4.64-3.61,3.34-7.18,6.71-10.56,10.28-1.65,1.72-3.07,2.79-5.66,2.08-1.82-.51-3.86-.11-5.77-.36a6.34,6.34,0,0,1-3-1.27c-1.27-1-2.28-2.37-3.91-3.09,1.13,1.92,2.37,3.78,3.35,5.78a5.41,5.41,0,0,1,.73,3.42c-.73,3,.66,4.89,2.65,6.85a134.1,134.1,0,0,1,10.35,11,58.7,58.7,0,0,1,6,9.71,3.77,3.77,0,0,1-.6,3.31c-5.77,7.45-3.36,14.12,1.47,20.8,1.38,1.89,2,4.31,3.11,6.43,1.33,2.6,2.76,5.14,4.19,7.7,1.61,2.86,3.31,5.67,4.9,8.53,3.07,5.59,5.87,7,12.13,6.53a5.31,5.31,0,0,1,4,1.81c3.39,4.78,6.16,10,9.75,14.62,1.88,2.43,4.81,5.14,7.59,5.55,6.15.91,7.46,3.76,9.11,9.92.85,3.17,2,4.87,5,6,4.88,1.87,9.63,4.11,14.4,6.29a2.91,2.91,0,0,1,1.58,1.75c.79,4.81,1.47,9.64,2.08,14.46a15.86,15.86,0,0,1,.21,4.24c-.49,3.47-2.57,5.19-6.17,5.45-1,.07-2,.2-2.94.27-6.12.41-7.26,1.55-8.07,7.94-1,8.12-5.51,13.68-12.68,17.27a6.26,6.26,0,0,1-2.81.74c-5.75-.18-8.81,3.22-10.53,8.07-.62,1.75-1.41,2.4-3.07,1.66a4,4,0,0,0-5,1.24,46.51,46.51,0,0,0-5.18,6.7c-1.67,2.94-2.48,6.14,1.26,8.56a3.8,3.8,0,0,1,1.51,2.45c.45,3.75,2.94,4.51,6.12,4.79,4.31.36,7.43,5.74,5.58,9.69a57,57,0,0,1-4.79,8.16c-1.4,2-1.2,3.37.79,4.61a28.28,28.28,0,0,0,4.46,2.74c2.67,1.06,3.19,2.84,2.76,5.44-.48,2.93-.51,5.87-1.06,8.8a7.59,7.59,0,0,1-2,3.39c-2.2,2.38-4,2-5.41-1a18.08,18.08,0,0,0-3.37-5.14c-1.55-1.46-3.67-2.4-5.87-3.77a18,18,0,0,0,1.37-4.23,5.93,5.93,0,0,0-1-3.79c-.31-.43-2,.23-3.13.32-1.73.14-3.67.77-5.14.2-2.31-.9-3.67-.39-5.07,1.39-3.31,4.1-3.39,4-7.14.26a10.15,10.15,0,0,0-4-2.05c-2.25-.74-4.21-1.52-5-4.11-.73-2.26-2.42-2.09-3.75-.56a49.35,49.35,0,0,0-5.52,7.27c-1.06,1.85-2.09,2.9-4.28,2.7-3.14-.29-6.3-.55-9.45-.69-6.85-.3-13.38,0-18.6,5.68a14.66,14.66,0,0,1-10.94,4.84c-3.89.11-7.8,2.3-11.57,3.9-2.39,1-4.48,2.71-6.81,3.88a3.87,3.87,0,0,1-3.08.3c-2.35-1.47-4.13-.44-6,.79-3.09,2.06-8.51-.65-8.27-4.5s-1.11-5.67-4.56-6.67c-1.1-.31-1.93-1.46-3-1.89a19.33,19.33,0,0,0-4.6-1.24,18,18,0,0,0-5.82-.1,33.87,33.87,0,0,0-6.11,2.34l-4.68-9.69c-5.34,6.14-10.51,14.06-3.4,20.55-2.87,3.56-5.62,7.19-8.64,10.58-.82.92-2.48,1.09-4.78,2,.4-3.33.21-6,1.12-8.22,1.2-2.9.26-3.79-2.36-4.13l-5.55-.73c2.4-6.61-4.83-7.5-6.8-11.64-.27-.57-1.75-.74-2.69-.8-5.14-.43-6.39-2.25-5-7.38C702.71,833.76,702.58,833.43,702.6,833.54Z"/></clipPath></defs><title>Flag-of-Germany</title><g class="cls-2"><rect class="cls-3" x="436.74" y="133.06" width="649.97" height="733.88"/><rect class="cls-4" x="436.74" y="377.68" width="649.97" height="489.25"/><rect class="cls-5" x="436.74" y="622.31" width="649.97" height="244.62"/></g><path d="M926.5,218.66a16.56,16.56,0,0,0,.89-2.77c.14-1.09.45-2.77-.09-3.19-1.16-.9-2.93-1.77-4.26-1.54a5.21,5.21,0,0,0-4.67,4.33c-.43,2.15-1.71,4.16-2.8,6.15a2.46,2.46,0,0,1-1.86.84,13.16,13.16,0,0,1-13-10.12,3.18,3.18,0,0,1,1.35-2.72c2.61-1.18,2.79-2.72,1.39-4.9-1-1.55-1.86-3.21-2.94-4.72a4.38,4.38,0,0,1,1.6-6.7c.44-.2,1.21-.32,1.47-.08,3.74,3.12,5.24-.18,7.84-2.87L900.85,187c2.1-2.82,3.57-6,6.07-7.76,2-1.36,5.14-1,7.83-1.12a3.9,3.9,0,0,1,.73,2.58c-.81,4.15.61,6.07,4.91,6.95a31.54,31.54,0,0,1,7,2.45c1.91.89,1.83,2.46.59,4.07-1,1.33-3,3.13-2.68,4.05.88,2.46,2.66,4.64,4.28,6.77,1.47,2,3.41,3.6,4.77,5.63.95,1.41,2,3.1,0,4.93C932.21,217.58,930.47,220.39,926.5,218.66Zm-10.45-18c1.35-3.82-1-6-3.86-8Z"/><path d="M941.19,247.87c2.2-.34,4,3.42,6.41,0,2.62-3.67-.47-5.42-1.87-8.75l-3.67,5.74c-1.47-1.74-3-3.44-4.32-5.3-1.56-2.16.62-7.91,3.26-8.68a2.34,2.34,0,0,1,2,.52c4,5.14,9.66,8.2,14.82,11.85,3.43,2.43,1.47,5.22.93,7.87-.52,2.31-1.22,4.73-4.33,4.91a8.37,8.37,0,0,0-2.21.52C946.54,258.46,941,255.85,941.19,247.87Z"/><path d="M634.49,170.09c1.3-7.24,1.74-14.68,5.82-21.19.67-1.08,2-1.74,2.7-2.8,2-2.94,3.82-6,5.7-9,.73-1.18,1.47-2.38,2.44-4l3.16,4.25c-1.87,2.07-3.81,3.71-5,5.77-.73,1.26-.63,3.2-.51,4.8.18,2.2.73,4.36,1.32,7.53L643.64,152c-3,2.15-3.28,6-3.9,9.71a30.3,30.3,0,0,1-1.88,6.53c-.4,1-1.6,1.68-2.43,2.5Z"/><path d="M792,206.48c-.27,2-.5,3.67-.63,4.53-2.26-1.95-5-3.76-7-6.23-1-1.28-1-4-.43-5.64,1-2.94,4.76-3.67,7.16-1.73a60.73,60.73,0,0,1,6.15,5.74c1.37,1.47.8,2.62-1.13,2.94C794.88,206.31,793.57,206.34,792,206.48Z"/><path d="M637.59,177.13l7.95,8.36c-2.28.73-4.47,2-6.55,1.81-1-.08-2.5-2.72-2.6-4.27C636.25,180.91,637.22,178.71,637.59,177.13Z"/><path d="M654.54,198.75l-3.72-3.14,3.72-6,5,4.4Z"/><path d="M649.51,180.76l-7.3-2.73,6.61-4.62Z"/><path d="M664.1,195.28l5.74,1.35-2.13,4.62Z"/></svg>