<?xml version="1.0" encoding="utf-8"?>
<!-- Generator: Adobe Illustrator 24.3.0, SVG Export Plug-In . SVG Version: 6.00 Build 0)  -->
<svg version="1.1" id="Ebene_1" xmlns="http://www.w3.org/2000/svg" xmlns:xlink="http://www.w3.org/1999/xlink" x="0px" y="0px"
	 viewBox="0 0 772.686157 772.686157" style="enable-background:new 0 0 772.686157 772.686157;" xml:space="preserve">
<path d="M215.922638,354.226135c-0.767105-0.478485-1.559998-0.949188-2.360809-1.40329
	c-2.928192-1.658203-5.950195-3.017609-8.011688-3.017609v1.577209c1.274399,0,3.107391,0.680603,5.101501,1.674805
	c0.843796,0.420898,1.715393,0.8974,2.590897,1.405273c3.3535,1.946198,6.705002,4.326111,8.386703,5.614197l0.9599-1.251892
	C222.351334,358.642151,219.435333,356.419525,215.922638,354.226135z M245.346939,339.418549l-0.260712,1.555695
	c13.904312,2.316406,27.915512-2.521515,28.50441-2.728516l-0.050812-0.146484
	c9.181213,6.142487,15.725128,11.0849,15.872101,11.197205l0.954102-1.257813
	c-0.107391-0.082001-3.598602-2.716797-9.022491-6.508789c0,0-0.024902-0.010712-0.049316-0.023407l0.001526-0.010712
	c0.015594,0.012604,0.032196,0.023407,0.047791,0.034119l1.19339-0.460907
	c-0.800781-2.081085-7.942902-20.394989-11.994202-22.015106l-0.585876,1.463318
	c2.51709,1.007874,7.941376,12.980499,10.916992,20.631897l-0.028809,0.03418
	c-11.672394-8.134796-31.762695-21.239777-46.928696-26.381378l-0.506393,1.493683
	c11.971191,4.059021,27.096191,13.170898,38.611389,20.794922C268.55014,338.149048,256.753723,341.318939,245.346939,339.418549z
	 M664.647705,319.319427l-0.776306-1.374481c-8.90918,5.035583-17.975586,17.789001-18.355469,18.329102l1.288086,0.911102
	C646.895813,337.055237,656.048096,324.178833,664.647705,319.319427z M561.723938,353.057251
	c1.99408-0.994202,3.827087-1.674805,5.102478-1.674805v-1.577209c-2.061462,0-5.083862,1.359406-8.012695,3.017609
	c-0.80072,0.454102-1.593689,0.924805-2.360291,1.40329c-3.512695,2.19339-6.428711,4.416016-6.666992,4.598694l0.960876,1.251892
	c1.680725-1.288086,5.032288-3.667999,8.385803-5.614197C560.009155,353.954651,560.880127,353.478149,561.723938,353.057251z
	 M666.742554,368.86673c3.902283-3.901306,10.133667-9.395477,11.765564-9.395477v-1.577118
	c-2.875977,0-11.234375,8.209991-12.878906,9.855499L666.742554,368.86673z M245.796738,366.139252
	c-0.486404-0.150421-1.015701-0.305725-1.557205-0.460022c-1.358902-0.391602-2.880798-0.796783-4.614197-1.218689
	l-0.372604,1.53418c1.894501,0.45993,3.500504,0.895508,4.908707,1.308624c0.5522,0.161102,1.072296,0.319305,1.557098,0.472595
	c6.4673,2.045898,7.178696,3.351593,7.209503,3.420898l1.549301-0.190399
	C254.477341,370.11673,253.204437,368.427338,245.796738,366.139252z M766.041321,366.532837
	c-6.428711-9.345703-26.713928-10.782288-32.139709-11c1.841797-3.156311,2.811584-5.830109,2.811584-8.01181
	c0-1.121002-0.242188-2.120087-0.722656-3.002899c-1.739319-3.200195-6.43158-4.739197-14.767578-4.839783
	c-11.819336-0.139709-21.634766,6.990204-25.098633,9.842682c0.009766-0.267487,0.037109-0.575195,0.037109-0.830994
	c0-1.128906-0.083008-2.120087-0.236328-3.017609c4.279297-2.150391,20.25293-11.067383,17.288086-22.927704
	c-0.528381-2.11087-1.851563-3.802795-3.933594-5.025391c-8.669983-5.095703-28.407288-0.851593-34.30365,0.57962
	c0.578064-1.213409,1.2099-2.931213,1.2099-4.856506c0-0.618103-0.06543-1.25-0.222656-1.88031
	c-0.538086-2.164581-2.019592-3.89209-4.405273-5.137695c-7.654297-3.994202-29.981506,12.75528-34.87207,16.54541
	c-0.457031-0.748596-1.599609-2.630402-2.279297-3.747131c1.30365-1.759766,2.24707-3.612762,2.819397-5.559082
	c0.466675-1.587921,0.6474-3.098602,0.6474-4.491699c0-4.833496-2.192383-8.238708-2.311523-8.419891l-0.093811,0.048798
	c-0.20697-0.485809-0.441406-0.972107-0.714783-1.457001c-1.641602-2.913116-4.170898-4.827606-7.520508-5.692413
	c-10.149414-2.618591-24.967773,4.974609-30.141602,7.890625c0.396484-1.190399,0.66803-2.316406,0.66803-3.305603
	c0-1.229004-0.307739-2.297913-0.920959-3.203125c-1.563477-2.302277-4.597656-2.730499-6.145569-2.621613l-0.18158,0.012238
	c-10.84082,0.730377-20.402344,7.646881-26.922791,19.47699c-1.593811,2.888214-3.283203,5.442413-4.993225,7.748108
	c0.075195-0.2901,0.15332-0.581604,0.210022-0.874512c0.188354-0.958496,0.26947-1.877502,0.26947-2.748596
	c0-5.134308-2.800781-8.590302-3.080078-8.921814c-0.258789-0.490784-0.536133-0.977081-0.866211-1.457092
	c-1.759827-2.560486-4.27832-4.117188-7.486267-4.627899c-10.25-1.633789-24.892639,7.776794-30.261841,11.545898
	c0.220825-0.837402,0.40918-1.776398,0.40918-2.804199c0-1.247101-0.255798-2.55368-1.000854-3.721191
	c-1.589905-2.488312-4.936615-3.663116-9.950226-3.489716c-12.69339,0.439911-22.69928,17.526794-25.997101,23.891602
	c-0.454102-1.874603-1.375-3.233887-2.808594-3.989807c-4.054688-2.137177-10.868195,1.136719-14.261688,3.063019v-45.930206
	l-155.19632-0.207001l0.128906,46.192413c-3.356506-1.917511-10.26709-5.274902-14.359406-3.118225
	c-1.434601,0.75592-2.35498,2.115204-2.809082,3.989807c-3.297821-6.364807-13.304199-23.451691-25.997498-23.891602
	c-5.013214-0.173401-8.360413,1.001404-9.949203,3.489716c-0.745605,1.167511-1.002014,2.474091-1.002014,3.721191
	c0,1.027802,0.189011,1.966797,0.409714,2.804199c-5.368713-3.769104-20.012207-13.179688-30.262207-11.545898
	c-3.207596,0.510712-5.726593,2.067413-7.485901,4.627899c-0.329605,0.480011-0.607391,0.966309-0.866699,1.457092
	c-0.279297,0.331512-3.080093,3.787506-3.080093,8.921814c0,0.871094,0.0811,1.7901,0.270096,2.748596
	c0.056595,0.292908,0.134705,0.584412,0.2099,0.874512c-1.710403-2.305695-3.398895-4.859894-4.993103-7.748108
	c-6.520996-11.830109-16.082092-18.746613-26.922394-19.47699l-0.182602-0.012238
	c-1.547897-0.108887-4.582001,0.319336-6.145004,2.621613c-0.6138,0.905212-0.920395,1.974121-0.920395,3.203125
	c0,0.989197,0.271408,2.115204,0.666901,3.305603c-5.173798-2.916016-19.992096-10.509216-30.140594-7.890625
	c-3.350601,0.864807-5.879898,2.779297-7.520508,5.692413c-0.272903,0.484894-0.508301,0.971191-0.716293,1.457001
	l-0.092804-0.048798c-0.119598,0.181183-2.311996,3.586395-2.311996,8.419891c0,1.393097,0.182098,2.903778,0.648499,4.491699
	c0.571198,1.94632,1.514603,3.799316,2.818298,5.559082c-0.679199,1.11673-1.822708,2.998535-2.278305,3.747131
	c-4.890594-3.790131-27.218292-20.539612-34.872597-16.54541c-2.385201,1.245605-3.867096,2.973114-4.405701,5.137695
	c-0.156296,0.63031-0.223198,1.262207-0.223198,1.88031c0,1.925293,0.633301,3.643097,1.210999,4.856506
	c-5.8965-1.431213-25.634796-5.675323-34.304199-0.57962c-2.0816,1.222595-3.404301,2.91452-3.933102,5.025391
	c-2.964897,11.860321,13.008801,20.777313,17.287106,22.927704c-0.153305,0.897522-0.236404,1.888702-0.236404,3.017609
	c0,0.255798,0.029297,0.563507,0.037201,0.830994c-3.462402-2.852478-13.2789-9.982391-25.098202-9.842682
	c-8.3354,0.100586-13.027798,1.639587-14.767597,4.839783c-0.4809,0.882813-0.7216,1.881897-0.7216,3.002899
	c0,2.181702,0.969196,4.855499,2.810997,8.01181c-5.424797,0.217712-25.710899,1.654297-32.139698,11
	c-1.3056,1.899414-1.9589,4.003876-1.9589,6.293884c0,1.646515,0.3364,3.385803,1.0107,5.214905
	c1.9741,5.351501,5.3154,8.936523,9.9326,10.656219c7.067901,2.633789,15.407201,0.329102,20.557602-1.689514
	c-0.577099,0.814514-1.074699,1.76181-1.362301,2.856506c-0.1782,0.676788-0.267101,1.364288-0.267101,2.063507
	c0,1.995087,0.724201,4.079987,2.1656,6.219696c2.085403,3.098602,6.614201,4.93161,12.752403,5.162109
	c9.403297,0.351563,21.910702-3.125,29.9165-10.390625c-0.235802,0.904327-0.408203,1.884705-0.408203,2.938507
	c0,0.185516,0.020004,0.375916,0.0327,0.563416l-0.114197,0.104492c-2.326698,0.585999-14.117699,3.908203-18.989799,12.00589
	c-2.123001,3.52832-2.616203,7.473602-1.4678,11.727509c0.928299,3.435608,2.9468,5.859375,5.999996,7.206085
	c8.751503,3.858398,23.562103-2.195282,29.144104-4.770477c-0.696304,1.466766-1.426804,3.461884-1.426804,5.453094
	c0,0.773407,0.110405,1.541992,0.375,2.273407c0.692902,1.917999,2.301804,3.251984,4.782303,3.968781
	c8.7929,2.537109,22.451096-0.811493,35.265106-16.981506c-0.025909,0.322327-0.064514,0.631927-0.064514,0.9776
	c0,1.707001,0.378906,3.639618,1.687103,5.224609c0.745102,0.90332,1.739197,1.5849,2.934006,2.080109
	c-0.021896,0.0224-0.039505,0.047791-0.061005,0.069305c-0.00679,0.00589-0.014191,0.011688-0.020004,0.017578
	c0.000504,0,0.001404,0,0.002411,0c-1.047302,1.065399-1.977509,2.203125-2.696808,3.444305
	c-1.176697,2.027405-1.765594,4.167999-1.765594,6.398499c0,1.502899,0.267593,3.047821,0.803696,4.623993
	c1.686096,4.964813,4.748596,8.021515,9.104004,9.087921c9.137192,2.236298,21.203598-4.827209,27.678299-10.050812
	c-0.365295,1.161102-0.688507,2.488312-0.688507,3.891602c0,1.217804,0.227005,2.453094,0.835907,3.572296
	c1.297394,2.393494,4.0298,3.73822,8.114807,4.000916c13.127396,0.840881,24.55069-12.74411,29.28949-22.294922
	c0.211411,1.017609,0.608902,2.076202,1.403305,2.934601c0.0215,0.023407,0.050797,0.037109,0.073792,0.061523
	c-0.207092,0.860382-0.314499,1.730499-0.314499,2.609406c0,1.716797,0.398895,3.461884,1.193405,5.224579
	c2.348602,5.210907,6.602493,7.968719,12.644501,8.197296c9.141098,0.346588,20.125992-5.342804,24.996094-9.180695
	c-0.082993,0.470703-0.153305,0.957001-0.153305,1.475616c0,0.832977,0.134705,1.708984,0.490707,2.563477
	c0.856003,2.041901,2.767593,3.475525,5.680206,4.259705c8.600983,2.31842,26.846191-7.388702,33.684479-19.497986
	c0.441925,1.462891,1.374603,3.267487,3.417999,4.213806c4.310608,2,11.383301-0.920898,21.012207-8.656219
	c5.499512,19.484406,22.468292,51.355499,74.658691,51.113312c52.226624-0.245117,69.315399-31.722717,74.88382-50.890717
	c9.486298,7.565521,16.46579,10.412201,20.732391,8.433624c2.044006-0.94632,2.976624-2.750916,3.417999-4.213806
	c6.838898,12.109283,25.083984,21.816406,33.684631,19.497986c2.912964-0.78418,4.824158-2.217804,5.680542-4.259705
	c0.35553-0.854492,0.490295-1.730499,0.490295-2.563477c0-0.518616-0.070374-1.004913-0.153381-1.475616
	c4.871094,3.837891,15.85553,9.527283,24.996094,9.180695c6.04303-0.228577,10.295898-2.986389,12.644592-8.197296
	c0.794922-1.762695,1.193298-3.507782,1.193298-5.224579c0-0.878906-0.107361-1.749023-0.314392-2.609406
	c0.023438-0.024414,0.052734-0.038116,0.074219-0.061523c0.793884-0.858398,1.191406-1.916992,1.40332-2.934601
	c4.738281,9.550812,16.162109,23.135803,29.289978,22.294922c4.085022-0.262695,6.816528-1.607422,8.114319-4.000916
	c0.609375-1.119202,0.835876-2.354492,0.835876-3.572296c0-1.40329-0.323181-2.730499-0.688416-3.891602
	c6.474609,5.223602,18.541016,12.287109,27.678711,10.050812c4.355408-1.066406,7.417908-4.123108,9.102539-9.087921
	c0.537048-1.576172,0.80365-3.121094,0.80365-4.623993c0-2.230499-0.588806-4.371094-1.76355-6.398499
	c-0.720703-1.24118-1.650452-2.378906-2.697327-3.444305c0,0,0,0,0.001892,0c-0.005798-0.00589-0.013611-0.011688-0.01947-0.017578
	c-0.021545-0.021515-0.040039-0.046906-0.061523-0.069305c1.194275-0.495209,2.188477-1.176788,2.93457-2.080109
	c1.308655-1.584991,1.685547-3.517609,1.685547-5.224609c0-0.345673-0.037109-0.655273-0.064392-0.9776
	c12.814392,16.170013,26.473572,19.518616,35.265564,16.981506c2.480408-0.716797,4.089783-2.050781,4.783203-3.968781
	c0.263733-0.731415,0.374023-1.5,0.374023-2.273407c0-1.991211-0.729492-3.986328-1.426819-5.453094
	c5.58313,2.575195,20.392578,8.628876,29.144592,4.770477c3.053711-1.34671,5.072205-3.770477,5.999023-7.206085
	c1.149414-4.253906,0.657166-8.199188-1.46582-11.727509c-4.87207-8.097687-16.664124-11.419891-18.991211-12.00589
	l-0.113281-0.104492c0.012695-0.1875,0.032227-0.377899,0.032227-0.563416c0-1.053802-0.173828-2.03418-0.408203-2.938507
	c8.005859,7.265625,20.513672,10.742188,29.916992,10.390625c6.137695-0.230499,10.666992-2.063507,12.751953-5.162109
	c1.44043-2.139709,2.165039-4.224609,2.165039-6.219696c0-0.699219-0.089783-1.386719-0.267639-2.063507
	c-0.287048-1.094696-0.785095-2.041992-1.362244-2.856506c5.151367,2.018616,13.490173,4.323303,20.558594,1.689514
	c4.617188-1.719696,7.958008-5.304718,9.932556-10.656219c0.672913-1.829102,1.010803-3.56839,1.010803-5.214905
	C768.000305,370.536713,767.346924,368.432251,766.041321,366.532837z M308.78595,354.790649l-2.401825-1.067413l-0.641602,1.441406
	l3.048309,1.354492l0.038116,13.748016l-14.359406,0.38678l0.207001-0.212006
	c-0.239197-0.233398-2.38031-2.321198-5.304199-5.077087c-0.684509-0.646484-1.411621-1.327209-2.169403-2.033203
	c-5.190918-4.830109-11.734894-10.679688-15.008301-12.642609l-0.811493,1.3526
	c2.758301,1.655212,8.09668,6.333923,12.847076,10.698212c0.764221,0.702087,1.514221,1.395508,2.234924,2.067413
	c2.708984,2.526276,5.008789,4.732391,6.210876,5.893463l-47.158585,1.267639l-1.581604,0.042999l-4.902298,0.131775
	l0.042892,1.577209l4.782806-0.128906l1.582993-0.041992l53.0112-1.424805
	c-5.654297,3.583008-20.969696,13.017517-29.199188,15.455017l0.447693,1.51178
	c10.389709-3.077179,30.919006-16.47171,31.788605-17.0401l-0.00592-0.007782l7.349213-0.199219l0.05661,20.001007
	l-0.862305,0.122986l0.221191,1.561523l0.644012-0.09082l0.033691,11.825226c-2.862305,0.314484-6.75531,0.24408-8.970703-1.923828
	c-1.883301-1.843781-2.268494-4.988281-1.141083-9.347687l0.697784-2.707001l-1.25589,1.212891l-1.529297,0.923798
	c-9.895996,5.976624-20.661102,8.167023-28.739319,7.953125c-7.323181-0.742218-11.9375-2.934509-13.329987-6.351501
	c-1.356003-3.330109,0.585892-7.018616,1.878906-8.613312c0.029297-0.037109,0.064392-0.087891,0.093689-0.123108l0.774414-0.918915
	l0.822296-0.976563l-2.400406,0.625c-0.067398,0.018585-2.3013,0.579102-5.755798,0.957977
	c-1.664108,0.089905-3.417511,0.148499-5.233398,0.150421c-0.522003,0-1.049408-0.009705-1.578705-0.018524
	c-2.735306-0.047882-5.545395-0.220673-8.275803-0.607391c-5.595703-0.792999-10.831604-2.448303-14.287598-5.575195
	c-0.782303-0.708008-1.441895-1.489288-2-2.325195c-1.371597-2.047913-2.077194-4.461914-2.077194-7.223694
	c0-3.093719,1.110886-5.511719,3.393097-7.391602c5.059097-4.167023,14.759796-4.638611,22.566391-4.205017
	c0.67041,0.037109,1.330109,0.080017,1.966309,0.128906c5.536102,0.423798,9.708496,1.220703,9.810089,1.241211l2.365204,0.461884
	l-1.633804-1.772491c-0.504395-0.546814-0.952591-1.248016-1.312988-2.030212
	c-0.020004-0.041992-0.038101-0.084991-0.05661-0.127991c-0.052292-0.118103-0.110397-0.231384-0.156799-0.352509
	c-0.2285-0.59079-0.384689-1.223602-0.475098-1.88089c-0.173294-1.271484-0.065903-2.626892,0.510803-3.945313
	c1.542999-3.523376,5.895004-5.46579,12.254898-5.46579c14.77829,0,26.482391,11.68161,26.599091,11.799805l1.742218,1.765594
	l-0.401917-2.448212c-0.73288-4.436493,0.027802-7.766571,2.2612-9.897491c3.46051-3.298798,9.601105-3.0849,12.702698-2.725586
	L308.78595,354.790649z M193.830338,388.720337c-0.1689,0.131805-16.248001,12.541992-31.271393,9.742188
	c-0.587402-0.110382-1.173904-0.239288-1.757904-0.396484c-0.107407-0.029327-0.214798-0.050812-0.322205-0.082092
	c-4.710999-1.351501-7.6577-3.553711-8.759293-6.546814c-1.512207-4.11142,0.822296-8.605499,1.620102-9.954102
	c0.133301-0.225586,0.2285-0.374084,0.25-0.404297l0.989288-1.488312l0.391098-0.588898l-2.3237,0.905304
	c-0.0215,0.00882-0.318893,0.121094-0.825195,0.298798c-2.081604,0.726624-7.8526,2.574219-14.202194,3.163086
	c-0.5522,0.050812-1.108398,0.09082-1.667007,0.121124c-0.651794-0.021515-1.306091-0.051788-1.963394-0.102509
	c-0.560501-0.042999-1.121002-0.101593-1.681107-0.166077c-3.786591-0.44043-7.502892-1.411102-10.472694-3.210907
	c-1.303703-0.790009-2.384201-1.718719-3.285599-2.757813c-1.921402-2.213898-2.943901-4.969696-3.002899-8.263702
	c-0.002007-0.145477,0.010201-0.283203,0.012695-0.427704c0.0429-3.253876,1.2285-5.901398,3.554604-7.861298
	c2.645599-2.229492,6.485901-3.418976,10.573303-3.998108c0.518097-0.073181,1.040497-0.139587,1.564896-0.19339
	c1.807205-0.186493,3.637207-0.269501,5.413605-0.277283c5.79689-0.022522,11.005402,0.725586,12.916992,1.037079
	c0.476105,0.076202,0.759308,0.128906,0.7827,0.13382l1.681702,0.320282l-0.848694-1.486298
	c-0.684097-1.196289-1.180206-2.307587-1.530701-3.351593c-0.798401-2.380798-0.752502-4.371094,0.18309-5.924805
	c0.047806-0.078094,0.109802-0.151306,0.162109-0.228485c0.928696-1.373016,2.582993-2.451202,4.923798-3.220703l1.535599-0.44342
	c3.2491-0.796783,7.524002-1.121979,12.750504-0.950195c15.049789,0.496124,25.192398,14.331116,25.273499,14.441498
	c0,0-4.330109-10.420898-1.5215-14.675781c2.138199-3.23642,7.4272-4.431732,15.724594-3.550812
	c8.470703,0.896515,15.272507,3.833008,20.581497,7.34079c0.481506,0.31842,0.950699,0.639709,1.406296,0.964905l0.007813-0.035187
	l0.300797,0.260712l6.381302,5.545868c1.628891,1.685608,2.960495,3.29892,4.012695,4.707123
	c-6.649902-0.274414-14.391602,0.193298-19.760193,2.960876c-0.951202,0.491211-1.837906,1.044922-2.620102,1.688507
	c-2.332108,1.919922-3.632904,4.417023-3.902405,7.421906l-0.166,0.078094l-19.076202-0.139679l-0.053696-0.045898l0.048798-0.05661
	l-0.553696-0.518616c-0.118103-0.109283-11.888199-10.967712-28.065399-15.207977l-0.401901,1.525391
	c13.726105,3.59671,24.193893,12.067413,26.767593,14.287109l-58.141098-0.43161l-0.012192,1.577087l49.293488,0.365295
	c0.012207-0.012695,0.021408-0.021484,0.033707-0.032196l0.009201,0.032196h-0.042908
	c-3.003891,2.735321-10.971191,9.126923-22.919495,12.333008l0.409698,1.525421
	c14.634308-3.927826,23.267105-12.283203,24.7798-13.839905l0.006302-0.001892l5.012695,0.037079l0.003403,0.004913
	c-3.138596,2.883789-9.835892,8.246094-20.30069,12.695282l0.616699,1.451202
	c12.327103-5.239288,19.458496-11.615295,21.971191-14.134796l20.737701,0.15332c0-0.017639-0.001907-0.033203-0.003403-0.051727
	l0.058609,0.051727h-0.055206c0.104004,3.950195,1.513702,7.263672,4.193893,9.870087
	c0.219208,0.575195,0.570313,1.325195,1.130402,2.173889l0.020004,0.005798l-0.014206,0.001007
	c-0.001389-0.002899-0.004395-0.003906-0.005798-0.006805l-0.572296-0.173889
	c-0.022995,0.074188-2.460495,7.419891-16.842789,12.583008l0.530792,1.485382
	c12.835892-4.608398,16.612793-10.868195,17.545395-12.920898l0.036606-0.018585
	c2.592789,3.258789,8.216293,7.322296,20.257797,8.15918c-8.797302,9.552704-21.960403,13.002014-32.9189,13.120117
	c-1.1138-0.061493-2.239807-0.137695-3.416504-0.274414c-0.137695-0.005798-5.893097-0.139587-8.873993-4.089783
	c-1.989304-2.636719-2.343811-6.408203-1.055206-11.211914l0.613708-2.282288L193.830338,388.720337z M217.711243,307.964935
	c0.242188-0.480499,0.513702-0.956085,0.837387-1.425293c1.503403-2.188995,3.669403-3.523407,6.433609-3.963928
	c11.820801-1.883789,32.753387,13.890228,32.944794,14.036224c0,0-2.885193-6.792511-1.004395-9.728607
	c1.26709-1.981903,4.14801-2.9086,8.561096-2.756805c14.291992,0.495605,25.93161,25.514709,26.043884,25.763702
	c0,0,2.053711-5.252899,3.550812-6.042999c3.446808-1.817383,10.268494,1.524902,13.63089,3.565399l0.040009,14.512726
	c-3.439484-0.376923-9.919006-0.497009-13.78421,3.185577c-2.012695,1.919922-3.024872,4.588898-3.024872,7.961914
	c0,0.397491,0.082489,0.851593,0.110382,1.266602c-3.610901-3.174805-13.632385-10.879913-26.200195-10.879913
	c-9.477112,0-12.652405,4.015594-13.700195,6.410187c-0.484406,1.106415-0.719299,2.314423-0.719299,3.53421
	c0,0.144501,0.029297,0.285095,0.036697,0.427704c-8.955109-3.495087-13.136795-6.729492-14.865799-9.385803
	c-0.624008-0.958893-0.915497-1.827118-1.022903-2.595703c0.211395-2.614197,1.027802-3.976501,1.779297-4.673798
	c0.064407-0.058594,0.128906-0.122986,0.190399-0.173798c0.803711-0.645508,2.535706-2.204102,2.535706-2.204102
	c-0.010803-0.002899-18.351105-7.441406-22.413101-17.109894c-0.392593-0.935486-0.6548-1.878906-0.815994-2.825684
	C216.316742,312.469849,216.596039,310.161255,217.711243,307.964935z M138.997833,300.11673
	c1.421402-2.523376,3.620605-4.184479,6.537613-4.9375c11.531799-2.975983,30.674286,8.711487,30.865692,8.831116l2.292007,1.412598
	l-1.166-2.426788c-1.489212-3.095703-1.727005-5.542023-0.684113-7.076111c1.078705-1.589417,3.417999-2.027893,4.7276-1.934601
	l0.190399,0.012695c10.283707,0.691406,19.392609,7.319794,25.645004,18.663574
	c3.234909,5.864227,6.795395,10.464813,10.170395,14.051239c1.4263,1.515198,2.823807,2.868683,4.144608,4.029785
	c3.957489,3.480499,7.252396,5.431702,8.838791,6.275391c0.202209,0.107422,0.386307,0.202209,0.530807,0.274414
	c-0.081497,0.38089-0.463409,2.149384-0.928207,4.301788c-0.168991,0.780304-0.34819,1.607391-0.527893,2.443298
	c-5.290497-3.405182-11.969208-6.229401-20.180603-7.197174l-0.014191,0.007782l-0.005798-0.010712
	c0.005798,0.000916,0.012192,0.000916,0.019989,0.00293l0.015106-0.009827c-0.2099-0.353485-3.10791-5.025391-12.835907-11.050293
	l-0.004898,0.001495v-0.002899c0.002899,0,0.002899,0,0.004898,0.001404l1.1548-0.559998
	c-0.254395-0.527893-6.353592-12.975616-13.793503-17.286194l-0.791489,1.365295
	c6.319794,3.658203,11.860794,14.051208,12.9561,16.192291c-8.442902-5.152283-21.848709-11.247009-42.794998-16.482391
	l-0.38031,1.530792c21.083008,5.270996,34.462402,11.479004,42.757797,16.625519l0.018509,0.054688
	c-2.617203,0.818298-21.717697,6.691376-29.384705,5.648376l-0.211899,1.561523
	c8.550705,1.164093,29.498505-5.5224,30.386703-5.807587l-0.383804-1.188507l-0.018097-0.010712l0.013702-0.004883
	l0.004395,0.015594c1.347198,0.84671,2.5513,1.661194,3.631302,2.440491v0.000916
	c-2.070801,1.24118-7.436996,3.756897-16.968704,3.756897v1.577087c10.841797,0,16.509705-3.095703,18.334-4.324188h0.002899
	c3.302704,2.521484,5.188004,4.526367,6.139206,5.67868l-0.052307,0.080109c-7.998489-0.606506-13.267593,0.841797-15.597595,4.375
	c-0.981506,1.489197-1.331604,3.164093-1.331604,4.792999c0,1.375,0.276413,2.654297,0.604507,3.826111
	c-3.670898-3.496094-10.874496-8.742218-21.653305-9.097595c-5.493195-0.181702-9.957092,0.174805-13.388702,1.050781
	c-0.454086-1.299805-0.72699-2.533203-0.809998-3.696289l0.328598-3.314514c0.082504-0.288086,0.162109-0.578094,0.275803-0.854492
	c1.804199-4.394501,8.824707-6.867188,8.875504-6.882782l-2.034103-0.558624
	c-4.330093-0.811005-19.77449-7.253876-23.984894-16.284698C137.002243,306.710052,137.157532,303.384338,138.997833,300.11673z
	 M60.381638,325.639252c0-0.820801,0.099102-1.659698,0.3125-2.5112c0.427299-1.71051,1.474102-3.03421,3.200203-4.049805
	c9.458-5.559113,34.595695,1.115204,34.849098,1.182587l2.060097,0.555695l-1.205093-1.762695
	c-0.025406-0.036682-2.504402-3.715393-1.653801-7.119202c0.426796-1.702606,1.638695-3.086395,3.6035-4.110779
	c6.1138-3.190918,26.520004,11.141083,33.867203,16.933075l0.699188,0.550812c0,0,2.084-3.426788,2.9077-4.781311
	c2.923904,3.370117,7.240311,6.367706,12.897003,8.967285c-1.9897,4.235413-2.970703,10.935516-3.451599,16.714813
	l-0.172394,2.369202l-0.704102-0.364288l-0.016098,0.030273c-3.598709-2.271484-13.876999-8.272461-29.111801-13.286072
	l-0.003906,0.003906l-0.001495-0.004913c0.001495,0,0.003899,0.001007,0.005402,0.001007l0.3144-0.217804
	c-0.286606-0.414124-7.086899-10.18512-11.803703-12.940399l-0.796402,1.362274
	c3.432602,2.003418,8.298805,8.347626,10.337402,11.131836l-0.046402,0.018585
	c-10.504898-3.299805-23.203094-6.057709-37.578598-6.841797l-0.085899,1.574188
	c38.320297,2.092804,64.558098,18.314423,68.701103,21.026306l0.036697,0.048889
	c0.036102,0.865204,0.223099,1.792908,0.541504,2.771515c0.282196,0.870117,0.6474,1.773407,1.102493,2.710907
	c-0.337891-0.051819-0.730499-0.112305-1.164505-0.172913c-2.581589-0.364197-6.776886-0.818298-11.356995-0.797791
	c-1.617203,0.00589-3.280197,0.093689-4.938904,0.247986l-0.954102-0.892487
	c-0.056198-0.051788-0.225098-0.209015-0.477097-0.435608c-2.9077-2.615204-18.296898-15.773376-33.744598-15.934601
	c-10.598198-0.109283-15.501495,0.882904-18.0923,3.663116c-0.721695,0.774384-1.254898,1.697296-1.623497,2.814484
	C72.804543,342.014252,60.381638,334.855042,60.381638,325.639252z M49.224438,401.733032
	c-5.621098-0.209991-9.706997-1.795898-11.503399-4.464905c-1.2598-1.872101-1.8936-3.664978-1.8936-5.350586
	c0-0.558594,0.069801-1.106415,0.209499-1.641602c0.920902-3.525391,3.942402-6.852509,3.942402-6.852509
	c-0.002502,0.001892-0.028301,0.015594-0.028301,0.015594c-0.138199,0.075226-13.927299,7.567413-24.085999,3.780304
	c-4.164-1.552704-7.1909-4.825195-8.998-9.724609c-1.4268-3.865295-1.1685-7.251984,0.7671-10.065491
	c6.8237-9.924805,31.9394-10.356384,32.192299-10.359283l1.409199-0.018616l-0.7519-1.189392
	c-3.0616-4.8526-3.949299-8.317413-2.712898-10.590912c1.4184-2.609314,5.8022-3.923798,13.400398-4.015594
	c13.771-0.163086,25.291004,10.506897,25.4062,10.616211l1.490303,1.398499l-0.164101-2.037109
	c-0.161102-1.997101-0.142105-3.612305,0.049797-4.956085l-0.023003-0.003906l0.306206-1.546906
	c0.016098,0.002014,0.023399,0.002991,0.041,0.00589c0.300301-0.964874,0.740196-1.742188,1.333-2.376984
	c2.216797-2.377899,6.960495-3.264587,16.922394-3.162109c12.550804,0.13092,25.467804,9.550781,30.707504,13.839905
	c1.112793,0.911102,1.899902,1.604492,2.241196,1.912994c0.001511,0.00882,0.005402,0.044006,0.007797,0.06842l0.062012,0.010773
	v0.093689c-0.016098,0.002014-0.0327,0.004913-0.049301,0.007813c-4.350105,0.621124-8.490204,1.910187-11.404305,4.366211
	c-2.659599,2.242188-4.029297,5.241211-4.110802,8.906311c-0.004395,0.207001-0.0215,0.406189-0.017601,0.618103
	c0.000504,0.021484,0.003906,0.041077,0.004402,0.0625h0.0215l-0.061096,0.027374c0-0.007782,0.000496-0.014679,0.000496-0.025391
	c-4.374001,0.073212-20.193802,0.355499-36.993095,0.884796c-2.020004-2.101593-15.591805-15.934601-22.699703-16.309601
	l-0.083,1.574219c6.919399,0.36618,20.131298,14.251984,20.264103,14.391602l1.694397,0.370087
	c-19.6329,0.625-40.369198,1.586914-45.608398,2.945313l0.396,1.527374c5.6738-1.470703,30.888102-2.485382,52.252403-3.098694
	l-1.2183,0.484406c-4.129402,2.222717-15.570297,7.992218-18.881302,7.992218v1.577179
	c2.984398,0,10.639603-3.604492,15.466805-6.031281c-4.564507,4.207001-14.130905,11.132782-29.040104,12.935577l0.188499,1.564423
	c20.306698-2.452118,32.125004-15.660126,34.488804-18.551727c14.069794-0.397491,26.2939-0.619171,29.852997-0.680695
	c-0.003403-0.024384-0.003403-0.042999-0.005402-0.067383l0.079605,0.071289c0.202698,1.832001,0.701698,3.497986,1.475594,5.002899
	l-0.177193,0.229492c-3.061501,2.154297-15.379402,10.666016-22.964401,13.634796l0.575195,1.468719
	c7.793503-3.050812,20.026405-11.504913,23.255905-13.781219l-0.028801-0.054688l0.0942,0.008789
	c-0.0215,0.015625-0.039101,0.02832-0.065399,0.045898c1.656197,2.863312,4.489197,6.0224,9.246994,8.851501
	c0.657303,0.390717,1.357506,0.774506,2.0914,1.150421c0.2714,0.139679,0.518005,0.285187,0.800705,0.421906
	c-0.451599,1-1.645004,3.179688-4.282204,5.675781c-1.950195,1.845703-4.6968,3.864197-8.516602,5.708008
	c-2.320793,1.236298-4.793495,2.352509-7.4058,3.308594c-2.416901,0.883789-4.7939,1.566406-7.072197,2.055695
	c-0.205101,0.037994-0.398903,0.080994-0.607002,0.118103c-3.148895,0.564514-5.833496,0.7901-8.132797,0.75592
	c-2.488197-0.09671-4.6474-0.548828-6.3125-1.381927c-3.056602-1.52829-4.928703-3.549774-5.563904-6.008698
	c-0.013695-0.051788-0.0196-0.105499-0.031799-0.158203c-0.124496-0.527374-0.187996-1.051788-0.204094-1.569397
	c-0.106903-3.492188,0.900398-6.233398,0.924797-6.268494l1.3218-2.950195c0.073296-0.127014,0.1362-0.230499,0.175301-0.2901
	l-1.7192,1.991211C73.863541,397.645142,59.310841,402.110931,49.224438,401.733032z M135.117538,422.613831
	c-2.471207-2.990204-1.674896-8.908203-1.674896-8.908203c-12.900803,17.825195-27.252907,21.692413-35.996002,19.169006
	c-1.965904-0.567383-3.223198-1.572296-3.735397-2.986389c-1.263206-3.485321,2.072296-8.481415,2.105995-8.532196l1.7304-2.558624
	l-2.745102,1.416016c-0.1987,0.1026-20.025894,10.220703-30.0327,5.808594c-2.631798-1.161102-4.303696-3.179688-5.112297-6.173798
	c-0.3633-1.345703-0.544899-2.655304-0.544899-3.925812c0-2.335876,0.614197-4.536072,1.838799-6.573181
	c4.370598-7.269592,15.244698-10.54892,17.8321-11.242218c0.035599,1.121124,0.235298,2.271515,0.693298,3.404327
	c1.626503,4.020477,5.967804,6.735291,12.902901,8.069275c0.634201,0.123108,1.267097,0.225616,1.8974,0.316406
	c-6.485802,1.291992-13.370102,2.371094-20.512199,3.071289l0.153297,1.570313
	c9.212906-0.90329,17.996605-2.432587,26.058601-4.239197c6.377998,0.002899,12.412102-1.461914,17.734901-3.629913
	c-3.482903,3.833008-12.787102,13.706024-17.5327,15.189423l0.471199,1.506897
	c6.301201-1.97171,19.073204-16.5625,19.613701-17.182617l-0.474602-0.414093
	c1.152901-0.526398,2.265205-1.083008,3.336502-1.661102c0.005302-0.007904,0.009697-0.015686,0.015099-0.023499l0.012703,0.007813
	c-0.0093,0.004883-0.0186,0.010803-0.027802,0.015686c-1.585999,2.481415-6.824799,10.330994-11.1651,12.813416l0.782196,1.368195
	c5.506401-3.147491,11.949707-13.694305,12.221207-14.140594l-0.904305-0.54892l0.000999-0.002899
	c12.609406-4.203094,20.443405-7.929688,20.598206-8.004883l-0.684097-1.419922
	c-0.127502,0.061523-5.433609,2.585022-14.302811,5.804718c3.586502-2.635712,6.269104-5.298798,7.728104-7.354492
	c1.373505,0.270477,5.578094,0.740173,10.951096-0.967804c0.3125,1.746094,1.525406,5.530304,6.177307,8.725586
	c-0.4785,1.209015-0.989807,2.948303-0.989807,4.945282c0,0.920929,0.107498,1.891632,0.380402,2.882813
	c0.724106,2.644623,2.516098,4.865295,5.22171,6.676819c-4.175308,1.004883-14.373108,3.913086-20.936005,9.527283
	l-0.159698,0.07431C136.80014,424.083527,135.818634,423.461548,135.117538,422.613831z M209.513535,429.650024
	c-1.063004-1.84668-2.153397-4.888702-2.153397-4.888702c-3.915009,10.489227-16.536606,25.218719-29.121094,24.411102
	c-3.506805-0.224579-5.804703-1.292999-6.829102-3.176697c-1.929703-3.547882-0.127411-10.008789-0.127411-10.008789
	c-6.324692,6.049774-19.821793,13.990204-28.709991,11.813385c-3.797806-0.929596-6.483902-3.641602-7.984802-8.061493
	c-0.477097-1.40329-0.714905-2.773407-0.714905-4.106384c0-1.961914,0.516113-3.84082,1.546402-5.617218
	c0.775909-1.34079,1.817398-2.566406,3.023407-3.695282c0.001495,0,0.002991,0.000885,0.005402,0.000885
	c0.495102-0.458008,1.015198-0.901306,1.561996-1.326111c-0.002899,0-0.006805-0.001984-0.009705-0.001984l0.157196-0.09671
	l-0.033188-0.01358c8.052689-6.234406,21.035599-8.838898,21.198196-8.869202l2.185593-0.427704l-1.967789-1.043915
	c-3.293503-1.745178-5.344208-4.012695-6.096207-6.735382c-0.2314-0.837921-0.325195-1.664093-0.325195-2.454102
	c0-1.607422,0.3853-3.050812,0.773499-4.108429c1.757797,1.015625,3.951096,1.928711,6.611298,2.665009
	c0.575195,0.15921,1.153305,0.315521,1.776398,0.457123c0.7836,0.175781,1.592209,0.343689,2.454102,0.487305
	c13.652298,2.289978,20.236298-1.412109,22.708893-3.44632c0.631912,1.80661,2.291504,4.230499,6.314011,6.998993
	c0.001495-0.000977,0.009293,0.004913,0.012192,0.004913v0.002899c-0.004898-0.002899-0.009293-0.005798-0.012192-0.007813
	c-0.343704,0.285217-0.788605,0.676819-1.284195,1.072327l-0.667007-0.073303
	c-3.669403-0.535126-20.631805-2.98822-24.841293-2.98822v1.577087c3.764191,0,18.7173,2.120117,23.684586,2.838928
	c-6.740189,4.992188-21.199692,14.152283-41.572784,18.7099l0.342789,1.5401
	c22.825211-5.104492,39.953598-17.077209,45.699707-21.609406l0.466293,0.319305
	c-2.770004,5.640686-12.1548,24.026398-19.051697,28.725586l0.886703,1.303711
	c7.684998-5.237305,17.413589-24.786102,19.65329-29.433594c0.357407,0.180695,0.714905,0.363281,1.0923,0.516602
	c0.002899-0.002899,0.024399,0,0.033707,0l-0.001511,0.010803c-0.010696-0.004913-0.0215-0.007813-0.032196-0.010803
	c-1.325699,4.054688-5.792496,16.924805-10.121597,20.328186l0.972702,1.239197
	c4.729492-3.714783,9.292892-16.891602,10.650406-21.072205c-0.016602-0.003998-0.033707-0.01178-0.050812-0.016693
	l0.007797-0.008698c0.020004,0.010712,0.044403,0.021393,0.043015,0.025391c0.779297,0.225525,1.586395,0.408203,2.423798,0.541901
	c0.3237,0.051788,0.636688,0.118225,0.966293,0.156311l0.004395,0.048798h-0.001495
	c-0.295898,2.960999-1.234802,6.978516-2.944794,7.833008l0.705597,1.411194c2.698196-1.349609,3.543396-6.492188,3.797806-8.992188
	c7.32959,0.938477,16.209488-0.816406,26.496597-5.203217c0.0811-0.035095,0.159195-0.064392,0.240692-0.099579
	c0.041504,1.104462,0.159714,4.235382,0.231506,6.179688c-0.1241,0.041992-0.251495,0.084991-0.380402,0.127991
	c-7.283203,2.440399-19.516602,7.578094-23.402298,15.555603C209.694641,429.188049,209.608734,429.419525,209.513535,429.650024z
	 M291.216125,429.886322c-2.787079-1.28418-3.345703-6.657196-3.345703-6.657196
	c-5.479492,12.158203-25.680176,24.092712-34.019089,21.846588c-2.414505-0.650391-3.972595-1.774384-4.630798-3.339783
	c-0.2686-0.639709-0.371094-1.308594-0.371094-1.955109c0-2.030273,0.143997-5.457977,0.143997-5.457977l-0.507797,0.822296
	c-1.230011,2.254883-15.135696,11.169891-25.997513,10.758789c-5.3936-0.205109-9.185593-2.650391-11.26709-7.269592
	c-0.698303-1.545898-1.046402-3.075195-1.046402-4.575195c0-0.541992,0.061493-1.079102,0.151794-1.614197
	c0.089401-0.518616,0.213409-1.03421,0.38681-1.542999c0.143997-0.420898,0.306595-0.837921,0.509201-1.25
	c3.506897-7.201233,14.882797-12.111298,22.009293-14.56842c0.550797-0.190399,1.077209-0.367096,1.570801-0.526276v-0.019623
	c2.340805-0.75,4.9151-1.539001,5.280304-1.59079l0.045898-0.006805l-0.381897-0.792999
	c-0.49411-1.025391-0.741211-1.995087-0.741211-2.923798c0-0.792999,0.178314-1.554688,0.537109-2.297913
	c2.083099-4.327087,9.522995-6.506775,11.297394-6.971588c5.326187,5.588806,13.354996,7.013611,21.100113,6.704987
	c-0.240723,0.180725-0.498505,0.371124-0.7612,0.566406c-0.75,0.554718-1.57962,1.162201-2.489319,1.816498
	c-2.35788,0.202087-12.145996,0.947205-17.746597-0.039093l-0.272903,1.552704
	c4.543411,0.801788,11.481415,0.523499,15.508301,0.257813c-9.434082,6.582092-24.35939,15.885773-36.925797,18.731476
	l0.348206,1.537109c16.684998-3.775391,37.353989-18.650391,44.414505-24.012695
	c1.722687-0.138702,3.563507-0.368225,5.528778-0.706116c-2.698181,5.585022-10.24408,19.094818-23.175293,26.734406
	l0.802307,1.358398c14.158203-8.364197,22.012207-23.516602,24.279297-28.442383
	c0.711914-0.141602,1.436005-0.295898,2.178711-0.464813c-2.45462,5.485291-9.649017,20.191406-18.417023,25.63382l0.831512,1.34079
	c9.964417-6.184601,17.643616-23.044891,19.520996-27.447327c2.776398-0.70108,5.748108-1.582977,8.952209-2.70108
	c0.837891,1.662994,3.643494,5.876892,10.624481,6.267517c-1.406799,2.416077-4.160187,6.653381-7.21579,8.690491l0.874512,1.3125
	c3.730408-2.48642,6.893494-7.713898,8.154297-9.990295c0.636688-0.023407,1.313385-0.088806,2.0112-0.176697
	c0.099609,1.564392,0.529297,6.347565,2.179688,12.667877C300.110138,429.892151,293.746826,431.052338,291.216125,429.886322z
	 M459.604828,405.68515c-0.021484,0.621094-3.031311,62.214874-73.357483,62.545898
	c-70.345215,0.326202-73.183105-61.930725-73.203125-62.607422l-0.344696-120.707001h147.078094L459.604828,405.68515z
	 M636.261047,325.307739l0.700195-0.550812c7.345703-5.791992,27.753906-20.123993,33.866211-16.933075
	c1.965759,1.024384,3.176758,2.408173,3.603516,4.110779c0.849548,3.403809-1.628967,7.08252-1.65332,7.119202l-1.206055,1.762695
	l2.061523-0.555695c0.251892-0.067383,25.390625-6.741699,34.848633-1.182587
	c1.726563,1.015594,2.773376,2.339294,3.200195,4.049805c0.213867,0.851501,0.313477,1.690399,0.313477,2.5112
	c0,9.21579-12.423828,16.375-16.454102,18.455078c-0.368225-1.117188-0.901367-2.0401-1.623108-2.814484
	c-2.590759-2.780212-7.49408-3.7724-18.090759-3.663116c-15.449219,0.161224-30.837952,13.319397-33.745117,15.934601
	c-0.25293,0.226593-0.421936,0.38382-0.478516,0.435608l-0.954102,0.892487c-1.658203-0.154297-3.320313-0.242096-4.939514-0.247986
	c-4.578064-0.020508-8.774353,0.433594-11.355408,0.797791c-0.43457,0.060608-0.827148,0.121094-1.164063,0.172913
	c0.454102-0.9375,0.81842-1.84079,1.100586-2.710907c0.319275-0.978607,0.506775-1.906311,0.543884-2.771515l0.036194-0.048889
	c4.141602-2.711884,30.380798-18.933502,68.700195-21.026306l-0.085999-1.574188
	c-14.375977,0.784088-27.074158,3.541992-37.579102,6.841797l-0.045898-0.018585
	c2.039124-2.78421,6.906372-9.128418,10.337952-11.131836l-0.796936-1.362274
	c-4.716797,2.75528-11.516602,12.526276-11.80365,12.940399l0.314453,0.217804c0.001892,0,0.00293-0.001007,0.006836-0.001007
	l-0.003906,0.004913l-0.00293-0.003906c-15.235413,5.013611-25.512695,11.014587-29.111389,13.286072l-0.015625-0.030273
	l-0.705078,0.364288l-0.171814-2.369202c-0.481506-5.779297-1.461853-12.479401-3.452209-16.714813
	c5.658203-2.599579,9.97467-5.597168,12.898499-8.967285C634.177002,321.880951,636.261047,325.307739,636.261047,325.307739z
	 M617.797119,379.590424l0.989319,1.488312c0.021484,0.030212,0.116211,0.178711,0.25,0.404297
	c0.797913,1.348602,3.131775,5.842682,1.620117,9.954102c-1.101501,2.993103-4.048828,5.195313-8.759705,6.546814
	c-0.106506,0.031281-0.213928,0.052765-0.32135,0.082092c-0.584961,0.157196-1.170898,0.286102-1.757874,0.396484
	c-15.024414,2.799805-31.103516-9.610382-31.2724-9.742188l-1.862305-1.457092l0.614197,2.282288
	c1.288086,4.803711,0.933594,8.575195-1.055603,11.211914c-2.980469,3.950195-8.736389,4.083984-8.873962,4.089783
	c-1.176819,0.136719-2.302856,0.212921-3.416138,0.274414c-10.958862-0.118103-24.122009-3.567413-32.918884-13.120117
	c12.041992-0.836884,17.664978-4.900391,20.257813-8.15918l0.036072,0.018585
	c0.932739,2.052704,4.710022,8.3125,17.545898,12.920898l0.531311-1.485382
	c-14.382813-5.163116-16.820313-12.50882-16.843811-12.583008l-0.572205,0.173889
	c-0.000977,0.002899-0.003906,0.003906-0.005859,0.006805l-0.013733-0.001007l0.019592-0.005798
	c0.560547-0.848694,0.911133-1.598694,1.130798-2.173889c2.679749-2.606415,4.089905-5.919891,4.194397-9.870087h-0.055664
	l0.058594-0.051727c-0.002014,0.018524-0.00293,0.034088-0.00293,0.051727l20.737305-0.15332
	c2.512695,2.519501,9.644531,8.895508,21.970703,14.134796l0.617188-1.451202
	c-10.464905-4.449188-17.162048-9.811493-20.300781-12.695282l0.00293-0.004913l5.013672-0.037079l0.005798,0.001892
	c1.512695,1.556702,10.145508,9.912079,24.779297,13.839905l0.410217-1.525421
	c-11.948181-3.206085-19.916016-9.597687-22.919006-12.333008h-0.042908l0.008789-0.032196
	c0.012695,0.010712,0.021545,0.019501,0.034119,0.032196l49.291992-0.365295l-0.011719-1.577087l-58.140564,0.43161
	c2.574219-2.219696,13.041992-10.690399,26.767578-14.287109l-0.402405-1.525391
	c-16.176697,4.240265-27.947205,15.098694-28.065369,15.207977l-0.553711,0.518616l0.049805,0.05661l-0.053711,0.045898
	l-19.077209,0.139679l-0.164978-0.078094c-0.270508-3.004883-1.571289-5.501984-3.902283-7.421906
	c-0.783203-0.643585-1.669006-1.197296-2.620239-1.688507c-5.36908-2.767578-13.111267-3.235291-19.760681-2.960876
	c1.051819-1.408203,2.383789-3.021515,4.012695-4.707123l6.380798-5.545868l0.300842-0.260712l0.007751,0.035187
	c0.456116-0.325195,0.924805-0.646484,1.407288-0.964905c5.308594-3.507782,12.110291-6.444275,20.580994-7.34079
	c8.296936-0.88092,13.585999,0.314392,15.724609,3.550812c2.808594,4.254883-1.521484,14.675781-1.521484,14.675781
	c0.081116-0.110382,10.223694-13.945374,25.273499-14.441498c5.226501-0.171783,9.500977,0.153412,12.75,0.950195l1.536072,0.44342
	c2.34082,0.769501,3.996155,1.847687,4.923828,3.220703c0.051819,0.077179,0.115295,0.150391,0.161194,0.228485
	c0.935486,1.553711,0.981384,3.544006,0.183594,5.924805c-0.349609,1.044006-0.84668,2.155304-1.530273,3.351593l-0.848633,1.486298
	l1.681641-0.320282c0.022461-0.004913,0.30658-0.057617,0.783203-0.13382c1.912048-0.311493,7.119202-1.059601,12.915955-1.037079
	c1.776428,0.007782,3.606506,0.09079,5.414124,0.277283c0.524414,0.053802,1.046875,0.120209,1.565369,0.19339
	c4.086914,0.579132,7.927856,1.768616,10.572327,3.998108c2.326172,1.9599,3.512695,4.607422,3.555603,7.861298
	c0.002014,0.144501,0.013672,0.282227,0.012695,0.427704c-0.059509,3.294006-1.083008,6.049805-3.003906,8.263702
	c-0.901306,1.039093-1.981384,1.967804-3.285095,2.757813c-2.969727,1.799805-6.685608,2.770477-10.472717,3.210907
	c-0.559448,0.064484-1.121094,0.123077-1.68158,0.166077c-0.657227,0.05072-1.311523,0.080994-1.962891,0.102509
	c-0.558594-0.030304-1.115173-0.070313-1.66803-0.121124c-6.348572-0.588867-12.11908-2.436462-14.20105-3.163086
	c-0.50592-0.177704-0.803833-0.289978-0.825256-0.298798l-2.32428-0.905304L617.797119,379.590424z M564.970032,312.661713
	c6.251892-11.343781,15.361267-17.972168,25.64447-18.663574l0.190552-0.012695
	c1.310486-0.093292,3.649353,0.345184,4.727478,1.934601c1.042969,1.534088,0.805664,3.980408-0.683594,7.076111l-1.166016,2.426788
	l2.291992-1.412598c0.191406-0.119629,19.334045-11.807098,30.866211-8.831116c2.916016,0.753021,5.116211,2.414124,6.538086,4.9375
	c1.838806,3.267609,1.994141,6.593323,0.4599,9.883301c-4.210876,9.030823-19.654297,15.473694-23.985291,16.284698
	l-2.03418,0.558624c0.050781,0.015594,7.072327,2.488281,8.875977,6.882782c0.113342,0.276398,0.193298,0.566406,0.276306,0.854492
	l0.328186,3.314514c-0.083008,1.163086-0.356506,2.396484-0.810608,3.696289
	c-3.430542-0.875977-7.89447-1.232483-13.387695-1.050781c-10.779297,0.355377-17.983398,5.601501-21.654297,9.097595
	c0.329102-1.171814,0.604492-2.451111,0.604492-3.826111c0-1.628906-0.349548-3.303802-1.330994-4.792999
	c-2.330078-3.533203-7.599609-4.981506-15.597656-4.375l-0.051697-0.080109c0.95105-1.152313,2.835876-3.157196,6.13855-5.67868
	h0.003052c1.824158,1.228485,7.492065,4.324188,18.333862,4.324188v-1.577087c-9.532166,0-14.8974-2.515717-16.968689-3.756897
	v-0.000916c1.080078-0.779297,2.28418-1.593781,3.63092-2.440491l0.004761-0.015594l0.013733,0.004883l-0.018494,0.010712
	l-0.38385,1.188507c0.888611,0.285187,21.836914,6.97168,30.386719,5.807587l-0.211914-1.561523
	c-7.665955,1.042999-26.767578-4.830078-29.384766-5.648376l0.018616-0.054688
	c8.295898-5.146515,21.674805-11.354523,42.757813-16.625519l-0.379944-1.530792
	c-20.946289,5.235382-34.351624,11.330109-42.794922,16.482391c1.094727-2.141083,6.635742-12.534088,12.955994-16.192291
	l-0.791992-1.365295c-7.439392,4.310577-13.538086,16.758301-13.792847,17.286194l1.155151,0.559998
	c0.001038-0.001404,0.001038-0.001404,0.003906-0.001404v0.002899l-0.003906-0.001495
	c-9.728455,6.024902-12.626892,10.696808-12.836853,11.050293l0.015564,0.009827
	c0.007935-0.002014,0.013733-0.002014,0.019592-0.00293l-0.005859,0.010712l-0.013733-0.007782
	c-8.210876,0.967773-14.890564,3.791992-20.180603,7.197174c-0.179688-0.835907-0.359375-1.662994-0.528259-2.443298
	c-0.464905-2.152405-0.846741-3.920898-0.927856-4.301788c0.144653-0.072205,0.328125-0.166992,0.530334-0.274414
	c1.586914-0.843689,4.881775-2.794891,8.838867-6.275391c1.32135-1.161102,2.71875-2.514587,4.145508-4.029785
	C558.174133,323.126526,561.734619,318.52594,564.970032,312.661713z M463.770844,327.351135
	c3.396484-2.044891,10.113281-5.303192,13.526276-3.503906c1.497101,0.7901,3.551819,6.042999,3.551819,6.042999
	c0.111298-0.248993,11.751007-25.268097,26.042999-25.763702c4.414001-0.151794,7.294891,0.774902,8.561493,2.756805
	c1.88092,2.936096-1.004883,9.728607-1.004883,9.728607c0.191406-0.145996,21.123962-15.920013,32.945251-14.036224
	c2.763733,0.440521,4.929749,1.774933,6.433655,3.963928c0.323303,0.469208,0.594666,0.944794,0.836853,1.425293
	c1.115295,2.19632,1.394653,4.504913,0.856506,6.897919c-0.161194,0.946777-0.423889,1.890198-0.816406,2.825684
	c-4.061584,9.668488-22.402405,17.106995-22.412109,17.109894c0,0,1.731445,1.558594,2.535156,2.204102
	c0.061462,0.050812,0.125977,0.115204,0.190369,0.173798c0.750977,0.697296,1.567383,2.059601,1.779297,4.673798
	c-0.107422,0.768585-0.399414,1.63681-1.023376,2.595703c-1.728516,2.656311-5.910217,5.890717-14.865234,9.385803
	c0.007813-0.142609,0.036133-0.283203,0.036133-0.427704c0-1.219788-0.234436-2.427795-0.718689-3.53421
	c-1.047913-2.394592-4.223694-6.410187-13.700226-6.410187c-12.567383,0-22.588898,7.705109-26.200195,10.879913
	c0.027283-0.415009,0.110291-0.86911,0.110291-1.266602c0-3.373016-1.012695-6.041992-3.024384-7.961914
	c-3.810486-3.63089-10.165009-3.566406-13.640594-3.201202V327.351135z M463.770844,390.049438l0.781189-0.131897l0.22171-0.890594
	l-1.002899-0.25v-16.926819l7.121094,0.19342l-0.006897,0.007782c0.870087,0.56839,21.399384,13.962921,31.789093,17.0401
	l0.447296-1.51178c-8.229492-2.4375-23.545013-11.872009-29.198303-15.455017l53.010834,1.424805l1.583008,0.041992
	l4.783142,0.128906l0.042908-1.577209l-4.90332-0.131775l-1.580994-0.042999l-47.15918-1.267639
	c1.203094-1.161072,3.501892-3.367188,6.210907-5.893463c0.72171-0.671906,1.47171-1.365326,2.235413-2.067413
	c4.750977-4.364288,10.088776-9.042999,12.84668-10.698212l-0.811584-1.3526
	c-3.273407,1.962921-9.817413,7.8125-15.007813,12.642609c-0.757813,0.705994-1.485291,1.386719-2.168884,2.033203
	c-2.92392,2.75589-5.065521,4.843689-5.304718,5.077087l0.207001,0.212006l-14.135681-0.38089v-13.835907l2.862274-1.272491
	l-0.640594-1.441406l-2.22168,0.986298v-11.196289c3.144501-0.348602,9.1474-0.506805,12.55368,2.742188
	c2.233429,2.13092,2.995117,5.460999,2.261719,9.897491l-0.402313,2.448212l1.743103-1.765594
	c0.116211-0.118195,11.820282-11.799805,26.598694-11.799805c6.360321,0,10.711884,1.942413,12.254791,5.46579
	c0.577209,1.31842,0.684631,2.673828,0.510803,3.945313c-0.09082,0.657288-0.24707,1.2901-0.475586,1.88089
	c-0.045898,0.121124-0.104492,0.234406-0.156311,0.352509c-0.018494,0.042999-0.037109,0.085999-0.05658,0.127991
	c-0.360291,0.782196-0.808594,1.483398-1.313538,2.030212l-1.633789,1.772491l2.365295-0.461884
	c0.101501-0.020508,4.274414-0.817413,9.810486-1.241211c0.636719-0.048889,1.295898-0.091797,1.96582-0.128906
	c7.806702-0.433594,17.507935,0.037994,22.566406,4.205017c2.283325,1.879883,3.393616,4.297882,3.393616,7.391602
	c0,2.76178-0.706116,5.175781-2.077087,7.223694c-0.558655,0.835907-1.217834,1.617188-2,2.325195
	c-3.456116,3.126892-8.691528,4.782196-14.288086,5.575195c-2.73053,0.386719-5.540161,0.559509-8.275452,0.607391
	c-0.529297,0.00882-1.056702,0.018524-1.578064,0.018524c-1.816528-0.001923-3.570435-0.060516-5.234436-0.150421
	c-3.454102-0.378876-5.6875-0.939392-5.754883-0.957977l-2.401428-0.625l0.822327,0.976563l0.774414,0.918915
	c0.029297,0.035217,0.064514,0.085999,0.093811,0.123108c1.292847,1.594696,3.235291,5.283203,1.879761,8.613312
	c-1.393494,3.416992-6.007782,5.609283-13.330994,6.351501c-8.077209,0.213898-18.842804-1.976501-28.738281-7.953125
	l-1.529327-0.923798l-1.256775-1.212891l0.698181,2.707001c1.127014,4.359406,0.742218,7.503906-1.141602,9.347687
	c-2.134796,2.091827-5.819275,2.226501-8.648376,1.953125V390.049438z M561.154602,438.634338
	c-2.081055,4.619202-5.873047,7.064484-11.266602,7.269592c-10.862244,0.411102-24.767578-8.503906-25.998047-10.758789
	l-0.507813-0.822296c0,0,0.14447,3.427704,0.14447,5.457977c0,0.646515-0.102478,1.315399-0.371094,1.955109
	c-0.658203,1.565399-2.216797,2.689392-4.630798,3.339783c-8.338898,2.246124-28.5401-9.688385-34.019592-21.846588
	c0,0-0.557587,5.373016-3.345703,6.657196c-2.505798,1.155304-8.784088,0.021515-19.637604-8.513672
	c1.894501-7.046936,2.208923-12.128937,2.24411-12.842804c0.572296,0.063477,1.125,0.104492,1.655304,0.125
	c1.260712,2.276398,4.423798,7.503876,8.154297,9.990295l0.875-1.3125c-3.055695-2.037109-5.809601-6.274414-7.215912-8.690491
	c6.981506-0.390625,9.786224-4.604523,10.624115-6.267517c3.204987,1.118103,6.17569,2,8.952087,2.70108
	c1.877899,4.402435,9.556702,21.262726,19.521515,27.447327l0.831085-1.34079
	c-8.767578-5.442413-15.962006-20.148529-18.416107-25.63382c0.742218,0.168915,1.465912,0.323212,2.177826,0.464813
	c2.267487,4.925781,10.121094,20.078186,24.279266,28.442383l0.802734-1.358398
	c-12.93161-7.639587-20.476624-21.149384-23.174805-26.734406c1.964783,0.337891,3.805695,0.567413,5.52829,0.706116
	c7.060608,5.362305,27.729523,20.237305,44.414093,24.012695l0.348633-1.537109
	c-12.566406-2.845703-27.492249-12.149384-36.925812-18.731476c4.026398,0.265686,10.964874,0.543976,15.508759-0.257813
	l-0.273376-1.552704c-5.600586,0.986298-15.388702,0.24118-17.746094,0.039093
	c-0.910187-0.654297-1.740204-1.26178-2.490204-1.816498c-0.26181-0.195282-0.519592-0.385681-0.760803-0.566406
	c7.745117,0.308624,15.773529-1.11618,21.099579-6.704987c1.775452,0.464813,9.214905,2.644501,11.297913,6.971588
	c0.359314,0.743225,0.537109,1.504913,0.537109,2.297913c0,0.928711-0.24707,1.898407-0.741211,2.923798l-0.381897,0.792999
	l0.045898,0.006805c0.365295,0.051788,2.939514,0.84079,5.280334,1.59079v0.019623
	c0.49408,0.15918,1.01947,0.335876,1.570251,0.526276c7.127014,2.457123,18.503052,7.367188,22.009827,14.56842
	c0.202087,0.412079,0.365173,0.829102,0.508789,1.25c0.173828,0.508789,0.297791,1.024384,0.386719,1.542999
	c0.09082,0.535095,0.152283,1.072205,0.152283,1.614197C562.201416,435.559143,561.852844,437.08844,561.154602,438.634338z
	 M636.956299,430.015228c1.030334,1.776398,1.545898,3.655304,1.545898,5.617218c0,1.332977-0.236267,2.703094-0.714783,4.106384
	c-1.5,4.419891-4.186462,7.131897-7.984375,8.061493c-8.887695,2.176819-22.384827-5.763611-28.710022-11.813385
	c0,0,1.802795,6.460907-0.126892,10.008789c-1.024414,1.883698-3.322327,2.952118-6.829102,3.176697
	c-12.585022,0.807617-25.206055-13.921875-29.121094-24.411102c0,0-1.09082,3.042023-2.15332,4.888702
	c-0.095642-0.230499-0.181641-0.461975-0.291992-0.690491c-3.885803-7.977509-16.119202-13.115204-23.402405-15.555603
	c-0.128906-0.042999-0.255798-0.085999-0.379761-0.127991c0.072205-1.944305,0.190369-5.075226,0.231384-6.179688
	c0.081116,0.035187,0.15918,0.064484,0.241211,0.099579c10.286072,4.38681,19.166992,6.141693,26.496094,5.203217
	c0.254883,2.5,1.099609,7.642578,3.797913,8.992188l0.705994-1.411194c-1.710938-0.854492-2.649414-4.872009-2.945313-7.833008
	h-0.002014l0.004883-0.048798c0.330139-0.038086,0.642639-0.104523,0.96582-0.156311
	c0.837891-0.133698,1.644592-0.316376,2.423889-0.541901c-0.000977-0.003998,0.023438-0.014679,0.042908-0.025391l0.007935,0.008698
	c-0.016602,0.004913-0.033203,0.012695-0.050842,0.016693c1.357422,4.180603,5.921814,17.357422,10.650391,21.072205
	l0.972595-1.239197c-4.329102-3.403381-8.795898-16.273499-10.121094-20.328186
	c-0.010681,0.002991-0.021484,0.00589-0.032166,0.010803l-0.001038-0.010803c0.00885,0,0.030334-0.002899,0.033203,0
	c0.377014-0.15332,0.734436-0.335907,1.091797-0.516602c2.240295,4.647491,11.968811,24.196289,19.65332,29.433594l0.88678-1.303711
	c-6.896484-4.699188-16.28125-23.0849-19.051758-28.725586l0.466797-0.319305
	c5.746094,4.532196,22.873962,16.504913,45.699158,21.609406l0.343811-1.5401
	c-20.374084-4.557617-34.833008-13.717712-41.573303-18.7099c4.966797-0.718811,19.920044-2.838928,23.684631-2.838928v-1.577087
	c-4.208984,0-21.171936,2.453094-24.84082,2.98822l-0.667969,0.073303c-0.495117-0.395508-0.94043-0.787109-1.284241-1.072327
	c-0.002869,0.002014-0.006775,0.004913-0.011658,0.007813v-0.002899c0.002869,0,0.010803-0.00589,0.011658-0.004913
	c4.022522-2.768494,5.682617-5.192383,6.314514-6.998993c2.472595,2.03421,9.05658,5.736298,22.709045,3.44632
	c0.862244-0.143616,1.669861-0.311523,2.454041-0.487305c0.623047-0.141602,1.201111-0.297913,1.776306-0.457123
	c2.660217-0.736298,4.853638-1.649384,6.611389-2.665009c0.388611,1.057617,0.773438,2.501007,0.773438,4.108429
	c0,0.790009-0.093689,1.61618-0.325195,2.454102c-0.751892,2.722687-2.802734,4.990204-6.096741,6.735382l-1.967651,1.043915
	l2.186462,0.427704c0.162109,0.030304,13.145508,2.634796,21.197205,8.869202l-0.032166,0.01358l0.15625,0.09671
	c-0.002991,0-0.005859,0.001984-0.008789,0.001984c0.545898,0.424805,1.066406,0.868103,1.561523,1.326111
	c0.00293,0,0.00293-0.000885,0.00592-0.000885C635.139954,427.448822,636.180054,428.674438,636.956299,430.015228z
	 M693.593018,398.107025c2.587036,0.693298,13.460999,3.972626,17.831116,11.242218
	c1.224609,2.037109,1.839783,4.237305,1.839783,6.573181c0,1.270508-0.182617,2.580109-0.544922,3.925812
	c-0.80957,2.99411-2.482361,5.012695-5.112244,6.173798c-10.006836,4.412109-29.8349-5.705994-30.034241-5.808594l-2.74408-1.416016
	l1.73053,2.558624c0.033142,0.050781,3.370056,5.046875,2.106384,8.532196c-0.512695,1.414093-1.770508,2.419006-3.735291,2.986389
	c-8.744202,2.523407-23.095703-1.343811-35.996094-19.169006c0,0,0.795837,5.917999-1.675842,8.908203
	c-0.701172,0.847717-1.682617,1.469696-2.927795,1.873108l-0.160095-0.07431c-6.5625-5.614197-16.759827-8.5224-20.935608-9.527283
	c2.706116-1.811523,4.498108-4.032196,5.22168-6.676819c0.273499-0.99118,0.38092-1.961884,0.38092-2.882813
	c0-1.996979-0.510803-3.736267-0.989258-4.945282c4.652344-3.195282,5.864258-6.979492,6.176758-8.725586
	c5.372131,1.707977,9.578125,1.238281,10.951233,0.967804c1.458862,2.055695,4.141602,4.718781,7.728455,7.354492
	c-8.870056-3.219696-14.175781-5.743195-14.302795-5.804718l-0.684509,1.419922
	c0.155212,0.075195,7.989197,3.801788,20.598633,8.004883l0.000977,0.002899l-0.905273,0.54892
	c0.271484,0.446289,6.715759,10.993103,12.22168,14.140594l0.782227-1.368195
	c-4.339844-2.482422-9.580139-10.332001-11.166016-12.813416c-0.008789-0.004883-0.018616-0.010803-0.027405-0.015686
	l0.01178-0.007813c0.006836,0.007813,0.010742,0.015594,0.015625,0.023499c1.072266,0.578094,2.184631,1.134705,3.337891,1.661102
	l-0.475586,0.414093c0.539978,0.620117,13.311462,15.210907,19.613281,17.182617l0.472595-1.506897
	c-4.746094-1.483398-14.050659-11.356415-17.533203-15.189423c5.323303,2.167999,11.357544,3.632813,17.735413,3.629913
	c8.061523,1.80661,16.844727,3.335907,26.057617,4.239197l0.153259-1.570313
	c-7.141602-0.700195-14.026245-1.779297-20.511658-3.071289c0.630859-0.09079,1.262695-0.193298,1.897461-0.316406
	c6.93457-1.333984,11.276306-4.048798,12.90332-8.069275C693.35675,400.37854,693.556946,399.228149,693.593018,398.107025z
	 M765.509094,377.49472c-1.806702,4.899414-4.834961,8.171906-8.998047,9.724609
	c-10.158203,3.787109-23.948242-3.705078-24.086914-3.780304c0,0-0.024414-0.013702-0.027283-0.015594
	c0,0,3.0224,3.327118,3.942261,6.852509c0.139709,0.535187,0.208984,1.083008,0.208984,1.641602
	c0,1.685608-0.632751,3.478485-1.893494,5.350586c-1.795898,2.669006-5.880859,4.254913-11.502991,4.464905
	c-10.085876,0.377899-24.640564-4.087891-31.742188-13.107483l-1.719727-1.991211
	c0.038147,0.059601,0.1026,0.163086,0.175842,0.2901l1.321289,2.950195c0.024414,0.035095,1.032166,2.776306,0.924805,6.268494
	c-0.015625,0.517609-0.080139,1.042023-0.204102,1.569397c-0.011719,0.052704-0.018616,0.106415-0.032227,0.158203
	c-0.634766,2.458923-2.506897,4.480408-5.563477,6.008698c-1.664124,0.833099-3.824219,1.285217-6.3125,1.381927
	c-2.298828,0.03418-4.983398-0.191406-8.132813-0.75592c-0.208984-0.037109-0.402405-0.080109-0.607422-0.118103
	c-2.278381-0.489288-4.654297-1.171906-7.072266-2.055695c-2.612305-0.956085-5.085022-2.072296-7.405334-3.308594
	c-3.820251-1.843811-6.565369-3.862305-8.516541-5.708008c-2.636719-2.496094-3.830994-4.675781-4.283203-5.675781
	c0.28418-0.136719,0.53125-0.282227,0.800781-0.421906c0.734436-0.375916,1.435486-0.759705,2.091797-1.150421
	c4.758789-2.829102,7.59082-5.98819,9.24707-8.851501c-0.026367-0.017578-0.042969-0.030273-0.064453-0.045898l0.09375-0.008789
	l-0.029297,0.054688c3.230408,2.276306,15.462952,10.730408,23.254822,13.781219l0.577209-1.468719
	c-7.585876-2.968781-19.90332-11.480499-22.964905-13.634796l-0.176697-0.229492
	c0.773376-1.504913,1.273376-3.170898,1.475586-5.002899l0.080139-0.071289c-0.003052,0.024384-0.003052,0.042999-0.00592,0.067383
	c3.558594,0.061523,15.782166,0.283203,29.852478,0.680695c2.363342,2.891602,14.181702,16.099609,34.488281,18.551727
	l0.189575-1.564423c-14.910217-1.802795-24.475647-8.728577-29.041016-12.935577
	c4.828064,2.426788,12.483398,6.031281,15.466675,6.031281v-1.577179c-3.311523,0-14.751892-5.769501-18.880798-7.992218
	l-1.218811-0.484406c21.365295,0.613312,46.578186,1.627991,52.253906,3.098694l0.395569-1.527374
	c-5.240295-1.358398-25.976563-2.320313-45.608398-2.945313l1.694336-0.370087
	c0.131775-0.139618,13.344666-14.025421,20.263672-14.391602l-0.083008-1.574219
	c-7.108398,0.375-20.679688,14.208008-22.700134,16.309601c-16.799866-0.529297-32.618225-0.811584-36.993225-0.884796
	c0,0.010712,0,0.017609,0,0.025391l-0.061523-0.027374h0.021484c0.001953-0.021423,0.004822-0.041016,0.006836-0.0625
	c0.002869-0.211914-0.013733-0.411102-0.018616-0.618103c-0.080994-3.6651-1.451111-6.664124-4.111267-8.906311
	c-2.914124-2.456024-7.052734-3.745087-11.40332-4.366211c-0.016602-0.002899-0.03418-0.005798-0.048828-0.007813v-0.093689
	l0.060547-0.010773c0.003906-0.024414,0.006775-0.059601,0.007751-0.06842c0.342834-0.308502,1.128052-1.001892,2.241211-1.912994
	c5.240295-4.289124,18.156311-13.708984,30.707092-13.839905c9.961914-0.102478,14.705994,0.78421,16.922852,3.162109
	c0.591797,0.634796,1.03418,1.412109,1.333008,2.376984c0.016541-0.002899,0.026367-0.003876,0.041992-0.00589l0.306641,1.546906
	l-0.024475,0.003906c0.19342,1.343781,0.210999,2.958984,0.049805,4.956085l-0.164001,2.037109l1.491211-1.398499
	c0.113281-0.109314,11.633789-10.779297,25.405273-10.616211c7.598633,0.091797,11.982422,1.406281,13.401306,4.015594
	c1.236389,2.273499,0.348694,5.738312-2.713745,10.590912l-0.752014,1.189392l1.410156,0.018616
	c0.251892,0.002899,25.369141,0.434479,32.192383,10.359283C766.67804,370.242737,766.935852,373.629425,765.509094,377.49472z
	 M660.208313,367.778931l1.171814,1.058594c0.105469-0.118195,10.816467-11.875977,22.837891-17.135803l-0.631775-1.445282
	C671.246399,355.653931,660.652649,367.286713,660.208313,367.778931z M386.23172,465.035736
	c67.212921-0.317413,70.089905-57.051788,70.177704-59.411102c0,0,0.164093-114.397003,0.169006-117.510803H315.903625
	c0.009308,3.118195,0.334503,117.453094,0.334503,117.453094C316.321136,408.005432,319.039337,465.345337,386.23172,465.035736z
	 M355.173126,442.888245c-2.0737-1.475616-1.677704-3.451111-1.876007-7.096619
	c-0.197693-3.644592-1.869598-6.208984-2.265594-6.604492c-0.395508-0.396484-5.816895,0-7.691406,3.15329
	c-1.872986,3.157227-5.322693,3.157227-5.322693,3.157227c-0.987793-2.960938,2.266998-6.212921,6.405701-8.086914
	c4.14212-1.872101,2.269104-2.558594,2.269104-2.558594c-3.842804-2.270508-11.138184-1.972717-11.138184-1.972717
	c1.475586-7.495087,13.604492,0.686615,16.367188,0.490295c2.758301-0.196289,3.450195-1.381897,6.604004-5.322296
	c3.153809-3.944275,2.167389-5.228485,2.167389-5.228485c-1.282196,0.098602-5.519501,0.098602-1.084381-4.040009
	c4.434479-4.141602,12.225586-17.057678,12.225586-17.057678c7.591309,5.422882-7.593292,21.097687-7.593292,21.097687
	c0.099579,3.450195-1.378906,3.549774-4.434601,6.608398c-3.058594,3.055695-3.254913,5.424805-2.960419,6.605499
	c0.297302,1.18161,5.129425,2.958008,9.466309,3.844696c4.336395,0.885712,1.774414,6.111298,1.774414,6.111298
	c-0.493622-2.362305-12.814423-7.59079-12.814423-7.59079c-0.788574,2.761688,0.392517,4.832001,1.475525,8.280304
	C357.833344,440.130432,355.173126,442.888245,355.173126,442.888245z M389.267822,397.894135l-3.793884-9.486298l3.951202-7.747101
	c0,0,4.498993,3.635712,4.5849,8.854492C394.049133,391.477142,389.267822,397.894135,389.267822,397.894135z
	 M391.152618,401.001526c11.438507,11.620117,8.099609,18.360413,8.099609,18.360413
	C385.909424,403.307251,391.152618,401.001526,391.152618,401.001526z M385.165344,368.048431v-3.144501l4.358398-6.175781
	l4.407196,6.197174l-0.074219,2.528412l-4.588898,6.879791L385.165344,368.048431z M387.92514,375.993713v3.241211
	l-3.635803,6.483398l-3.752899-6.418884l0.051788-3.309601l3.460907-6.319305L387.92514,375.993713z M390.792328,357.130432
	l0.058624-3.513702l4.351471-7.127899l6.06842,8.103516v1.710999l-5.681702,7.224579L390.792328,357.130432z M389.505127,352.433228
	l-4.394501-6.052795l-0.055603-3.474579l4.520508-6.395508l4.434509,7.697296L389.505127,352.433228z M388.529633,354.099243
	l0.055603,2.70108l-4.484283,6.197327l-4.058624-6.560516v-2.436584l3.99411-5.953125L388.529633,354.099243z
	 M383.014954,346.217346l-4.262726,6.450195l-4.008301-7.224609l-0.052185-3.47168l4.461884-5.678711l3.861328,6.337891V346.217346z
	 M378.910431,358.044525l4.052795,6.915009l-0.057709,3.03418l-3.833893,6.577118l-4.034698-6.561493l0.07962-4.111298
	L378.910431,358.044525z M378.055939,376.102142c0,0,0.054688,2.458984,0.024384,3.061493l-3.611298,5.924805
	c-2.845184-4.111298-3.418884-12.679718-3.418884-12.679718l2.702606-2.923798
	C373.752747,369.484924,377.943634,376.047424,378.055939,376.102142z M375.512024,387.379425l4.030304-6.246979l3.883698,7.501892
	c-0.472595,2.845703-4.753906,9.420898-4.753906,9.420898C374.722443,393.626526,375.512024,387.379425,375.512024,387.379425z
	 M368.074036,419.886322c0,0-3.333496-6.743195,8.101105-18.360382C376.17514,401.52594,381.41922,403.834534,368.074036,419.886322
	z M384.372345,391.342346l3.450195,7.167999l0.022491,5.315369l-4.192413,4.98053l-3.15918-5.297913l-0.314423-4.660095
	L384.372345,391.342346z M390.681946,378.912628l0.008789-2.837799l4.428711-7.513702c0,0,3.611298,3.805603,4.385681,7.541016
	c0.140717,0.696289-4.358307,9.86911-4.358307,9.86911L390.681946,378.912628z M396.696625,366.093353l4.789001-6.919922
	l-0.163086,7.608398l-1.129913,5.71582L396.696625,366.093353z M401.36264,351.801331l-5.218811-7.879883l5.207123-8.048798
	C401.350952,335.87265,403.473938,342.24173,401.36264,351.801331z M400.270844,328.162628l-3.748108-4.940887v-2.867188
	l1.821289-2.756317C401.100952,322.227631,400.270844,328.162628,400.270844,328.162628z M400.164337,330.55423l0.057587,3.419006
	l-5.129791,8.049805l-4.358398-7.22171v-2.923798l4.938385-7.029816L400.164337,330.55423z M389.632141,330.224243
	l-4.411102-6.83551l-0.055695-3.91748l4.102478-5.304626l5.214905,6.573212l0.05661,2.701202L389.632141,330.224243z
	 M388.295227,331.880432l-0.064484,3.384796l-4.0224,6.09671l-4.283203-7.002014v-2.370087l4.283203-6.757294L388.295227,331.880432
	z M379.370422,330.393127l-0.747101,1.081116c0,0-1.926697-3.946289-1.926697-5.526917
	c0-1.584473,3.617096-7.910614,3.617096-7.910614l3.031311,1.765625l0.054688,3.419403L379.370422,330.393127z
	 M377.777618,332.871643v2.259796l-4.135193,5.734406l-1.451202-1.953217c-0.395477-2.213776,3.592316-10.957001,3.592316-10.957001
	L377.777618,332.871643z M373.036438,342.081635l0.052185,3.361298l-2.699677,2.759796
	c0.136292-3.923798,1.32077-7.886688,1.32077-7.886688L373.036438,342.081635z M373.807953,346.876526l3.747986,6.782196
	l0.054688,2.814514l-3.918884,6.237305l-3.413116-3.426819v-9.208008L373.807953,346.876526z M372.759125,364.577728
	l0.055115,3.252899l-2.147919,2.370087c-0.610382-0.878876-0.444794-8.490173-0.444794-8.490173L372.759125,364.577728z
	 M361.481232,444.603149c0,0,1.776398-2.460022,4.635315-2.856506c2.859406-0.395508,12.617188-3.352509,14.098572-25.832001
	c0,0,0.098602-5.718811,2.265625-6.410217C382.480743,409.504425,384.942627,454.460541,361.481232,444.603149z
	 M384.057953,458.271027c-10.647003-10.351501,0.191376-21.773376,0.191376-21.773376
	C393.845032,449.919525,384.057953,458.271027,384.057953,458.271027z M384.845032,409.334534
	c2.171906,0.691406,2.271484,6.410187,2.271484,6.410187c1.475616,22.477509,11.236328,25.434509,14.097626,25.827118
	c2.857483,0.395508,4.628876,2.865295,4.628876,2.865295C382.381134,454.294525,384.845032,409.334534,384.845032,409.334534z
	 M421.034424,424.726135c0,0-1.870087,0.690491,2.271515,2.561493c4.141602,1.875,7.395477,5.127014,6.407288,8.087006
	c0,0-3.451202,0-5.327209-3.156311c-1.870087-3.154297-7.295898-3.546875-7.685486-3.154297
	c-0.393585,0.392609-2.073303,2.958008-2.269592,6.605499c-0.198212,3.644501,0.196289,5.620117-1.872009,7.102509
	c0,0-2.65921-2.767609-1.580109-6.21579c1.086914-3.448212,1.741211-4.995117,0.958008-7.75882
	c0,0-11.802704,4.703125-12.296875,7.06842c0,0-2.561523-5.224609,1.77829-6.11142
	c4.338898-0.889587,9.166992-2.662994,9.462891-3.844696c0.295898-1.183594,0.097687-3.548798-2.958008-6.606384
	c-3.05368-3.055695-4.535095-3.15332-4.4375-6.603516c0,0-15.17868-15.678802-7.587891-21.101593
	c0,0,7.786194,12.916016,12.223694,17.057587c4.4375,4.138702,0.198212,4.138702-1.085999,4.044006
	c0,0-0.981415,1.279297,2.171906,5.224609c3.155304,3.940399,3.845703,5.126892,6.605499,5.323212
	c2.759705,0.196289,14.88858-7.987305,16.36319-0.49411C432.176025,422.75354,424.880127,422.458527,421.034424,424.726135z
	 M404.769836,342.170532c34.899384,0,30.782196-27.997589,30.782196-27.997589c-7.917908,2.490692-17.820313,0-17.820313-5.432098
	c0-5.431702,6.5625-7.809601,12.673798-7.809601c6.109436,0,7.301819,4.86911,11.999115,4.86911
	c4.690399,0,6.789001-4.016113,6.789001-4.016113s1.814484,3.614288-2.918915,6.375488
	c-4.734375,2.759308-3.845703,4.138702-3.845703,4.138702c4.4375-0.098602,4.537109,6.509796,4.537109,6.509796l0.098602,104.110321
	l-4.635712-4.34082l0.49411-85.967804c0,3.351624-4.734406,7.493225-4.734406,7.493225l-0.099579,75.913086l-4.530212-3.450195
	v-66.253906c-4.438507,0-4.241302,2.36911-4.241302,2.36911l-0.591675,59.841797l-5.129913-5.127014l0.395477-52.252899
	c-4.728485,0-4.537079,2.169922-4.537079,2.169922l-0.091797,47.519592l-4.635803-4.0401l0.097687-42.493103
	c-3.15329,0-3.548798,4.336914-3.548798,4.336914l-0.494202,36.183594l-5.813507-5.520508l0.387726-42.987305
	c32.733398,0,35.203186-21.591797,35.203186-28.295502c0-6.703094-2.469788-4.630798-2.469788-4.630798
	c0,33.91452-33.417908,30.068817-33.417908,30.068817L404.769836,342.170532z M368.870422,300.959045
	c2.292999-1.816406,3.793396-3.163116,6.48053-1.659607c2.692291,1.503387,4.907166,2.848602,4.907166,2.848602l-3.875977-4.111328
	c0,0-1.265594-0.792999,1.265594-2.452667c2.531281-1.659607,8.22171-2.37149,15.098694,2.373108
	c6.881805,4.744568,9.250916,5.694275,10.751892,5.533173c0,0-2.135681,2.371613-4.740204,2.926727
	c-2.610382,0.552277-3.165985,1.582977-2.924774,2.291473c0.232391,0.714905,1.739197,1.347198,1.739197,4.430206
	c0,3.083496-2.293915,5.453094-2.293915,5.453094s-4.19339-3.872986-4.665985-7.112701
	c-0.473694-3.241272-0.317413-5.299896-0.317413-5.299896s-2.607391,0.317413-2.607391,2.449799
	c0,2.135223,0.157196,5.773926-3.715912,9.966309c0,0-3.24118-1.583008-3.63858-2.137207c0,0-0.472717,0.714813-1.895508,0.714813
	c-1.424805,0-2.135803-1.664093-2.214905-2.136688c-0.079102-0.475616,2.690491-0.237823,2.690491-0.237823l2.684509-2.690399
	c0,0,0.475586-4.663086-2.055603-4.663086v3.319305h-7.036682c0,0,0.161194-1.816406,4.271973-3.557098
	c0,0-2.213379-2.689514-5.296875-2.689514c-2.580017-0.020996-4.113708,0.951202-4.113708,0.951202
	S366.576935,302.781342,368.870422,300.959045z M323.269836,301.741333c0,0,2.092285,4.014618,6.788116,4.014618
	c4.696777,0,5.885681-4.864319,11.995575-4.864319c6.111298,0,12.675293,2.377502,12.675293,7.807709
	c0,5.433594-9.90329,7.923309-17.823303,5.433594c0,0-4.112793,27.997498,30.785217,27.997498l0.099609,1.28421
	c0,0-33.420898,3.845703-33.420898-30.070313c0,0-2.463409-2.070801-2.463409,4.632813
	c0,6.703094,2.463409,28.295898,35.192383,28.295898l0.396027,42.984406l-5.815399,5.5224l-0.492218-36.183594
	c0,0-0.395996-4.335907-3.549805-4.335907l0.098114,42.492188l-4.635712,4.039093l-0.098206-47.519592
	c0,0,0.19632-2.168884-4.531189-2.168884l0.392609,52.252899l-5.126495,5.126984l-0.588898-59.841797
	c0,0,0.192871-2.368195-4.24173-2.368195v66.252899l-4.536072,3.450195l-0.099609-75.913086
	c0,0-4.732391-4.141602-4.732391-7.493103l0.49118,85.967682l-4.629395,4.341797l0.099609-104.110779
	c0,0,0.09668-6.608398,4.529785-6.510315c0,0,0.889618-1.378906-3.841278-4.138611
	C321.456818,305.358429,323.269836,301.741333,323.269836,301.741333z M93.867043,359.471252
	c1.633293,0,7.863693,5.494171,11.765099,9.395477l1.115196-1.117096c-1.6455-1.645508-10.003395-9.855499-12.880295-9.855499
	V359.471252z M528.136047,365.67923c-0.541016,0.154297-1.070313,0.309601-1.556641,0.460022
	c-7.407288,2.288086-8.680664,3.977478-8.680664,4.867188l1.548767,0.190399c0.031311-0.069305,0.743225-1.375,7.210022-3.420898
	c0.484436-0.15329,1.004883-0.311493,1.55658-0.472595c1.408203-0.413116,3.014709-0.848694,4.909241-1.308624l-0.373047-1.53418
	C531.016968,364.882446,529.495422,365.287628,528.136047,365.67923z M110.996841,368.837524l1.170494-1.058594
	c-0.445396-0.492218-11.038597-12.125-23.376495-17.522491l-0.631798,1.445282
	C100.180038,356.961548,110.889938,368.71933,110.996841,368.837524z M482.964142,349.296448
	c0.147491-0.112305,6.691376-5.054718,15.872101-11.197205l-0.050812,0.146484
	c0.588898,0.207001,14.600616,5.044922,28.503876,2.728516l-0.260681-1.555695
	c-11.406311,1.900391-23.203094-1.269501-26.673798-2.328094c11.515594-7.624023,26.640594-16.735901,38.611298-20.794922
	l-0.50592-1.493683c-15.166992,5.141602-35.256775,18.246582-46.92868,26.381378l-0.029297-0.03418
	c2.975586-7.651398,8.399414-19.624023,10.916992-20.631897l-0.585876-1.463318
	c-4.050812,1.620117-11.19339,19.934021-11.994202,22.015106l1.19339,0.460907
	c0.015594-0.010712,0.032196-0.021515,0.047791-0.034119l0.001007,0.010712c-0.024384,0.012695-0.048798,0.023407-0.048798,0.023407
	c-5.423798,3.791992-8.915009,6.426788-9.022491,6.508789L482.964142,349.296448z M343.22052,312.477631
	c5.972107,0.115204,7.323212-2.928192,7.323212-2.928192l-14.532684-0.451202
	C336.011047,309.098236,337.250336,312.367249,343.22052,312.477631z M125.57164,337.18515l1.288498-0.911102
	c-0.381302-0.5401-9.446701-13.293518-18.355896-18.329102l-0.776405,1.374481
	C116.327438,324.178833,125.48024,337.055237,125.57164,337.18515z M428.182953,313.092834
	c5.974579,0.110413,7.326172-2.933105,7.326172-2.933105l-14.536194-0.447693
	C420.972931,309.712036,422.214142,312.977631,428.182953,313.092834z M389.526642,302.226135
	c0,0-2.477509-4.281189-6.082001-3.828583C383.444641,298.397552,382.091125,303.916626,389.526642,302.226135z"/>
</svg>
