<!-- Created with Inkscape (http://www.inkscape.org/) -->
<svg xmlns:rdf="http://www.w3.org/1999/02/22-rdf-syntax-ns#" xmlns="http://www.w3.org/2000/svg" height="620" width="620" version="1.1" xmlns:cc="http://creativecommons.org/ns#" xmlns:dc="http://purl.org/dc/elements/1.1/">
 <metadata>
  <rdf:RDF>
   <cc:Work rdf:about="">
    <dc:format>image/svg+xml</dc:format>
    <dc:type rdf:resource="http://purl.org/dc/dcmitype/StillImage"/>
    <dc:title/>
   </cc:Work>
  </rdf:RDF>
 </metadata>
 <g stroke-linejoin="round" stroke-dashoffset="0" transform="matrix(0.8660254,0.5,-0.5,0.8660254,190.01928,-121.14759)" stroke="#6a696a" stroke-linecap="round" stroke-dasharray="none" stroke-miterlimit="10">
  <path style="color:#6a696a;enable-background:accumulate;" stroke-width="1" fill="none" d="M294,40c0.5-19.812,11-29.995,15.78-29.997,5.22-0.003,15.72,9.809,16.22,29.997-3,90-10.99,177.63-16,265-5.02-87.36-15-175-16-265z"/>
  <path style="color:#6a696a;enable-background:accumulate;" stroke-width="0.99466091" fill="#6a696a" d="M309.78,10.003c5.22-0.003,15.72,9.809,16.22,29.997-3,90-10.988,177.63-16,265z"/>
  <path style="color:#6a696a;enable-background:accumulate;" stroke-width="1" fill="none" d="m325.68,83.04c2.0174-16.253,8.1582-23.203,10.539-22.55,2.5987,0.71225,6.9477,10.232,5.3945,26.931-9.5381,73.729-21.348,144.82-31.653,216.11,5.3111-72.655,8.173-146.22,15.719-220.49z"/>
  <path style="color:#6a696a;enable-background:accumulate;" stroke-width="1" fill="#6a696a" d="m336.22,60.489c2.5987,0.71225,6.9477,10.232,5.3945,26.931-9.5381,73.729-21.348,144.82-31.653,216.11z"/>
  <path style="color:#6a696a;enable-background:accumulate;" stroke-width="1" fill="none" d="m338.19,108.06c2.6713-14.041,7.9432-19.558,9.7623-18.766,1.9854,0.86351,4.7479,9.5983,2.4099,24.073-12.42,63.659-26.441,124.8-39.297,186.25,9.0408-63.109,16.226-127.24,27.125-191.56z"/>
  <path style="color:#6a696a;enable-background:accumulate;" stroke-width="1" fill="#6a696a" d="m347.95,89.292c1.9854,0.86351,4.7479,9.5983,2.4099,24.073-12.42,63.659-26.441,124.8-39.297,186.25z"/>
  <path style="color:#6a696a;enable-background:accumulate;" stroke-width="1" fill="none" d="m347.79,124.85c2.755-11.557,7.4424-15.851,8.9688-15.084,1.6659,0.83695,3.7295,8.2865,1.2443,20.225-12.754,52.381-33.775,124.5-46.827,175.01,9.8506-52.121,25.136-127.13,36.614-180.15z"/>
  <path style="color:#6a696a;enable-background:accumulate;" stroke-width="1" fill="#6a696a" d="m356.7,109.77c1.7068,0.83692,3.821,8.2863,1.2749,20.225-13.06,52.38-34.6,124.49-47.97,175z"/>
  <g stroke-width="1" transform="matrix(0.8660254,0.5,-0.5,0.8660254,51.364177,-200.33385)">
   <path style="color:#6a696a;enable-background:accumulate;" fill="#6a696a" d="m462.22,84.325c-2.01-16.253-8.16-23.203-10.54-22.551-2.5987,0.71225-6.9477,10.232-5.3945,26.931,9.5381,73.729,21.348,144.82,31.653,216.11-5.3111-72.655-8.173-146.22-15.719-220.49z"/>
   <path style="color:#6a696a;enable-background:accumulate;" fill="#ffffff" d="m451.68,61.774c-2.5987,0.71225-6.9477,10.232-5.3945,26.931,9.5381,73.729,21.348,144.82,31.653,216.11z"/>
   <path style="color:#6a696a;enable-background:accumulate;" fill="#6a696a" d="m449.71,109.34c-2.6713-14.041-7.9432-19.558-9.7623-18.766-1.9854,0.86351-4.7479,9.5983-2.4099,24.073,12.42,63.659,26.441,124.8,39.297,186.25-9.04-63.11-16.23-127.23-27.13-191.56z"/>
   <path style="color:#6a696a;enable-background:accumulate;" fill="#ffffff" d="m439.95,90.577c-1.9854,0.86351-4.7479,9.5983-2.4099,24.073,12.42,63.659,26.441,124.8,39.297,186.25z"/>
   <path style="color:#6a696a;enable-background:accumulate;" fill="#6a696a" d="m440.11,126.14c-2.755-11.557-7.4424-15.851-8.9688-15.084-1.6659,0.83695-3.7295,8.2865-1.2443,20.225,12.754,52.381,33.775,124.5,46.827,175.01-9.8506-52.121-25.136-127.13-36.614-180.15z"/>
   <path style="color:#6a696a;enable-background:accumulate;" fill="#ffffff" d="m431.2,111.06c-1.7068,0.83692-3.821,8.2863-1.2749,20.225,13.068,52.38,34.605,124.49,47.977,175z"/>
  </g>
 </g>
 <g stroke-linejoin="round" stroke-dashoffset="0" transform="matrix(0.5,0.8660254,-0.8660254,0.5,419.24368,-124.91089)" stroke="#6a696a" stroke-linecap="round" stroke-dasharray="none" stroke-miterlimit="10">
  <path style="color:#6a696a;enable-background:accumulate;" stroke-width="1" fill="none" d="M294,40c0.5-19.812,11-29.995,15.78-29.997,5.22-0.003,15.72,9.809,16.22,29.997-3,90-10.99,177.63-16,265-5.02-87.36-15-175-16-265z"/>
  <path style="color:#6a696a;enable-background:accumulate;" stroke-width="0.99466091" fill="#6a696a" d="M309.78,10.003c5.22-0.003,15.72,9.809,16.22,29.997-3,90-10.988,177.63-16,265z"/>
  <path style="color:#6a696a;enable-background:accumulate;" stroke-width="1" fill="none" d="m325.68,83.04c2.0174-16.253,8.1582-23.203,10.539-22.55,2.5987,0.71225,6.9477,10.232,5.3945,26.931-9.5381,73.729-21.348,144.82-31.653,216.11,5.3111-72.655,8.173-146.22,15.719-220.49z"/>
  <path style="color:#6a696a;enable-background:accumulate;" stroke-width="1" fill="#6a696a" d="m336.22,60.489c2.5987,0.71225,6.9477,10.232,5.3945,26.931-9.5381,73.729-21.348,144.82-31.653,216.11z"/>
  <path style="color:#6a696a;enable-background:accumulate;" stroke-width="1" fill="none" d="m338.19,108.06c2.6713-14.041,7.9432-19.558,9.7623-18.766,1.9854,0.86351,4.7479,9.5983,2.4099,24.073-12.42,63.659-26.441,124.8-39.297,186.25,9.0408-63.109,16.226-127.24,27.125-191.56z"/>
  <path style="color:#6a696a;enable-background:accumulate;" stroke-width="1" fill="#6a696a" d="m347.95,89.292c1.9854,0.86351,4.7479,9.5983,2.4099,24.073-12.42,63.659-26.441,124.8-39.297,186.25z"/>
  <path style="color:#6a696a;enable-background:accumulate;" stroke-width="1" fill="none" d="m347.79,124.85c2.755-11.557,7.4424-15.851,8.9688-15.084,1.6659,0.83695,3.7295,8.2865,1.2443,20.225-12.754,52.381-33.775,124.5-46.827,175.01,9.8506-52.121,25.136-127.13,36.614-180.15z"/>
  <path style="color:#6a696a;enable-background:accumulate;" stroke-width="1" fill="#6a696a" d="m356.7,109.77c1.7068,0.83692,3.821,8.2863,1.2749,20.225-13.06,52.38-34.6,124.49-47.97,175z"/>
  <g stroke-width="1" transform="matrix(0.8660254,0.5,-0.5,0.8660254,51.364177,-200.33385)">
   <path style="color:#6a696a;enable-background:accumulate;" fill="#6a696a" d="m462.22,84.325c-2.01-16.253-8.16-23.203-10.54-22.551-2.5987,0.71225-6.9477,10.232-5.3945,26.931,9.5381,73.729,21.348,144.82,31.653,216.11-5.3111-72.655-8.173-146.22-15.719-220.49z"/>
   <path style="color:#6a696a;enable-background:accumulate;" fill="#ffffff" d="m451.68,61.774c-2.5987,0.71225-6.9477,10.232-5.3945,26.931,9.5381,73.729,21.348,144.82,31.653,216.11z"/>
   <path style="color:#6a696a;enable-background:accumulate;" fill="#6a696a" d="m449.71,109.34c-2.6713-14.041-7.9432-19.558-9.7623-18.766-1.9854,0.86351-4.7479,9.5983-2.4099,24.073,12.42,63.659,26.441,124.8,39.297,186.25-9.04-63.11-16.23-127.23-27.13-191.56z"/>
   <path style="color:#6a696a;enable-background:accumulate;" fill="#ffffff" d="m439.95,90.577c-1.9854,0.86351-4.7479,9.5983-2.4099,24.073,12.42,63.659,26.441,124.8,39.297,186.25z"/>
   <path style="color:#6a696a;enable-background:accumulate;" fill="#6a696a" d="m440.11,126.14c-2.755-11.557-7.4424-15.851-8.9688-15.084-1.6659,0.83695-3.7295,8.2865-1.2443,20.225,12.754,52.381,33.775,124.5,46.827,175.01-9.8506-52.121-25.136-127.13-36.614-180.15z"/>
   <path style="color:#6a696a;enable-background:accumulate;" fill="#ffffff" d="m431.2,111.06c-1.7068,0.83692-3.821,8.2863-1.2749,20.225,13.068,52.38,34.605,124.49,47.977,175z"/>
  </g>
 </g>
 <g stroke-linejoin="round" stroke-dashoffset="0" transform="translate(1.399005,-1.764591)" stroke="#6a696a" stroke-linecap="round" stroke-dasharray="none" stroke-miterlimit="10">
  <path style="color:#6a696a;enable-background:accumulate;" stroke-width="1" fill="none" d="M294,40c0.5-19.812,11-29.995,15.78-29.997,5.22-0.003,15.72,9.809,16.22,29.997-3,90-10.99,177.63-16,265-5.02-87.36-15-175-16-265z"/>
  <path style="color:#6a696a;enable-background:accumulate;" stroke-width="0.99466091" fill="#6a696a" d="M309.78,10.003c5.22-0.003,15.72,9.809,16.22,29.997-3,90-10.988,177.63-16,265z"/>
  <path style="color:#6a696a;enable-background:accumulate;" stroke-width="1" fill="none" d="m325.68,83.04c2.0174-16.253,8.1582-23.203,10.539-22.55,2.5987,0.71225,6.9477,10.232,5.3945,26.931-9.5381,73.729-21.348,144.82-31.653,216.11,5.3111-72.655,8.173-146.22,15.719-220.49z"/>
  <path style="color:#6a696a;enable-background:accumulate;" stroke-width="1" fill="#6a696a" d="m336.22,60.489c2.5987,0.71225,6.9477,10.232,5.3945,26.931-9.5381,73.729-21.348,144.82-31.653,216.11z"/>
  <path style="color:#6a696a;enable-background:accumulate;" stroke-width="1" fill="none" d="m338.19,108.06c2.6713-14.041,7.9432-19.558,9.7623-18.766,1.9854,0.86351,4.7479,9.5983,2.4099,24.073-12.42,63.659-26.441,124.8-39.297,186.25,9.0408-63.109,16.226-127.24,27.125-191.56z"/>
  <path style="color:#6a696a;enable-background:accumulate;" stroke-width="1" fill="#6a696a" d="m347.95,89.292c1.9854,0.86351,4.7479,9.5983,2.4099,24.073-12.42,63.659-26.441,124.8-39.297,186.25z"/>
  <path style="color:#6a696a;enable-background:accumulate;" stroke-width="1" fill="none" d="m347.79,124.85c2.755-11.557,7.4424-15.851,8.9688-15.084,1.6659,0.83695,3.7295,8.2865,1.2443,20.225-12.754,52.381-33.775,124.5-46.827,175.01,9.8506-52.121,25.136-127.13,36.614-180.15z"/>
  <path style="color:#6a696a;enable-background:accumulate;" stroke-width="1" fill="#6a696a" d="m356.7,109.77c1.7068,0.83692,3.821,8.2863,1.2749,20.225-13.06,52.38-34.6,124.49-47.97,175z"/>
  <g stroke-width="1" transform="matrix(0.8660254,0.5,-0.5,0.8660254,51.364177,-200.33385)">
   <path style="color:#6a696a;enable-background:accumulate;" fill="#6a696a" d="m462.22,84.325c-2.01-16.253-8.16-23.203-10.54-22.551-2.5987,0.71225-6.9477,10.232-5.3945,26.931,9.5381,73.729,21.348,144.82,31.653,216.11-5.3111-72.655-8.173-146.22-15.719-220.49z"/>
   <path style="color:#6a696a;enable-background:accumulate;" fill="#ffffff" d="m451.68,61.774c-2.5987,0.71225-6.9477,10.232-5.3945,26.931,9.5381,73.729,21.348,144.82,31.653,216.11z"/>
   <path style="color:#6a696a;enable-background:accumulate;" fill="#6a696a" d="m449.71,109.34c-2.6713-14.041-7.9432-19.558-9.7623-18.766-1.9854,0.86351-4.7479,9.5983-2.4099,24.073,12.42,63.659,26.441,124.8,39.297,186.25-9.04-63.11-16.23-127.23-27.13-191.56z"/>
   <path style="color:#6a696a;enable-background:accumulate;" fill="#ffffff" d="m439.95,90.577c-1.9854,0.86351-4.7479,9.5983-2.4099,24.073,12.42,63.659,26.441,124.8,39.297,186.25z"/>
   <path style="color:#6a696a;enable-background:accumulate;" fill="#6a696a" d="m440.11,126.14c-2.755-11.557-7.4424-15.851-8.9688-15.084-1.6659,0.83695-3.7295,8.2865-1.2443,20.225,12.754,52.381,33.775,124.5,46.827,175.01-9.8506-52.121-25.136-127.13-36.614-180.15z"/>
   <path style="color:#6a696a;enable-background:accumulate;" fill="#ffffff" d="m431.2,111.06c-1.7068,0.83692-3.821,8.2863-1.2749,20.225,13.068,52.38,34.605,124.49,47.977,175z"/>
  </g>
 </g>
 <g stroke-linejoin="round" stroke-dashoffset="0" transform="matrix(0.8660254,-0.5,0.5,0.8660254,-110.93465,195.30203)" stroke="#6a696a" stroke-linecap="round" stroke-dasharray="none" stroke-miterlimit="10">
  <path style="color:#6a696a;enable-background:accumulate;" stroke-width="1" fill="none" d="M294,40c0.5-19.812,11-29.995,15.78-29.997,5.22-0.003,15.72,9.809,16.22,29.997-3,90-10.99,177.63-16,265-5.02-87.36-15-175-16-265z"/>
  <path style="color:#6a696a;enable-background:accumulate;" stroke-width="0.99466091" fill="#6a696a" d="M309.78,10.003c5.22-0.003,15.72,9.809,16.22,29.997-3,90-10.988,177.63-16,265z"/>
  <path style="color:#6a696a;enable-background:accumulate;" stroke-width="1" fill="none" d="m325.68,83.04c2.0174-16.253,8.1582-23.203,10.539-22.55,2.5987,0.71225,6.9477,10.232,5.3945,26.931-9.5381,73.729-21.348,144.82-31.653,216.11,5.3111-72.655,8.173-146.22,15.719-220.49z"/>
  <path style="color:#6a696a;enable-background:accumulate;" stroke-width="1" fill="#6a696a" d="m336.22,60.489c2.5987,0.71225,6.9477,10.232,5.3945,26.931-9.5381,73.729-21.348,144.82-31.653,216.11z"/>
  <path style="color:#6a696a;enable-background:accumulate;" stroke-width="1" fill="none" d="m338.19,108.06c2.6713-14.041,7.9432-19.558,9.7623-18.766,1.9854,0.86351,4.7479,9.5983,2.4099,24.073-12.42,63.659-26.441,124.8-39.297,186.25,9.0408-63.109,16.226-127.24,27.125-191.56z"/>
  <path style="color:#6a696a;enable-background:accumulate;" stroke-width="1" fill="#6a696a" d="m347.95,89.292c1.9854,0.86351,4.7479,9.5983,2.4099,24.073-12.42,63.659-26.441,124.8-39.297,186.25z"/>
  <path style="color:#6a696a;enable-background:accumulate;" stroke-width="1" fill="none" d="m347.79,124.85c2.755-11.557,7.4424-15.851,8.9688-15.084,1.6659,0.83695,3.7295,8.2865,1.2443,20.225-12.754,52.381-33.775,124.5-46.827,175.01,9.8506-52.121,25.136-127.13,36.614-180.15z"/>
  <path style="color:#6a696a;enable-background:accumulate;" stroke-width="1" fill="#6a696a" d="m356.7,109.77c1.7068,0.83692,3.821,8.2863,1.2749,20.225-13.06,52.38-34.6,124.49-47.97,175z"/>
  <g stroke-width="1" transform="matrix(0.8660254,0.5,-0.5,0.8660254,51.364177,-200.33385)">
   <path style="color:#6a696a;enable-background:accumulate;" fill="#6a696a" d="m462.22,84.325c-2.01-16.253-8.16-23.203-10.54-22.551-2.5987,0.71225-6.9477,10.232-5.3945,26.931,9.5381,73.729,21.348,144.82,31.653,216.11-5.3111-72.655-8.173-146.22-15.719-220.49z"/>
   <path style="color:#6a696a;enable-background:accumulate;" fill="#ffffff" d="m451.68,61.774c-2.5987,0.71225-6.9477,10.232-5.3945,26.931,9.5381,73.729,21.348,144.82,31.653,216.11z"/>
   <path style="color:#6a696a;enable-background:accumulate;" fill="#6a696a" d="m449.71,109.34c-2.6713-14.041-7.9432-19.558-9.7623-18.766-1.9854,0.86351-4.7479,9.5983-2.4099,24.073,12.42,63.659,26.441,124.8,39.297,186.25-9.04-63.11-16.23-127.23-27.13-191.56z"/>
   <path style="color:#6a696a;enable-background:accumulate;" fill="#ffffff" d="m439.95,90.577c-1.9854,0.86351-4.7479,9.5983-2.4099,24.073,12.42,63.659,26.441,124.8,39.297,186.25z"/>
   <path style="color:#6a696a;enable-background:accumulate;" fill="#6a696a" d="m440.11,126.14c-2.755-11.557-7.4424-15.851-8.9688-15.084-1.6659,0.83695-3.7295,8.2865-1.2443,20.225,12.754,52.381,33.775,124.5,46.827,175.01-9.8506-52.121-25.136-127.13-36.614-180.15z"/>
   <path style="color:#6a696a;enable-background:accumulate;" fill="#ffffff" d="m431.2,111.06c-1.7068,0.83692-3.821,8.2863-1.2749,20.225,13.068,52.38,34.605,124.49,47.977,175z"/>
  </g>
 </g>
 <g stroke-linejoin="round" stroke-dashoffset="0" transform="matrix(0.5,-0.8660254,0.8660254,0.5,-112.17135,415.52643)" stroke="#6a696a" stroke-linecap="round" stroke-dasharray="none" stroke-miterlimit="10">
  <path style="color:#6a696a;enable-background:accumulate;" stroke-width="1" fill="none" d="M294,40c0.5-19.812,11-29.995,15.78-29.997,5.22-0.003,15.72,9.809,16.22,29.997-3,90-10.99,177.63-16,265-5.02-87.36-15-175-16-265z"/>
  <path style="color:#6a696a;enable-background:accumulate;" stroke-width="0.99466091" fill="#6a696a" d="M309.78,10.003c5.22-0.003,15.72,9.809,16.22,29.997-3,90-10.988,177.63-16,265z"/>
  <path style="color:#6a696a;enable-background:accumulate;" stroke-width="1" fill="none" d="m325.68,83.04c2.0174-16.253,8.1582-23.203,10.539-22.55,2.5987,0.71225,6.9477,10.232,5.3945,26.931-9.5381,73.729-21.348,144.82-31.653,216.11,5.3111-72.655,8.173-146.22,15.719-220.49z"/>
  <path style="color:#6a696a;enable-background:accumulate;" stroke-width="1" fill="#6a696a" d="m336.22,60.489c2.5987,0.71225,6.9477,10.232,5.3945,26.931-9.5381,73.729-21.348,144.82-31.653,216.11z"/>
  <path style="color:#6a696a;enable-background:accumulate;" stroke-width="1" fill="none" d="m338.19,108.06c2.6713-14.041,7.9432-19.558,9.7623-18.766,1.9854,0.86351,4.7479,9.5983,2.4099,24.073-12.42,63.659-26.441,124.8-39.297,186.25,9.0408-63.109,16.226-127.24,27.125-191.56z"/>
  <path style="color:#6a696a;enable-background:accumulate;" stroke-width="1" fill="#6a696a" d="m347.95,89.292c1.9854,0.86351,4.7479,9.5983,2.4099,24.073-12.42,63.659-26.441,124.8-39.297,186.25z"/>
  <path style="color:#6a696a;enable-background:accumulate;" stroke-width="1" fill="none" d="m347.79,124.85c2.755-11.557,7.4424-15.851,8.9688-15.084,1.6659,0.83695,3.7295,8.2865,1.2443,20.225-12.754,52.381-33.775,124.5-46.827,175.01,9.8506-52.121,25.136-127.13,36.614-180.15z"/>
  <path style="color:#6a696a;enable-background:accumulate;" stroke-width="1" fill="#6a696a" d="m356.7,109.77c1.7068,0.83692,3.821,8.2863,1.2749,20.225-13.06,52.38-34.6,124.49-47.97,175z"/>
  <g stroke-width="1" transform="matrix(0.8660254,0.5,-0.5,0.8660254,51.364177,-200.33385)">
   <path style="color:#6a696a;enable-background:accumulate;" fill="#6a696a" d="m462.22,84.325c-2.01-16.253-8.16-23.203-10.54-22.551-2.5987,0.71225-6.9477,10.232-5.3945,26.931,9.5381,73.729,21.348,144.82,31.653,216.11-5.3111-72.655-8.173-146.22-15.719-220.49z"/>
   <path style="color:#6a696a;enable-background:accumulate;" fill="#ffffff" d="m451.68,61.774c-2.5987,0.71225-6.9477,10.232-5.3945,26.931,9.5381,73.729,21.348,144.82,31.653,216.11z"/>
   <path style="color:#6a696a;enable-background:accumulate;" fill="#6a696a" d="m449.71,109.34c-2.6713-14.041-7.9432-19.558-9.7623-18.766-1.9854,0.86351-4.7479,9.5983-2.4099,24.073,12.42,63.659,26.441,124.8,39.297,186.25-9.04-63.11-16.23-127.23-27.13-191.56z"/>
   <path style="color:#6a696a;enable-background:accumulate;" fill="#ffffff" d="m439.95,90.577c-1.9854,0.86351-4.7479,9.5983-2.4099,24.073,12.42,63.659,26.441,124.8,39.297,186.25z"/>
   <path style="color:#6a696a;enable-background:accumulate;" fill="#6a696a" d="m440.11,126.14c-2.755-11.557-7.4424-15.851-8.9688-15.084-1.6659,0.83695-3.7295,8.2865-1.2443,20.225,12.754,52.381,33.775,124.5,46.827,175.01-9.8506-52.121-25.136-127.13-36.614-180.15z"/>
   <path style="color:#6a696a;enable-background:accumulate;" fill="#ffffff" d="m431.2,111.06c-1.7068,0.83692-3.821,8.2863-1.2749,20.225,13.068,52.38,34.605,124.49,47.977,175z"/>
  </g>
 </g>
 <g stroke-linejoin="round" stroke-dashoffset="0" transform="matrix(0,-1,1,0,3.211649,609.14671)" stroke="#6a696a" stroke-linecap="round" stroke-dasharray="none" stroke-miterlimit="10">
  <path style="color:#6a696a;enable-background:accumulate;" stroke-width="1" fill="none" d="M294,40c0.5-19.812,11-29.995,15.78-29.997,5.22-0.003,15.72,9.809,16.22,29.997-3,90-10.99,177.63-16,265-5.02-87.36-15-175-16-265z"/>
  <path style="color:#6a696a;enable-background:accumulate;" stroke-width="0.99466091" fill="#6a696a" d="M309.78,10.003c5.22-0.003,15.72,9.809,16.22,29.997-3,90-10.988,177.63-16,265z"/>
  <path style="color:#6a696a;enable-background:accumulate;" stroke-width="1" fill="none" d="m325.68,83.04c2.0174-16.253,8.1582-23.203,10.539-22.55,2.5987,0.71225,6.9477,10.232,5.3945,26.931-9.5381,73.729-21.348,144.82-31.653,216.11,5.3111-72.655,8.173-146.22,15.719-220.49z"/>
  <path style="color:#6a696a;enable-background:accumulate;" stroke-width="1" fill="#6a696a" d="m336.22,60.489c2.5987,0.71225,6.9477,10.232,5.3945,26.931-9.5381,73.729-21.348,144.82-31.653,216.11z"/>
  <path style="color:#6a696a;enable-background:accumulate;" stroke-width="1" fill="none" d="m338.19,108.06c2.6713-14.041,7.9432-19.558,9.7623-18.766,1.9854,0.86351,4.7479,9.5983,2.4099,24.073-12.42,63.659-26.441,124.8-39.297,186.25,9.0408-63.109,16.226-127.24,27.125-191.56z"/>
  <path style="color:#6a696a;enable-background:accumulate;" stroke-width="1" fill="#6a696a" d="m347.95,89.292c1.9854,0.86351,4.7479,9.5983,2.4099,24.073-12.42,63.659-26.441,124.8-39.297,186.25z"/>
  <path style="color:#6a696a;enable-background:accumulate;" stroke-width="1" fill="none" d="m347.79,124.85c2.755-11.557,7.4424-15.851,8.9688-15.084,1.6659,0.83695,3.7295,8.2865,1.2443,20.225-12.754,52.381-33.775,124.5-46.827,175.01,9.8506-52.121,25.136-127.13,36.614-180.15z"/>
  <path style="color:#6a696a;enable-background:accumulate;" stroke-width="1" fill="#6a696a" d="m356.7,109.77c1.7068,0.83692,3.821,8.2863,1.2749,20.225-13.06,52.38-34.6,124.49-47.97,175z"/>
  <g stroke-width="1" transform="matrix(0.8660254,0.5,-0.5,0.8660254,51.364177,-200.33385)">
   <path style="color:#6a696a;enable-background:accumulate;" fill="#6a696a" d="m462.22,84.325c-2.01-16.253-8.16-23.203-10.54-22.551-2.5987,0.71225-6.9477,10.232-5.3945,26.931,9.5381,73.729,21.348,144.82,31.653,216.11-5.3111-72.655-8.173-146.22-15.719-220.49z"/>
   <path style="color:#6a696a;enable-background:accumulate;" fill="#ffffff" d="m451.68,61.774c-2.5987,0.71225-6.9477,10.232-5.3945,26.931,9.5381,73.729,21.348,144.82,31.653,216.11z"/>
   <path style="color:#6a696a;enable-background:accumulate;" fill="#6a696a" d="m449.71,109.34c-2.6713-14.041-7.9432-19.558-9.7623-18.766-1.9854,0.86351-4.7479,9.5983-2.4099,24.073,12.42,63.659,26.441,124.8,39.297,186.25-9.04-63.11-16.23-127.23-27.13-191.56z"/>
   <path style="color:#6a696a;enable-background:accumulate;" fill="#ffffff" d="m439.95,90.577c-1.9854,0.86351-4.7479,9.5983-2.4099,24.073,12.42,63.659,26.441,124.8,39.297,186.25z"/>
   <path style="color:#6a696a;enable-background:accumulate;" fill="#6a696a" d="m440.11,126.14c-2.755-11.557-7.4424-15.851-8.9688-15.084-1.6659,0.83695-3.7295,8.2865-1.2443,20.225,12.754,52.381,33.775,124.5,46.827,175.01-9.8506-52.121-25.136-127.13-36.614-180.15z"/>
   <path style="color:#6a696a;enable-background:accumulate;" fill="#ffffff" d="m431.2,111.06c-1.7068,0.83692-3.821,8.2863-1.2749,20.225,13.068,52.38,34.605,124.49,47.977,175z"/>
  </g>
 </g>
 <g stroke-linejoin="round" stroke-dashoffset="0" transform="matrix(-1,0,0,-1,622.48509,598.38477)" stroke="#6a696a" stroke-linecap="round" stroke-dasharray="none" stroke-miterlimit="10">
  <g transform="matrix(0.8660254,0.5,-0.5,0.8660254,190.01928,-121.14759)">
   <path style="color:#6a696a;enable-background:accumulate;" stroke-width="1" fill="none" d="M294,40c0.5-19.812,11-29.995,15.78-29.997,5.22-0.003,15.72,9.809,16.22,29.997-3,90-10.99,177.63-16,265-5.02-87.36-15-175-16-265z"/>
   <path style="color:#6a696a;enable-background:accumulate;" stroke-width="0.99466091" fill="#6a696a" d="M309.78,10.003c5.22-0.003,15.72,9.809,16.22,29.997-3,90-10.988,177.63-16,265z"/>
   <path style="color:#6a696a;enable-background:accumulate;" stroke-width="1" fill="none" d="m325.68,83.04c2.0174-16.253,8.1582-23.203,10.539-22.55,2.5987,0.71225,6.9477,10.232,5.3945,26.931-9.5381,73.729-21.348,144.82-31.653,216.11,5.3111-72.655,8.173-146.22,15.719-220.49z"/>
   <path style="color:#6a696a;enable-background:accumulate;" stroke-width="1" fill="#6a696a" d="m336.22,60.489c2.5987,0.71225,6.9477,10.232,5.3945,26.931-9.5381,73.729-21.348,144.82-31.653,216.11z"/>
   <path style="color:#6a696a;enable-background:accumulate;" stroke-width="1" fill="none" d="m338.19,108.06c2.6713-14.041,7.9432-19.558,9.7623-18.766,1.9854,0.86351,4.7479,9.5983,2.4099,24.073-12.42,63.659-26.441,124.8-39.297,186.25,9.0408-63.109,16.226-127.24,27.125-191.56z"/>
   <path style="color:#6a696a;enable-background:accumulate;" stroke-width="1" fill="#6a696a" d="m347.95,89.292c1.9854,0.86351,4.7479,9.5983,2.4099,24.073-12.42,63.659-26.441,124.8-39.297,186.25z"/>
   <path style="color:#6a696a;enable-background:accumulate;" stroke-width="1" fill="none" d="m347.79,124.85c2.755-11.557,7.4424-15.851,8.9688-15.084,1.6659,0.83695,3.7295,8.2865,1.2443,20.225-12.754,52.381-33.775,124.5-46.827,175.01,9.8506-52.121,25.136-127.13,36.614-180.15z"/>
   <path style="color:#6a696a;enable-background:accumulate;" stroke-width="1" fill="#6a696a" d="m356.7,109.77c1.7068,0.83692,3.821,8.2863,1.2749,20.225-13.06,52.38-34.6,124.49-47.97,175z"/>
   <g stroke-width="1" transform="matrix(0.8660254,0.5,-0.5,0.8660254,51.364177,-200.33385)">
    <path style="color:#6a696a;enable-background:accumulate;" fill="#6a696a" d="m462.22,84.325c-2.01-16.253-8.16-23.203-10.54-22.551-2.5987,0.71225-6.9477,10.232-5.3945,26.931,9.5381,73.729,21.348,144.82,31.653,216.11-5.3111-72.655-8.173-146.22-15.719-220.49z"/>
    <path style="color:#6a696a;enable-background:accumulate;" fill="#ffffff" d="m451.68,61.774c-2.5987,0.71225-6.9477,10.232-5.3945,26.931,9.5381,73.729,21.348,144.82,31.653,216.11z"/>
    <path style="color:#6a696a;enable-background:accumulate;" fill="#6a696a" d="m449.71,109.34c-2.6713-14.041-7.9432-19.558-9.7623-18.766-1.9854,0.86351-4.7479,9.5983-2.4099,24.073,12.42,63.659,26.441,124.8,39.297,186.25-9.04-63.11-16.23-127.23-27.13-191.56z"/>
    <path style="color:#6a696a;enable-background:accumulate;" fill="#ffffff" d="m439.95,90.577c-1.9854,0.86351-4.7479,9.5983-2.4099,24.073,12.42,63.659,26.441,124.8,39.297,186.25z"/>
    <path style="color:#6a696a;enable-background:accumulate;" fill="#6a696a" d="m440.11,126.14c-2.755-11.557-7.4424-15.851-8.9688-15.084-1.6659,0.83695-3.7295,8.2865-1.2443,20.225,12.754,52.381,33.775,124.5,46.827,175.01-9.8506-52.121-25.136-127.13-36.614-180.15z"/>
    <path style="color:#6a696a;enable-background:accumulate;" fill="#ffffff" d="m431.2,111.06c-1.7068,0.83692-3.821,8.2863-1.2749,20.225,13.068,52.38,34.605,124.49,47.977,175z"/>
   </g>
  </g>
  <g transform="matrix(0.5,0.8660254,-0.8660254,0.5,419.24368,-124.91089)">
   <path style="color:#6a696a;enable-background:accumulate;" stroke-width="1" fill="none" d="M294,40c0.5-19.812,11-29.995,15.78-29.997,5.22-0.003,15.72,9.809,16.22,29.997-3,90-10.99,177.63-16,265-5.02-87.36-15-175-16-265z"/>
   <path style="color:#6a696a;enable-background:accumulate;" stroke-width="0.99466091" fill="#6a696a" d="M309.78,10.003c5.22-0.003,15.72,9.809,16.22,29.997-3,90-10.988,177.63-16,265z"/>
   <path style="color:#6a696a;enable-background:accumulate;" stroke-width="1" fill="none" d="m325.68,83.04c2.0174-16.253,8.1582-23.203,10.539-22.55,2.5987,0.71225,6.9477,10.232,5.3945,26.931-9.5381,73.729-21.348,144.82-31.653,216.11,5.3111-72.655,8.173-146.22,15.719-220.49z"/>
   <path style="color:#6a696a;enable-background:accumulate;" stroke-width="1" fill="#6a696a" d="m336.22,60.489c2.5987,0.71225,6.9477,10.232,5.3945,26.931-9.5381,73.729-21.348,144.82-31.653,216.11z"/>
   <path style="color:#6a696a;enable-background:accumulate;" stroke-width="1" fill="none" d="m338.19,108.06c2.6713-14.041,7.9432-19.558,9.7623-18.766,1.9854,0.86351,4.7479,9.5983,2.4099,24.073-12.42,63.659-26.441,124.8-39.297,186.25,9.0408-63.109,16.226-127.24,27.125-191.56z"/>
   <path style="color:#6a696a;enable-background:accumulate;" stroke-width="1" fill="#6a696a" d="m347.95,89.292c1.9854,0.86351,4.7479,9.5983,2.4099,24.073-12.42,63.659-26.441,124.8-39.297,186.25z"/>
   <path style="color:#6a696a;enable-background:accumulate;" stroke-width="1" fill="none" d="m347.79,124.85c2.755-11.557,7.4424-15.851,8.9688-15.084,1.6659,0.83695,3.7295,8.2865,1.2443,20.225-12.754,52.381-33.775,124.5-46.827,175.01,9.8506-52.121,25.136-127.13,36.614-180.15z"/>
   <path style="color:#6a696a;enable-background:accumulate;" stroke-width="1" fill="#6a696a" d="m356.7,109.77c1.7068,0.83692,3.821,8.2863,1.2749,20.225-13.06,52.38-34.6,124.49-47.97,175z"/>
   <g stroke-width="1" transform="matrix(0.8660254,0.5,-0.5,0.8660254,51.364177,-200.33385)">
    <path style="color:#6a696a;enable-background:accumulate;" fill="#6a696a" d="m462.22,84.325c-2.01-16.253-8.16-23.203-10.54-22.551-2.5987,0.71225-6.9477,10.232-5.3945,26.931,9.5381,73.729,21.348,144.82,31.653,216.11-5.3111-72.655-8.173-146.22-15.719-220.49z"/>
    <path style="color:#6a696a;enable-background:accumulate;" fill="#ffffff" d="m451.68,61.774c-2.5987,0.71225-6.9477,10.232-5.3945,26.931,9.5381,73.729,21.348,144.82,31.653,216.11z"/>
    <path style="color:#6a696a;enable-background:accumulate;" fill="#6a696a" d="m449.71,109.34c-2.6713-14.041-7.9432-19.558-9.7623-18.766-1.9854,0.86351-4.7479,9.5983-2.4099,24.073,12.42,63.659,26.441,124.8,39.297,186.25-9.04-63.11-16.23-127.23-27.13-191.56z"/>
    <path style="color:#6a696a;enable-background:accumulate;" fill="#ffffff" d="m439.95,90.577c-1.9854,0.86351-4.7479,9.5983-2.4099,24.073,12.42,63.659,26.441,124.8,39.297,186.25z"/>
    <path style="color:#6a696a;enable-background:accumulate;" fill="#6a696a" d="m440.11,126.14c-2.755-11.557-7.4424-15.851-8.9688-15.084-1.6659,0.83695-3.7295,8.2865-1.2443,20.225,12.754,52.381,33.775,124.5,46.827,175.01-9.8506-52.121-25.136-127.13-36.614-180.15z"/>
    <path style="color:#6a696a;enable-background:accumulate;" fill="#ffffff" d="m431.2,111.06c-1.7068,0.83692-3.821,8.2863-1.2749,20.225,13.068,52.38,34.605,124.49,47.977,175z"/>
   </g>
  </g>
  <g transform="translate(1.399005,-1.764591)">
   <path style="color:#6a696a;enable-background:accumulate;" stroke-width="1" fill="none" d="M294,40c0.5-19.812,11-29.995,15.78-29.997,5.22-0.003,15.72,9.809,16.22,29.997-3,90-10.99,177.63-16,265-5.02-87.36-15-175-16-265z"/>
   <path style="color:#6a696a;enable-background:accumulate;" stroke-width="0.99466091" fill="#6a696a" d="M309.78,10.003c5.22-0.003,15.72,9.809,16.22,29.997-3,90-10.988,177.63-16,265z"/>
   <path style="color:#6a696a;enable-background:accumulate;" stroke-width="1" fill="none" d="m325.68,83.04c2.0174-16.253,8.1582-23.203,10.539-22.55,2.5987,0.71225,6.9477,10.232,5.3945,26.931-9.5381,73.729-21.348,144.82-31.653,216.11,5.3111-72.655,8.173-146.22,15.719-220.49z"/>
   <path style="color:#6a696a;enable-background:accumulate;" stroke-width="1" fill="#6a696a" d="m336.22,60.489c2.5987,0.71225,6.9477,10.232,5.3945,26.931-9.5381,73.729-21.348,144.82-31.653,216.11z"/>
   <path style="color:#6a696a;enable-background:accumulate;" stroke-width="1" fill="none" d="m338.19,108.06c2.6713-14.041,7.9432-19.558,9.7623-18.766,1.9854,0.86351,4.7479,9.5983,2.4099,24.073-12.42,63.659-26.441,124.8-39.297,186.25,9.0408-63.109,16.226-127.24,27.125-191.56z"/>
   <path style="color:#6a696a;enable-background:accumulate;" stroke-width="1" fill="#6a696a" d="m347.95,89.292c1.9854,0.86351,4.7479,9.5983,2.4099,24.073-12.42,63.659-26.441,124.8-39.297,186.25z"/>
   <path style="color:#6a696a;enable-background:accumulate;" stroke-width="1" fill="none" d="m347.79,124.85c2.755-11.557,7.4424-15.851,8.9688-15.084,1.6659,0.83695,3.7295,8.2865,1.2443,20.225-12.754,52.381-33.775,124.5-46.827,175.01,9.8506-52.121,25.136-127.13,36.614-180.15z"/>
   <path style="color:#6a696a;enable-background:accumulate;" stroke-width="1" fill="#6a696a" d="m356.7,109.77c1.7068,0.83692,3.821,8.2863,1.2749,20.225-13.06,52.38-34.6,124.49-47.97,175z"/>
   <g stroke-width="1" transform="matrix(0.8660254,0.5,-0.5,0.8660254,51.364177,-200.33385)">
    <path style="color:#6a696a;enable-background:accumulate;" fill="#6a696a" d="m462.22,84.325c-2.01-16.253-8.16-23.203-10.54-22.551-2.5987,0.71225-6.9477,10.232-5.3945,26.931,9.5381,73.729,21.348,144.82,31.653,216.11-5.3111-72.655-8.173-146.22-15.719-220.49z"/>
    <path style="color:#6a696a;enable-background:accumulate;" fill="#ffffff" d="m451.68,61.774c-2.5987,0.71225-6.9477,10.232-5.3945,26.931,9.5381,73.729,21.348,144.82,31.653,216.11z"/>
    <path style="color:#6a696a;enable-background:accumulate;" fill="#6a696a" d="m449.71,109.34c-2.6713-14.041-7.9432-19.558-9.7623-18.766-1.9854,0.86351-4.7479,9.5983-2.4099,24.073,12.42,63.659,26.441,124.8,39.297,186.25-9.04-63.11-16.23-127.23-27.13-191.56z"/>
    <path style="color:#6a696a;enable-background:accumulate;" fill="#ffffff" d="m439.95,90.577c-1.9854,0.86351-4.7479,9.5983-2.4099,24.073,12.42,63.659,26.441,124.8,39.297,186.25z"/>
    <path style="color:#6a696a;enable-background:accumulate;" fill="#6a696a" d="m440.11,126.14c-2.755-11.557-7.4424-15.851-8.9688-15.084-1.6659,0.83695-3.7295,8.2865-1.2443,20.225,12.754,52.381,33.775,124.5,46.827,175.01-9.8506-52.121-25.136-127.13-36.614-180.15z"/>
    <path style="color:#6a696a;enable-background:accumulate;" fill="#ffffff" d="m431.2,111.06c-1.7068,0.83692-3.821,8.2863-1.2749,20.225,13.068,52.38,34.605,124.49,47.977,175z"/>
   </g>
  </g>
  <g transform="matrix(0.8660254,-0.5,0.5,0.8660254,-110.93465,195.30203)">
   <path style="color:#6a696a;enable-background:accumulate;" stroke-width="1" fill="none" d="M294,40c0.5-19.812,11-29.995,15.78-29.997,5.22-0.003,15.72,9.809,16.22,29.997-3,90-10.99,177.63-16,265-5.02-87.36-15-175-16-265z"/>
   <path style="color:#6a696a;enable-background:accumulate;" stroke-width="0.99466091" fill="#6a696a" d="M309.78,10.003c5.22-0.003,15.72,9.809,16.22,29.997-3,90-10.988,177.63-16,265z"/>
   <path style="color:#6a696a;enable-background:accumulate;" stroke-width="1" fill="none" d="m325.68,83.04c2.0174-16.253,8.1582-23.203,10.539-22.55,2.5987,0.71225,6.9477,10.232,5.3945,26.931-9.5381,73.729-21.348,144.82-31.653,216.11,5.3111-72.655,8.173-146.22,15.719-220.49z"/>
   <path style="color:#6a696a;enable-background:accumulate;" stroke-width="1" fill="#6a696a" d="m336.22,60.489c2.5987,0.71225,6.9477,10.232,5.3945,26.931-9.5381,73.729-21.348,144.82-31.653,216.11z"/>
   <path style="color:#6a696a;enable-background:accumulate;" stroke-width="1" fill="none" d="m338.19,108.06c2.6713-14.041,7.9432-19.558,9.7623-18.766,1.9854,0.86351,4.7479,9.5983,2.4099,24.073-12.42,63.659-26.441,124.8-39.297,186.25,9.0408-63.109,16.226-127.24,27.125-191.56z"/>
   <path style="color:#6a696a;enable-background:accumulate;" stroke-width="1" fill="#6a696a" d="m347.95,89.292c1.9854,0.86351,4.7479,9.5983,2.4099,24.073-12.42,63.659-26.441,124.8-39.297,186.25z"/>
   <path style="color:#6a696a;enable-background:accumulate;" stroke-width="1" fill="none" d="m347.79,124.85c2.755-11.557,7.4424-15.851,8.9688-15.084,1.6659,0.83695,3.7295,8.2865,1.2443,20.225-12.754,52.381-33.775,124.5-46.827,175.01,9.8506-52.121,25.136-127.13,36.614-180.15z"/>
   <path style="color:#6a696a;enable-background:accumulate;" stroke-width="1" fill="#6a696a" d="m356.7,109.77c1.7068,0.83692,3.821,8.2863,1.2749,20.225-13.06,52.38-34.6,124.49-47.97,175z"/>
   <g stroke-width="1" transform="matrix(0.8660254,0.5,-0.5,0.8660254,51.364177,-200.33385)">
    <path style="color:#6a696a;enable-background:accumulate;" fill="#6a696a" d="m462.22,84.325c-2.01-16.253-8.16-23.203-10.54-22.551-2.5987,0.71225-6.9477,10.232-5.3945,26.931,9.5381,73.729,21.348,144.82,31.653,216.11-5.3111-72.655-8.173-146.22-15.719-220.49z"/>
    <path style="color:#6a696a;enable-background:accumulate;" fill="#ffffff" d="m451.68,61.774c-2.5987,0.71225-6.9477,10.232-5.3945,26.931,9.5381,73.729,21.348,144.82,31.653,216.11z"/>
    <path style="color:#6a696a;enable-background:accumulate;" fill="#6a696a" d="m449.71,109.34c-2.6713-14.041-7.9432-19.558-9.7623-18.766-1.9854,0.86351-4.7479,9.5983-2.4099,24.073,12.42,63.659,26.441,124.8,39.297,186.25-9.04-63.11-16.23-127.23-27.13-191.56z"/>
    <path style="color:#6a696a;enable-background:accumulate;" fill="#ffffff" d="m439.95,90.577c-1.9854,0.86351-4.7479,9.5983-2.4099,24.073,12.42,63.659,26.441,124.8,39.297,186.25z"/>
    <path style="color:#6a696a;enable-background:accumulate;" fill="#6a696a" d="m440.11,126.14c-2.755-11.557-7.4424-15.851-8.9688-15.084-1.6659,0.83695-3.7295,8.2865-1.2443,20.225,12.754,52.381,33.775,124.5,46.827,175.01-9.8506-52.121-25.136-127.13-36.614-180.15z"/>
    <path style="color:#6a696a;enable-background:accumulate;" fill="#ffffff" d="m431.2,111.06c-1.7068,0.83692-3.821,8.2863-1.2749,20.225,13.068,52.38,34.605,124.49,47.977,175z"/>
   </g>
  </g>
  <g transform="matrix(0.5,-0.8660254,0.8660254,0.5,-112.17135,415.52643)">
   <path style="color:#6a696a;enable-background:accumulate;" stroke-width="1" fill="none" d="M294,40c0.5-19.812,11-29.995,15.78-29.997,5.22-0.003,15.72,9.809,16.22,29.997-3,90-10.99,177.63-16,265-5.02-87.36-15-175-16-265z"/>
   <path style="color:#6a696a;enable-background:accumulate;" stroke-width="0.99466091" fill="#6a696a" d="M309.78,10.003c5.22-0.003,15.72,9.809,16.22,29.997-3,90-10.988,177.63-16,265z"/>
   <path style="color:#6a696a;enable-background:accumulate;" stroke-width="1" fill="none" d="m325.68,83.04c2.0174-16.253,8.1582-23.203,10.539-22.55,2.5987,0.71225,6.9477,10.232,5.3945,26.931-9.5381,73.729-21.348,144.82-31.653,216.11,5.3111-72.655,8.173-146.22,15.719-220.49z"/>
   <path style="color:#6a696a;enable-background:accumulate;" stroke-width="1" fill="#6a696a" d="m336.22,60.489c2.5987,0.71225,6.9477,10.232,5.3945,26.931-9.5381,73.729-21.348,144.82-31.653,216.11z"/>
   <path style="color:#6a696a;enable-background:accumulate;" stroke-width="1" fill="none" d="m338.19,108.06c2.6713-14.041,7.9432-19.558,9.7623-18.766,1.9854,0.86351,4.7479,9.5983,2.4099,24.073-12.42,63.659-26.441,124.8-39.297,186.25,9.0408-63.109,16.226-127.24,27.125-191.56z"/>
   <path style="color:#6a696a;enable-background:accumulate;" stroke-width="1" fill="#6a696a" d="m347.95,89.292c1.9854,0.86351,4.7479,9.5983,2.4099,24.073-12.42,63.659-26.441,124.8-39.297,186.25z"/>
   <path style="color:#6a696a;enable-background:accumulate;" stroke-width="1" fill="none" d="m347.79,124.85c2.755-11.557,7.4424-15.851,8.9688-15.084,1.6659,0.83695,3.7295,8.2865,1.2443,20.225-12.754,52.381-33.775,124.5-46.827,175.01,9.8506-52.121,25.136-127.13,36.614-180.15z"/>
   <path style="color:#6a696a;enable-background:accumulate;" stroke-width="1" fill="#6a696a" d="m356.7,109.77c1.7068,0.83692,3.821,8.2863,1.2749,20.225-13.06,52.38-34.6,124.49-47.97,175z"/>
   <g stroke-width="1" transform="matrix(0.8660254,0.5,-0.5,0.8660254,51.364177,-200.33385)">
    <path style="color:#6a696a;enable-background:accumulate;" fill="#6a696a" d="m462.22,84.325c-2.01-16.253-8.16-23.203-10.54-22.551-2.5987,0.71225-6.9477,10.232-5.3945,26.931,9.5381,73.729,21.348,144.82,31.653,216.11-5.3111-72.655-8.173-146.22-15.719-220.49z"/>
    <path style="color:#6a696a;enable-background:accumulate;" fill="#ffffff" d="m451.68,61.774c-2.5987,0.71225-6.9477,10.232-5.3945,26.931,9.5381,73.729,21.348,144.82,31.653,216.11z"/>
    <path style="color:#6a696a;enable-background:accumulate;" fill="#6a696a" d="m449.71,109.34c-2.6713-14.041-7.9432-19.558-9.7623-18.766-1.9854,0.86351-4.7479,9.5983-2.4099,24.073,12.42,63.659,26.441,124.8,39.297,186.25-9.04-63.11-16.23-127.23-27.13-191.56z"/>
    <path style="color:#6a696a;enable-background:accumulate;" fill="#ffffff" d="m439.95,90.577c-1.9854,0.86351-4.7479,9.5983-2.4099,24.073,12.42,63.659,26.441,124.8,39.297,186.25z"/>
    <path style="color:#6a696a;enable-background:accumulate;" fill="#6a696a" d="m440.11,126.14c-2.755-11.557-7.4424-15.851-8.9688-15.084-1.6659,0.83695-3.7295,8.2865-1.2443,20.225,12.754,52.381,33.775,124.5,46.827,175.01-9.8506-52.121-25.136-127.13-36.614-180.15z"/>
    <path style="color:#6a696a;enable-background:accumulate;" fill="#ffffff" d="m431.2,111.06c-1.7068,0.83692-3.821,8.2863-1.2749,20.225,13.068,52.38,34.605,124.49,47.977,175z"/>
   </g>
  </g>
  <g transform="matrix(0,-1,1,0,3.211649,609.14671)">
   <path style="color:#6a696a;enable-background:accumulate;" stroke-width="1" fill="none" d="M294,40c0.5-19.812,11-29.995,15.78-29.997,5.22-0.003,15.72,9.809,16.22,29.997-3,90-10.99,177.63-16,265-5.02-87.36-15-175-16-265z"/>
   <path style="color:#6a696a;enable-background:accumulate;" stroke-width="0.99466091" fill="#6a696a" d="M309.78,10.003c5.22-0.003,15.72,9.809,16.22,29.997-3,90-10.988,177.63-16,265z"/>
   <path style="color:#6a696a;enable-background:accumulate;" stroke-width="1" fill="none" d="m325.68,83.04c2.0174-16.253,8.1582-23.203,10.539-22.55,2.5987,0.71225,6.9477,10.232,5.3945,26.931-9.5381,73.729-21.348,144.82-31.653,216.11,5.3111-72.655,8.173-146.22,15.719-220.49z"/>
   <path style="color:#6a696a;enable-background:accumulate;" stroke-width="1" fill="#6a696a" d="m336.22,60.489c2.5987,0.71225,6.9477,10.232,5.3945,26.931-9.5381,73.729-21.348,144.82-31.653,216.11z"/>
   <path style="color:#6a696a;enable-background:accumulate;" stroke-width="1" fill="none" d="m338.19,108.06c2.6713-14.041,7.9432-19.558,9.7623-18.766,1.9854,0.86351,4.7479,9.5983,2.4099,24.073-12.42,63.659-26.441,124.8-39.297,186.25,9.0408-63.109,16.226-127.24,27.125-191.56z"/>
   <path style="color:#6a696a;enable-background:accumulate;" stroke-width="1" fill="#6a696a" d="m347.95,89.292c1.9854,0.86351,4.7479,9.5983,2.4099,24.073-12.42,63.659-26.441,124.8-39.297,186.25z"/>
   <path style="color:#6a696a;enable-background:accumulate;" stroke-width="1" fill="none" d="m347.79,124.85c2.755-11.557,7.4424-15.851,8.9688-15.084,1.6659,0.83695,3.7295,8.2865,1.2443,20.225-12.754,52.381-33.775,124.5-46.827,175.01,9.8506-52.121,25.136-127.13,36.614-180.15z"/>
   <path style="color:#6a696a;enable-background:accumulate;" stroke-width="1" fill="#6a696a" d="m356.7,109.77c1.7068,0.83692,3.821,8.2863,1.2749,20.225-13.06,52.38-34.6,124.49-47.97,175z"/>
   <g stroke-width="1" transform="matrix(0.8660254,0.5,-0.5,0.8660254,51.364177,-200.33385)">
    <path style="color:#6a696a;enable-background:accumulate;" fill="#6a696a" d="m462.22,84.325c-2.01-16.253-8.16-23.203-10.54-22.551-2.5987,0.71225-6.9477,10.232-5.3945,26.931,9.5381,73.729,21.348,144.82,31.653,216.11-5.3111-72.655-8.173-146.22-15.719-220.49z"/>
    <path style="color:#6a696a;enable-background:accumulate;" fill="#ffffff" d="m451.68,61.774c-2.5987,0.71225-6.9477,10.232-5.3945,26.931,9.5381,73.729,21.348,144.82,31.653,216.11z"/>
    <path style="color:#6a696a;enable-background:accumulate;" fill="#6a696a" d="m449.71,109.34c-2.6713-14.041-7.9432-19.558-9.7623-18.766-1.9854,0.86351-4.7479,9.5983-2.4099,24.073,12.42,63.659,26.441,124.8,39.297,186.25-9.04-63.11-16.23-127.23-27.13-191.56z"/>
    <path style="color:#6a696a;enable-background:accumulate;" fill="#ffffff" d="m439.95,90.577c-1.9854,0.86351-4.7479,9.5983-2.4099,24.073,12.42,63.659,26.441,124.8,39.297,186.25z"/>
    <path style="color:#6a696a;enable-background:accumulate;" fill="#6a696a" d="m440.11,126.14c-2.755-11.557-7.4424-15.851-8.9688-15.084-1.6659,0.83695-3.7295,8.2865-1.2443,20.225,12.754,52.381,33.775,124.5,46.827,175.01-9.8506-52.121-25.136-127.13-36.614-180.15z"/>
    <path style="color:#6a696a;enable-background:accumulate;" fill="#ffffff" d="m431.2,111.06c-1.7068,0.83692-3.821,8.2863-1.2749,20.225,13.068,52.38,34.605,124.49,47.977,175z"/>
   </g>
  </g>
 </g>
 <path style="color:#6a696a;enable-background:accumulate;" fill="#ffffff" d="m205,192.5,210,0,0,173.37c-19.167,128.84-195.88,128.84-210,0z"/>
 <path style="color:#6a696a;enable-background:accumulate;" fill="#1d2a4a" d="m210,197.5,200,0,0,166.95c-18.254,124.07-186.55,124.07-200,0z"/>
 <path style="color:#6a696a;enable-background:accumulate;" fill="#ffffff" d="m247.97,263.75-8.5,8.5,81.781,81.75,0,51.438,58.969,0,0-58.969-49.562,0-82.688-82.719zm87.938,97.531,29.469,0,0,29.469-29.469,0,0-29.469z"/>
 <path style="color:#6a696a;enable-background:accumulate;" fill="#ffffff" d="M296.03,263.25,275.66,283.62,296.03,304,316.4,283.62,296.03,263.25zm0,10.193,10.182,10.182-10.182,10.182-10.182-10.182,10.182-10.182z"/>
 <path style="color:#6a696a;enable-background:accumulate;" fill="#ffffff" d="m319.12,239.93-20.375,20.375,20.375,20.375,20.375-20.375-20.375-20.375zm0,10.193,10.182,10.182-10.182,10.182-10.182-10.182,10.182-10.182z"/>
 <path style="color:#6a696a;enable-background:accumulate;" fill="#ffffff" d="M295.8,216.38,275.42,236.76,295.8,257.13,316.18,236.76,295.8,216.38zm0,10.193,10.182,10.182-10.182,10.182-10.182-10.182,10.182-10.182z"/>
 <path style="color:#6a696a;enable-background:accumulate;" fill="#ffffff" d="m272.71,239.93-20.375,20.375,20.375,20.375,20.375-20.375-20.375-20.375zm0,10.193,10.182,10.182-10.182,10.182-10.182-10.182,10.182-10.182z"/>
</svg>
