<?xml version="1.0" encoding="UTF-8"?>
<svg xmlns="http://www.w3.org/2000/svg"
   width="620"
   height="620"
  >
	 <g
     transform="matrix(1.25,0,0,-1.25,0,619.99995)"
     id="g10"><g
       transform="translate(4.6152918,6.2027244)"
       id="g3336"><g
         transform="matrix(5.9006324,0,0,5.9006324,481.75079,243.86895)"
         id="g138"><path
           d="m 0,0 c -0.276,0.207 -2.746,2.019 -4.197,2.02 l -9.762,-0.368 3.748,0.352 c 0.987,0.13 2.488,1.567 2.656,1.729 L -7.21,4.07 -7.63,4.305 c -0.182,0.101 -1.81,0.996 -2.817,0.996 -0.068,0 -0.134,-0.005 -0.209,-0.014 l -8.831,-1.5 4.367,0.899 c 0.963,0.264 2.24,1.939 2.383,2.129 l 0.272,0.363 -0.419,0.174 c -0.067,0.027 -1.636,0.672 -2.667,0.672 -0.176,0 -0.331,-0.019 -0.483,-0.061 l -5.128,-1.691 9.339,3.461 c 0.921,0.381 1.999,2.156 2.119,2.356 l 0.247,0.414 -0.466,0.118 c -0.051,0.013 -1.255,0.317 -2.237,0.317 -0.39,0 -0.694,-0.046 -0.94,-0.148 l -3.45,-1.582 8.679,4.585 c 1.244,0.72 2.478,3.523 2.613,3.841 l 0.191,0.442 -0.478,0.056 c -0.038,0.004 -0.937,0.109 -1.972,0.109 -1.244,0 -2.139,-0.152 -2.672,-0.459 l -8.353,-5.246 3.157,2.241 c 0.791,0.606 1.371,2.602 1.436,2.827 l 0.13,0.464 -0.482,-0.007 c -0.234,-0.003 -2.31,-0.049 -3.112,-0.663 l -6.918,-5.735 3.342,2.973 c 0.701,0.711 0.969,2.8 0.996,3.036 l 0.056,0.45 -0.451,-0.059 c -0.235,-0.031 -2.318,-0.324 -3.033,-1.046 L -27,15.004 l 6.354,7.658 c 0.608,0.789 0.655,2.866 0.658,3.099 l 0.007,0.482 -0.463,-0.13 c -0.225,-0.064 -2.221,-0.642 -2.835,-1.443 l -2.254,-3.17 5.267,8.379 c 0.717,1.244 0.383,4.29 0.342,4.633 l -0.056,0.478 -0.442,-0.191 c -0.317,-0.136 -3.121,-1.369 -3.846,-2.626 l -4.613,-8.726 1.627,3.546 c 0.382,0.918 -0.111,2.937 -0.168,3.164 l -0.118,0.467 -0.414,-0.245 c -0.201,-0.12 -1.978,-1.198 -2.365,-2.129 l -3.163,-8.518 1.435,4.325 c 0.252,0.966 -0.559,2.909 -0.653,3.128 l -0.178,0.417 -0.36,-0.276 c -0.188,-0.145 -1.846,-1.441 -2.103,-2.421 l -1.103,-5.3 1.676,9.839 c 0.13,0.987 -0.868,2.808 -0.982,3.013 l -0.234,0.419 -0.336,-0.343 c -0.163,-0.168 -1.602,-1.667 -1.735,-2.668 l -0.365,-3.881 0.37,9.901 c 10e-4,1.436 -1.81,3.907 -2.016,4.184 l -0.288,0.386 -0.288,-0.386 c -0.206,-0.277 -2.019,-2.747 -2.021,-4.197 l 0.367,-9.798 -0.357,3.812 c -0.13,0.989 -1.567,2.488 -1.731,2.655 l -0.336,0.346 -0.234,-0.42 c -0.115,-0.204 -1.114,-2.025 -0.982,-3.025 l 1.639,-9.665 -1.071,5.153 c -0.253,0.964 -1.91,2.26 -2.099,2.405 l -0.359,0.276 -0.179,-0.417 c -0.094,-0.219 -0.905,-2.162 -0.646,-3.149 l 1.461,-4.406 -3.195,8.623 c -0.381,0.92 -2.157,1.998 -2.358,2.118 l -0.413,0.246 -0.119,-0.466 c -0.057,-0.227 -0.552,-2.245 -0.166,-3.177 l 1.603,-3.5 -4.618,8.728 c -0.719,1.244 -3.522,2.477 -3.84,2.613 l -0.442,0.191 -0.057,-0.479 c -0.039,-0.343 -0.374,-3.389 0.352,-4.644 l 5.324,-8.467 -2.316,3.266 c -0.607,0.791 -2.6,1.371 -2.826,1.435 l -0.463,0.13 0.006,-0.481 c 0.003,-0.235 0.048,-2.311 0.664,-3.112 l 6.269,-7.57 -3.525,3.951 c -0.701,0.707 -2.785,0.999 -3.021,1.031 l -0.449,0.059 0.054,-0.45 c 0.029,-0.237 0.297,-2.326 1.015,-3.05 l 3.486,-3.099 -7.105,5.885 c -0.789,0.605 -2.867,0.651 -3.101,0.653 l -0.481,0.007 0.131,-0.463 c 0.063,-0.226 0.645,-2.222 1.447,-2.834 l 3.071,-2.179 -8.303,5.207 c -0.519,0.3 -1.412,0.452 -2.651,0.452 -1.038,0 -1.942,-0.106 -1.981,-0.111 l -0.477,-0.056 0.191,-0.442 c 0.136,-0.317 1.37,-3.12 2.626,-3.845 l 8.862,-4.675 -3.649,1.673 c -0.234,0.098 -0.537,0.144 -0.928,0.144 -0.981,0 -2.185,-0.303 -2.236,-0.316 l -0.466,-0.118 0.246,-0.414 c 0.121,-0.201 1.197,-1.976 2.13,-2.361 l 9.25,-3.43 -5.07,1.67 c -0.135,0.037 -0.287,0.055 -0.464,0.055 -1.032,0 -2.601,-0.646 -2.668,-0.673 L -68.27,7.19 -67.998,6.827 c 0.144,-0.19 1.422,-1.864 2.406,-2.133 l 4.64,-0.954 -9.149,1.552 c -0.062,0.007 -0.128,0.012 -0.195,0.012 -1.007,0 -2.635,-0.895 -2.817,-0.997 l -0.42,-0.235 0.346,-0.336 c 0.168,-0.163 1.668,-1.599 2.669,-1.731 l 3.759,-0.351 -9.788,0.365 c -1.437,0 -3.907,-1.813 -4.184,-2.021 l -0.385,-0.286 0.385,-0.289 c 0.277,-0.206 2.748,-2.017 4.185,-2.015 l 0.014,0 10.075,0.377 -4.057,-0.381 c -0.988,-0.13 -2.489,-1.567 -2.657,-1.73 l -0.345,-0.336 0.42,-0.235 c 0.182,-0.102 1.809,-0.997 2.816,-0.997 0.069,0 0.134,0.005 0.21,0.015 l 8.816,1.498 -4.344,-0.897 c -0.963,-0.263 -2.24,-1.94 -2.383,-2.13 l -0.272,-0.363 0.419,-0.173 c 0.067,-0.028 1.636,-0.672 2.667,-0.672 0.175,0 0.33,0.018 0.482,0.06 l 5.117,1.688 -9.325,-3.459 c -0.921,-0.38 -1.999,-2.155 -2.119,-2.356 l -0.247,-0.413 0.467,-0.119 c 0.05,-0.013 1.254,-0.316 2.236,-0.316 0.39,0 0.694,0.047 0.941,0.148 l 3.477,1.595 -8.709,-4.603 c -1.243,-0.721 -2.476,-3.524 -2.611,-3.842 l -0.191,-0.442 0.478,-0.055 c 0.038,-0.005 0.934,-0.109 1.966,-0.109 1.248,0 2.144,0.152 2.677,0.461 l 8.324,5.229 -3.116,-2.212 c -0.791,-0.606 -1.372,-2.602 -1.435,-2.827 l -0.13,-0.464 0.48,0.007 c 0.234,0.004 2.312,0.049 3.112,0.664 l 7.125,5.909 -3.549,-3.158 c -0.703,-0.709 -0.971,-2.797 -0.999,-3.033 l -0.054,-0.451 0.45,0.059 c 0.235,0.031 2.317,0.323 3.032,1.045 l 3.539,3.966 -6.293,-7.596 c -0.607,-0.79 -0.652,-2.866 -0.656,-3.101 l -0.006,-0.481 0.463,0.131 c 0.225,0.063 2.22,0.643 2.834,1.444 l 2.14,3.017 -5.183,-8.243 c -0.716,-1.243 -0.383,-4.288 -0.342,-4.632 l 0.056,-0.478 0.442,0.19 c 0.317,0.137 3.121,1.37 3.847,2.626 l 4.619,8.734 -1.612,-3.52 c -0.382,-0.92 0.114,-2.939 0.17,-3.166 l 0.12,-0.466 0.413,0.247 c 0.201,0.119 1.977,1.198 2.362,2.13 l 3.237,8.735 -1.513,-4.568 c -0.254,-0.966 0.56,-2.909 0.654,-3.128 l 0.178,-0.417 0.361,0.277 c 0.187,0.144 1.845,1.44 2.102,2.422 l 1.072,5.176 -1.65,-9.699 c -0.129,-0.987 0.869,-2.807 0.983,-3.012 l 0.234,-0.42 0.336,0.344 c 0.164,0.168 1.602,1.666 1.734,2.667 l 0.349,3.703 -0.365,-9.742 c 0.002,-1.436 1.815,-3.906 2.021,-4.183 l 0.288,-0.386 0.288,0.386 c 0.207,0.277 2.016,2.748 2.016,4.197 l -0.373,9.954 0.37,-3.929 c 0.131,-0.988 1.569,-2.486 1.733,-2.653 l 0.335,-0.345 0.235,0.419 c 0.113,0.205 1.113,2.027 0.981,3.028 l -1.621,9.508 1.044,-5.02 c 0.254,-0.963 1.912,-2.258 2.1,-2.404 l 0.36,-0.276 0.178,0.419 c 0.093,0.218 0.905,2.16 0.646,3.148 l -1.5,4.522 3.232,-8.725 c 0.381,-0.919 2.155,-1.999 2.357,-2.118 l 0.413,-0.248 0.119,0.467 c 0.057,0.227 0.553,2.246 0.166,3.177 l -1.576,3.439 4.589,-8.676 c 0.719,-1.245 3.522,-2.479 3.84,-2.614 l 0.442,-0.191 0.056,0.478 c 0.04,0.343 0.375,3.389 -0.349,4.645 l -5.139,8.174 2.114,-2.981 c 0.608,-0.79 2.602,-1.371 2.827,-1.435 l 0.462,-0.131 -0.005,0.482 c -0.003,0.234 -0.048,2.31 -0.663,3.111 l -6.217,7.507 3.47,-3.892 c 0.7,-0.708 2.784,-1.002 3.019,-1.034 l 0.45,-0.06 -0.054,0.451 c -0.029,0.236 -0.296,2.326 -1.014,3.051 l -3.473,3.092 7.076,-5.868 c 0.79,-0.607 2.866,-0.653 3.101,-0.657 l 0.481,-0.006 -0.13,0.462 c -0.064,0.226 -0.644,2.221 -1.444,2.835 l -3.152,2.239 8.378,-5.263 c 0.522,-0.301 1.418,-0.455 2.664,-0.455 1.033,0 1.929,0.105 1.967,0.109 l 0.477,0.057 -0.189,0.442 c -0.136,0.317 -1.368,3.119 -2.624,3.847 l -8.548,4.518 3.339,-1.535 c 0.235,-0.098 0.541,-0.144 0.934,-0.144 0.98,0 2.179,0.301 2.23,0.314 l 0.466,0.118 -0.246,0.413 c -0.119,0.201 -1.195,1.977 -2.128,2.364 l -9.224,3.429 5.031,-1.662 c 0.136,-0.038 0.289,-0.056 0.467,-0.056 1.031,0 2.599,0.643 2.665,0.671 l 0.42,0.173 -0.272,0.364 c -0.143,0.19 -1.42,1.867 -2.404,2.136 l -4.503,0.931 9.025,-1.539 c 0.062,-0.008 0.128,-0.013 0.197,-0.013 1.007,0 2.634,0.894 2.817,0.995 l 0.419,0.235 -0.345,0.336 c -0.167,0.164 -1.668,1.602 -2.668,1.733 l -3.917,0.37 9.94,-0.369 0.013,0 c 1.438,0 3.907,1.81 4.183,2.017 L 0.386,-0.287 0,0 z"
           id="path140"
           style="fill:#ffffff;fill-opacity:1;fill-rule:nonzero;stroke:none" /></g><g
         transform="matrix(5.9006324,0,0,5.9006324,456.88434,230.36181)"
         id="g142"><path
           d="m 0,0 -19.711,0.732 0,2.42 19.71,0.742 C 1.358,3.894 3.968,1.946 3.968,1.946 3.968,1.946 1.36,0 0,0 m -3.618,-2.35 c 0,0 -1.699,-0.95 -2.641,-0.95 -0.053,0 -0.103,0.004 -0.151,0.01 l -13.301,2.268 0,1.034 9.731,-0.361 3.911,-0.369 c 0.896,-0.117 2.451,-1.632 2.451,-1.632 m -5.239,-3.036 c 0,0 -1.558,-0.644 -2.532,-0.644 -0.138,0 -0.264,0.013 -0.372,0.043 l -4.802,1.586 -3.207,1.194 c 0.001,0.005 0.001,0.009 0.001,0.013 0.017,0.187 0.033,0.374 0.042,0.561 0.011,0.205 0.019,0.616 0.019,0.616 l -0.001,0.266 4.368,-0.745 4.291,-0.887 c 0.873,-0.24 2.193,-2.003 2.193,-2.003 m 1.071,-3.043 c 0.836,-0.347 1.945,-2.21 1.945,-2.21 0,0 -1.197,-0.305 -2.145,-0.305 -0.307,0 -0.589,0.032 -0.794,0.118 l -3.307,1.519 -7.989,4.223 c 0,10e-4 0,0.003 0,0.004 0.039,0.164 0.072,0.329 0.104,0.493 0.008,0.036 0.015,0.072 0.022,0.106 0.034,0.18 0.064,0.361 0.09,0.54 l 12.074,-4.488 z m 3.911,-6.03 c 1.175,-0.681 2.46,-3.671 2.46,-3.671 0,0 -0.9,-0.106 -1.925,-0.106 -0.915,0 -1.928,0.084 -2.483,0.405 l -15.349,9.642 0,0.002 c 0.369,0.779 0.675,1.578 0.909,2.389 l 16.388,-8.661 z m -6.257,-3.59 c 0,0 -2.169,0.031 -2.887,0.583 l -9.098,7.545 0.002,0.005 c 0.083,0.131 0.16,0.266 0.239,0.4 0.03,0.051 0.061,0.101 0.09,0.153 0.1,0.174 0.196,0.352 0.291,0.529 l 6.917,-4.346 3.139,-2.23 c 0.718,-0.55 1.307,-2.639 1.307,-2.639 m -8.86,0.914 -3.319,3.722 -1.249,1.509 c 0.371,0.444 0.723,0.903 1.046,1.377 0,0 10e-4,10e-4 0.002,10e-4 l 2.117,-1.756 3.32,-2.955 c 0.637,-0.645 0.899,-2.83 0.899,-2.83 0,0 -2.179,0.289 -2.816,0.932 m 2.22,-4.092 c 0.551,-0.719 0.58,-2.887 0.58,-2.887 0,0 -2.086,0.589 -2.638,1.308 l -2.101,2.961 -4.045,6.435 c 0.315,0.298 0.619,0.608 0.91,0.927 0.009,0.01 0.019,0.02 0.028,0.03 l 7.266,-8.774 z m 0.377,-7.182 c 0.678,-1.177 0.296,-4.412 0.296,-4.412 0,0 -2.99,1.288 -3.669,2.465 l -7.862,14.866 c 10e-4,0 10e-4,0 0.002,10e-4 0.007,0.004 0.014,0.009 0.021,0.014 0.195,0.125 0.388,0.255 0.577,0.388 0.104,0.072 0.205,0.147 0.307,0.221 0.083,0.062 0.167,0.122 0.249,0.185 0.132,0.1 0.263,0.203 0.393,0.307 0.04,0.033 0.08,0.065 0.121,0.098 0.148,0.123 0.295,0.245 0.44,0.372 0.002,10e-4 0.003,0.002 0.004,0.004 l 9.121,-14.509 z m -7.212,0.022 c 0,0 -1.863,1.111 -2.209,1.947 l -3.676,9.924 c 0.003,10e-4 0.005,0.003 0.008,0.004 0.208,0.098 0.414,0.2 0.617,0.307 0.014,0.008 0.027,0.015 0.041,0.022 0.195,0.103 0.388,0.208 0.578,0.319 0.002,0 0.002,0 0.003,0.001 l 3.259,-6.165 1.567,-3.42 c 0.347,-0.835 -0.188,-2.939 -0.188,-2.939 m -5.242,3.003 c 0,0 -1.744,1.338 -1.974,2.213 l -1.001,4.816 -0.153,0.899 0.001,0 c 0.306,0.088 0.608,0.186 0.907,0.291 0.018,0.006 0.034,0.013 0.051,0.019 0.294,0.104 0.584,0.217 0.869,0.337 l 0.502,-1.356 1.433,-4.319 c 0.23,-0.878 -0.635,-2.9 -0.635,-2.9 m -3.032,-5.217 c 0,0 -1.514,1.552 -1.634,2.451 l -0.366,3.897 -0.237,6.349 c 0.241,0.034 0.48,0.073 0.718,0.116 0.01,0.002 0.019,0.005 0.029,0.006 0.233,0.044 0.465,0.092 0.694,0.145 0.002,0 0.002,0.001 0.002,0.001 l 1.733,-10.174 c 0.119,-0.897 -0.939,-2.791 -0.939,-2.791 m -4.29,-7.61 c 0,0 -1.949,2.611 -1.95,3.969 l 0.607,16.256 c 0.212,-0.019 0.424,-0.036 0.638,-0.046 0.229,-0.012 0.46,-0.02 0.693,-0.021 0.236,0.001 0.47,0.009 0.703,0.021 0.216,0.01 0.431,0.027 0.646,0.047 l 0.607,-16.256 c 0,-1.359 -1.944,-3.97 -1.944,-3.97 m -2.304,13.748 -0.347,-3.7 c -0.119,-0.898 -1.633,-2.45 -1.633,-2.45 0,0 -1.058,1.892 -0.94,2.79 l 1.733,10.185 c 0.228,-0.054 0.46,-0.102 0.693,-0.145 0.008,-0.002 0.016,-0.003 0.025,-0.006 0.236,-0.044 0.475,-0.082 0.714,-0.115 l 0,0 -0.245,-6.559 z m -5.017,-0.934 c 0,0 -0.865,2.022 -0.636,2.899 l 1.436,4.338 0.501,1.353 0,-0.001 c 0.285,-0.12 0.572,-0.232 0.863,-0.336 0.021,-0.008 0.042,-0.015 0.063,-0.023 0.298,-0.104 0.599,-0.203 0.905,-0.291 l -0.128,-0.753 -1.031,-4.972 c -0.229,-0.874 -1.973,-2.214 -1.973,-2.214 m -3.038,-1.052 c -0.346,-0.837 -2.208,-1.949 -2.208,-1.949 0,0 -0.535,2.104 -0.188,2.94 l 1.601,3.497 3.23,6.103 c 0,-10e-4 0,-10e-4 10e-4,-10e-4 0.188,-0.109 0.378,-0.212 0.569,-0.315 0.018,-0.009 0.036,-0.019 0.054,-0.028 0.205,-0.109 0.413,-0.212 0.623,-0.311 l -3.682,-9.936 z m -6.053,-3.917 c -0.68,-1.177 -3.67,-2.464 -3.67,-2.464 0,0 -0.381,3.235 0.297,4.411 l 9.133,14.526 c 0.148,-0.129 0.299,-0.256 0.451,-0.38 0.037,-0.03 0.074,-0.061 0.111,-0.09 0.131,-0.106 0.263,-0.211 0.397,-0.313 0.084,-0.062 0.168,-0.125 0.253,-0.187 0.1,-0.073 0.199,-0.147 0.3,-0.217 0.197,-0.139 0.397,-0.274 0.6,-0.405 l -7.872,-14.881 z m -3.573,6.253 c 0,0 0.029,2.169 0.581,2.887 l 7.274,8.781 c 0.002,-0.002 0.004,-0.004 0.007,-0.007 0.293,-0.322 0.599,-0.633 0.916,-0.935 0.005,-0.005 0.01,-0.01 0.016,-0.016 l -4.025,-6.4 -2.131,-3.003 c -0.551,-0.719 -2.638,-1.307 -2.638,-1.307 m -0.029,6.04 c 0,0 0.263,2.185 0.9,2.829 l 3.354,2.982 2.103,1.745 c 0,0 0.001,-0.002 0.001,-0.002 0.325,-0.474 0.676,-0.932 1.048,-1.376 l -1.202,-1.452 -3.388,-3.796 c -0.636,-0.643 -2.816,-0.93 -2.816,-0.93 m -3.154,0.602 c -0.719,-0.552 -2.888,-0.582 -2.888,-0.582 0,0 0.589,2.089 1.308,2.64 l 3.095,2.197 6.98,4.387 c 0,-0.002 0,-0.003 10e-4,-0.003 0.093,-0.176 0.189,-0.351 0.288,-0.523 0.029,-0.052 0.06,-0.102 0.09,-0.153 0.08,-0.135 0.158,-0.271 0.241,-0.404 l -9.115,-7.559 z m -7.198,-0.371 c -0.556,-0.32 -1.57,-0.406 -2.485,-0.406 -1.024,0 -1.924,0.107 -1.924,0.107 0,0 1.285,2.991 2.461,3.672 l 16.404,8.672 c 0.235,-0.812 0.543,-1.61 0.913,-2.388 l -15.369,-9.657 z m 0.016,7.208 c 0,0 1.11,1.863 1.947,2.209 l 12.086,4.483 c 0.027,-0.18 0.058,-0.359 0.092,-0.537 0.006,-0.034 0.013,-0.068 0.02,-0.102 0.034,-0.168 0.068,-0.335 0.108,-0.503 l -7.855,-4.153 -3.46,-1.586 c -0.204,-0.084 -0.485,-0.116 -0.791,-0.116 -0.948,0 -2.147,0.305 -2.147,0.305 m 3.005,5.248 c 0,0 1.319,1.762 2.193,2.002 l 4.102,0.846 4.578,0.777 10e-4,-0.247 c 0,-0.206 0.007,-0.412 0.019,-0.619 0.01,-0.192 0.026,-0.385 0.044,-0.577 10e-4,-10e-4 10e-4,-0.003 10e-4,-0.005 l -3.106,-1.153 -4.928,-1.627 c -0.109,-0.03 -0.234,-0.043 -0.373,-0.043 -0.973,0 -2.531,0.646 -2.531,0.646 m -2.432,2.094 c -0.047,-0.006 -0.097,-0.009 -0.15,-0.009 -0.941,0 -2.64,0.951 -2.64,0.951 0,0 1.555,1.513 2.452,1.631 l 4.027,0.377 9.611,0.36 0,-1.051 -13.3,-2.259 z M -72.364,0 c -1.361,0 -3.969,1.945 -3.969,1.945 0,0 2.61,1.948 3.969,1.949 l 19.716,-0.737 0,-2.42 L -72.364,0 z m 3.609,6.227 c 0,0 1.699,0.951 2.642,0.951 0.051,0 0.101,-0.003 0.148,-0.009 l 13.317,-2.259 0,-1.034 -9.914,0.37 -3.741,0.35 c -0.897,0.117 -2.452,1.631 -2.452,1.631 m 5.221,3.045 c 0,0 1.56,0.646 2.533,0.646 0.137,0 0.264,-0.014 0.371,-0.043 l 4.845,-1.596 3.137,-1.164 0,-1.477 -4.271,0.725 -4.419,0.909 c -0.875,0.239 -2.196,2 -2.196,2 m -1.057,3.039 c -0.837,0.346 -1.947,2.209 -1.947,2.209 0,0 1.2,0.305 2.147,0.305 0.306,0 0.587,-0.032 0.792,-0.116 l 3.615,-1.658 7.336,-3.87 0,-1.3 -11.943,4.43 z m -3.917,6.048 c -1.176,0.68 -2.464,3.67 -2.464,3.67 0,0 0.908,0.108 1.938,0.108 0.911,0 1.918,-0.085 2.471,-0.404 l 13.915,-8.726 0,-3.014 -15.86,8.366 z m 6.255,3.588 c 0,0 2.169,-0.029 2.888,-0.58 l 6.717,-5.564 0,-1.948 -5.246,3.29 -3.051,2.164 c -0.718,0.55 -1.308,2.638 -1.308,2.638 m 8.875,-0.918 3.373,-3.78 0.382,-0.462 -3.025,0 0,-0.01 -2.646,2.353 c -0.638,0.644 -0.899,2.829 -0.899,2.829 0,0 2.179,-0.288 2.815,-0.93 m -2.217,4.097 c -0.553,0.718 -0.582,2.887 -0.582,2.887 0,0 2.087,-0.589 2.639,-1.307 l 2.302,-3.245 4.197,-6.674 -1.651,0 -6.905,8.339 z m -0.362,7.19 c -0.679,1.177 -0.298,4.411 -0.298,4.411 0,0 2.99,-1.286 3.671,-2.463 l 9.247,-17.477 -2.853,0 -9.767,15.529 z m 7.213,-0.011 c 0,0 1.862,-1.111 2.209,-1.948 l 5.028,-13.57 -1.018,0 -4.806,9.085 -1.601,3.493 c -0.347,0.836 0.188,2.94 0.188,2.94 m 5.245,-3.017 c 0,0 1.743,-1.339 1.973,-2.214 l 1.023,-4.923 0.911,-5.364 -1.149,0 -1.998,5.394 -1.396,4.207 c -0.229,0.877 0.636,2.9 0.636,2.9 m 3.04,5.236 c 0,0 1.513,-1.553 1.631,-2.451 l 0.356,-3.797 0.429,-11.489 -0.821,0 -2.536,14.947 c -0.119,0.898 0.941,2.79 0.941,2.79 m 4.288,7.563 c 0,0 1.944,-2.61 1.944,-3.969 l -0.798,-21.331 -2.299,0 -0.797,21.331 c 0.001,1.359 1.95,3.969 1.95,3.969 m 2.656,-10.023 c 0.12,0.899 1.634,2.451 1.634,2.451 0,0 1.058,-1.893 0.939,-2.791 l -2.544,-14.937 -0.82,0 0.426,11.4 0.365,3.877 z m 4.674,-2.785 c 0,0 0.865,-2.023 0.636,-2.9 l -1.363,-4.106 -2.038,-5.486 -1.151,0 0.882,5.18 1.061,5.099 c 0.23,0.874 1.973,2.213 1.973,2.213 m 3.042,1.078 c 0.347,0.837 2.21,1.945 2.21,1.945 0,0 0.534,-2.103 0.186,-2.939 l -1.617,-3.521 -4.787,-9.055 -1.033,0 5.041,13.57 z m 6.031,3.881 c 0.679,1.178 3.669,2.465 3.669,2.465 0,0 0.382,-3.235 -0.296,-4.412 l -9.745,-15.504 -2.856,0 9.228,17.451 z M -16.165,28 c 0,0 -0.031,-2.169 -0.584,-2.887 l -6.908,-8.326 -1.635,0 4.246,6.755 2.241,3.153 c 0.552,0.719 2.64,1.305 2.64,1.305 m -4.261,-30.019 c 0.002,-3.701 -1.754,-7.541 -4.611,-10.447 -2.857,-2.905 -6.798,-4.869 -11.146,-4.869 -4.319,0 -8.256,1.967 -11.116,4.877 -2.861,2.908 -4.627,6.753 -4.624,10.452 l -0.007,0.794 0,17.281 31.501,0 0,-17.285 0.003,-0.803 z m 4.266,23.965 c 0,0 -0.261,-2.184 -0.899,-2.829 l -2.652,-2.359 0,0.029 -3.012,0 0.308,0.373 3.44,3.855 c 0.636,0.643 2.815,0.931 2.815,0.931 m 3.159,-0.592 c 0.719,0.55 2.888,0.581 2.888,0.581 0,0 -0.589,-2.089 -1.308,-2.639 l -3.14,-2.229 -5.15,-3.234 0,1.96 6.71,5.561 z m 7.186,0.357 c 0.555,0.319 1.566,0.404 2.481,0.404 1.025,0 1.929,-0.107 1.929,-0.107 0,0 -1.287,-2.99 -2.463,-3.671 l -15.843,-8.369 0,1.1 0,1.917 13.896,8.726 z m -0.014,-7.205 c 0,0 -1.111,-1.862 -1.948,-2.208 l -11.934,-4.422 0,1.281 7.506,3.964 3.437,1.575 c 0.204,0.084 0.484,0.116 0.79,0.116 0.948,0 2.149,-0.306 2.149,-0.306 M -8.837,9.259 c 0,0 -1.319,-1.76 -2.194,-2 l -4.125,-0.85 -4.555,-0.773 0,1.474 3.038,1.126 4.932,1.626 c 0.108,0.029 0.234,0.042 0.373,0.042 0.972,0 2.531,-0.645 2.531,-0.645 m 2.423,-2.093 c 0.047,0.006 0.097,0.009 0.15,0.009 0.941,0 2.64,-0.951 2.64,-0.951 0,0 -1.554,-1.513 -2.451,-1.631 L -9.8,4.244 l -9.911,-0.373 0,1.036 13.297,2.259 z M 4.397,2.522 C 3.93,2.871 1.519,4.612 -0.001,4.613 l -0.012,0 -0.015,-0.001 -4.669,-0.176 c 0.733,0.473 1.393,1.097 1.575,1.274 l 0.688,0.671 -0.839,0.47 c -0.311,0.174 -1.916,1.042 -2.991,1.042 l -0.002,0 c -0.084,0 -0.165,-0.005 -0.241,-0.015 L -6.52,7.877 -6.534,7.874 -9.616,7.35 c 0.645,0.577 1.191,1.285 1.342,1.486 L -7.73,9.563 -8.568,9.91 c -0.131,0.054 -1.048,0.426 -1.955,0.604 l 2.996,1.111 0.011,0.004 0.013,0.005 c 1.006,0.416 2.085,2.159 2.291,2.504 l 0.493,0.827 -0.933,0.237 c -0.048,0.012 -1.061,0.267 -2.01,0.319 l 4.13,2.181 0.012,0.006 0.011,0.008 c 1.317,0.761 2.534,3.473 2.763,4.009 l 0.382,0.884 -0.956,0.113 c -0.04,0.004 -0.959,0.111 -2.014,0.111 -1.327,0 -2.255,-0.164 -2.839,-0.5 l -0.013,-0.007 -0.011,-0.007 -3.962,-2.488 c 0.404,0.781 0.668,1.662 0.737,1.908 l 0.262,0.927 -0.963,-0.013 c -0.402,-0.006 -2.45,-0.067 -3.314,-0.729 l -0.011,-0.008 -0.011,-0.009 -2.421,-2.006 c 0.27,0.823 0.39,1.71 0.42,1.961 l 0.108,0.901 -0.899,-0.119 c -0.255,-0.033 -1.161,-0.167 -1.989,-0.454 l 2.044,2.465 0.009,0.01 0.008,0.01 c 0.664,0.864 0.726,2.913 0.732,3.314 l 0.013,0.963 -0.925,-0.26 c -0.246,-0.07 -1.131,-0.333 -1.913,-0.737 l 2.485,3.954 0.007,0.011 0.007,0.013 c 0.759,1.316 0.456,4.275 0.388,4.854 l -0.113,0.956 -0.884,-0.38 c -0.536,-0.231 -3.248,-1.449 -4.008,-2.766 l -0.007,-0.012 -0.005,-0.011 -2.175,-4.112 c -0.041,0.877 -0.252,1.77 -0.315,2.017 l -0.237,0.933 -0.826,-0.492 c -0.346,-0.206 -2.09,-1.282 -2.507,-2.288 l -0.005,-0.012 -0.006,-0.013 -1.102,-2.968 c -0.177,0.851 -0.518,1.684 -0.619,1.917 l -0.356,0.834 -0.72,-0.552 c -0.204,-0.157 -0.927,-0.729 -1.502,-1.396 l 0.538,3.161 0.002,0.013 0.002,0.013 c 0.143,1.08 -0.828,2.885 -1.024,3.236 l -0.47,0.84 -0.672,-0.689 c -0.178,-0.183 -0.813,-0.855 -1.288,-1.596 l 0.174,4.671 10e-4,0.013 0,0.014 c 0,1.52 -1.739,3.931 -2.086,4.398 l -0.576,0.773 -0.577,-0.772 c -0.349,-0.468 -2.091,-2.879 -2.092,-4.398 l 0,-0.013 0.001,-0.015 0.174,-4.65 c -0.474,0.737 -1.102,1.402 -1.279,1.584 l -0.672,0.689 -0.47,-0.839 c -0.196,-0.351 -1.168,-2.155 -1.026,-3.235 l 0.002,-0.013 0.002,-0.013 0.536,-3.157 c -0.575,0.664 -1.295,1.234 -1.498,1.39 l -0.72,0.552 -0.356,-0.834 c -0.101,-0.233 -0.442,-1.066 -0.619,-1.916 l -1.097,2.958 -0.004,0.013 -0.006,0.012 c -0.416,1.006 -2.159,2.084 -2.505,2.29 l -0.827,0.493 -0.237,-0.933 c -0.062,-0.249 -0.276,-1.146 -0.316,-2.026 l -2.192,4.144 -0.007,0.012 -0.006,0.012 c -0.761,1.316 -3.473,2.533 -4.009,2.763 l -0.884,0.381 -0.114,-0.957 c -0.068,-0.579 -0.37,-3.538 0.39,-4.854 l 0.007,-0.012 0.007,-0.011 2.496,-3.968 c -0.782,0.405 -1.666,0.668 -1.913,0.738 l -0.926,0.261 0.013,-0.962 c 0.006,-0.402 0.066,-2.451 0.729,-3.315 l 0.009,-0.01 0.008,-0.011 2.043,-2.466 c -0.83,0.288 -1.741,0.422 -1.996,0.456 l -0.899,0.118 0.108,-0.9 c 0.03,-0.253 0.151,-1.148 0.424,-1.974 l -2.439,2.019 -0.011,0.009 -0.01,0.009 c -0.864,0.661 -2.913,0.722 -3.314,0.727 l -0.963,0.013 0.261,-0.926 c 0.07,-0.245 0.331,-1.121 0.733,-1.9 l -3.969,2.49 -0.011,0.007 -0.012,0.007 c -0.583,0.336 -1.509,0.499 -2.83,0.499 -1.06,0 -1.984,-0.108 -2.023,-0.113 l -0.956,-0.113 0.381,-0.884 c 0.231,-0.536 1.449,-3.247 2.765,-4.008 l 0.012,-0.007 0.012,-0.006 4.151,-2.189 c -0.954,-0.05 -1.976,-0.307 -2.023,-0.319 l -0.932,-0.237 0.492,-0.827 c 0.206,-0.345 1.283,-2.089 2.29,-2.504 l 0.012,-0.006 0.013,-0.004 2.994,-1.111 c -0.908,-0.178 -1.826,-0.551 -1.957,-0.605 l -0.838,-0.347 0.544,-0.726 c 0.153,-0.204 0.706,-0.919 1.357,-1.499 l -3.104,0.527 -0.014,0.002 -0.014,0.002 c -0.077,0.01 -0.158,0.015 -0.241,0.015 -1.076,0 -2.682,-0.868 -2.993,-1.043 l -0.84,-0.47 0.69,-0.671 c 0.182,-0.177 0.844,-0.802 1.578,-1.275 l -4.66,0.175 -0.013,0 -0.015,0 C -73.885,4.611 -76.295,2.869 -76.763,2.52 l -0.771,-0.576 0.771,-0.575 c 0.468,-0.349 2.878,-2.088 4.399,-2.088 l 0.013,0 0.013,0.001 4.705,0.176 c -0.746,-0.475 -1.423,-1.114 -1.607,-1.293 l -0.689,-0.672 0.84,-0.471 c 0.311,-0.173 1.917,-1.042 2.991,-1.042 0.085,0 0.166,0.005 0.243,0.015 l 0.014,0.002 0.013,0.003 3.09,0.524 c -0.645,-0.578 -1.191,-1.285 -1.342,-1.487 l -0.545,-0.727 0.839,-0.346 c 0.131,-0.055 1.05,-0.427 1.959,-0.605 l -2.997,-1.111 -0.012,-0.005 -0.012,-0.005 c -1.007,-0.416 -2.085,-2.159 -2.29,-2.505 l -0.493,-0.826 0.933,-0.238 c 0.048,-0.011 1.062,-0.267 2.013,-0.317 l -4.135,-2.187 -0.013,-0.005 -0.012,-0.008 c -1.315,-0.761 -2.53,-3.474 -2.761,-4.01 l -0.38,-0.884 0.956,-0.112 c 0.039,-0.005 0.955,-0.112 2.008,-0.112 1.329,0 2.26,0.165 2.844,0.502 l 0.024,0.014 3.969,2.494 c -0.402,-0.778 -0.664,-1.657 -0.733,-1.902 l -0.262,-0.927 0.963,0.014 c 0.401,0.005 2.451,0.067 3.314,0.73 l 0.012,0.009 0.01,0.008 2.421,2.007 c -0.273,-0.827 -0.394,-1.72 -0.424,-1.972 l -0.108,-0.901 0.9,0.119 c 0.254,0.033 1.164,0.167 1.995,0.457 l -2.031,-2.454 -0.009,-0.01 -0.008,-0.01 c -0.663,-0.864 -0.724,-2.913 -0.729,-3.314 l -0.014,-0.962 0.926,0.26 c 0.244,0.069 1.111,0.328 1.886,0.724 l -2.488,-3.957 -0.007,-0.011 -0.007,-0.012 c -0.759,-1.315 -0.456,-4.275 -0.388,-4.854 l 0.112,-0.956 0.885,0.38 c 0.535,0.231 3.247,1.448 4.008,2.764 l 0.013,0.024 2.197,4.152 c 0.04,-0.879 0.253,-1.776 0.317,-2.024 l 0.237,-0.933 0.827,0.493 c 0.345,0.206 2.088,1.284 2.505,2.29 l 0.005,0.012 0.004,0.012 1.094,2.954 c 0.178,-0.854 0.523,-1.694 0.623,-1.929 l 0.357,-0.834 0.72,0.553 c 0.202,0.156 0.919,0.723 1.493,1.385 l -0.534,-3.132 -0.002,-0.012 -0.001,-0.014 c -0.143,-1.079 0.827,-2.884 1.024,-3.235 l 0.469,-0.84 0.672,0.689 c 0.177,0.181 0.803,0.843 1.277,1.577 l -0.175,-4.677 -0.001,-0.014 0,-0.013 c 0.001,-1.52 1.743,-3.93 2.092,-4.398 l 0.577,-0.773 0.576,0.773 c 0.347,0.468 2.086,2.878 2.086,4.399 l 0,0.026 -0.176,4.711 c 0.475,-0.743 1.111,-1.415 1.289,-1.598 l 0.672,-0.689 0.47,0.84 c 0.196,0.351 1.167,2.155 1.024,3.236 l -0.002,0.012 -0.002,0.013 -0.532,3.125 c 0.573,-0.659 1.285,-1.223 1.487,-1.378 l 0.72,-0.553 0.357,0.835 c 0.1,0.233 0.443,1.07 0.62,1.922 l 1.093,-2.95 0.005,-0.012 0.004,-0.013 c 0.416,-1.007 2.16,-2.084 2.506,-2.29 l 0.826,-0.492 0.237,0.932 c 0.063,0.248 0.275,1.138 0.317,2.014 l 2.192,-4.142 0.005,-0.012 0.007,-0.011 c 0.76,-1.317 3.472,-2.535 4.008,-2.765 l 0.884,-0.381 0.113,0.956 c 0.068,0.58 0.371,3.538 -0.388,4.854 l -0.014,0.025 -2.479,3.942 c 0.774,-0.396 1.637,-0.653 1.879,-0.721 l 0.927,-0.261 -0.013,0.961 c -0.006,0.403 -0.066,2.451 -0.729,3.316 l -0.009,0.01 -0.008,0.01 -2.034,2.457 c 0.827,-0.286 1.731,-0.42 1.984,-0.454 l 0.901,-0.119 -0.109,0.902 c -0.029,0.252 -0.15,1.146 -0.422,1.972 l 2.421,-2.008 0.011,-0.009 0.011,-0.009 c 0.862,-0.662 2.913,-0.724 3.314,-0.73 l 0.963,-0.014 -0.262,0.927 c -0.069,0.247 -0.333,1.129 -0.737,1.91 l 3.972,-2.495 0.011,-0.006 0.012,-0.008 c 0.585,-0.337 1.515,-0.502 2.843,-0.502 1.054,0 1.971,0.107 2.01,0.112 l 0.955,0.112 -0.38,0.885 c -0.231,0.535 -1.446,3.247 -2.761,4.008 l -0.012,0.008 -0.013,0.006 -4.11,2.173 c 0.942,0.053 1.94,0.303 1.986,0.315 l 0.933,0.237 -0.492,0.826 c -0.205,0.346 -1.282,2.09 -2.287,2.507 l -0.013,0.006 -0.012,0.004 -3.005,1.117 c 0.907,0.177 1.822,0.548 1.953,0.602 l 0.838,0.347 -0.543,0.726 c -0.152,0.203 -0.702,0.917 -1.35,1.496 l 3.112,-0.531 0.014,-0.002 0.014,-0.002 c 0.077,-0.011 0.159,-0.015 0.244,-0.015 1.097,0 2.8,0.933 2.99,1.04 l 0.84,0.47 -0.688,0.672 c -0.184,0.18 -0.859,0.817 -1.604,1.292 l 4.694,-0.174 0.014,0 0.013,0 c 1.52,0 3.93,1.739 4.397,2.088 L 5.169,1.946 4.397,2.522 z"
           id="path144"
           style="fill:#000000;fill-opacity:1;fill-rule:nonzero;stroke:none" /></g><g
         transform="matrix(5.9006324,0,0,5.9006324,246.90916,137.37021)"
         id="g146"><path
           d="m 0,0 c -0.144,-0.255 -0.348,-0.463 -0.599,-0.604 -0.249,0.135 -0.458,0.349 -0.6,0.599 0.235,0.033 0.447,0.131 0.602,0.32 C -0.437,0.135 -0.234,0.033 0,0 m -3.388,1.589 c -0.282,0.054 -0.546,0.187 -0.759,0.382 0.059,0.281 0.193,0.541 0.385,0.751 0.109,-0.21 0.263,-0.377 0.488,-0.47 -0.128,-0.203 -0.155,-0.43 -0.114,-0.663 m 0.468,3.71 c -0.036,0.287 0.008,0.578 0.13,0.84 0.286,0.035 0.573,-0.017 0.835,-0.133 C -2.123,5.84 -2.238,5.636 -2.252,5.394 -2.481,5.448 -2.711,5.404 -2.92,5.299 M 0.755,6.006 C 1.016,6.122 1.305,6.174 1.591,6.139 1.708,5.877 1.754,5.59 1.723,5.302 1.514,5.41 1.285,5.455 1.05,5.394 1.033,5.634 0.919,5.834 0.755,6.006 M 2.559,2.727 C 2.752,2.516 2.888,2.252 2.949,1.971 2.735,1.776 2.473,1.643 2.191,1.589 2.235,1.823 2.204,2.051 2.071,2.254 2.295,2.347 2.449,2.516 2.559,2.727 M -0.602,2.133 c -0.54,0 -0.985,0.445 -0.985,0.987 0,0.544 0.445,0.991 0.985,0.991 0.547,0 0.991,-0.447 0.991,-0.991 C 0.394,2.578 -0.059,2.133 -0.602,2.133 m -14.616,28.549 12.094,0 c -0.45,-0.493 -0.887,-0.993 -1.294,-1.532 -1.518,-2.032 -1.37,-4.872 -2.908,-6.863 -1.346,-1.738 -3.629,-2.193 -4.887,-3.805 -1.427,-1.822 -1.519,-4.323 -2.863,-6.19 -0.091,0.672 -0.142,1.357 -0.142,2.053 l 0,16.337 z M -1,24.973 -1,14.345 C -1,8.98 -3.848,4.497 -8.11,1.929 c -1.929,1.284 -3.885,3.025 -5.136,5.102 0.767,0.808 1.448,1.701 2.04,2.658 1.202,1.948 1.379,4.415 2.805,6.23 1.314,1.684 3.64,2.144 4.877,3.797 1.184,1.575 1.543,3.573 2.524,5.257"
           id="path148"
           style="fill:#00963f;fill-opacity:1;fill-rule:evenodd;stroke:none" /></g><g
         transform="matrix(5.9006324,0,0,5.9006324,245.73729,318.41282)"
         id="g150"><path
           d="m 0,0 14.217,0 0,-16.337 c 0,-5.365 -2.851,-9.848 -7.112,-12.416 C 2.847,-26.185 0,-21.702 0,-16.337 L 0,0 z m 13.632,-9.435 c 0,-0.955 -0.866,-1.37 -0.866,-2.079 0,-0.842 0.835,-1.249 0.835,-2.06 0,-0.841 -0.662,-0.987 -1.088,-0.84 0,0 0.268,0.062 0.268,0.392 0,0.995 -2.133,0.943 -2.133,2.508 0,0.815 0.579,1.47 0.579,1.95 10e-4,0.249 -0.187,0.587 -0.501,0.702 0.44,0.309 1.175,0.119 1.363,-0.355 0.149,0.395 0.287,0.98 0.108,1.549 1.008,-0.384 1.433,-1.036 1.435,-1.765 l 0,-0.002 z m -8.139,5.942 c 0.226,-0.371 0.798,0 0.798,0 0,0 -0.695,0.659 -0.798,0 m 3.538,-20.759 c 0,0.494 0.479,0.92 0.531,0.958 0.025,-0.002 0.05,-0.002 0.071,-0.002 0.267,0 0.482,0.213 0.482,0.479 0,0.07 -0.015,0.14 -0.044,0.202 1.314,2.344 0.964,2.685 -1.068,4.351 -0.555,0.454 -0.732,1.788 -0.732,3.01 -0.811,1.889 -3,1.673 -3.823,3.531 l 0.959,-0.056 c 0.488,-0.022 0.835,0.27 0.993,0.515 0.153,0.23 0.005,0.541 -0.243,0.455 -0.109,-0.306 -0.405,-0.549 -0.741,-0.533 l -2.374,0.131 c -0.474,-0.472 -0.375,-1.152 0.459,-1.507 l 0,-0.355 0.561,0 c 0.203,-0.639 0.211,-1.214 0.024,-1.602 -0.456,0 -0.967,0.54 -0.967,0.54 0.006,0.058 0.014,0.108 0.014,0.153 0,0.262 -0.217,0.477 -0.48,0.477 -0.038,0 -0.073,-0.003 -0.111,-0.009 -0.266,0.425 -0.224,1.342 -0.923,2.357 l 0.533,0.64 1.926,0.651 c 0.057,2.262 2.657,2.783 3.051,4.436 0.562,0 0.907,0.167 1.177,0.693 0.07,0.139 0.037,0.462 -0.314,0.389 C 7.803,-4.895 7.541,-4.994 7.183,-4.994 6.248,-4.994 5.49,-4.835 5.363,-5.25 5.154,-5.955 4.177,-5.514 4.177,-5.514 l 0.238,0.174 c 0.023,-0.003 0.044,-0.003 0.062,-0.003 0.18,0 0.327,0.096 0.327,0.21 0,0.119 -0.147,0.212 -0.327,0.212 -0.182,0 -0.327,-0.093 -0.327,-0.212 l 0,-0.02 -0.222,-0.164 c -0.287,0 -0.339,0.227 -0.346,0.335 0.111,0 0.195,0.093 0.195,0.212 0,0.115 -0.084,0.216 -0.186,0.216 0.004,0.084 0.052,0.258 0.256,0.423 l 1.668,1.324 c 0.242,0.192 0.723,0.45 0.935,0.56 -0.026,0.363 0.113,0.843 0.113,1.18 0,0 0.491,-0.212 0.689,-0.691 0.151,-0.349 0.058,-0.566 -0.009,-0.739 0.087,-0.141 0.467,-0.144 0.514,0.218 0.016,0.147 0.016,0.318 -0.039,0.51 0.644,-0.069 1.556,-0.293 2.962,-0.147 -0.284,-0.333 -0.651,-0.573 -1.035,-0.741 0.702,-0.164 1.559,-0.512 1.989,-1.226 -0.34,-0.175 -0.706,-0.287 -1.069,-0.352 0.667,-0.588 0.93,-1.461 1.505,-1.814 -0.741,-0.21 -1.358,-0.151 -1.841,0.012 0.234,-0.473 0.595,-1.033 1.086,-1.284 -0.672,-0.302 -1.327,-0.476 -1.836,-0.58 0.162,-0.262 0.39,-0.592 0.678,-0.803 -0.524,-0.019 -0.947,-0.164 -1.19,-0.279 -0.042,-0.611 -0.212,-1.883 1.343,-3.524 2.066,-1.562 2.584,-2.747 0.953,-4.85 0,-1.067 0.177,-1.497 0.732,-2.585 -0.05,-0.106 -0.274,-0.623 -0.501,-1.243 -0.247,-0.688 -0.436,-1.442 -0.436,-2.107 0,0 -0.351,0.006 -0.351,-0.37 l 0,-0.567 c -0.641,-0.202 -1.292,-0.208 -1.676,-0.023 m -8.055,13.808 c -0.302,0.295 -0.302,0.928 -0.302,1.04 0.043,0.027 0.084,0.055 0.119,0.089 0.186,0.189 0.186,0.493 0,0.677 -0.029,0.029 -0.058,0.054 -0.094,0.072 0.273,0.798 0.801,1.213 1.011,2.338 l 0.822,0 1.961,-1.534 C 4.147,-8.154 3.853,-8.619 3.722,-9.206 L 2.674,-7.26 c -0.669,0 -1.075,-0.553 -0.73,-1.378 l -0.25,-0.255 0.39,-0.409 C 1.787,-9.884 1.402,-10.28 0.976,-10.444 m 3.073,-8.997 2.776,0 c 0,1.147 -0.852,1.902 -0.852,3.238 0,0.873 0.345,1.422 1.26,1.686 0.227,-0.212 0.43,-0.475 0.601,-0.833 0.008,-1.171 0.202,-1.973 0.483,-2.554 0,0 -0.63,-0.482 -0.63,-2.25 0,0 -2.504,0.116 -2.808,-0.212 l -0.394,0 0,-0.568 c -0.615,-0.202 -1.191,-0.21 -1.604,-0.019 0.001,0.502 0.545,0.959 0.545,0.959 0.054,0 0.099,-0.006 0.149,-0.006 0.262,0 0.481,0.213 0.481,0.476 0,0.03 -0.004,0.058 -0.007,0.083 m -6.214,-10.548 c -0.652,0.467 -0.895,1.285 -0.271,1.602 0.043,0.108 0,0.24 -0.095,0.301 -0.693,-0.113 -0.976,0.694 -0.73,1.455 0.254,0.761 0.949,1.245 1.444,0.75 0.12,-0.006 0.228,0.074 0.257,0.19 -0.317,0.617 0.357,1.137 1.16,1.137 0.799,0 1.479,-0.52 1.158,-1.137 0.034,-0.116 0.14,-0.196 0.26,-0.19 0.492,0.495 1.193,0.011 1.44,-0.75 0.25,-0.761 -0.031,-1.568 -0.727,-1.455 -0.095,-0.061 -0.141,-0.193 -0.095,-0.301 0.619,-0.317 0.377,-1.135 -0.27,-1.602 -0.649,-0.475 -1.5,-0.452 -1.605,0.237 -0.093,0.076 -0.227,0.076 -0.321,0 -0.105,-0.689 -0.961,-0.712 -1.605,-0.237 m 3.312,2.427 c 0,-0.852 -0.697,-1.542 -1.547,-1.542 -0.848,0 -1.547,0.69 -1.547,1.542 0,0.854 0.699,1.547 1.547,1.547 0.85,0 1.547,-0.693 1.547,-1.547"
           id="path152"
           style="fill:#e3000f;fill-opacity:1;fill-rule:evenodd;stroke:none" /></g></g></g></svg>