<?xml version="1.0" encoding="UTF-8" standalone="no"?>
<!-- Created with Inkscape (http://www.inkscape.org/) -->
<svg
   xmlns:svg="http://www.w3.org/2000/svg"
   xmlns="http://www.w3.org/2000/svg"
   version="1.0"
   width="493.75354"
   height="493.38269"
   id="svg3190">
  <defs
     id="defs3192">
    <clipPath
       id="clipPath89">
      <path
         d="M 0.643,828.396 L 594.96,828.396 L 594.96,13.378 L 0.643,13.378 L 0.643,828.396 z"
         id="path91" />
    </clipPath>
    <clipPath
       id="clipPath83">
      <path
         d="M 17.591,811.413 L 578.655,811.413 L 578.655,30.026 L 17.591,30.026 L 17.591,811.413 z"
         id="path85" />
    </clipPath>
    <clipPath
       id="clipPath77">
      <path
         d="M 412.272,143.55 L 488.127,143.55 L 488.127,67.695 L 412.272,67.695 L 412.272,143.55 z"
         id="path79" />
    </clipPath>
    <clipPath
       id="clipPath71">
      <path
         d="M 32.359,45.386 L 562.601,45.386 L 562.601,796.654 L 32.359,796.654 L 32.359,45.386 z"
         id="path73" />
    </clipPath>
  </defs>
  <g
     transform="translate(-104.70534,-112.81373)"
     id="layer1">
    <path
       d="M 514.98253,396.80928 L 525.17029,384.43999 L 436.01105,372.06343 L 435.64746,378.60802 L 514.98253,396.80928"
       id="path93"
       style="fill:#808285;fill-opacity:1;fill-rule:nonzero;stroke:none" />
    <path
       d="M 514.98253,396.80928 L 525.17029,384.43999 L 436.01105,372.06343 L 435.64746,378.60802 L 514.98253,396.80928 z"
       id="path95"
       style="fill:none;stroke:#231f20;stroke-width:1.01077676;stroke-linecap:butt;stroke-linejoin:miter;stroke-miterlimit:3.86400008;stroke-dasharray:none;stroke-opacity:1" />
    <path
       d="M 505.15836,326.5712 L 498.97008,320.74651 L 501.5152,312.38397 L 435.64746,333.12307 L 436.01105,341.49288 L 505.15836,326.5712"
       id="path97"
       style="fill:#58595b;fill-opacity:1;fill-rule:nonzero;stroke:none" />
    <path
       d="M 505.15836,326.5712 L 498.97008,320.74651 L 501.5152,312.38397 L 435.64746,333.12307 L 436.01105,341.49288 L 505.15836,326.5712 z"
       id="path99"
       style="fill:none;stroke:#231f20;stroke-width:1.01077676;stroke-linecap:butt;stroke-linejoin:miter;stroke-miterlimit:3.86400008;stroke-dasharray:none;stroke-opacity:1" />
    <path
       d="M 524.8067,334.57742 L 516.43688,324.38967 L 436.73823,341.49288 L 437.10182,348.04475 L 524.8067,334.57742"
       id="path101"
       style="fill:#808285;fill-opacity:1;fill-rule:nonzero;stroke:none" />
    <path
       d="M 524.8067,334.57742 L 516.43688,324.38967 L 436.73823,341.49288 L 437.10182,348.04475 L 524.8067,334.57742 z"
       id="path103"
       style="fill:none;stroke:#231f20;stroke-width:1.01077676;stroke-linecap:butt;stroke-linejoin:miter;stroke-miterlimit:3.86400008;stroke-dasharray:none;stroke-opacity:1" />
    <path
       d="M 559.74758,370.97993 L 544.45503,388.81032 L 436.73823,372.78333 L 439.64694,362.59557 L 559.74758,370.97993"
       id="path105"
       style="fill:#a7a9ac;fill-opacity:1;fill-rule:nonzero;stroke:none" />
    <path
       d="M 559.74758,370.97993 L 544.45503,388.81032 L 436.73823,372.78333 L 439.64694,362.59557 L 559.74758,370.97993 z"
       id="path107"
       style="fill:none;stroke:#231f20;stroke-width:1.01077676;stroke-linecap:butt;stroke-linejoin:miter;stroke-miterlimit:3.86400008;stroke-dasharray:none;stroke-opacity:1" />
    <path
       d="M 559.0204,348.77193 L 544.09145,331.66144 L 438.56344,346.96126 L 437.83627,354.96021 L 559.0204,348.77193"
       id="path109"
       style="fill:#a7a9ac;fill-opacity:1;fill-rule:nonzero;stroke:none" />
    <path
       d="M 559.0204,348.77193 L 544.09145,331.66144 L 438.56344,346.96126 L 437.83627,354.96021 L 559.0204,348.77193 z"
       id="path111"
       style="fill:none;stroke:#231f20;stroke-width:1.01077676;stroke-linecap:butt;stroke-linejoin:miter;stroke-miterlimit:3.86400008;stroke-dasharray:none;stroke-opacity:1" />
    <path
       d="M 439.29062,354.96021 L 584.12984,347.31757 L 597.95348,359.68686 L 583.0318,373.15419 L 439.29062,364.78438 L 439.29062,354.96021"
       id="path113"
       style="fill:#d1d3d4;fill-opacity:1;fill-rule:nonzero;stroke:none" />
    <path
       d="M 439.29062,354.96021 L 584.12984,347.31757 L 597.95348,359.68686 L 583.0318,373.15419 L 439.29062,364.78438 L 439.29062,354.96021 z"
       id="path115"
       style="fill:none;stroke:#231f20;stroke-width:1.01077676;stroke-linecap:butt;stroke-linejoin:miter;stroke-miterlimit:3.86400008;stroke-dasharray:none;stroke-opacity:1" />
    <path
       d="M 468.03595,254.15159 L 460.02972,252.32638 L 457.84092,243.60752 L 410.90161,294.90989 L 415.26468,301.83262 L 468.03595,254.15159"
       id="path117"
       style="fill:#58595b;fill-opacity:1;fill-rule:nonzero;stroke:none" />
    <path
       d="M 468.03595,254.15159 L 460.02972,252.32638 L 457.84092,243.60752 L 410.90161,294.90989 L 415.26468,301.83262 L 468.03595,254.15159 z"
       id="path119"
       style="fill:none;stroke:#231f20;stroke-width:1.01077676;stroke-linecap:butt;stroke-linejoin:miter;stroke-miterlimit:3.86400008;stroke-dasharray:none;stroke-opacity:1" />
    <path
       d="M 511.71023,310.20243 L 514.25535,294.5463 L 430.54995,328.39642 L 433.45866,334.22111 L 511.71023,310.20243"
       id="path121"
       style="fill:#808285;fill-opacity:1;fill-rule:nonzero;stroke:none" />
    <path
       d="M 511.71023,310.20243 L 514.25535,294.5463 L 430.54995,328.39642 L 433.45866,334.22111 L 511.71023,310.20243 z"
       id="path123"
       style="fill:none;stroke:#231f20;stroke-width:1.01077676;stroke-linecap:butt;stroke-linejoin:miter;stroke-miterlimit:3.86400008;stroke-dasharray:none;stroke-opacity:1" />
    <path
       d="M 489.13864,251.23561 L 476.76935,246.87254 L 415.99185,301.46176 L 419.9986,306.55927 L 489.13864,251.23561"
       id="path125"
       style="fill:#808285;fill-opacity:1;fill-rule:nonzero;stroke:none" />
    <path
       d="M 489.13864,251.23561 L 476.76935,246.87254 L 415.99185,301.46176 L 419.9986,306.55927 L 489.13864,251.23561 z"
       id="path127"
       style="fill:none;stroke:#231f20;stroke-width:1.01077676;stroke-linecap:butt;stroke-linejoin:miter;stroke-miterlimit:3.86400008;stroke-dasharray:none;stroke-opacity:1" />
    <path
       d="M 537.53958,265.43739 L 533.5401,288.72161 L 431.64799,328.39642 L 429.09559,318.19411 L 537.53958,265.43739"
       id="path129"
       style="fill:#a7a9ac;fill-opacity:1;fill-rule:nonzero;stroke:none" />
    <path
       d="M 537.53958,265.43739 L 533.5401,288.72161 L 431.64799,328.39642 L 429.09559,318.19411 L 537.53958,265.43739 z"
       id="path131"
       style="fill:none;stroke:#231f20;stroke-width:1.01077676;stroke-linecap:butt;stroke-linejoin:miter;stroke-miterlimit:3.86400008;stroke-dasharray:none;stroke-opacity:1" />
    <path
       d="M 525.53388,246.51623 L 504.43118,239.22991 L 420.72578,305.10492 L 424.00535,312.38397 L 525.53388,246.51623"
       id="path133"
       style="fill:#a7a9ac;fill-opacity:1;fill-rule:nonzero;stroke:none" />
    <path
       d="M 525.53388,246.51623 L 504.43118,239.22991 L 420.72578,305.10492 L 424.00535,312.38397 L 525.53388,246.51623 z"
       id="path135"
       style="fill:none;stroke:#231f20;stroke-width:1.01077676;stroke-linecap:butt;stroke-linejoin:miter;stroke-miterlimit:3.86400008;stroke-dasharray:none;stroke-opacity:1" />
    <path
       d="M 425.45971,311.65679 L 546.64384,232.67804 L 564.83782,236.32847 L 558.64954,255.60595 L 430.18636,320.01933 L 425.45971,311.65679"
       id="path137"
       style="fill:#d1d3d4;fill-opacity:1;fill-rule:nonzero;stroke:none" />
    <path
       d="M 425.45971,311.65679 L 546.64384,232.67804 L 564.83782,236.32847 L 558.64954,255.60595 L 430.18636,320.01933 L 425.45971,311.65679 z"
       id="path139"
       style="fill:none;stroke:#231f20;stroke-width:1.01077676;stroke-linecap:butt;stroke-linejoin:miter;stroke-miterlimit:3.86400008;stroke-dasharray:none;stroke-opacity:1" />
    <path
       d="M 399.62309,210.11372 L 391.97318,212.67338 L 385.79217,206.11424 L 370.87049,273.8072 L 378.14954,277.81395 L 399.62309,210.11372"
       id="path141"
       style="fill:#58595b;fill-opacity:1;fill-rule:nonzero;stroke:none" />
    <path
       d="M 399.62309,210.11372 L 391.97318,212.67338 L 385.79217,206.11424 L 370.87049,273.8072 L 378.14954,277.81395 L 399.62309,210.11372 z"
       id="path143"
       style="fill:none;stroke:#231f20;stroke-width:1.01077676;stroke-linecap:butt;stroke-linejoin:miter;stroke-miterlimit:3.86400008;stroke-dasharray:none;stroke-opacity:1" />
    <path
       d="M 465.49083,236.69206 L 460.02972,221.7631 L 404.71333,292.72836 L 409.80357,296.37152 L 465.49083,236.69206"
       id="path145"
       style="fill:#808285;fill-opacity:1;fill-rule:nonzero;stroke:none" />
    <path
       d="M 465.49083,236.69206 L 460.02972,221.7631 L 404.71333,292.72836 L 409.80357,296.37152 L 465.49083,236.69206 z"
       id="path147"
       style="fill:none;stroke:#231f20;stroke-width:1.01077676;stroke-linecap:butt;stroke-linejoin:miter;stroke-miterlimit:3.86400008;stroke-dasharray:none;stroke-opacity:1" />
    <path
       d="M 416.35544,197.38811 L 403.62256,199.56965 L 378.51312,277.08677 L 384.33782,279.63189 L 416.35544,197.38811"
       id="path149"
       style="fill:#808285;fill-opacity:1;fill-rule:nonzero;stroke:none" />
    <path
       d="M 416.35544,197.38811 L 403.62256,199.56965 L 378.51312,277.08677 L 384.33782,279.63189 L 416.35544,197.38811 z"
       id="path151"
       style="fill:none;stroke:#231f20;stroke-width:1.01077676;stroke-linecap:butt;stroke-linejoin:miter;stroke-miterlimit:3.86400008;stroke-dasharray:none;stroke-opacity:1" />
    <path
       d="M 465.49083,185.00428 L 473.49705,207.20501 L 405.44051,292.36477 L 398.16146,285.09299 L 465.49083,185.00428"
       id="path153"
       style="fill:#a7a9ac;fill-opacity:1;fill-rule:nonzero;stroke:none" />
    <path
       d="M 465.49083,185.00428 L 473.49705,207.20501 L 405.44051,292.36477 L 398.16146,285.09299 L 465.49083,185.00428 z"
       id="path155"
       style="fill:none;stroke:#231f20;stroke-width:1.01077676;stroke-linecap:butt;stroke-linejoin:miter;stroke-miterlimit:3.86400008;stroke-dasharray:none;stroke-opacity:1" />
    <path
       d="M 445.83522,174.46021 L 424.00535,178.82327 L 384.33782,277.81395 L 390.88241,282.5406 L 445.83522,174.46021"
       id="path157"
       style="fill:#a7a9ac;fill-opacity:1;fill-rule:nonzero;stroke:none" />
    <path
       d="M 445.83522,174.46021 L 424.00535,178.82327 L 384.33782,277.81395 L 390.88241,282.5406 L 445.83522,174.46021 z"
       id="path159"
       style="fill:none;stroke:#231f20;stroke-width:1.01077676;stroke-linecap:butt;stroke-linejoin:miter;stroke-miterlimit:3.86400008;stroke-dasharray:none;stroke-opacity:1" />
    <path
       d="M 391.60959,281.08625 L 457.12101,152.25948 L 474.58782,146.0712 L 478.95088,166.09039 L 399.98668,286.18376 L 391.60959,281.08625"
       id="path161"
       style="fill:#d1d3d4;fill-opacity:1;fill-rule:nonzero;stroke:none" />
    <path
       d="M 391.60959,281.08625 L 457.12101,152.25948 L 474.58782,146.0712 L 478.95088,166.09039 L 399.98668,286.18376 L 391.60959,281.08625 z"
       id="path163"
       style="fill:none;stroke:#231f20;stroke-width:1.01077676;stroke-linecap:butt;stroke-linejoin:miter;stroke-miterlimit:3.86400008;stroke-dasharray:none;stroke-opacity:1" />
    <path
       d="M 318.46281,206.11424 L 313.00897,211.94621 L 304.27557,209.75013 L 325.01467,275.61787 L 333.39176,275.25428 L 318.46281,206.11424"
       id="path165"
       style="fill:#58595b;fill-opacity:1;fill-rule:nonzero;stroke:none" />
    <path
       d="M 318.46281,206.11424 L 313.00897,211.94621 L 304.27557,209.75013 L 325.01467,275.61787 L 333.39176,275.25428 L 318.46281,206.11424 z"
       id="path167"
       style="fill:none;stroke:#231f20;stroke-width:1.01077676;stroke-linecap:butt;stroke-linejoin:miter;stroke-miterlimit:3.86400008;stroke-dasharray:none;stroke-opacity:1" />
    <path
       d="M 389.07174,196.2828 L 376.69518,186.09505 L 363.95503,275.25428 L 370.5069,275.61787 L 389.07174,196.2828"
       id="path169"
       style="fill:#808285;fill-opacity:1;fill-rule:nonzero;stroke:none" />
    <path
       d="M 389.07174,196.2828 L 376.69518,186.09505 L 363.95503,275.25428 L 370.5069,275.61787 L 389.07174,196.2828 z"
       id="path171"
       style="fill:none;stroke:#231f20;stroke-width:1.01077676;stroke-linecap:butt;stroke-linejoin:miter;stroke-miterlimit:3.86400008;stroke-dasharray:none;stroke-opacity:1" />
    <path
       d="M 326.4763,186.46591 L 316.28854,194.83572 L 333.39176,274.53438 L 340.29995,273.8072 L 326.4763,186.46591"
       id="path173"
       style="fill:#808285;fill-opacity:1;fill-rule:nonzero;stroke:none" />
    <path
       d="M 326.4763,186.46591 L 316.28854,194.83572 L 333.39176,274.53438 L 340.29995,273.8072 L 326.4763,186.46591 z"
       id="path175"
       style="fill:none;stroke:#231f20;stroke-width:1.01077676;stroke-linecap:butt;stroke-linejoin:miter;stroke-miterlimit:3.86400008;stroke-dasharray:none;stroke-opacity:1" />
    <path
       d="M 362.86426,151.52503 L 381.05825,166.8103 L 364.68221,274.53438 L 354.85804,271.61839 L 362.86426,151.52503"
       id="path177"
       style="fill:#a7a9ac;fill-opacity:1;fill-rule:nonzero;stroke:none" />
    <path
       d="M 362.86426,151.52503 L 381.05825,166.8103 L 364.68221,274.53438 L 354.85804,271.61839 L 362.86426,151.52503 z"
       id="path179"
       style="fill:none;stroke:#231f20;stroke-width:1.01077676;stroke-linecap:butt;stroke-linejoin:miter;stroke-miterlimit:3.86400008;stroke-dasharray:none;stroke-opacity:1" />
    <path
       d="M 340.67081,152.25948 L 323.92391,167.18116 L 339.20918,272.34557 L 346.85182,273.08002 L 340.67081,152.25948"
       id="path181"
       style="fill:#a7a9ac;fill-opacity:1;fill-rule:nonzero;stroke:none" />
    <path
       d="M 340.67081,152.25948 L 323.92391,167.18116 L 339.20918,272.34557 L 346.85182,273.08002 L 340.67081,152.25948 z"
       id="path183"
       style="fill:none;stroke:#231f20;stroke-width:1.01077676;stroke-linecap:butt;stroke-linejoin:miter;stroke-miterlimit:3.86400008;stroke-dasharray:none;stroke-opacity:1" />
    <path
       d="M 346.85182,271.61839 L 339.57277,127.15004 L 351.58574,113.31912 L 365.05307,128.2408 L 356.67598,271.61839 L 346.85182,271.61839"
       id="path185"
       style="fill:#d1d3d4;fill-opacity:1;fill-rule:nonzero;stroke:none" />
    <path
       d="M 346.85182,271.61839 L 339.57277,127.15004 L 351.58574,113.31912 L 365.05307,128.2408 L 356.67598,271.61839 L 346.85182,271.61839 z"
       id="path187"
       style="fill:none;stroke:#231f20;stroke-width:1.01077676;stroke-linecap:butt;stroke-linejoin:miter;stroke-miterlimit:3.86400008;stroke-dasharray:none;stroke-opacity:1" />
    <path
       d="M 246.40678,243.24393 L 244.58884,251.23561 L 235.85544,253.42441 L 286.8015,300.36372 L 294.08054,295.64434 L 246.40678,243.24393"
       id="path189"
       style="fill:#58595b;fill-opacity:1;fill-rule:nonzero;stroke:none" />
    <path
       d="M 246.40678,243.24393 L 244.58884,251.23561 L 235.85544,253.42441 L 286.8015,300.36372 L 294.08054,295.64434 L 246.40678,243.24393 z"
       id="path191"
       style="fill:none;stroke:#231f20;stroke-width:1.01077676;stroke-linecap:butt;stroke-linejoin:miter;stroke-miterlimit:3.86400008;stroke-dasharray:none;stroke-opacity:1" />
    <path
       d="M 302.09404,199.56965 L 286.44518,197.02452 L 320.28802,280.35907 L 326.10544,277.44309 L 302.09404,199.56965"
       id="path193"
       style="fill:#808285;fill-opacity:1;fill-rule:nonzero;stroke:none" />
    <path
       d="M 302.09404,199.56965 L 286.44518,197.02452 L 320.28802,280.35907 L 326.10544,277.44309 L 302.09404,199.56965 z"
       id="path195"
       style="fill:none;stroke:#231f20;stroke-width:1.01077676;stroke-linecap:butt;stroke-linejoin:miter;stroke-miterlimit:3.86400008;stroke-dasharray:none;stroke-opacity:1" />
    <path
       d="M 243.50535,222.13396 L 238.76415,234.49598 L 293.71695,295.27348 L 298.81447,291.274 L 243.50535,222.13396"
       id="path197"
       style="fill:#808285;fill-opacity:1;fill-rule:nonzero;stroke:none" />
    <path
       d="M 243.50535,222.13396 L 238.76415,234.49598 L 293.71695,295.27348 L 298.81447,291.274 L 243.50535,222.13396 z"
       id="path199"
       style="fill:none;stroke:#231f20;stroke-width:1.01077676;stroke-linecap:butt;stroke-linejoin:miter;stroke-miterlimit:3.86400008;stroke-dasharray:none;stroke-opacity:1" />
    <path
       d="M 257.69258,173.72576 L 280.62049,177.73251 L 320.65161,279.63189 L 310.46385,281.80615 L 257.69258,173.72576"
       id="path201"
       style="fill:#a7a9ac;fill-opacity:1;fill-rule:nonzero;stroke:none" />
    <path
       d="M 257.69258,173.72576 L 280.62049,177.73251 L 320.65161,279.63189 L 310.46385,281.80615 L 257.69258,173.72576 z"
       id="path203"
       style="fill:none;stroke:#231f20;stroke-width:1.01077676;stroke-linecap:butt;stroke-linejoin:miter;stroke-miterlimit:3.86400008;stroke-dasharray:none;stroke-opacity:1" />
    <path
       d="M 238.40056,185.36787 L 231.49237,206.84869 L 297.36011,290.54683 L 304.27557,287.26725 L 238.40056,185.36787"
       id="path205"
       style="fill:#a7a9ac;fill-opacity:1;fill-rule:nonzero;stroke:none" />
    <path
       d="M 238.40056,185.36787 L 231.49237,206.84869 L 297.36011,290.54683 L 304.27557,287.26725 L 238.40056,185.36787 z"
       id="path207"
       style="fill:none;stroke:#231f20;stroke-width:1.01077676;stroke-linecap:butt;stroke-linejoin:miter;stroke-miterlimit:3.86400008;stroke-dasharray:none;stroke-opacity:1" />
    <path
       d="M 303.54839,285.8129 L 224.9405,164.62877 L 228.57639,146.0712 L 247.50482,152.62307 L 312.27452,281.08625 L 303.54839,285.8129"
       id="path209"
       style="fill:#d1d3d4;fill-opacity:1;fill-rule:nonzero;stroke:none" />
    <path
       d="M 303.54839,285.8129 L 224.9405,164.62877 L 228.57639,146.0712 L 247.50482,152.62307 L 312.27452,281.08625 L 303.54839,285.8129 z"
       id="path211"
       style="fill:none;stroke:#231f20;stroke-width:1.01077676;stroke-linecap:butt;stroke-linejoin:miter;stroke-miterlimit:3.86400008;stroke-dasharray:none;stroke-opacity:1" />
    <path
       d="M 202.0126,311.65679 L 204.55772,319.29215 L 198.37671,325.48043 L 265.6988,340.40212 L 269.69828,333.12307 L 202.0126,311.65679"
       id="path213"
       style="fill:#58595b;fill-opacity:1;fill-rule:nonzero;stroke:none" />
    <path
       d="M 202.0126,311.65679 L 204.55772,319.29215 L 198.37671,325.48043 L 265.6988,340.40212 L 269.69828,333.12307 L 202.0126,311.65679 z"
       id="path215"
       style="fill:none;stroke:#231f20;stroke-width:1.01077676;stroke-linecap:butt;stroke-linejoin:miter;stroke-miterlimit:3.86400008;stroke-dasharray:none;stroke-opacity:1" />
    <path
       d="M 228.93998,245.78178 L 214.0183,251.23561 L 284.99082,306.55927 L 288.62671,301.10544 L 228.93998,245.78178"
       id="path217"
       style="fill:#808285;fill-opacity:1;fill-rule:nonzero;stroke:none" />
    <path
       d="M 228.93998,245.78178 L 214.0183,251.23561 L 284.99082,306.55927 L 288.62671,301.10544 L 228.93998,245.78178 z"
       id="path219"
       style="fill:none;stroke:#231f20;stroke-width:1.01077676;stroke-linecap:butt;stroke-linejoin:miter;stroke-miterlimit:3.86400008;stroke-dasharray:none;stroke-opacity:1" />
    <path
       d="M 189.27245,294.90989 L 191.46125,307.65004 L 268.9711,332.76675 L 271.5235,326.94206 L 189.27245,294.90989"
       id="path221"
       style="fill:#808285;fill-opacity:1;fill-rule:nonzero;stroke:none" />
    <path
       d="M 189.27245,294.90989 L 191.46125,307.65004 L 268.9711,332.76675 L 271.5235,326.94206 L 189.27245,294.90989 z"
       id="path223"
       style="fill:none;stroke:#231f20;stroke-width:1.01077676;stroke-linecap:butt;stroke-linejoin:miter;stroke-miterlimit:3.86400008;stroke-dasharray:none;stroke-opacity:1" />
    <path
       d="M 177.26675,245.78178 L 199.46748,237.78282 L 284.61996,305.8321 L 276.97733,313.11114 L 177.26675,245.78178"
       id="path225"
       style="fill:#a7a9ac;fill-opacity:1;fill-rule:nonzero;stroke:none" />
    <path
       d="M 177.26675,245.78178 L 199.46748,237.78282 L 284.61996,305.8321 L 276.97733,313.11114 L 177.26675,245.78178 z"
       id="path227"
       style="fill:none;stroke:#231f20;stroke-width:1.01077676;stroke-linecap:butt;stroke-linejoin:miter;stroke-miterlimit:3.86400008;stroke-dasharray:none;stroke-opacity:1" />
    <path
       d="M 166.70813,265.43739 L 171.07847,287.26725 L 270.06187,326.94206 L 274.7958,320.38292 L 166.70813,265.43739"
       id="path229"
       style="fill:#a7a9ac;fill-opacity:1;fill-rule:nonzero;stroke:none" />
    <path
       d="M 166.70813,265.43739 L 171.07847,287.26725 L 270.06187,326.94206 L 274.7958,320.38292 L 166.70813,265.43739 z"
       id="path231"
       style="fill:none;stroke:#231f20;stroke-width:1.01077676;stroke-linecap:butt;stroke-linejoin:miter;stroke-miterlimit:3.86400008;stroke-dasharray:none;stroke-opacity:1" />
    <path
       d="M 273.34144,319.65574 L 144.51467,254.15159 L 138.32639,236.32847 L 157.982,232.32172 L 278.07537,311.28593 L 273.34144,319.65574"
       id="path233"
       style="fill:#d1d3d4;fill-opacity:1;fill-rule:nonzero;stroke:none" />
    <path
       d="M 273.34144,319.65574 L 144.51467,254.15159 L 138.32639,236.32847 L 157.982,232.32172 L 278.07537,311.28593 L 273.34144,319.65574 z"
       id="path235"
       style="fill:none;stroke:#231f20;stroke-width:1.01077676;stroke-linecap:butt;stroke-linejoin:miter;stroke-miterlimit:3.86400008;stroke-dasharray:none;stroke-opacity:1" />
    <path
       d="M 198.00585,392.8098 L 204.19413,398.26363 L 201.64901,406.63344 L 267.88761,385.88707 L 267.52402,377.52453 L 198.00585,392.8098"
       id="path237"
       style="fill:#58595b;fill-opacity:1;fill-rule:nonzero;stroke:none" />
    <path
       d="M 198.00585,392.8098 L 204.19413,398.26363 L 201.64901,406.63344 L 267.88761,385.88707 L 267.52402,377.52453 L 198.00585,392.8098 z"
       id="path239"
       style="fill:none;stroke:#231f20;stroke-width:1.01077676;stroke-linecap:butt;stroke-linejoin:miter;stroke-miterlimit:3.86400008;stroke-dasharray:none;stroke-opacity:1" />
    <path
       d="M 188.18895,322.21541 L 178.35751,334.57742 L 267.52402,347.31757 L 267.88761,340.40212 L 188.18895,322.21541"
       id="path241"
       style="fill:#808285;fill-opacity:1;fill-rule:nonzero;stroke:none" />
    <path
       d="M 188.18895,322.21541 L 178.35751,334.57742 L 267.52402,347.31757 L 267.88761,340.40212 L 188.18895,322.21541 z"
       id="path243"
       style="fill:none;stroke:#231f20;stroke-width:1.01077676;stroke-linecap:butt;stroke-linejoin:miter;stroke-miterlimit:3.86400008;stroke-dasharray:none;stroke-opacity:1" />
    <path
       d="M 178.7211,384.80358 L 187.09091,394.62774 L 266.78957,377.52453 L 266.06239,370.97993 L 178.7211,384.80358"
       id="path245"
       style="fill:#808285;fill-opacity:1;fill-rule:nonzero;stroke:none" />
    <path
       d="M 178.7211,384.80358 L 187.09091,394.62774 L 266.78957,377.52453 L 266.06239,370.97993 L 178.7211,384.80358 z"
       id="path247"
       style="fill:none;stroke:#231f20;stroke-width:1.01077676;stroke-linecap:butt;stroke-linejoin:miter;stroke-miterlimit:3.86400008;stroke-dasharray:none;stroke-opacity:1" />
    <path
       d="M 143.78749,348.04475 L 159.06549,330.21436 L 266.78957,346.59767 L 263.87359,356.41457 L 143.78749,348.04475"
       id="path249"
       style="fill:#a7a9ac;fill-opacity:1;fill-rule:nonzero;stroke:none" />
    <path
       d="M 143.78749,348.04475 L 159.06549,330.21436 L 266.78957,346.59767 L 263.87359,356.41457 L 143.78749,348.04475 z"
       id="path251"
       style="fill:none;stroke:#231f20;stroke-width:1.01077676;stroke-linecap:butt;stroke-linejoin:miter;stroke-miterlimit:3.86400008;stroke-dasharray:none;stroke-opacity:1" />
    <path
       d="M 144.51467,370.24548 L 159.06549,387.34143 L 264.60804,372.06343 L 265.33522,364.0572 L 144.51467,370.24548"
       id="path253"
       style="fill:#a7a9ac;fill-opacity:1;fill-rule:nonzero;stroke:none" />
    <path
       d="M 144.51467,370.24548 L 159.06549,387.34143 L 264.60804,372.06343 L 265.33522,364.0572 L 144.51467,370.24548 z"
       id="path255"
       style="fill:none;stroke:#231f20;stroke-width:1.01077676;stroke-linecap:butt;stroke-linejoin:miter;stroke-miterlimit:3.86400008;stroke-dasharray:none;stroke-opacity:1" />
    <path
       d="M 263.87359,364.42079 L 119.40523,371.70711 L 105.21073,359.68686 L 120.496,346.21954 L 263.87359,354.58935 L 263.87359,364.42079"
       id="path257"
       style="fill:#d1d3d4;fill-opacity:1;fill-rule:nonzero;stroke:none" />
    <path
       d="M 263.87359,364.42079 L 119.40523,371.70711 L 105.21073,359.68686 L 120.496,346.21954 L 263.87359,354.58935 L 263.87359,364.42079 z"
       id="path259"
       style="fill:none;stroke:#231f20;stroke-width:1.01077676;stroke-linecap:butt;stroke-linejoin:miter;stroke-miterlimit:3.86400008;stroke-dasharray:none;stroke-opacity:1" />
    <path
       d="M 235.12826,464.85855 L 243.13449,466.67649 L 245.31602,475.41717 L 292.26987,424.47111 L 287.52867,417.19206 L 235.12826,464.85855"
       id="path261"
       style="fill:#58595b;fill-opacity:1;fill-rule:nonzero;stroke:none" />
    <path
       d="M 235.12826,464.85855 L 243.13449,466.67649 L 245.31602,475.41717 L 292.26987,424.47111 L 287.52867,417.19206 L 235.12826,464.85855 z"
       id="path263"
       style="fill:none;stroke:#231f20;stroke-width:1.01077676;stroke-linecap:butt;stroke-linejoin:miter;stroke-miterlimit:3.86400008;stroke-dasharray:none;stroke-opacity:1" />
    <path
       d="M 191.46125,408.82225 L 188.91613,424.82743 L 272.61426,390.621 L 269.33469,385.15989 L 191.46125,408.82225"
       id="path265"
       style="fill:#808285;fill-opacity:1;fill-rule:nonzero;stroke:none" />
    <path
       d="M 191.46125,408.82225 L 188.91613,424.82743 L 272.61426,390.621 L 269.33469,385.15989 L 191.46125,408.82225 z"
       id="path267"
       style="fill:none;stroke:#231f20;stroke-width:1.01077676;stroke-linecap:butt;stroke-linejoin:miter;stroke-miterlimit:3.86400008;stroke-dasharray:none;stroke-opacity:1" />
    <path
       d="M 214.38189,467.77453 L 226.75845,472.50118 L 287.16508,417.55565 L 283.16561,412.46541 L 214.38189,467.77453"
       id="path269"
       style="fill:#808285;fill-opacity:1;fill-rule:nonzero;stroke:none" />
    <path
       d="M 214.38189,467.77453 L 226.75845,472.50118 L 287.16508,417.55565 L 283.16561,412.46541 L 214.38189,467.77453 z"
       id="path271"
       style="fill:none;stroke:#231f20;stroke-width:1.01077676;stroke-linecap:butt;stroke-linejoin:miter;stroke-miterlimit:3.86400008;stroke-dasharray:none;stroke-opacity:1" />
    <path
       d="M 165.98095,453.57275 L 169.9877,430.65212 L 271.5235,390.621 L 274.06862,400.80875 L 165.98095,453.57275"
       id="path273"
       style="fill:#a7a9ac;fill-opacity:1;fill-rule:nonzero;stroke:none" />
    <path
       d="M 165.98095,453.57275 L 169.9877,430.65212 L 271.5235,390.621 L 274.06862,400.80875 L 165.98095,453.57275 z"
       id="path275"
       style="fill:none;stroke:#231f20;stroke-width:1.01077676;stroke-linecap:butt;stroke-linejoin:miter;stroke-miterlimit:3.86400008;stroke-dasharray:none;stroke-opacity:1" />
    <path
       d="M 177.63033,472.50118 L 198.7403,479.7875 L 282.43843,413.91976 L 279.16613,406.63344 L 177.63033,472.50118"
       id="path277"
       style="fill:#a7a9ac;fill-opacity:1;fill-rule:nonzero;stroke:none" />
    <path
       d="M 177.63033,472.50118 L 198.7403,479.7875 L 282.43843,413.91976 L 279.16613,406.63344 L 177.63033,472.50118 z"
       id="path279"
       style="fill:none;stroke:#231f20;stroke-width:1.01077676;stroke-linecap:butt;stroke-linejoin:miter;stroke-miterlimit:3.86400008;stroke-dasharray:none;stroke-opacity:1" />
    <path
       d="M 278.07537,407.73148 L 156.52764,486.3321 L 138.32639,482.69621 L 144.51467,463.41147 L 272.97785,398.99081 L 278.07537,407.73148"
       id="path281"
       style="fill:#d1d3d4;fill-opacity:1;fill-rule:nonzero;stroke:none" />
    <path
       d="M 278.07537,407.73148 L 156.52764,486.3321 L 138.32639,482.69621 L 144.51467,463.41147 L 272.97785,398.99081 L 278.07537,407.73148 z"
       id="path283"
       style="fill:none;stroke:#231f20;stroke-width:1.01077676;stroke-linecap:butt;stroke-linejoin:miter;stroke-miterlimit:3.86400008;stroke-dasharray:none;stroke-opacity:1" />
    <path
       d="M 303.54839,508.89642 L 311.19103,506.70762 L 317.37204,512.8959 L 332.65731,445.5738 L 325.37826,441.56705 L 303.54839,508.89642"
       id="path285"
       style="fill:#58595b;fill-opacity:1;fill-rule:nonzero;stroke:none" />
    <path
       d="M 303.54839,508.89642 L 311.19103,506.70762 L 317.37204,512.8959 L 332.65731,445.5738 L 325.37826,441.56705 L 303.54839,508.89642 z"
       id="path287"
       style="fill:none;stroke:#231f20;stroke-width:1.01077676;stroke-linecap:butt;stroke-linejoin:miter;stroke-miterlimit:3.86400008;stroke-dasharray:none;stroke-opacity:1" />
    <path
       d="M 237.67338,482.33262 L 243.50535,497.24704 L 298.81447,426.28905 L 293.35337,422.64589 L 237.67338,482.33262"
       id="path289"
       style="fill:#808285;fill-opacity:1;fill-rule:nonzero;stroke:none" />
    <path
       d="M 237.67338,482.33262 L 243.50535,497.24704 L 298.81447,426.28905 L 293.35337,422.64589 L 237.67338,482.33262 z"
       id="path291"
       style="fill:none;stroke:#231f20;stroke-width:1.01077676;stroke-linecap:butt;stroke-linejoin:miter;stroke-miterlimit:3.86400008;stroke-dasharray:none;stroke-opacity:1" />
    <path
       d="M 286.8015,522.00016 L 299.90523,519.44049 L 325.01467,442.3015 L 318.82639,439.38552 L 286.8015,522.00016"
       id="path293"
       style="fill:#808285;fill-opacity:1;fill-rule:nonzero;stroke:none" />
    <path
       d="M 286.8015,522.00016 L 299.90523,519.44049 L 325.01467,442.3015 L 318.82639,439.38552 L 286.8015,522.00016 z"
       id="path295"
       style="fill:none;stroke:#231f20;stroke-width:1.01077676;stroke-linecap:butt;stroke-linejoin:miter;stroke-miterlimit:3.86400008;stroke-dasharray:none;stroke-opacity:1" />
    <path
       d="M 237.67338,534.00586 L 229.67443,511.80513 L 297.7237,426.65264 L 305.00275,433.93169 L 237.67338,534.00586"
       id="path297"
       style="fill:#a7a9ac;fill-opacity:1;fill-rule:nonzero;stroke:none" />
    <path
       d="M 237.67338,534.00586 L 229.67443,511.80513 L 297.7237,426.65264 L 305.00275,433.93169 L 237.67338,534.00586 z"
       id="path299"
       style="fill:none;stroke:#231f20;stroke-width:1.01077676;stroke-linecap:butt;stroke-linejoin:miter;stroke-miterlimit:3.86400008;stroke-dasharray:none;stroke-opacity:1" />
    <path
       d="M 257.32899,544.56448 L 279.52972,540.19414 L 318.82639,441.21074 L 312.64538,436.48408 L 257.32899,544.56448"
       id="path301"
       style="fill:#a7a9ac;fill-opacity:1;fill-rule:nonzero;stroke:none" />
    <path
       d="M 257.32899,544.56448 L 279.52972,540.19414 L 318.82639,441.21074 L 312.64538,436.48408 L 257.32899,544.56448 z"
       id="path303"
       style="fill:none;stroke:#231f20;stroke-width:1.01077676;stroke-linecap:butt;stroke-linejoin:miter;stroke-miterlimit:3.86400008;stroke-dasharray:none;stroke-opacity:1" />
    <path
       d="M 311.91094,437.93844 L 246.0432,566.75793 L 228.57639,572.95349 L 224.21333,552.93429 L 303.18481,433.20451 L 311.91094,437.93844"
       id="path305"
       style="fill:#d1d3d4;fill-opacity:1;fill-rule:nonzero;stroke:none" />
    <path
       d="M 311.91094,437.93844 L 246.0432,566.75793 L 228.57639,572.95349 L 224.21333,552.93429 L 303.18481,433.20451 L 311.91094,437.93844 z"
       id="path307"
       style="fill:none;stroke:#231f20;stroke-width:1.01077676;stroke-linecap:butt;stroke-linejoin:miter;stroke-miterlimit:3.86400008;stroke-dasharray:none;stroke-opacity:1" />
    <path
       d="M 384.69413,512.8959 L 390.15524,507.07848 L 398.52505,509.26001 L 378.14954,443.39227 L 369.77972,443.76313 L 384.69413,512.8959"
       id="path309"
       style="fill:#58595b;fill-opacity:1;fill-rule:nonzero;stroke:none" />
    <path
       d="M 384.69413,512.8959 L 390.15524,507.07848 L 398.52505,509.26001 L 378.14954,443.39227 L 369.77972,443.76313 L 384.69413,512.8959 z"
       id="path311"
       style="fill:none;stroke:#231f20;stroke-width:1.01077676;stroke-linecap:butt;stroke-linejoin:miter;stroke-miterlimit:3.86400008;stroke-dasharray:none;stroke-opacity:1" />
    <path
       d="M 314.09974,523.08365 L 326.83989,532.91509 L 339.20918,443.76313 L 332.65731,443.39227 L 314.09974,523.08365"
       id="path313"
       style="fill:#808285;fill-opacity:1;fill-rule:nonzero;stroke:none" />
    <path
       d="M 314.09974,523.08365 L 326.83989,532.91509 L 339.20918,443.76313 L 332.65731,443.39227 L 314.09974,523.08365 z"
       id="path315"
       style="fill:none;stroke:#231f20;stroke-width:1.01077676;stroke-linecap:butt;stroke-linejoin:miter;stroke-miterlimit:3.86400008;stroke-dasharray:none;stroke-opacity:1" />
    <path
       d="M 376.69518,532.54423 L 386.88294,524.18169 L 369.77972,444.48303 L 363.22785,445.21021 L 376.69518,532.54423"
       id="path317"
       style="fill:#808285;fill-opacity:1;fill-rule:nonzero;stroke:none" />
    <path
       d="M 376.69518,532.54423 L 386.88294,524.18169 L 369.77972,444.48303 L 363.22785,445.21021 L 376.69518,532.54423 z"
       id="path319"
       style="fill:none;stroke:#231f20;stroke-width:1.01077676;stroke-linecap:butt;stroke-linejoin:miter;stroke-miterlimit:3.86400008;stroke-dasharray:none;stroke-opacity:1" />
    <path
       d="M 340.29995,567.48511 L 322.46955,552.19984 L 338.482,444.48303 L 348.66976,447.39174 L 340.29995,567.48511"
       id="path321"
       style="fill:#a7a9ac;fill-opacity:1;fill-rule:nonzero;stroke:none" />
    <path
       d="M 340.29995,567.48511 L 322.46955,552.19984 L 338.482,444.48303 L 348.66976,447.39174 L 340.29995,567.48511 z"
       id="path323"
       style="fill:none;stroke:#231f20;stroke-width:1.01077676;stroke-linecap:butt;stroke-linejoin:miter;stroke-miterlimit:3.86400008;stroke-dasharray:none;stroke-opacity:1" />
    <path
       d="M 362.50068,566.75793 L 379.2403,551.84352 L 364.31862,446.66457 L 356.3124,445.93012 L 362.50068,566.75793"
       id="path325"
       style="fill:#a7a9ac;fill-opacity:1;fill-rule:nonzero;stroke:none" />
    <path
       d="M 362.50068,566.75793 L 379.2403,551.84352 L 364.31862,446.66457 L 356.3124,445.93012 L 362.50068,566.75793 z"
       id="path327"
       style="fill:none;stroke:#231f20;stroke-width:1.01077676;stroke-linecap:butt;stroke-linejoin:miter;stroke-miterlimit:3.86400008;stroke-dasharray:none;stroke-opacity:1" />
    <path
       d="M 356.3124,447.39174 L 363.95503,591.86737 L 351.58574,605.69102 L 338.11841,590.78388 L 346.48823,447.39174 L 356.3124,447.39174"
       id="path329"
       style="fill:#d1d3d4;fill-opacity:1;fill-rule:nonzero;stroke:none" />
    <path
       d="M 356.3124,447.39174 L 363.95503,591.86737 L 351.58574,605.69102 L 338.11841,590.78388 L 346.48823,447.39174 L 356.3124,447.39174 z"
       id="path331"
       style="fill:none;stroke:#231f20;stroke-width:1.01077676;stroke-linecap:butt;stroke-linejoin:miter;stroke-miterlimit:3.86400008;stroke-dasharray:none;stroke-opacity:1" />
    <path
       d="M 457.12101,476.13707 L 458.93896,467.77453 L 467.30877,465.58573 L 416.35544,419.01728 L 409.43998,423.37307 L 457.12101,476.13707"
       id="path333"
       style="fill:#58595b;fill-opacity:1;fill-rule:nonzero;stroke:none" />
    <path
       d="M 457.12101,476.13707 L 458.93896,467.77453 L 467.30877,465.58573 L 416.35544,419.01728 L 409.43998,423.37307 L 457.12101,476.13707 z"
       id="path335"
       style="fill:none;stroke:#231f20;stroke-width:1.01077676;stroke-linecap:butt;stroke-linejoin:miter;stroke-miterlimit:3.86400008;stroke-dasharray:none;stroke-opacity:1" />
    <path
       d="M 400.71385,519.44049 L 416.7263,522.35648 L 382.88346,438.65834 L 377.05877,441.56705 L 400.71385,519.44049"
       id="path337"
       style="fill:#808285;fill-opacity:1;fill-rule:nonzero;stroke:none" />
    <path
       d="M 400.71385,519.44049 L 416.7263,522.35648 L 382.88346,438.65834 L 377.05877,441.56705 L 400.71385,519.44049 z"
       id="path339"
       style="fill:none;stroke:#231f20;stroke-width:1.01077676;stroke-linecap:butt;stroke-linejoin:miter;stroke-miterlimit:3.86400008;stroke-dasharray:none;stroke-opacity:1" />
    <path
       d="M 460.02972,496.88345 L 464.39279,484.51416 L 409.80357,424.10025 L 404.34974,428.107 L 460.02972,496.88345"
       id="path341"
       style="fill:#808285;fill-opacity:1;fill-rule:nonzero;stroke:none" />
    <path
       d="M 460.02972,496.88345 L 464.39279,484.51416 L 409.80357,424.10025 L 404.34974,428.107 L 460.02972,496.88345 z"
       id="path343"
       style="fill:none;stroke:#231f20;stroke-width:1.01077676;stroke-linecap:butt;stroke-linejoin:miter;stroke-miterlimit:3.86400008;stroke-dasharray:none;stroke-opacity:1" />
    <path
       d="M 445.83522,545.29165 L 422.54372,541.28491 L 382.51987,439.38552 L 393.07122,437.21126 L 445.83522,545.29165"
       id="path345"
       style="fill:#a7a9ac;fill-opacity:1;fill-rule:nonzero;stroke:none" />
    <path
       d="M 445.83522,545.29165 L 422.54372,541.28491 L 382.51987,439.38552 L 393.07122,437.21126 L 445.83522,545.29165 z"
       id="path347"
       style="fill:none;stroke:#231f20;stroke-width:1.01077676;stroke-linecap:butt;stroke-linejoin:miter;stroke-miterlimit:3.86400008;stroke-dasharray:none;stroke-opacity:1" />
    <path
       d="M 464.75638,533.64227 L 472.03543,512.17599 L 406.16769,428.8269 L 398.88864,432.10647 L 464.75638,533.64227"
       id="path349"
       style="fill:#a7a9ac;fill-opacity:1;fill-rule:nonzero;stroke:none" />
    <path
       d="M 464.75638,533.64227 L 472.03543,512.17599 L 406.16769,428.8269 L 398.88864,432.10647 L 464.75638,533.64227 z"
       id="path351"
       style="fill:none;stroke:#231f20;stroke-width:1.01077676;stroke-linecap:butt;stroke-linejoin:miter;stroke-miterlimit:3.86400008;stroke-dasharray:none;stroke-opacity:1" />
    <path
       d="M 399.62309,433.20451 L 478.22371,554.75223 L 474.58782,572.95349 L 455.66666,566.39435 L 391.246,437.93844 L 399.62309,433.20451"
       id="path353"
       style="fill:#d1d3d4;fill-opacity:1;fill-rule:nonzero;stroke:none" />
    <path
       d="M 399.62309,433.20451 L 478.22371,554.75223 L 474.58782,572.95349 L 455.66666,566.39435 L 391.246,437.93844 L 399.62309,433.20451 z"
       id="path355"
       style="fill:none;stroke:#231f20;stroke-width:1.01077676;stroke-linecap:butt;stroke-linejoin:miter;stroke-miterlimit:3.86400008;stroke-dasharray:none;stroke-opacity:1" />
    <path
       d="M 501.15161,407.73148 L 498.60649,399.71799 L 504.79477,394.62774 L 437.47268,378.97888 L 433.45866,385.88707 L 501.15161,407.73148"
       id="path357"
       style="fill:#58595b;fill-opacity:1;fill-rule:nonzero;stroke:none" />
    <path
       d="M 501.15161,407.73148 L 498.60649,399.71799 L 504.79477,394.62774 L 437.47268,378.97888 L 433.45866,385.88707 L 501.15161,407.73148 z"
       id="path359"
       style="fill:none;stroke:#231f20;stroke-width:1.01077676;stroke-linecap:butt;stroke-linejoin:miter;stroke-miterlimit:3.86400008;stroke-dasharray:none;stroke-opacity:1" />
    <path
       d="M 474.58782,473.59922 L 489.50223,467.77453 L 418.54425,412.46541 L 414.54477,417.91924 L 474.58782,473.59922"
       id="path361"
       style="fill:#808285;fill-opacity:1;fill-rule:nonzero;stroke:none" />
    <path
       d="M 474.58782,473.59922 L 489.50223,467.77453 L 418.54425,412.46541 L 414.54477,417.91924 L 474.58782,473.59922 z"
       id="path363"
       style="fill:none;stroke:#231f20;stroke-width:1.01077676;stroke-linecap:butt;stroke-linejoin:miter;stroke-miterlimit:3.86400008;stroke-dasharray:none;stroke-opacity:1" />
    <path
       d="M 513.89176,424.47111 L 511.71023,411.36737 L 434.19311,386.25793 L 431.2844,392.43894 L 513.89176,424.47111"
       id="path365"
       style="fill:#808285;fill-opacity:1;fill-rule:nonzero;stroke:none" />
    <path
       d="M 513.89176,424.47111 L 511.71023,411.36737 L 434.19311,386.25793 L 431.2844,392.43894 L 513.89176,424.47111 z"
       id="path367"
       style="fill:none;stroke:#231f20;stroke-width:1.01077676;stroke-linecap:butt;stroke-linejoin:miter;stroke-miterlimit:3.86400008;stroke-dasharray:none;stroke-opacity:1" />
    <path
       d="M 525.89746,473.59922 L 504.0676,481.24186 L 418.54425,413.55617 L 426.18688,406.26986 L 525.89746,473.59922"
       id="path369"
       style="fill:#a7a9ac;fill-opacity:1;fill-rule:nonzero;stroke:none" />
    <path
       d="M 525.89746,473.59922 L 504.0676,481.24186 L 418.54425,413.55617 L 426.18688,406.26986 L 525.89746,473.59922 z"
       id="path371"
       style="fill:none;stroke:#231f20;stroke-width:1.01077676;stroke-linecap:butt;stroke-linejoin:miter;stroke-miterlimit:3.86400008;stroke-dasharray:none;stroke-opacity:1" />
    <path
       d="M 536.45608,453.57275 L 532.44933,431.74288 L 433.10234,392.08262 L 428.732,398.63449 L 536.45608,453.57275"
       id="path373"
       style="fill:#a7a9ac;fill-opacity:1;fill-rule:nonzero;stroke:none" />
    <path
       d="M 536.45608,453.57275 L 532.44933,431.74288 L 433.10234,392.08262 L 428.732,398.63449 L 536.45608,453.57275 z"
       id="path375"
       style="fill:none;stroke:#231f20;stroke-width:1.01077676;stroke-linecap:butt;stroke-linejoin:miter;stroke-miterlimit:3.86400008;stroke-dasharray:none;stroke-opacity:1" />
    <path
       d="M 429.82277,399.36167 L 559.0204,465.22941 L 564.83782,482.69621 L 545.18221,486.70296 L 425.09612,408.0878 L 429.82277,399.36167"
       id="path377"
       style="fill:#d1d3d4;fill-opacity:1;fill-rule:nonzero;stroke:none" />
    <path
       d="M 429.82277,399.36167 L 559.0204,465.22941 L 564.83782,482.69621 L 545.18221,486.70296 L 425.09612,408.0878 L 429.82277,399.36167 z"
       id="path379"
       style="fill:none;stroke:#231f20;stroke-width:1.01077676;stroke-linecap:butt;stroke-linejoin:miter;stroke-miterlimit:3.86400008;stroke-dasharray:none;stroke-opacity:1" />
    <path
       d="M 263.14641,263.25585 L 439.64694,263.25585 C 439.64694,263.25585 440.37412,363.69361 439.64694,363.32275 C 439.29062,429.19049 400.71385,462.68429 352.31292,462.68429 C 308.27505,462.68429 263.14641,429.19049 263.14641,362.95916 C 263.51,363.69361 263.14641,263.25585 263.14641,263.25585"
       id="path381"
       style="fill:#231f20;fill-opacity:1;fill-rule:nonzero;stroke:none" />
    <path
       d="M 263.14641,263.25585 L 439.64694,263.25585 C 439.64694,263.25585 440.37412,363.69361 439.64694,363.32275 C 439.29062,429.19049 400.71385,462.68429 352.31292,462.68429 C 308.27505,462.68429 263.14641,429.19049 263.14641,362.95916 C 263.51,363.69361 263.14641,263.25585 263.14641,263.25585 z"
       id="path383"
       style="fill:none;stroke:#231f20;stroke-width:1.59979057;stroke-linecap:butt;stroke-linejoin:miter;stroke-miterlimit:3.86400008;stroke-dasharray:none;stroke-opacity:1" />
    <path
       d="M 265.33522,266.15729 L 437.47268,266.15729 C 437.47268,266.15729 438.56344,363.32275 437.83627,362.95916 C 437.47268,425.92546 398.52505,460.13189 352.31292,460.13189 C 310.46385,460.13189 265.33522,426.28905 265.33522,362.95916 C 265.6988,363.32275 265.33522,266.15729 265.33522,266.15729"
       id="path385"
       style="fill:#231f20;fill-opacity:1;fill-rule:nonzero;stroke:none" />
    <path
       d="M 265.33522,266.15729 L 437.47268,266.15729 C 437.47268,266.15729 438.56344,363.32275 437.83627,362.95916 C 437.47268,425.92546 398.52505,460.13189 352.31292,460.13189 C 310.46385,460.13189 265.33522,426.28905 265.33522,362.95916 C 265.6988,363.32275 265.33522,266.15729 265.33522,266.15729 z"
       id="path387"
       style="fill:none;stroke:#231f20;stroke-width:0.79989529;stroke-linecap:butt;stroke-linejoin:miter;stroke-miterlimit:3.86400008;stroke-dasharray:none;stroke-opacity:1" />
    <path
       d="M 267.15316,282.16974 L 435.2766,282.16974 L 435.2766,300.72731 L 267.15316,300.72731 L 267.15316,282.16974 z"
       id="path389"
       style="fill:#ffde00;fill-opacity:1;fill-rule:nonzero;stroke:none" />
    <path
       d="M 267.15316,282.17701 L 435.2766,282.17701 L 435.2766,300.73458 L 267.15316,300.73458 L 267.15316,282.17701 z"
       id="path391"
       style="fill:none;stroke:#ffde00;stroke-width:2.18153262;stroke-linecap:butt;stroke-linejoin:miter;stroke-miterlimit:3.86400008;stroke-dasharray:none;stroke-opacity:1" />
    <path
       d="M 267.52402,321.47369 L 435.64746,321.47369 L 435.64746,340.03126 L 267.52402,340.03126 L 267.52402,321.47369 z"
       id="path393"
       style="fill:#ffde00;fill-opacity:1;fill-rule:nonzero;stroke:none" />
    <path
       d="M 267.52402,321.47369 L 435.64746,321.47369 L 435.64746,340.03126 L 267.52402,340.03126 L 267.52402,321.47369 z"
       id="path395"
       style="fill:none;stroke:#ffde00;stroke-width:2.18153262;stroke-linecap:butt;stroke-linejoin:miter;stroke-miterlimit:3.86400008;stroke-dasharray:none;stroke-opacity:1" />
    <path
       d="M 267.88761,360.05772 L 434.56397,360.05772 L 434.56397,378.97888 L 267.88761,378.97888 L 267.88761,360.05772 z"
       id="path397"
       style="fill:#ffde00;fill-opacity:1;fill-rule:nonzero;stroke:none" />
    <path
       d="M 267.88761,360.05045 L 434.56397,360.05045 L 434.56397,378.97161 L 267.88761,378.97161 L 267.88761,360.05045 z"
       id="path399"
       style="fill:none;stroke:#ffde00;stroke-width:2.18153262;stroke-linecap:butt;stroke-linejoin:miter;stroke-miterlimit:3.86400008;stroke-dasharray:none;stroke-opacity:1" />
    <path
       d="M 271.5235,398.99081 L 431.64799,398.99081 C 431.64799,398.99081 429.45918,409.90574 425.45971,415.36685 C 425.45971,415.73771 279.52972,416.1013 279.16613,415.36685 C 273.70503,408.82225 271.5235,398.99081 271.5235,398.99081"
       id="path401"
       style="fill:#ffde00;fill-opacity:1;fill-rule:nonzero;stroke:none" />
    <path
       d="M 271.5235,398.99081 L 431.64799,398.99081 C 431.64799,398.99081 429.45918,409.90574 425.45971,415.36685 C 425.45971,415.73771 279.52972,416.1013 279.16613,415.36685 C 273.70503,408.82225 271.5235,398.99081 271.5235,398.99081 z"
       id="path403"
       style="fill:none;stroke:#ffde00;stroke-width:2.18153262;stroke-linecap:butt;stroke-linejoin:miter;stroke-miterlimit:3.86400008;stroke-dasharray:none;stroke-opacity:1" />
    <path
       d="M 293.71695,435.02246 L 412.71956,435.02246 C 412.71956,435.02246 386.15576,460.49548 353.40368,460.13189 C 317.37204,459.76831 293.71695,435.02246 293.71695,435.02246"
       id="path405"
       style="fill:#ffde00;fill-opacity:1;fill-rule:nonzero;stroke:none" />
    <path
       d="M 293.71695,435.02246 L 412.71956,435.02246 C 412.71956,435.02246 386.15576,460.49548 353.40368,460.13189 C 317.37204,459.76831 293.71695,435.02246 293.71695,435.02246 z"
       id="path407"
       style="fill:none;stroke:#ffde00;stroke-width:2.18153262;stroke-linecap:butt;stroke-linejoin:miter;stroke-miterlimit:3.86400008;stroke-dasharray:none;stroke-opacity:1" />
    <path
       d="M 282.43843,267.25533 L 287.16508,272.34557"
       id="path409"
       style="fill:none;stroke:#231f20;stroke-width:0.45085007;stroke-linecap:butt;stroke-linejoin:miter;stroke-miterlimit:3.86400008;stroke-dasharray:none;stroke-opacity:1" />
    <path
       d="M 328.29425,308.37722 C 331.56654,309.11167 334.48253,308.74808 338.482,307.65004 C 337.39124,311.65679 338.482,315.29995 341.39071,314.92909 C 344.67028,314.92909 343.57224,310.92961 343.57224,307.28645 C 346.48823,308.37722 350.12411,309.83157 353.40368,309.83157 C 353.76727,313.46746 353.40368,315.65627 354.49445,319.65574 C 349.76053,318.93584 345.76105,319.29215 346.12464,322.93531 C 346.12464,326.5712 351.58574,324.75326 355.22163,324.75326 C 353.0401,327.66924 351.94933,331.66144 351.94933,334.22111 C 347.57899,335.67546 343.94311,334.57742 339.93636,335.67546 C 340.29995,332.39589 342.84507,330.21436 340.67081,327.66924 C 339.20918,325.48043 336.65679,328.39642 334.48253,325.48043 C 332.29372,323.2989 335.2097,319.65574 332.65731,318.19411 C 330.11219,316.38344 327.93066,319.65574 325.01467,319.65574 C 327.20348,315.29995 328.29425,311.28593 328.29425,308.37722"
       id="path411"
       style="fill:#008c4f;fill-opacity:1;fill-rule:nonzero;stroke:none" />
    <path
       d="M 328.29425,308.37722 C 331.56654,309.11167 334.48253,308.74808 338.482,307.65004 C 337.39124,311.65679 338.482,315.29995 341.39071,314.92909 C 344.67028,314.92909 343.57224,310.92961 343.57224,307.28645 C 346.48823,308.37722 350.12411,309.83157 353.40368,309.83157 C 353.76727,313.46746 353.40368,315.65627 354.49445,319.65574 C 349.76053,318.93584 345.76105,319.29215 346.12464,322.93531 C 346.12464,326.5712 351.58574,324.75326 355.22163,324.75326 C 353.0401,327.66924 351.94933,331.66144 351.94933,334.22111 C 347.57899,335.67546 343.94311,334.57742 339.93636,335.67546 C 340.29995,332.39589 342.84507,330.21436 340.67081,327.66924 C 339.20918,325.48043 336.65679,328.39642 334.48253,325.48043 C 332.29372,323.2989 335.2097,319.65574 332.65731,318.19411 C 330.11219,316.38344 327.93066,319.65574 325.01467,319.65574 C 327.20348,315.29995 328.29425,311.28593 328.29425,308.37722 z M 337.02765,321.1101 C 337.02765,319.29215 338.482,317.47421 339.93636,317.47421 C 341.7543,317.47421 343.20866,319.29215 343.20866,321.1101 C 343.20866,322.93531 341.7543,324.38967 339.93636,324.38967 C 338.482,324.38967 337.02765,322.93531 337.02765,321.1101 z"
       id="path413"
       style="fill:none;stroke:#231f20;stroke-width:1.59979057;stroke-linecap:butt;stroke-linejoin:miter;stroke-miterlimit:3.86400008;stroke-dasharray:none;stroke-opacity:1" />
    <path
       d="M 347.94258,316.38344 C 349.39694,314.5655 350.4877,313.11114 350.12411,312.74028 C 349.76053,312.74028 348.30617,313.83105 346.85182,315.29995 C 345.03387,316.74703 343.94311,318.56498 344.30669,318.56498 C 344.67028,318.93584 346.12464,317.8378 347.94258,316.38344"
       id="path415"
       style="fill:#231f20;fill-opacity:1;fill-rule:nonzero;stroke:none" />
    <path
       d="M 347.94258,316.38344 C 349.39694,314.5655 350.4877,313.11114 350.12411,312.74028 C 349.76053,312.74028 348.30617,313.83105 346.85182,315.29995 C 345.03387,316.74703 343.94311,318.56498 344.30669,318.56498 C 344.67028,318.93584 346.12464,317.8378 347.94258,316.38344 z"
       id="path417"
       style="fill:none;stroke:#231f20;stroke-width:0.45085007;stroke-linecap:butt;stroke-linejoin:miter;stroke-miterlimit:3.86400008;stroke-dasharray:none;stroke-opacity:1" />
    <path
       d="M 332.65731,316.02713 C 331.56654,314.5655 330.83937,313.46746 330.83937,313.11114 C 331.20296,313.11114 332.29372,313.83105 333.39176,315.29995 C 334.48253,316.38344 335.57329,317.8378 335.2097,318.19411 C 335.2097,318.19411 333.75535,317.47421 332.65731,316.02713"
       id="path419"
       style="fill:#231f20;fill-opacity:1;fill-rule:nonzero;stroke:none" />
    <path
       d="M 332.65731,316.02713 C 331.56654,314.5655 330.83937,313.46746 330.83937,313.11114 C 331.20296,313.11114 332.29372,313.83105 333.39176,315.29995 C 334.48253,316.38344 335.57329,317.8378 335.2097,318.19411 C 335.2097,318.19411 333.75535,317.47421 332.65731,316.02713 z"
       id="path421"
       style="fill:none;stroke:#231f20;stroke-width:0.45085007;stroke-linecap:butt;stroke-linejoin:miter;stroke-miterlimit:3.86400008;stroke-dasharray:none;stroke-opacity:1" />
    <path
       d="M 343.94311,328.39642 C 342.84507,326.94206 341.7543,325.48043 342.11789,325.48043 C 342.11789,325.10957 343.57224,326.21488 344.67028,327.66924 C 346.12464,328.76 346.85182,330.21436 346.85182,330.21436 C 346.48823,330.57795 345.39746,329.85077 343.94311,328.39642"
       id="path423"
       style="fill:#231f20;fill-opacity:1;fill-rule:nonzero;stroke:none" />
    <path
       d="M 343.94311,328.39642 C 342.84507,326.94206 341.7543,325.48043 342.11789,325.48043 C 342.11789,325.10957 343.57224,326.21488 344.67028,327.66924 C 346.12464,328.76 346.85182,330.21436 346.85182,330.21436 C 346.48823,330.57795 345.39746,329.85077 343.94311,328.39642 z"
       id="path425"
       style="fill:none;stroke:#231f20;stroke-width:0.45085007;stroke-linecap:butt;stroke-linejoin:miter;stroke-miterlimit:3.86400008;stroke-dasharray:none;stroke-opacity:1" />
    <path
       d="M 361.40991,345.49963 C 364.68221,346.21954 367.59092,345.85595 371.96126,344.76518 C 370.5069,349.13552 371.60494,352.41509 374.86997,352.41509 C 377.78595,352.0515 376.69518,348.40834 376.69518,344.40159 C 379.60389,345.49963 383.24705,346.96126 386.88294,346.96126 C 387.24653,350.96073 386.88294,353.13499 387.9737,356.78543 C 382.88346,356.0437 378.87671,356.41457 379.2403,360.05045 C 379.2403,363.69361 384.69413,361.8684 388.70088,361.8684 C 386.15576,365.15524 385.05772,369.15472 385.05772,371.34352 C 380.69466,372.78333 377.05877,371.70711 373.41561,372.78333 C 373.7792,369.87462 375.968,367.33677 374.14279,365.15524 C 372.68843,362.95916 370.5069,365.15524 367.95451,362.95916 C 365.78025,360.77763 368.32537,356.78543 365.78025,355.3238 C 363.22785,353.86944 361.03905,356.78543 358.5012,356.78543 C 360.31187,352.77868 361.40991,348.77193 361.40991,345.49963"
       id="path427"
       style="fill:#008c4f;fill-opacity:1;fill-rule:nonzero;stroke:none" />
    <path
       d="M 361.40991,345.49963 C 364.68221,346.21954 367.59092,345.85595 371.96126,344.76518 C 370.5069,349.13552 371.60494,352.41509 374.86997,352.41509 C 377.78595,352.0515 376.69518,348.40834 376.69518,344.40159 C 379.60389,345.49963 383.24705,346.96126 386.88294,346.96126 C 387.24653,350.96073 386.88294,353.13499 387.9737,356.78543 C 382.88346,356.0437 378.87671,356.41457 379.2403,360.05045 C 379.2403,363.69361 384.69413,361.8684 388.70088,361.8684 C 386.15576,365.15524 385.05772,369.15472 385.05772,371.34352 C 380.69466,372.78333 377.05877,371.70711 373.41561,372.78333 C 373.7792,369.87462 375.968,367.33677 374.14279,365.15524 C 372.68843,362.95916 370.5069,365.15524 367.95451,362.95916 C 365.78025,360.77763 368.32537,356.78543 365.78025,355.3238 C 363.22785,353.86944 361.03905,356.78543 358.5012,356.78543 C 360.31187,352.77868 361.40991,348.77193 361.40991,345.49963 z M 370.14331,358.23978 C 370.14331,356.41457 371.60494,354.96021 373.41561,354.96021 C 374.86997,354.96021 376.33159,356.41457 376.33159,358.23978 C 376.33159,360.05045 374.86997,361.51208 373.41561,361.51208 C 371.60494,361.51208 370.14331,360.05045 370.14331,358.23978 z"
       id="path429"
       style="fill:none;stroke:#231f20;stroke-width:1.59979057;stroke-linecap:butt;stroke-linejoin:miter;stroke-miterlimit:3.86400008;stroke-dasharray:none;stroke-opacity:1" />
    <path
       d="M 381.05825,353.50586 C 382.51987,352.0515 383.61064,350.23356 383.24705,350.23356 C 383.24705,349.86997 381.42183,350.96073 379.96748,352.41509 C 378.51312,354.22576 377.42236,355.68739 377.42236,356.0437 C 377.78595,356.0437 379.2403,354.96021 381.05825,353.50586"
       id="path431"
       style="fill:#231f20;fill-opacity:1;fill-rule:nonzero;stroke:none" />
    <path
       d="M 381.05825,353.50586 C 382.51987,352.0515 383.61064,350.23356 383.24705,350.23356 C 383.24705,349.86997 381.42183,350.96073 379.96748,352.41509 C 378.51312,354.22576 377.42236,355.68739 377.42236,356.0437 C 377.78595,356.0437 379.2403,354.96021 381.05825,353.50586 z"
       id="path433"
       style="fill:none;stroke:#231f20;stroke-width:0.45085007;stroke-linecap:butt;stroke-linejoin:miter;stroke-miterlimit:3.86400008;stroke-dasharray:none;stroke-opacity:1" />
    <path
       d="M 365.78025,353.13499 C 364.68221,352.0515 363.95503,350.58987 363.95503,350.23356 C 364.31862,350.23356 365.41666,350.96073 366.50015,352.41509 C 367.59092,353.86944 368.68896,354.96021 368.32537,355.3238 C 368.32537,355.3238 366.86374,354.58935 365.78025,353.13499"
       id="path435"
       style="fill:#231f20;fill-opacity:1;fill-rule:nonzero;stroke:none" />
    <path
       d="M 365.78025,353.13499 C 364.68221,352.0515 363.95503,350.58987 363.95503,350.23356 C 364.31862,350.23356 365.41666,350.96073 366.50015,352.41509 C 367.59092,353.86944 368.68896,354.96021 368.32537,355.3238 C 368.32537,355.3238 366.86374,354.58935 365.78025,353.13499 z"
       id="path437"
       style="fill:none;stroke:#231f20;stroke-width:0.45085007;stroke-linecap:butt;stroke-linejoin:miter;stroke-miterlimit:3.86400008;stroke-dasharray:none;stroke-opacity:1" />
    <path
       d="M 377.05877,365.51156 C 375.968,364.0572 374.86997,362.95916 375.24083,362.59557 C 375.60441,362.59557 376.69518,363.32275 377.78595,364.78438 C 379.2403,366.23873 379.96748,367.33677 379.96748,367.70036 C 379.60389,367.70036 378.51312,366.97318 377.05877,365.51156"
       id="path439"
       style="fill:#231f20;fill-opacity:1;fill-rule:nonzero;stroke:none" />
    <path
       d="M 377.05877,365.51156 C 375.968,364.0572 374.86997,362.95916 375.24083,362.59557 C 375.60441,362.59557 376.69518,363.32275 377.78595,364.78438 C 379.2403,366.23873 379.96748,367.33677 379.96748,367.70036 C 379.60389,367.70036 378.51312,366.97318 377.05877,365.51156 z"
       id="path441"
       style="fill:none;stroke:#231f20;stroke-width:0.45085007;stroke-linecap:butt;stroke-linejoin:miter;stroke-miterlimit:3.86400008;stroke-dasharray:none;stroke-opacity:1" />
    <path
       d="M 394.52557,382.97836 C 397.79787,383.70554 400.71385,383.34922 405.07692,382.25118 C 403.98615,386.25793 404.71333,389.5375 407.9929,389.5375 C 410.90161,389.17391 409.80357,385.52348 409.80357,381.89487 C 412.71956,382.97836 416.35544,384.43999 419.9986,384.43999 C 420.36219,388.08315 419.9986,390.25741 421.08937,394.26416 C 415.99185,393.53698 412.35597,393.90057 412.35597,397.53645 C 412.35597,401.17961 417.81707,399.36167 421.81655,399.36167 C 419.63501,402.27038 418.54425,406.26986 418.54425,408.82225 C 413.81759,410.26933 410.17443,409.17857 406.53855,410.26933 C 406.90214,407.00431 409.0764,404.44464 407.26572,402.27038 C 405.44051,400.45244 403.98615,403.71746 401.07744,400.45244 C 398.88864,398.26363 401.80462,394.26416 398.88864,392.43894 C 396.35079,390.98458 394.16198,394.26416 391.60959,394.26416 C 393.43481,389.89382 394.52557,385.88707 394.52557,382.97836"
       id="path443"
       style="fill:#008c4f;fill-opacity:1;fill-rule:nonzero;stroke:none" />
    <path
       d="M 394.52557,382.97836 C 397.79787,383.70554 400.71385,383.34922 405.07692,382.25118 C 403.98615,386.25793 404.71333,389.5375 407.9929,389.5375 C 410.90161,389.17391 409.80357,385.52348 409.80357,381.89487 C 412.71956,382.97836 416.35544,384.43999 419.9986,384.43999 C 420.36219,388.08315 419.9986,390.25741 421.08937,394.26416 C 415.99185,393.53698 412.35597,393.90057 412.35597,397.53645 C 412.35597,401.17961 417.81707,399.36167 421.81655,399.36167 C 419.63501,402.27038 418.54425,406.26986 418.54425,408.82225 C 413.81759,410.26933 410.17443,409.17857 406.53855,410.26933 C 406.90214,407.00431 409.0764,404.44464 407.26572,402.27038 C 405.44051,400.45244 403.98615,403.71746 401.07744,400.45244 C 398.88864,398.26363 401.80462,394.26416 398.88864,392.43894 C 396.35079,390.98458 394.16198,394.26416 391.60959,394.26416 C 393.43481,389.89382 394.52557,385.88707 394.52557,382.97836 z M 403.62256,395.72578 C 403.62256,393.90057 404.71333,392.08262 406.53855,392.08262 C 407.9929,392.08262 409.43998,393.90057 409.43998,395.72578 C 409.43998,397.53645 407.9929,398.99081 406.53855,398.99081 C 404.71333,398.99081 403.62256,397.53645 403.62256,395.72578 z"
       id="path445"
       style="fill:none;stroke:#231f20;stroke-width:1.59979057;stroke-linecap:butt;stroke-linejoin:miter;stroke-miterlimit:3.86400008;stroke-dasharray:none;stroke-opacity:1" />
    <path
       d="M 414.18118,390.621 C 415.62827,389.17391 416.7263,387.70501 416.35544,387.34143 C 416.35544,386.97784 414.90109,388.08315 413.09042,389.89382 C 411.62879,391.3409 410.53802,393.17339 410.53802,393.17339 C 410.90161,393.53698 412.35597,392.43894 414.18118,390.621"
       id="path447"
       style="fill:#231f20;fill-opacity:1;fill-rule:nonzero;stroke:none" />
    <path
       d="M 414.18118,390.621 C 415.62827,389.17391 416.7263,387.70501 416.35544,387.34143 C 416.35544,386.97784 414.90109,388.08315 413.09042,389.89382 C 411.62879,391.3409 410.53802,393.17339 410.53802,393.17339 C 410.90161,393.53698 412.35597,392.43894 414.18118,390.621 z"
       id="path449"
       style="fill:none;stroke:#231f20;stroke-width:0.45085007;stroke-linecap:butt;stroke-linejoin:miter;stroke-miterlimit:3.86400008;stroke-dasharray:none;stroke-opacity:1" />
    <path
       d="M 398.88864,390.25741 C 397.79787,389.17391 397.0707,387.70501 397.0707,387.70501 C 397.43428,387.34143 398.52505,388.44673 399.62309,389.5375 C 401.07744,390.98458 401.80462,392.43894 401.44103,392.8098 C 401.44103,392.8098 400.35027,392.08262 398.88864,390.25741"
       id="path451"
       style="fill:#231f20;fill-opacity:1;fill-rule:nonzero;stroke:none" />
    <path
       d="M 398.88864,390.25741 C 397.79787,389.17391 397.0707,387.70501 397.0707,387.70501 C 397.43428,387.34143 398.52505,388.44673 399.62309,389.5375 C 401.07744,390.98458 401.80462,392.43894 401.44103,392.8098 C 401.44103,392.8098 400.35027,392.08262 398.88864,390.25741 z"
       id="path453"
       style="fill:none;stroke:#231f20;stroke-width:0.45085007;stroke-linecap:butt;stroke-linejoin:miter;stroke-miterlimit:3.86400008;stroke-dasharray:none;stroke-opacity:1" />
    <path
       d="M 410.17443,402.63397 C 409.0764,401.55047 407.9929,400.08885 408.35649,400.08885 C 408.72008,399.71799 409.80357,400.45244 411.2652,401.90679 C 412.35597,403.35387 413.454,404.44464 413.09042,404.8155 C 412.71956,405.17909 411.62879,404.08832 410.17443,402.63397"
       id="path455"
       style="fill:#231f20;fill-opacity:1;fill-rule:nonzero;stroke:none" />
    <path
       d="M 410.17443,402.63397 C 409.0764,401.55047 407.9929,400.08885 408.35649,400.08885 C 408.72008,399.71799 409.80357,400.45244 411.2652,401.90679 C 412.35597,403.35387 413.454,404.44464 413.09042,404.8155 C 412.71956,405.17909 411.62879,404.08832 410.17443,402.63397 z"
       id="path457"
       style="fill:none;stroke:#231f20;stroke-width:0.45085007;stroke-linecap:butt;stroke-linejoin:miter;stroke-miterlimit:3.86400008;stroke-dasharray:none;stroke-opacity:1" />
    <path
       d="M 295.17131,270.89122 C 298.81447,271.61839 301.72318,271.26208 305.72993,270.16404 C 304.63916,274.53438 305.72993,278.17754 308.63864,277.81395 C 311.91094,277.81395 310.46385,273.8072 310.46385,269.79318 C 313.73615,270.89122 317.37204,272.34557 320.65161,272.34557 C 321.0152,276.34505 320.65161,278.54112 321.74238,282.17701 C 317.01572,281.44983 313.00897,282.17701 313.37256,285.44931 C 313.37256,289.09247 318.82639,287.26725 322.46955,287.26725 C 320.28802,290.54683 319.18998,294.5463 319.18998,296.72783 C 314.82692,298.18946 310.82744,297.09142 307.18428,298.18946 C 307.54787,295.27348 309.73667,292.72836 307.91146,290.54683 C 306.4571,288.35802 303.91198,290.17596 302.09404,288.35802 C 299.90523,286.18376 302.45763,282.17701 299.90523,280.72266 C 297.36011,279.2683 294.80772,282.17701 292.26987,282.17701 C 294.08054,278.17754 295.17131,274.17079 295.17131,270.89122"
       id="path459"
       style="fill:#008c4f;fill-opacity:1;fill-rule:nonzero;stroke:none" />
    <path
       d="M 295.17131,270.89122 C 298.81447,271.61839 301.72318,271.26208 305.72993,270.16404 C 304.63916,274.53438 305.72993,278.17754 308.63864,277.81395 C 311.91094,277.81395 310.46385,273.8072 310.46385,269.79318 C 313.73615,270.89122 317.37204,272.34557 320.65161,272.34557 C 321.0152,276.34505 320.65161,278.54112 321.74238,282.17701 C 317.01572,281.44983 313.00897,282.17701 313.37256,285.44931 C 313.37256,289.09247 318.82639,287.26725 322.46955,287.26725 C 320.28802,290.54683 319.18998,294.5463 319.18998,296.72783 C 314.82692,298.18946 310.82744,297.09142 307.18428,298.18946 C 307.54787,295.27348 309.73667,292.72836 307.91146,290.54683 C 306.4571,288.35802 303.91198,290.17596 302.09404,288.35802 C 299.90523,286.18376 302.45763,282.17701 299.90523,280.72266 C 297.36011,279.2683 294.80772,282.17701 292.26987,282.17701 C 294.08054,278.17754 295.17131,274.17079 295.17131,270.89122 z M 304.27557,283.63864 C 304.27557,281.80615 305.72993,280.35907 307.18428,280.35907 C 309.00223,280.35907 310.10026,281.80615 310.10026,283.63864 C 310.10026,285.44931 309.00223,286.90367 307.18428,286.90367 C 305.72993,286.90367 304.27557,285.44931 304.27557,283.63864 z"
       id="path461"
       style="fill:none;stroke:#231f20;stroke-width:1.59979057;stroke-linecap:butt;stroke-linejoin:miter;stroke-miterlimit:3.86400008;stroke-dasharray:none;stroke-opacity:1" />
    <path
       d="M 314.82692,279.2683 C 316.65213,277.44309 317.73563,275.61787 317.37204,275.61787 C 317.01572,275.25428 315.5541,276.34505 314.09974,278.17754 C 312.27452,279.63189 311.19103,281.08625 311.54735,281.44983 C 311.91094,281.80615 313.37256,280.72266 314.82692,279.2683"
       id="path463"
       style="fill:#231f20;fill-opacity:1;fill-rule:nonzero;stroke:none" />
    <path
       d="M 314.82692,279.2683 C 316.65213,277.44309 317.73563,275.61787 317.37204,275.61787 C 317.01572,275.25428 315.5541,276.34505 314.09974,278.17754 C 312.27452,279.63189 311.19103,281.08625 311.54735,281.44983 C 311.91094,281.80615 313.37256,280.72266 314.82692,279.2683 z"
       id="path465"
       style="fill:none;stroke:#231f20;stroke-width:0.45085007;stroke-linecap:butt;stroke-linejoin:miter;stroke-miterlimit:3.86400008;stroke-dasharray:none;stroke-opacity:1" />
    <path
       d="M 311.19103,290.91769 C 310.10026,289.45606 309.00223,288.35802 309.37309,288.0017 C 309.37309,288.0017 310.82744,288.72161 311.91094,290.17596 C 313.37256,291.63759 314.09974,292.72836 314.09974,293.09195 C 313.73615,293.09195 312.64538,292.36477 311.19103,290.91769"
       id="path467"
       style="fill:#231f20;fill-opacity:1;fill-rule:nonzero;stroke:none" />
    <path
       d="M 311.19103,290.91769 C 310.10026,289.45606 309.00223,288.35802 309.37309,288.0017 C 309.37309,288.0017 310.82744,288.72161 311.91094,290.17596 C 313.37256,291.63759 314.09974,292.72836 314.09974,293.09195 C 313.73615,293.09195 312.64538,292.36477 311.19103,290.91769 z"
       id="path469"
       style="fill:none;stroke:#231f20;stroke-width:0.45085007;stroke-linecap:butt;stroke-linejoin:miter;stroke-miterlimit:3.86400008;stroke-dasharray:none;stroke-opacity:1" />
    <path
       d="M 404.71333,402.27038 C 405.07692,402.27038 398.88864,408.45866 403.62256,414.28335 C 407.26572,419.01728 411.2652,417.55565 413.81759,416.46488 C 414.18118,410.99651 417.08989,410.99651 420.36219,413.55617 C 424.00535,409.17857 430.92081,415.00326 426.55047,417.55565 C 425.45971,420.10804 416.7263,436.48408 406.53855,443.76313 C 406.16769,444.12672 265.33522,289.81965 265.33522,289.81965 L 265.33522,265.7937 C 265.33522,265.7937 278.80254,269.066 284.61996,266.52815 C 287.16508,265.43739 291.53542,269.79318 289.71748,271.98198 C 288.62671,273.44361 285.35441,273.44361 285.35441,273.44361 C 285.35441,273.44361 278.07537,292.72836 300.63241,284.36582 C 300.996,284.36582 301.35959,290.17596 306.09352,289.81965 C 306.82069,289.45606 299.17806,296.37152 302.45763,301.46176 C 305.72993,306.55927 310.10026,305.10492 313.00897,304.01415 C 313.37256,298.18946 316.28854,298.18946 319.18998,300.72731 C 322.83314,296.37152 328.29425,302.19621 323.56032,305.10492 C 326.10544,308.74808 323.92391,311.65679 320.28802,310.20243 C 314.09974,321.47369 323.56032,326.94206 333.75535,322.579 C 333.75535,322.579 332.29372,327.30565 338.482,326.5712 C 339.57277,326.5712 331.93013,333.85025 336.2932,339.67494 C 339.93636,344.40159 344.30669,342.95451 346.85182,341.85647 C 347.22268,336.39537 350.12411,336.39537 353.0401,338.94776 C 357.03957,334.57742 362.13709,340.40212 357.77402,342.95451 C 360.31187,346.59767 358.13761,349.86997 354.13086,348.40834 C 347.94258,359.33055 357.03957,365.15524 366.86374,360.41404 C 366.86374,360.41404 367.22733,363.69361 372.32484,364.78438 C 372.68843,364.78438 365.05307,370.61634 369.41613,376.07017 C 373.41561,381.15314 377.42236,379.70606 379.96748,378.60802 C 380.33107,372.78333 383.24705,372.78333 386.15576,375.343 C 390.15524,370.97993 395.25275,376.79735 390.88241,379.70606 C 393.43481,383.34922 391.246,386.25793 387.61012,384.80358 C 381.05825,396.0821 390.88241,400.45244 400.35027,397.53645 C 400.71385,397.17287 398.16146,400.45244 404.71333,402.27038"
       id="path471"
       style="fill:#008c4f;fill-opacity:1;fill-rule:nonzero;stroke:none" />
    <path
       d="M 404.71333,402.27038 C 405.07692,402.27038 398.88864,408.45866 403.62256,414.28335 C 407.26572,419.01728 411.2652,417.55565 413.81759,416.46488 C 414.18118,410.99651 417.08989,410.99651 420.36219,413.55617 C 424.00535,409.17857 430.92081,415.00326 426.55047,417.55565 C 425.45971,420.10804 416.7263,436.48408 406.53855,443.76313 C 406.16769,444.12672 265.33522,289.81965 265.33522,289.81965 L 265.33522,265.7937 C 265.33522,265.7937 278.80254,269.066 284.61996,266.52815 C 287.16508,265.43739 291.53542,269.79318 289.71748,271.98198 C 288.62671,273.44361 285.35441,273.44361 285.35441,273.44361 C 285.35441,273.44361 278.07537,292.72836 300.63241,284.36582 C 300.996,284.36582 301.35959,290.17596 306.09352,289.81965 C 306.82069,289.45606 299.17806,296.37152 302.45763,301.46176 C 305.72993,306.55927 310.10026,305.10492 313.00897,304.01415 C 313.37256,298.18946 316.28854,298.18946 319.18998,300.72731 C 322.83314,296.37152 328.29425,302.19621 323.56032,305.10492 C 326.10544,308.74808 323.92391,311.65679 320.28802,310.20243 C 314.09974,321.47369 323.56032,326.94206 333.75535,322.579 C 333.75535,322.579 332.29372,327.30565 338.482,326.5712 C 339.57277,326.5712 331.93013,333.85025 336.2932,339.67494 C 339.93636,344.40159 344.30669,342.95451 346.85182,341.85647 C 347.22268,336.39537 350.12411,336.39537 353.0401,338.94776 C 357.03957,334.57742 362.13709,340.40212 357.77402,342.95451 C 360.31187,346.59767 358.13761,349.86997 354.13086,348.40834 C 347.94258,359.33055 357.03957,365.15524 366.86374,360.41404 C 366.86374,360.41404 367.22733,363.69361 372.32484,364.78438 C 372.68843,364.78438 365.05307,370.61634 369.41613,376.07017 C 373.41561,381.15314 377.42236,379.70606 379.96748,378.60802 C 380.33107,372.78333 383.24705,372.78333 386.15576,375.343 C 390.15524,370.97993 395.25275,376.79735 390.88241,379.70606 C 393.43481,383.34922 391.246,386.25793 387.61012,384.80358 C 381.05825,396.0821 390.88241,400.45244 400.35027,397.53645 C 400.71385,397.17287 398.16146,400.45244 404.71333,402.27038 z M 265.33522,268.70968 C 265.33522,268.70968 276.97733,271.98198 282.80202,270.16404 C 275.15938,284.72213 286.08159,293.81185 299.54165,289.09247 C 292.26987,302.92339 302.45763,313.11114 317.01572,307.65004 C 309.00223,321.47369 320.28802,332.39589 333.75535,326.5712 C 325.74185,339.67494 338.482,351.32432 350.12411,345.12877 C 343.20866,358.60337 353.40368,369.87462 367.95451,363.69361 C 360.31187,376.07017 370.87049,388.08315 385.05772,381.524 C 375.60441,393.90057 386.88294,407.36062 400.35027,400.80875 C 392.70763,412.46541 404.71333,425.92546 417.45348,419.37359 C 412.35597,431.02298 417.45348,431.02298 417.45348,431.02298 L 415.62827,429.56862"
       id="path473"
       style="fill:none;stroke:#231f20;stroke-width:1.59979057;stroke-linecap:butt;stroke-linejoin:miter;stroke-miterlimit:3.86400008;stroke-dasharray:none;stroke-opacity:1" />
    <path
       d="M 263.51,281.80615 L 410.17443,441.93791 M 264.24445,272.34557 L 413.454,437.21126"
       id="path475"
       style="fill:none;stroke:#231f20;stroke-width:2.41422939;stroke-linecap:butt;stroke-linejoin:miter;stroke-miterlimit:3.86400008;stroke-dasharray:none;stroke-opacity:1" />
    <path
       d="M 266.06239,267.62619 L 415.26468,433.5681 M 265.33522,266.15729 L 437.47268,266.15729 C 437.47268,266.15729 438.56344,363.32275 437.83627,362.95916 C 437.47268,429.56862 403.62256,460.13189 352.31292,460.13189 C 305.35907,460.13189 265.6988,429.56862 265.33522,362.95916 C 265.6988,363.32275 265.33522,266.15729 265.33522,266.15729 z"
       id="path477"
       style="fill:none;stroke:#231f20;stroke-width:1.59979057;stroke-linecap:butt;stroke-linejoin:miter;stroke-miterlimit:3.86400008;stroke-dasharray:none;stroke-opacity:1" />
    <path
       d="M 300.996,278.17754 C 299.54165,276.72318 298.81447,275.25428 299.17806,275.25428 C 299.17806,274.89069 300.26882,275.61787 301.72318,277.44309 C 302.82122,278.54112 303.54839,280.00275 303.54839,280.00275 C 303.18481,280.35907 302.09404,279.63189 300.996,278.17754"
       id="path479"
       style="fill:#231f20;fill-opacity:1;fill-rule:nonzero;stroke:none" />
    <path
       d="M 300.996,278.17754 C 299.54165,276.72318 298.81447,275.25428 299.17806,275.25428 C 299.17806,274.89069 300.26882,275.61787 301.72318,277.44309 C 302.82122,278.54112 303.54839,280.00275 303.54839,280.00275 C 303.18481,280.35907 302.09404,279.63189 300.996,278.17754 z"
       id="path481"
       style="fill:none;stroke:#231f20;stroke-width:0.45085007;stroke-linecap:butt;stroke-linejoin:miter;stroke-miterlimit:3.86400008;stroke-dasharray:none;stroke-opacity:1" />
  </g>
</svg>
