<?xml version="1.0" encoding="UTF-8" standalone="no"?>
<!-- Creator: CorelDRAW X6 -->

<svg
   xmlns:dc="http://purl.org/dc/elements/1.1/"
   xmlns:cc="http://creativecommons.org/ns#"
   xmlns:rdf="http://www.w3.org/1999/02/22-rdf-syntax-ns#"
   xmlns:svg="http://www.w3.org/2000/svg"
   xmlns="http://www.w3.org/2000/svg"
   xmlns:sodipodi="http://sodipodi.sourceforge.net/DTD/sodipodi-0.dtd"
   xmlns:inkscape="http://www.inkscape.org/namespaces/inkscape"
   xml:space="preserve"
   width="39.968502"
   height="39.968502"
   version="1.1"
   style="fill-rule:evenodd"
   viewBox="0 0 1128 1128"
   id="svg3274"
   inkscape:version="0.48.2 r9819"
   sodipodi:docname="E:\Polizeistern_TH.svg"><metadata
   id="metadata3561"><rdf:RDF><cc:Work
       rdf:about=""><dc:format>image/svg+xml</dc:format><dc:type
         rdf:resource="http://purl.org/dc/dcmitype/StillImage" /><dc:title></dc:title></cc:Work></rdf:RDF></metadata><sodipodi:namedview
   pagecolor="#ffffff"
   bordercolor="#666666"
   borderopacity="1"
   objecttolerance="10"
   gridtolerance="10"
   guidetolerance="10"
   inkscape:pageopacity="0"
   inkscape:pageshadow="2"
   inkscape:window-width="1920"
   inkscape:window-height="1017"
   id="namedview3559"
   showgrid="false"
   fit-margin-top="0"
   fit-margin-left="0"
   fit-margin-right="0"
   fit-margin-bottom="0"
   inkscape:zoom="17.781781"
   inkscape:cx="25.247618"
   inkscape:cy="17.359279"
   inkscape:window-x="-4"
   inkscape:window-y="-4"
   inkscape:window-maximized="1"
   inkscape:current-layer="svg3274" />
 <defs
   id="defs3276">
  <style
   type="text/css"
   id="style3278">
   
    .fil3 {fill:#007DB4}
    .fil1 {fill:#1F1A17}
    .fil4 {fill:#D9D4D3}
    .fil5 {fill:#DA251D}
    .fil0 {fill:#DEDEDD}
    .fil6 {fill:#F8C300}
    .fil2 {fill:white}
   
  </style>
 </defs>
 <g
   id="Ebene_x0020_1"
   transform="translate(-2274.0001,-28571)">
  <metadata
   id="CorelCorpID_0Corel-Layer" />
  <g
   id="_274073688">
   <path
   class="fil0"
   d="m 2765,29457 c -4,14 -12,23 -19,22 -7,-2 -9,-14 -6,-28 l 95,-315 75,-321 c 4,-14 12,-24 19,-22 7,2 10,15 6,28 l -94,316 -76,320 z"
   id="path3283"
   inkscape:connector-curvature="0"
   style="fill:#dededd" />
   <path
   class="fil1"
   d="m 2928,28796 c -5,0 -11,8 -15,20 l -75,320 -95,315 c -2,9 -2,17 1,22 1,2 2,2 3,3 0,0 1,0 1,0 5,0 12,-7 15,-20 l 76,-320 94,-316 c 2,-9 2,-17 -1,-22 -1,-2 -2,-3 -3,-3 0,0 -1,0 -1,0 z m -180,686 c -1,0 -2,0 -2,0 -3,-1 -5,-3 -6,-5 -4,-6 -4,-16 -1,-26 l 95,-315 75,-320 c 4,-15 14,-26 23,-24 3,1 5,3 7,5 3,6 4,16 1,26 l -94,316 -76,320 c -4,14 -12,24 -20,24 z"
   id="path3285"
   inkscape:connector-curvature="0"
   style="fill:#1f1a17" />
   <path
   class="fil0"
   d="m 3094,28898 c 11,-11 15,-24 10,-29 -5,-5 -18,-1 -29,10 l -238,254 -254,238 c -11,11 -15,24 -10,29 5,5 18,1 29,-10 l 239,-253 253,-239 z"
   id="path3287"
   inkscape:connector-curvature="0"
   style="fill:#dededd" />
   <path
   class="fil1"
   d="m 3097,28870 c -6,0 -14,4 -21,11 l -238,254 -254,239 c -10,10 -13,21 -10,25 1,1 2,1 4,1 l 0,0 c 6,0 14,-4 21,-11 l 239,-253 253,-239 c 10,-10 13,-21 10,-25 -1,-1 -2,-1 -4,-1 z m -519,536 0,0 c -3,0 -6,-1 -8,-3 -6,-7 -2,-21 10,-33 l 254,-239 238,-254 c 12,-12 27,-16 33,-10 7,7 2,21 -10,33 l -253,239 -239,253 c -8,8 -17,13 -25,13 z"
   id="path3289"
   inkscape:connector-curvature="0"
   style="fill:#1f1a17" />
   <path
   class="fil0"
   d="m 3178,29058 c 15,-4 25,-13 23,-20 -2,-7 -15,-10 -30,-6 l -334,101 -339,79 c -15,4 -25,13 -23,20 2,7 15,10 30,6 l 334,-99 339,-81 z"
   id="path3291"
   inkscape:connector-curvature="0"
   style="fill:#dededd" />
   <path
   class="fil1"
   d="m 3183,29033 c -4,0 -8,1 -12,2 l -334,101 -339,79 c -7,2 -12,5 -16,8 -3,3 -5,6 -4,9 1,5 14,7 26,4 l 334,-99 339,-81 c 14,-4 22,-12 21,-17 -1,-4 -7,-6 -15,-6 z m -691,210 c -11,0 -18,-4 -20,-10 -1,-5 1,-10 6,-14 5,-4 11,-8 19,-10 l 339,-79 333,-101 c 5,-1 9,-2 14,-2 11,0 18,4 20,10 2,9 -9,19 -25,24 l -339,81 -334,99 c -5,1 -9,2 -14,2 z"
   id="path3293"
   inkscape:connector-curvature="0"
   style="fill:#1f1a17" />
   <path
   class="fil0"
   d="m 3171,29238 c 15,4 28,1 30,-6 2,-7 -8,-16 -23,-20 l -339,-79 -334,-101 c -15,-4 -28,-1 -30,6 -2,7 8,16 23,20 l 339,81 334,99 z"
   id="path3295"
   inkscape:connector-curvature="0"
   style="fill:#dededd" />
   <path
   class="fil1"
   d="m 2492,29033 c -8,0 -14,2 -14,6 0,1 0,3 1,4 3,5 11,10 20,12 l 339,81 334,99 c 4,1 8,2 12,2 l 0,0 c 8,0 13,-2 14,-6 1,-5 -7,-13 -21,-17 l -339,-79 -334,-101 c -4,-1 -8,-2 -12,-2 z m 691,210 0,0 c -4,0 -9,-1 -14,-2 l -334,-99 -339,-81 c -11,-3 -20,-9 -24,-15 -2,-3 -2,-6 -1,-9 2,-6 9,-10 20,-10 4,0 9,1 14,2 l 334,101 339,79 c 17,4 27,15 25,24 -2,6 -9,10 -20,10 z"
   id="path3297"
   inkscape:connector-curvature="0"
   style="fill:#1f1a17" />
   <path
   class="fil0"
   d="m 3074,29391 c 11,11 24,15 29,10 5,-5 1,-18 -10,-29 l -254,-238 -238,-254 c -11,-11 -24,-15 -29,-10 -5,5 -1,18 10,29 l 253,239 240,253 z"
   id="path3299"
   inkscape:connector-curvature="0"
   style="fill:#dededd" />
   <path
   class="fil1"
   d="m 2578,28870 c -2,0 -3,0 -4,1 -3,4 0,15 10,25 l 253,239 240,253 c 7,7 15,11 21,11 2,0 3,0 4,-1 1,-1 1,-2 1,-4 0,-6 -4,-14 -11,-21 l -254,-238 -239,-254 c -7,-7 -15,-11 -21,-11 z m 519,536 0,0 c -7,0 -17,-5 -25,-13 l -240,-253 -253,-239 c -12,-12 -16,-27 -10,-33 7,-6 22,-2 33,10 l 239,254 254,238 c 8,8 13,17 13,25 0,3 -1,6 -3,8 -2,2 -5,3 -8,3 z"
   id="path3301"
   inkscape:connector-curvature="0"
   style="fill:#1f1a17" />
   <path
   class="fil0"
   d="m 2941,29468 c 4,15 1,28 -6,30 -7,2 -16,-8 -20,-23 l -79,-339 -101,-333 c -4,-15 -1,-28 6,-30 7,-2 16,8 20,23 l 81,339 99,334 z"
   id="path3303"
   inkscape:connector-curvature="0"
   style="fill:#dededd" />
   <path
   class="fil1"
   d="m 2742,28775 c 0,0 -1,0 -1,0 -1,0 -2,1 -3,3 -3,5 -3,14 -1,23 l 101,333 80,339 c 4,14 12,22 17,21 5,-1 8,-13 4,-27 l -99,-334 -81,-339 c -4,-13 -11,-21 -16,-21 z m 191,726 c -9,0 -17,-10 -21,-25 l -79,-339 -101,-333 c -3,-11 -3,-21 1,-28 2,-3 4,-5 7,-6 1,0 2,0 3,0 8,0 17,10 21,25 l 81,339 99,334 c 4,17 1,31 -8,34 -1,0 -2,0 -3,0 z"
   id="path3305"
   inkscape:connector-curvature="0"
   style="fill:#1f1a17" />
   <path
   class="fil0"
   d="m 2971,29483 c 5,15 3,30 -4,32 -8,3 -18,-8 -23,-23 l -108,-356 -131,-349 c -5,-15 -3,-30 4,-32 8,-3 18,8 23,23 l 110,356 129,349 z"
   id="path3307"
   inkscape:connector-curvature="0"
   style="fill:#dededd" />
   <path
   class="fil1"
   d="m 2711,28757 c -1,0 -1,0 -2,0 -1,0 -3,2 -4,4 -3,6 -2,15 1,25 l 131,349 108,356 c 5,15 14,23 20,21 1,0 3,-2 3,-3 3,-6 3,-16 -1,-25 l -129,-349 -110,-356 c -5,-13 -13,-21 -18,-21 z m 253,761 c -9,0 -18,-10 -23,-25 l -108,-356 -131,-348 c -4,-11 -4,-23 -1,-30 2,-3 4,-5 7,-6 10,-3 21,8 27,25 l 110,356 129,349 c 4,11 4,23 1,30 -2,3 -4,5 -7,6 -1,0 -2,1 -4,1 z"
   id="path3309"
   inkscape:connector-curvature="0"
   style="fill:#1f1a17" />
   <path
   class="fil0"
   d="m 3017,29515 c 7,17 6,33 -2,37 -8,4 -21,-7 -28,-24 l -152,-392 -176,-381 c -7,-17 -6,-33 2,-37 8,-4 21,7 28,24 l 153,391 175,382 z"
   id="path3311"
   inkscape:connector-curvature="0"
   style="fill:#dededd" />
   <path
   class="fil1"
   d="m 2664,28720 c -1,0 -2,0 -2,0 -6,3 -8,17 -1,33 l 176,381 152,392 c 6,15 16,23 22,23 1,0 2,0 2,0 6,-3 8,-17 1,-33 l -175,-382 -154,-391 c -6,-15 -16,-23 -22,-23 z m 347,835 c -10,0 -21,-11 -27,-26 l -152,-392 -176,-381 c -8,-19 -6,-36 4,-41 10,-4 24,7 32,25 l 154,391 174,382 c 8,19 6,36 -4,41 -1,1 -3,1 -5,1 z"
   id="path3313"
   inkscape:connector-curvature="0"
   style="fill:#1f1a17" />
   <path
   class="fil0"
   d="m 2780,29503 c -3,16 -12,27 -20,26 -8,-2 -12,-16 -9,-31 l 84,-363 61,-367 c 3,-16 12,-27 20,-26 8,2 12,16 9,32 l -82,363 -63,367 z"
   id="path3315"
   inkscape:connector-curvature="0"
   style="fill:#dededd" />
   <path
   class="fil1"
   d="m 2915,28744 c -5,0 -13,9 -16,24 l -61,367 -84,363 c -2,10 -1,20 2,25 1,2 2,3 4,3 6,1 14,-8 17,-24 l 63,-367 83,-363 c 3,-15 -1,-27 -6,-28 0,0 -1,0 -1,0 z m -154,788 c -1,0 -1,0 -2,0 -3,-1 -6,-3 -8,-6 -4,-7 -5,-18 -3,-29 l 84,-363 61,-367 c 3,-17 12,-28 22,-28 1,0 1,0 2,0 10,2 14,17 11,35 l -82,363 -63,367 c -3,16 -12,28 -21,28 z"
   id="path3317"
   inkscape:connector-curvature="0"
   style="fill:#1f1a17" />
   <path
   class="fil0"
   d="m 2803,29554 c -2,18 -12,32 -20,31 -9,-1 -15,-17 -12,-35 l 64,-415 38,-418 c 2,-18 11,-32 20,-31 9,1 15,17 12,35 l -63,415 -40,418 z"
   id="path3319"
   inkscape:connector-curvature="0"
   style="fill:#dededd" />
   <path
   class="fil1"
   d="m 2892,28688 c -7,0 -15,11 -17,28 l -38,418 -64,415 c -1,12 0,23 5,28 2,2 3,3 5,3 l 1,0 c 6,0 14,-11 17,-28 l 40,-418 63,-415 c 1,-12 -1,-23 -5,-28 -2,-2 -3,-3 -5,-3 l 0,0 z m -109,899 c 0,0 -1,0 -1,0 -3,0 -6,-2 -9,-5 -5,-7 -8,-19 -6,-33 l 64,-415 38,-418 c 2,-20 13,-35 24,-33 3,0 6,2 9,5 5,7 8,19 6,33 l -63,415 -40,418 c -2,19 -12,33 -22,33 z"
   id="path3321"
   inkscape:connector-curvature="0"
   style="fill:#1f1a17" />
   <path
   class="fil0"
   d="m 2603,29424 c -11,12 -24,18 -30,12 -6,-5 -2,-20 8,-32 l 254,-272 237,-288 c 11,-12 24,-18 30,-12 6,5 2,20 -8,32 l -253,273 -238,287 z"
   id="path3323"
   inkscape:connector-curvature="0"
   style="fill:#dededd" />
   <path
   class="fil1"
   d="m 3096,28834 c -5,0 -14,4 -22,13 l -236,288 -254,272 c -10,12 -13,24 -9,28 4,3 15,0 26,-12 l 238,-287 253,-273 c 10,-12 13,-24 8,-28 -1,-1 -2,-1 -4,-1 z m -517,608 c -3,0 -6,-1 -8,-3 -7,-7 -4,-22 8,-36 l 254,-272 236,-287 c 8,-9 19,-15 26,-15 3,0 6,1 8,3 8,7 4,22 -8,36 l -253,273 -238,287 c -8,10 -19,15 -27,15 z"
   id="path3325"
   inkscape:connector-curvature="0"
   style="fill:#1f1a17" />
   <path
   class="fil0"
   d="m 2598,29480 c -11,15 -26,22 -33,16 -7,-5 -4,-22 7,-36 l 263,-327 242,-343 c 11,-15 26,-22 33,-17 7,6 4,22 -7,36 l -262,328 -243,342 z"
   id="path3327"
   inkscape:connector-curvature="0"
   style="fill:#dededd" />
   <path
   class="fil1"
   d="m 3104,28774 c -7,0 -17,7 -25,17 l -242,343 -263,327 c -7,9 -11,20 -10,27 0,2 1,4 3,5 1,1 3,1 4,1 7,0 17,-7 25,-17 l 243,-342 262,-328 c 11,-14 12,-28 7,-32 -1,-1 -3,-1 -4,-1 z m -533,727 c -3,0 -6,-1 -8,-2 -3,-2 -4,-5 -5,-9 -1,-9 3,-21 11,-31 l 263,-327 242,-343 c 12,-16 29,-24 37,-17 9,7 6,24 -6,40 l -262,328 -243,342 c -9,12 -20,19 -29,19 z"
   id="path3329"
   inkscape:connector-curvature="0"
   style="fill:#1f1a17" />
   <path
   class="fil0"
   d="m 2490,29268 c -15,5 -30,3 -32,-4 -3,-8 8,-18 23,-23 l 356,-108 349,-131 c 15,-5 30,-3 32,4 3,8 -8,18 -23,23 l -356,110 -349,129 z"
   id="path3331"
   inkscape:connector-curvature="0"
   style="fill:#dededd" />
   <path
   class="fil1"
   d="m 3202,29001 c -5,0 -10,1 -16,3 l -349,131 -356,108 c -15,5 -23,14 -21,20 2,5 16,7 29,3 l 349,-129 356,-110 c 15,-5 23,-14 21,-20 -1,-3 -6,-5 -13,-5 z m -728,273 c -10,0 -17,-3 -19,-9 -3,-9 8,-21 25,-27 l 356,-108 348,-131 c 6,-2 12,-3 18,-3 10,0 17,3 19,9 3,9 -8,21 -25,27 l -356,110 -349,129 c -6,2 -12,3 -17,3 z"
   id="path3333"
   inkscape:connector-curvature="0"
   style="fill:#1f1a17" />
   <path
   class="fil0"
   d="m 2458,29314 c -17,7 -33,6 -37,-2 -4,-8 7,-21 24,-28 l 392,-152 381,-176 c 17,-7 33,-6 37,2 4,8 -7,21 -24,28 l -391,154 -382,175 z"
   id="path3335"
   inkscape:connector-curvature="0"
   style="fill:#dededd" />
   <path
   class="fil1"
   d="m 3239,28954 c -6,0 -13,2 -20,4 l -381,176 -392,152 c -16,7 -25,18 -22,24 3,6 19,7 33,1 l 382,-175 391,-154 c 11,-5 19,-12 22,-18 1,-2 1,-4 0,-6 -1,-3 -6,-5 -13,-5 z m -802,368 c -9,0 -16,-3 -18,-9 -4,-10 7,-24 25,-32 l 392,-152 381,-176 c 8,-3 16,-5 22,-5 9,0 16,3 18,9 1,3 1,7 0,10 -3,8 -13,16 -25,22 l -391,154 -382,175 c -8,3 -16,5 -22,5 z"
   id="path3337"
   inkscape:connector-curvature="0"
   style="fill:#1f1a17" />
   <path
   class="fil0"
   d="m 2470,29077 c -16,-3 -27,-12 -26,-20 2,-8 16,-12 32,-9 l 363,84 367,61 c 16,3 27,12 26,20 -2,8 -16,12 -31,9 l -363,-83 -367,-63 z"
   id="path3339"
   inkscape:connector-curvature="0"
   style="fill:#dededd" />
   <path
   class="fil1"
   d="m 2465,29050 c -10,0 -17,3 -18,7 -1,5 8,14 24,17 l 367,63 363,83 c 3,1 7,1 10,1 10,0 17,-3 18,-7 1,-3 -1,-6 -5,-9 -5,-4 -11,-6 -18,-8 l -367,-61 -363,-84 c -3,-1 -7,-1 -10,-1 z m 746,176 c -4,0 -7,0 -11,-1 l -363,-83 -367,-63 c -18,-3 -30,-14 -28,-23 2,-7 11,-12 24,-12 4,0 8,0 12,1 l 363,84 367,61 c 8,2 16,5 21,9 6,4 8,10 7,15 -2,7 -11,12 -24,12 z"
   id="path3341"
   inkscape:connector-curvature="0"
   style="fill:#1f1a17" />
   <path
   class="fil0"
   d="m 2419,29100 c -18,-2 -32,-11 -31,-20 1,-9 17,-15 35,-12 l 415,64 418,38 c 18,2 32,11 31,20 -1,9 -17,15 -35,12 l -416,-63 -418,-40 z"
   id="path3343"
   inkscape:connector-curvature="0"
   style="fill:#dededd" />
   <path
   class="fil1"
   d="m 2415,29070 c -13,0 -23,4 -24,10 -1,6 11,15 28,17 l 418,40 416,63 c 2,0 5,0 7,0 13,0 23,-4 24,-10 1,-6 -11,-15 -28,-17 l -418,-38 -415,-65 c -2,0 -5,0 -7,0 z m 845,136 c -3,0 -5,0 -8,-1 l -416,-63 -418,-40 c -20,-2 -35,-13 -33,-24 1,-9 13,-15 30,-15 3,0 5,0 8,1 l 415,64 418,38 c 20,2 35,13 33,24 -1,9 -13,15 -30,15 z"
   id="path3345"
   inkscape:connector-curvature="0"
   style="fill:#1f1a17" />
   <path
   class="fil0"
   d="m 2548,28901 c -12,-11 -18,-24 -12,-30 5,-6 19,-2 32,8 l 272,254 288,236 c 12,11 18,24 12,30 -5,6 -19,2 -32,-8 l -273,-253 -287,-238 z"
   id="path3347"
   inkscape:connector-curvature="0"
   style="fill:#dededd" />
   <path
   class="fil1"
   d="m 2544,28870 c -3,0 -4,1 -5,2 -2,2 -2,6 0,10 2,5 6,11 12,16 l 287,238 273,253 c 7,6 16,10 22,10 3,0 4,-1 6,-2 1,-1 1,-3 1,-5 0,-6 -6,-15 -13,-21 l -288,-236 -272,-255 c -7,-6 -16,-10 -22,-10 z m 588,535 c -8,0 -17,-4 -26,-12 l -273,-253 -287,-238 c -6,-6 -11,-12 -14,-18 -3,-7 -2,-13 1,-16 6,-7 22,-4 36,8 l 272,254 288,236 c 9,8 15,18 15,25 0,4 -1,7 -3,9 -2,3 -6,4 -10,4 z"
   id="path3349"
   inkscape:connector-curvature="0"
   style="fill:#1f1a17" />
   <path
   class="fil0"
   d="m 2493,28895 c -15,-11 -22,-26 -16,-33 5,-7 22,-4 36,7 l 327,263 343,242 c 15,11 22,26 16,33 -5,7 -22,4 -36,-7 l -329,-262 -342,-244 z"
   id="path3351"
   inkscape:connector-curvature="0"
   style="fill:#dededd" />
   <path
   class="fil1"
   d="m 2486,28861 c -2,0 -6,0 -8,3 -1,1 -2,3 -1,6 1,7 8,16 17,23 l 342,243 329,262 c 8,6 18,10 24,10 2,0 6,0 8,-3 1,-2 2,-4 1,-6 -1,-7 -8,-16 -17,-23 l -343,-242 -327,-263 c -8,-6 -18,-10 -25,-10 z m 704,553 c -8,0 -19,-4 -28,-11 l -329,-262 -342,-243 c -11,-8 -18,-18 -19,-27 -1,-4 0,-7 2,-10 2,-3 7,-5 12,-5 8,0 19,4 28,11 l 327,263 343,242 c 11,8 18,18 19,27 1,4 0,8 -2,10 -2,3 -7,5 -12,5 z"
   id="path3353"
   inkscape:connector-curvature="0"
   style="fill:#1f1a17" />
   <path
   class="fil0"
   d="m 3127,28901 c 12,-11 18,-24 12,-30 -5,-6 -19,-2 -32,8 l -272,254 -288,236 c -12,11 -18,24 -12,30 5,6 19,2 32,-8 l 273,-253 287,-238 z"
   id="path3355"
   inkscape:connector-curvature="0"
   style="fill:#dededd" />
   <path
   class="fil1"
   d="m 3132,28870 c -6,0 -15,4 -22,10 l -272,254 -288,236 c -8,7 -13,15 -13,21 0,2 0,4 1,5 4,5 17,1 28,-8 l 273,-253 287,-238 c 12,-10 16,-22 12,-26 -1,-1 -3,-2 -5,-2 z m -588,535 c -4,0 -8,-1 -10,-4 -2,-2 -3,-5 -3,-9 0,-8 6,-18 15,-25 l 288,-236 272,-254 c 13,-12 29,-15 36,-8 6,7 1,22 -13,34 l -287,238 -273,253 c -9,8 -18,12 -26,12 z"
   id="path3357"
   inkscape:connector-curvature="0"
   style="fill:#1f1a17" />
   <path
   class="fil0"
   d="m 3183,28895 c 15,-11 22,-26 16,-33 -5,-7 -22,-4 -36,7 l -327,263 -343,242 c -15,11 -22,26 -16,33 5,7 22,4 36,-7 l 328,-262 342,-244 z"
   id="path3359"
   inkscape:connector-curvature="0"
   style="fill:#dededd" />
   <path
   class="fil1"
   d="m 3190,28861 c -7,0 -16,4 -25,10 l -327,263 -344,242 c -9,7 -16,16 -17,23 0,2 0,4 1,6 2,2 5,3 8,3 l 0,0 c 7,0 16,-4 25,-10 l 328,-262 342,-244 c 9,-7 16,-16 17,-23 0,-2 0,-4 -1,-6 -2,-2 -5,-3 -8,-3 z m -704,553 0,0 c -5,0 -10,-2 -12,-5 -2,-3 -3,-6 -2,-10 1,-9 9,-19 19,-27 l 344,-242 327,-263 c 15,-12 34,-15 40,-6 2,3 3,6 2,10 -1,9 -8,19 -19,27 l -342,244 -328,262 c -9,7 -20,11 -28,11 z"
   id="path3361"
   inkscape:connector-curvature="0"
   style="fill:#1f1a17" />
   <path
   class="fil0"
   d="m 2971,28787 c 5,-15 3,-30 -4,-32 -8,-3 -18,8 -23,23 l -108,356 -131,349 c -5,15 -3,30 4,32 8,3 18,-8 23,-23 l 110,-356 129,-349 z"
   id="path3363"
   inkscape:connector-curvature="0"
   style="fill:#dededd" />
   <path
   class="fil1"
   d="m 2964,28757 c -5,0 -14,8 -18,21 l -108,356 -131,349 c -3,10 -4,20 -1,25 1,2 2,3 4,3 5,2 15,-6 20,-21 l 110,-356 129,-349 c 5,-15 3,-27 -3,-29 0,0 -1,0 -2,0 z m -253,761 0,0 c -1,0 -2,0 -4,-1 -3,-1 -5,-3 -7,-6 -4,-7 -3,-18 1,-30 l 131,-349 108,-356 c 6,-17 18,-28 27,-25 9,3 12,19 6,36 l -129,349 -110,355 c -5,15 -15,25 -24,25 z"
   id="path3365"
   inkscape:connector-curvature="0"
   style="fill:#1f1a17" />
   <path
   class="fil0"
   d="m 3017,28755 c 7,-17 6,-33 -2,-37 -8,-4 -21,7 -28,24 l -152,392 -176,381 c -7,17 -6,33 2,37 8,4 21,-7 28,-24 l 153,-391 175,-382 z"
   id="path3367"
   inkscape:connector-curvature="0"
   style="fill:#dededd" />
   <path
   class="fil1"
   d="m 3011,28720 c -6,0 -16,8 -22,23 l -152,392 -176,381 c -7,16 -5,30 1,33 5,2 17,-6 24,-22 l 153,-391 175,-382 c 5,-11 6,-22 3,-28 -1,-2 -2,-4 -4,-4 -1,0 -2,0 -2,0 z m -347,835 0,0 c -2,0 -3,0 -5,-1 -10,-4 -12,-22 -4,-41 l 176,-381 152,-391 c 8,-18 22,-30 32,-25 3,1 5,4 7,8 3,8 2,21 -3,33 l -175,382 -153,391 c -7,16 -18,26 -27,26 z"
   id="path3369"
   inkscape:connector-curvature="0"
   style="fill:#1f1a17" />
   <path
   class="fil0"
   d="m 3206,29077 c 16,-3 27,-12 26,-20 -2,-8 -16,-12 -31,-9 l -363,84 -367,61 c -16,3 -27,12 -26,20 2,8 16,12 32,9 l 363,-83 367,-63 z"
   id="path3371"
   inkscape:connector-curvature="0"
   style="fill:#dededd" />
   <path
   class="fil1"
   d="m 3211,29050 c -3,0 -7,0 -10,1 l -363,84 -367,61 c -15,3 -25,11 -24,17 1,6 15,9 28,6 l 363,-83 367,-63 c 10,-2 19,-7 22,-12 1,-2 2,-3 1,-5 -1,-4 -8,-7 -18,-7 z m -746,176 c -13,0 -22,-5 -24,-12 -2,-10 11,-20 28,-23 l 367,-61 363,-84 c 4,-1 8,-1 12,-1 13,0 22,5 23,12 1,3 0,6 -2,9 -4,7 -14,12 -26,14 l -367,63 -363,83 c -4,1 -8,1 -11,1 z"
   id="path3373"
   inkscape:connector-curvature="0"
   style="fill:#1f1a17" />
   <path
   class="fil0"
   d="m 3256,29100 c 18,-2 32,-11 31,-20 -1,-9 -17,-15 -35,-12 l -415,64 -418,38 c -18,2 -32,11 -31,20 1,9 17,15 35,12 l 415,-63 418,-40 z"
   id="path3375"
   inkscape:connector-curvature="0"
   style="fill:#dededd" />
   <path
   class="fil1"
   d="m 3260,29070 c -2,0 -5,0 -8,0 l -415,64 -419,38 c -17,2 -29,11 -28,17 1,7 16,12 32,10 l 415,-63 418,-40 c 18,-2 29,-11 28,-17 -1,-6 -11,-10 -24,-10 z m -845,136 c -17,0 -28,-6 -30,-15 -1,-11 13,-21 33,-24 l 418,-38 415,-64 c 20,-3 37,4 38,15 1,11 -13,21 -33,24 l -418,40 -415,63 c -3,0 -6,1 -8,1 z"
   id="path3377"
   inkscape:connector-curvature="0"
   style="fill:#1f1a17" />
   <path
   class="fil0"
   d="m 3185,29268 c 15,5 30,3 32,-4 3,-8 -8,-18 -23,-23 l -356,-108 -349,-131 c -15,-5 -30,-3 -32,4 -3,8 8,18 23,23 l 356,110 349,129 z"
   id="path3379"
   inkscape:connector-curvature="0"
   style="fill:#dededd" />
   <path
   class="fil1"
   d="m 2474,29001 c -7,0 -12,2 -13,5 -2,5 7,15 21,20 l 355,110 349,129 c 13,4 27,3 29,-3 2,-5 -6,-15 -21,-20 l -356,-108 -349,-131 c -5,-2 -11,-3 -15,-3 z m 728,273 0,0 c -5,0 -11,-1 -17,-3 l -349,-129 -355,-110 c -17,-6 -28,-18 -25,-27 2,-6 9,-9 19,-9 5,0 11,1 17,3 l 349,131 356,108 c 17,6 28,18 25,27 -2,6 -9,9 -19,9 z"
   id="path3381"
   inkscape:connector-curvature="0"
   style="fill:#1f1a17" />
   <path
   class="fil0"
   d="m 3218,29314 c 17,7 33,6 37,-2 4,-8 -7,-21 -24,-28 l -392,-152 -381,-176 c -17,-7 -33,-6 -37,2 -4,8 7,21 24,28 l 391,154 382,175 z"
   id="path3383"
   inkscape:connector-curvature="0"
   style="fill:#dededd" />
   <path
   class="fil1"
   d="m 2437,28954 c -7,0 -12,2 -13,5 -3,6 6,17 22,24 l 391,153 382,175 c 7,3 14,4 20,4 l 0,0 c 7,0 12,-2 13,-5 2,-6 -6,-17 -23,-24 l -392,-152 -381,-177 c -7,-3 -14,-4 -20,-4 z m 802,368 0,0 c -7,0 -15,-2 -22,-5 l -382,-175 -391,-153 c -19,-8 -30,-22 -26,-32 2,-6 9,-9 18,-9 7,0 15,2 22,5 l 381,177 392,152 c 9,4 16,9 21,14 5,6 7,12 5,18 -2,6 -9,9 -18,9 z"
   id="path3385"
   inkscape:connector-curvature="0"
   style="fill:#1f1a17" />
   <path
   class="fil0"
   d="m 3072,29424 c 11,12 24,18 30,12 6,-5 2,-20 -8,-32 l -254,-272 -236,-288 c -11,-12 -24,-18 -30,-12 -6,5 -2,20 8,32 l 253,273 238,287 z"
   id="path3387"
   inkscape:connector-curvature="0"
   style="fill:#dededd" />
   <path
   class="fil1"
   d="m 2579,28834 c -2,0 -3,0 -4,1 -4,4 -2,16 8,28 l 253,273 238,287 c 8,9 17,13 22,13 l 0,0 c 2,0 3,0 4,-1 1,-1 2,-3 2,-5 0,-6 -4,-15 -10,-23 l -254,-272 -236,-288 c -7,-8 -16,-13 -22,-13 z m 517,608 c -8,0 -18,-6 -26,-15 l -238,-287 -253,-273 c -12,-14 -15,-29 -8,-36 7,-6 23,-1 34,13 l 236,288 254,272 c 8,9 12,19 12,27 0,4 -2,7 -4,9 -2,2 -5,3 -8,3 z"
   id="path3389"
   inkscape:connector-curvature="0"
   style="fill:#1f1a17" />
   <path
   class="fil0"
   d="m 3077,29480 c 11,15 26,22 33,16 7,-5 4,-22 -7,-36 l -263,-327 -242,-343 c -11,-15 -26,-22 -33,-17 -7,6 -4,22 7,36 l 262,328 243,342 z"
   id="path3391"
   inkscape:connector-curvature="0"
   style="fill:#dededd" />
   <path
   class="fil1"
   d="m 2571,28774 c -2,0 -3,0 -4,1 -1,1 -2,3 -3,5 -1,7 3,18 10,27 l 262,328 244,342 c 7,10 18,17 25,17 2,0 3,0 4,-1 5,-4 3,-18 -7,-32 l -263,-327 -242,-343 c -9,-12 -19,-17 -25,-17 z m 533,727 0,0 c -9,0 -21,-8 -29,-19 l -243,-342 -262,-328 c -8,-11 -12,-23 -11,-31 1,-4 2,-7 5,-9 9,-6 25,1 37,17 l 242,343 263,327 c 12,16 15,34 6,40 -2,2 -5,2 -8,2 z"
   id="path3393"
   inkscape:connector-curvature="0"
   style="fill:#1f1a17" />
   <path
   class="fil0"
   d="m 2896,29503 c 3,16 12,27 20,26 8,-2 12,-16 9,-31 l -84,-363 -61,-367 c -3,-16 -12,-27 -20,-26 -8,2 -12,16 -9,32 l 83,363 62,367 z"
   id="path3395"
   inkscape:connector-curvature="0"
   style="fill:#dededd" />
   <path
   class="fil1"
   d="m 2761,28744 c 0,0 -1,0 -1,0 -1,0 -3,1 -4,3 -3,5 -4,15 -2,25 l 83,363 62,367 c 3,15 10,24 16,24 l 0,0 c 0,0 1,0 1,0 5,-1 9,-13 6,-28 l -84,-363 -61,-367 c -3,-15 -10,-24 -16,-24 z m 154,788 c -9,0 -18,-12 -21,-28 l -62,-367 -83,-363 c -2,-12 -1,-23 3,-29 2,-3 5,-5 8,-6 10,-2 20,11 24,28 l 61,367 84,363 c 3,18 -1,33 -11,35 -1,0 -1,0 -2,0 z"
   id="path3397"
   inkscape:connector-curvature="0"
   style="fill:#1f1a17" />
   <path
   class="fil0"
   d="m 2872,29554 c 2,18 11,32 20,31 9,-1 15,-17 12,-35 l -64,-415 -38,-418 c -2,-18 -12,-32 -20,-31 -9,1 -15,17 -12,35 l 63,415 40,418 z"
   id="path3399"
   inkscape:connector-curvature="0"
   style="fill:#dededd" />
   <path
   class="fil1"
   d="m 2784,28688 c -7,1 -13,14 -10,32 l 63,415 40,418 c 2,17 10,28 16,28 0,0 0,0 1,0 2,0 4,-1 5,-3 4,-6 6,-17 5,-28 l -65,-415 -38,-418 c -2,-17 -10,-28 -17,-28 z m 108,899 c -10,0 -20,-14 -22,-33 l -40,-418 -63,-415 c -2,-20 4,-37 15,-38 11,-2 21,13 24,33 l 38,418 64,415 c 2,13 -1,26 -6,33 -3,3 -6,5 -9,5 0,0 -1,0 -1,0 z"
   id="path3401"
   inkscape:connector-curvature="0"
   style="fill:#1f1a17" />
   <path
   class="fil0"
   d="m 2542,29565 c -11,20 -5,45 15,56 20,11 45,5 56,-15 l 231,-467 289,-434 c 11,-20 5,-45 -15,-56 -20,-11 -45,-5 -56,15 l -235,465 -285,436 z"
   id="path3403"
   inkscape:connector-curvature="0"
   style="fill:#dededd" />
   <path
   class="fil1"
   d="m 3098,28646 c -14,0 -26,7 -33,19 l -235,465 -285,437 c -5,9 -6,19 -4,29 3,10 9,18 18,23 6,3 12,5 19,5 14,0 26,-7 33,-19 l 231,-467 289,-434 c 10,-18 4,-41 -14,-52 -6,-3 -12,-5 -19,-5 z m -520,983 0,0 c -8,0 -15,-2 -22,-6 -10,-6 -17,-15 -20,-27 -3,-11 -2,-23 4,-33 l 285,-436 235,-465 c 8,-14 22,-22 38,-22 8,0 15,2 22,6 21,12 28,39 16,60 l -289,434 -231,467 c -8,14 -22,22 -38,22 z"
   id="path3405"
   inkscape:connector-curvature="0"
   style="fill:#1f1a17" />
   <path
   class="fil0"
   d="m 2367,29360 c -20,11 -26,36 -15,56 11,20 36,26 56,15 l 434,-289 467,-231 c 19,-11 26,-36 15,-56 -11,-20 -36,-26 -56,-15 l -436,285 -465,235 z"
   id="path3407"
   inkscape:connector-curvature="0"
   style="fill:#dededd" />
   <path
   class="fil1"
   d="m 3288,28837 c -7,0 -13,2 -19,5 l -436,285 -465,236 c -9,5 -15,13 -18,23 -3,10 -1,20 4,29 7,12 19,19 33,19 l 0,0 c 7,0 13,-2 19,-5 l 434,-289 468,-231 c 9,-5 15,-13 18,-23 3,-10 1,-20 -4,-29 -7,-12 -19,-19 -33,-19 z m -901,602 0,0 c -16,0 -30,-8 -38,-22 -6,-10 -7,-22 -4,-33 3,-11 10,-21 20,-27 l 465,-236 436,-285 c 7,-4 14,-6 22,-6 16,0 30,8 38,22 6,10 7,22 4,33 -3,11 -10,21 -20,27 l -468,231 -434,289 c -7,4 -14,6 -22,6 z"
   id="path3409"
   inkscape:connector-curvature="0"
   style="fill:#1f1a17" />
   <path
   class="fil0"
   d="m 2317,29094 c -23,0 -41,18 -41,41 0,23 18,41 41,41 l 520,-33 520,33 c 23,0 41,-18 41,-41 0,-23 -18,-41 -41,-41 l -520,29 -520,-29 z"
   id="path3411"
   inkscape:connector-curvature="0"
   style="fill:#dededd" />
   <path
   class="fil1"
   d="m 2317,29097 c -10,0 -20,4 -27,11 -7,7 -11,17 -11,27 0,21 17,38 38,38 l 520,-33 521,33 c 21,0 38,-17 38,-38 0,-21 -17,-38 -38,-38 l -520,29 -521,-29 z m 1041,82 0,0 -520,-33 -520,33 c -24,0 -44,-20 -44,-44 0,-12 5,-23 13,-31 8,-8 19,-13 31,-13 l 520,29 520,-29 c 24,0 44,20 44,44 0,24 -20,44 -44,44 z"
   id="path3413"
   inkscape:connector-curvature="0"
   style="fill:#1f1a17" />
   <path
   class="fil0"
   d="m 2408,28839 c -20,-11 -45,-5 -56,15 -11,20 -5,45 15,56 l 467,231 434,289 c 19,11 45,5 56,-15 11,-20 5,-45 -15,-56 l -465,-235 -436,-285 z"
   id="path3415"
   inkscape:connector-curvature="0"
   style="fill:#dededd" />
   <path
   class="fil1"
   d="m 2387,28837 c -14,0 -26,7 -33,19 -5,9 -6,19 -4,29 3,10 9,18 18,23 l 467,231 435,289 c 6,3 12,5 19,5 14,0 26,-7 33,-19 5,-9 6,-19 4,-29 -3,-10 -9,-18 -18,-23 l -465,-235 -437,-285 c -6,-3 -12,-5 -19,-5 z m 901,602 0,0 c -8,0 -15,-2 -22,-6 l -434,-289 -467,-231 c -10,-6 -18,-15 -21,-27 -3,-11 -1,-23 4,-33 8,-14 22,-22 38,-22 8,0 15,2 22,6 l 436,285 465,235 c 10,6 18,15 21,27 3,11 1,23 -4,33 -8,14 -22,22 -38,22 z"
   id="path3417"
   inkscape:connector-curvature="0"
   style="fill:#1f1a17" />
   <path
   class="fil0"
   d="m 2613,28664 c -11,-20 -36,-26 -56,-15 -20,11 -26,36 -15,56 l 289,434 231,467 c 11,20 36,26 56,15 20,-11 26,-36 15,-56 l -285,-436 -235,-465 z"
   id="path3419"
   inkscape:connector-curvature="0"
   style="fill:#dededd" />
   <path
   class="fil1"
   d="m 2577,28646 c -7,0 -13,2 -19,5 -18,11 -25,34 -14,52 l 289,434 231,468 c 7,12 19,19 33,19 l 0,0 c 7,0 13,-2 19,-5 18,-10 24,-34 14,-52 l -285,-436 -235,-465 c -7,-12 -19,-19 -33,-19 z m 520,983 0,0 c -16,0 -30,-8 -38,-22 l -231,-467 -289,-434 c -12,-21 -5,-48 16,-60 7,-4 14,-6 22,-6 16,0 30,8 38,22 l 235,465 285,436 c 12,21 5,48 -16,60 -7,4 -14,6 -22,6 z"
   id="path3421"
   inkscape:connector-curvature="0"
   style="fill:#1f1a17" />
   <path
   class="fil0"
   d="m 2879,28615 c 0,-23 -18,-41 -41,-41 -22,0 -41,18 -41,41 l 33,520 -33,520 c 0,23 18,41 41,41 23,0 41,-18 41,-41 l -29,-520 29,-520 z"
   id="path3423"
   inkscape:connector-curvature="0"
   style="fill:#dededd" />
   <path
   class="fil1"
   d="m 2838,28577 c -21,0 -38,17 -38,38 l 33,520 -33,521 c 0,21 17,38 38,38 21,0 38,-17 38,-38 l -29,-520 29,-521 c 0,-21 -17,-38 -38,-38 z m 0,1122 c -24,0 -44,-20 -44,-44 l 33,-520 -33,-520 c 0,-24 20,-44 44,-44 24,0 44,20 44,44 l -29,520 29,520 c 0,24 -20,44 -44,44 z"
   id="path3425"
   inkscape:connector-curvature="0"
   style="fill:#1f1a17" />
   <path
   class="fil2"
   d="m 3018,29247 c 11,-25 12,-48 13,-75 l 0,-259 -385,0 0,259 c 1,27 2,50 13,75 33,75 100,112 179,111 80,1 146,-37 179,-111 z"
   id="path3427"
   inkscape:connector-curvature="0"
   style="fill:#ffffff" />
   <path
   class="fil3"
   d="m 3004,29238 c 10,-24 11,-45 12,-70 l 0,-242 -356,0 0,242 c 1,25 2,46 12,70 31,70 92,105 166,104 74,1 135,-34 166,-104 l 0,0 z"
   id="path3429"
   inkscape:connector-curvature="0"
   style="fill:#007db4" />
   <path
   class="fil1"
   d="m 3006,29239 c -31,71 -94,107 -168,106 -74,1 -137,-35 -168,-106 -11,-24 -12,-45 -13,-71 l 0,-244 361,0 0,244 c -1,26 -2,47 -12,71 l 0,0 z m -5,-2 c 10,-23 11,-44 12,-69 l 0,-239 -351,0 0,239 c 1,25 2,46 12,69 30,69 91,103 163,103 72,1 133,-34 163,-103 l 0,0 z"
   id="path3431"
   inkscape:connector-curvature="0"
   style="fill:#1f1a17" />
   <path
   class="fil1"
   d="m 2952,28980 -16,0 -8,15 -8,-15 -16,0 8,-15 -8,-15 16,0 8,-14 8,14 16,0 -8,15 8,15 z m -3,-2 -7,-13 7,-13 -15,0 -7,-13 -7,13 -15,0 7,13 -7,13 15,0 7,13 7,-13 15,0 z"
   id="path3433"
   inkscape:connector-curvature="0"
   style="fill:#1f1a17" />
   <polygon
   class="fil4"
   points="2920,28979 2906,28979 2913,28966 2906,28953 2920,28953 2928,28940 2935,28953 2950,28953 2942,28966 2950,28979 2935,28979 2928,28992 "
   id="polygon3435"
   style="fill:#d9d4d3" />
   <path
   class="fil1"
   d="m 3002,29055 -16,0 -8,14 -8,-14 -16,0 8,-15 -8,-15 16,0 8,-14 8,14 16,0 -8,15 8,15 z m -3,-2 -7,-13 7,-13 -15,0 -7,-13 -7,13 -15,0 7,13 -7,13 15,0 7,13 7,-13 15,0 z"
   id="path3437"
   inkscape:connector-curvature="0"
   style="fill:#1f1a17" />
   <polygon
   class="fil4"
   points="2970,29053 2956,29053 2963,29040 2956,29027 2970,29027 2978,29015 2985,29027 3000,29027 2992,29040 3000,29053 2985,29053 2978,29066 "
   id="polygon3439"
   style="fill:#d9d4d3" />
   <path
   class="fil1"
   d="m 2949,29128 -16,0 -8,15 -8,-15 -16,0 8,-15 -8,-14 16,0 8,-15 8,15 16,0 -8,14 8,15 z m -3,-2 -7,-13 7,-13 -15,0 -7,-13 -7,13 -15,0 7,13 -7,13 15,0 7,13 7,-13 15,0 z"
   id="path3441"
   inkscape:connector-curvature="0"
   style="fill:#1f1a17" />
   <polygon
   class="fil4"
   points="2917,29127 2902,29127 2910,29114 2902,29101 2917,29101 2924,29088 2932,29101 2946,29101 2939,29114 2946,29127 2932,29127 2924,29140 "
   id="polygon3443"
   style="fill:#d9d4d3" />
   <path
   class="fil1"
   d="m 3001,29206 -16,0 -8,14 -8,-14 -16,0 8,-14 -8,-15 16,0 8,-15 8,15 16,0 -8,15 8,14 z m -3,-2 -7,-13 7,-13 -15,0 -7,-13 -7,13 -15,0 7,13 -7,13 15,0 7,13 7,-13 15,0 z"
   id="path3445"
   inkscape:connector-curvature="0"
   style="fill:#1f1a17" />
   <polygon
   class="fil4"
   points="2968,29205 2954,29205 2961,29192 2954,29179 2968,29179 2976,29166 2983,29179 2998,29179 2990,29192 2998,29205 2983,29205 2976,29218 "
   id="polygon3447"
   style="fill:#d9d4d3" />
   <path
   class="fil1"
   d="m 2859,29315 -16,0 -8,14 -8,-14 -17,0 8,-15 -8,-15 17,0 8,-15 8,15 16,0 -8,15 8,15 z m -3,-2 -7,-13 7,-13 -15,0 -7,-13 -7,13 -15,0 7,13 -7,13 15,0 7,13 7,-13 15,0 z"
   id="path3449"
   inkscape:connector-curvature="0"
   style="fill:#1f1a17" />
   <polygon
   class="fil4"
   points="2827,29314 2812,29314 2820,29301 2812,29288 2827,29288 2834,29275 2841,29288 2856,29288 2849,29301 2856,29314 2841,29314 2834,29327 "
   id="polygon3451"
   style="fill:#d9d4d3" />
   <path
   class="fil1"
   d="m 2736,29232 -16,0 -8,15 -8,-15 -16,0 8,-15 -8,-14 16,0 8,-15 8,15 16,0 -8,14 8,15 z m -3,-2 -7,-13 7,-13 -15,0 -7,-13 -7,13 -15,0 8,13 -8,13 15,0 7,13 7,-13 15,0 z"
   id="path3453"
   inkscape:connector-curvature="0"
   style="fill:#1f1a17" />
   <polygon
   class="fil4"
   points="2704,29230 2689,29230 2697,29217 2689,29204 2704,29204 2711,29191 2718,29204 2733,29204 2726,29217 2733,29230 2718,29230 2711,29243 "
   id="polygon3455"
   style="fill:#d9d4d3" />
   <path
   class="fil1"
   d="m 2721,29106 -17,0 -8,15 -8,-15 -16,0 8,-14 -8,-15 16,0 8,-14 8,14 17,0 -8,15 8,14 z m -3,-2 -7,-13 7,-13 -15,0 -7,-13 -7,13 -15,0 7,13 -7,13 15,0 7,13 7,-13 15,0 z"
   id="path3457"
   inkscape:connector-curvature="0"
   style="fill:#1f1a17" />
   <polygon
   class="fil4"
   points="2688,29105 2674,29105 2681,29092 2674,29079 2688,29079 2696,29066 2703,29079 2718,29079 2710,29092 2718,29105 2703,29105 2696,29118 "
   id="polygon3459"
   style="fill:#d9d4d3" />
   <path
   class="fil1"
   d="m 2778,28979 -16,0 -8,15 -8,-15 -16,0 8,-14 -8,-15 16,0 8,-15 8,15 16,0 -8,15 8,14 z m -3,-2 -7,-13 7,-13 -15,0 -7,-13 -7,13 -15,0 7,13 -7,13 15,0 7,13 7,-13 15,0 z"
   id="path3461"
   inkscape:connector-curvature="0"
   style="fill:#1f1a17" />
   <polygon
   class="fil4"
   points="2746,28977 2732,28977 2739,28964 2732,28951 2746,28951 2754,28939 2761,28951 2776,28951 2768,28964 2776,28977 2761,28977 2754,28990 "
   id="polygon3463"
   style="fill:#d9d4d3" />
   <path
   class="fil5"
   d="m 2890,29009 -55,0 c 0,0 0,-1 1,-1 1,-2 1,-5 1,-8 -1,-4 -2,-7 -8,-7 -7,0 -13,5 -20,4 -7,-2 -6,-9 -6,-12 0,-2 1,-3 2,-4 0,0 -1,0 -1,0 -1,-1 -1,-2 -1,-4 1,-3 4,-3 6,-5 2,-1 6,-2 10,-6 l 58,0 c 0,0 13,-3 15,1 1,3 2,11 -6,22 4,4 5,10 5,19 l 0,0 z"
   id="path3465"
   inkscape:connector-curvature="0"
   style="fill:#da251d" />
   <path
   class="fil4"
   d="m 2749,29051 c -1,-4 0,-7 1,-11 17,6 24,-2 29,-4 7,-3 17,-2 23,1 18,7 26,2 27,-3 1,-4 -1,-11 -17,-9 -2,0 -3,0 -4,-2 -1,-1 -2,-6 -2,-9 0,-1 1,-1 2,-2 8,-3 13,-2 20,1 4,2 7,0 9,-4 l 55,0 0,1 c -1,11 5,18 5,18 -3,0 -6,0 -8,-3 2,10 2,17 0,25 l 0,1 -139,0 z"
   id="path3467"
   inkscape:connector-curvature="0"
   style="fill:#d9d4d3" />
   <path
   class="fil4"
   d="m 2887,29090 c 0,1 0,1 0,2 -1,7 0,14 4,22 -6,-2 -14,-2 -17,-2 -8,1 -15,-1 -20,-7 -1,7 -6,10 -16,12 -6,1 -11,3 -15,8 -1,-9 -8,-8 -10,-15 -4,3 -11,6 -27,1 -9,-3 -16,-2 -24,1 4,-12 9,-14 11,-21 l 0,0 0,0 114,0 z"
   id="path3469"
   inkscape:connector-curvature="0"
   style="fill:#d9d4d3" />
   <path
   class="fil5"
   d="m 2824,29136 71,0 c 11,13 26,21 41,18 10,-2 19,-9 24,-18 l 17,0 c -4,10 -10,17 -19,25 -11,8 -26,12 -38,8 1,4 0,8 -1,11 l -175,0 c 0,-1 0,-2 -1,-3 17,6 26,-6 38,-18 12,-11 23,-15 35,-15 8,0 21,3 24,5 -5,-5 -11,-10 -18,-14 l 0,0 z"
   id="path3471"
   inkscape:connector-curvature="0"
   style="fill:#da251d" />
   <path
   class="fil4"
   d="m 2920,29181 c -1,3 -2,5 -4,7 -10,16 2,30 15,33 2,0 5,1 8,1 l -86,0 c 2,-5 0,-11 -4,-19 -4,-6 -3,-16 -3,-16 -5,-1 -12,-3 -20,1 -17,9 -14,28 -5,33 l -45,0 c 1,-3 1,-6 0,-8 -1,-3 -7,-7 -9,-14 -10,2 -19,-5 -21,-19 l 175,0 z"
   id="path3473"
   inkscape:connector-curvature="0"
   style="fill:#d9d4d3" />
   <path
   class="fil5"
   d="m 2853,29221 86,0 c 8,1 17,0 21,-4 0,6 0,10 -8,15 7,7 8,12 7,18 -6,-5 -11,-4 -17,-1 4,7 5,10 4,18 -5,-4 -9,-4 -11,-3 l -35,0 c 0,-2 0,-4 0,-6 0,-13 -4,-19 -7,-21 -4,-2 -14,-4 -16,-13 -2,11 -17,16 -26,2 1,-2 2,-4 3,-6 l 0,0 z"
   id="path3475"
   inkscape:connector-curvature="0"
   style="fill:#da251d" />
   <path
   class="fil4"
   d="m 2935,29265 c -1,0 -1,1 -2,2 -2,4 2,5 -3,10 -5,1 -9,7 -6,12 2,4 0,7 -5,4 2,5 0,12 -5,15 -9,4 -6,-1 -8,-5 -3,-5 -7,-3 -7,-3 -1,1 -2,5 -2,6 -3,8 -9,9 -12,3 -1,-3 -4,-6 -6,-6 -4,-4 2,-8 3,-9 -2,-1 -2,-3 -1,-6 -1,-3 -3,-5 -3,-6 1,-5 4,-5 10,-3 3,-1 4,-1 7,-4 1,-1 3,-4 4,-9 l 35,0 z"
   id="path3477"
   inkscape:connector-curvature="0"
   style="fill:#d9d4d3" />
   <path
   class="fil4"
   d="m 2805,29265 c 0,3 -1,6 -2,7 -2,-2 -4,-4 -9,-4 -4,0 -9,3 -9,4 2,1 2,2 2,4 -2,11 -9,6 -12,8 -2,1 -3,5 -7,7 -5,1 -6,-1 -6,-1 -4,4 -13,7 -14,-2 -2,1 -5,-2 -8,-5 -1,1 -3,3 -5,-1 0,-3 1,-7 -1,-8 -3,-2 -5,-4 -3,-8 0,0 0,-1 1,-1 l 74,0 z"
   id="path3479"
   inkscape:connector-curvature="0"
   style="fill:#d9d4d3" />
   <path
   class="fil5"
   d="m 2775,29221 45,0 c 0,0 1,0 1,1 8,2 16,4 19,2 1,6 -6,12 -11,13 4,1 6,1 8,8 -4,-1 -8,1 -10,3 -3,2 -7,4 -12,2 2,5 3,9 -1,16 -2,-8 -9,-9 -13,-10 2,3 3,6 3,9 l -74,0 c 2,-2 6,-1 6,-4 1,-10 6,-11 12,-6 8,4 12,2 15,-3 1,-3 8,-19 10,-30 l 0,0 z"
   id="path3481"
   inkscape:connector-curvature="0"
   style="fill:#da251d" />
   <path
   class="fil5"
   d="m 2685,29136 105,0 c -3,3 -8,9 -8,14 -3,-2 -2,-5 -4,-11 -2,8 -7,14 -13,18 1,-5 0,-9 -1,-13 -3,11 -9,17 -15,21 2,-4 3,-14 1,-19 -2,8 -9,15 -12,16 0,-3 2,-9 -4,-15 -9,-6 -12,1 -8,4 5,3 4,7 -1,6 -2,-1 -4,-1 -5,1 -2,5 -7,5 -7,-4 -1,-5 -9,-2 -8,2 l 2,2 c 4,3 2,8 -2,7 -2,-1 -6,-1 -8,1 -5,1 -4,-3 -2,-7 0,-3 -8,-5 -6,2 1,6 -7,10 -6,1 1,-2 -2,-6 -5,-8 -2,-2 -1,-7 2,-6 3,1 6,1 9,0 4,-1 3,-8 -2,-6 -5,3 -9,-1 -6,-4 1,0 1,-1 2,-2 l 0,0 z"
   id="path3483"
   inkscape:connector-curvature="0"
   style="fill:#da251d" />
   <path
   class="fil4"
   d="m 2710,29051 c 2,-3 2,-6 1,-10 -1,-6 3,-13 3,-16 0,-8 -11,-8 -9,-1 3,8 -1,14 -5,9 l -2,-4 c -6,-4 -7,-7 -3,-9 6,-4 1,-8 -4,-5 -3,5 -7,6 -8,3 0,-1 1,-3 0,-6 0,-1 -1,-2 -1,-2 l 44,0 c 15,6 37,17 49,28 -5,3 -12,7 -26,3 -1,4 -1,7 -1,11 l -39,0 z"
   id="path3485"
   inkscape:connector-curvature="0"
   style="fill:#d9d4d3" />
   <path
   class="fil5"
   d="m 2710,29051 39,0 c 1,4 3,8 7,13 -7,3 -11,10 -14,14 0,0 0,1 -1,1 -6,-3 2,-11 -1,-17 -3,5 -5,8 -8,10 1,-5 0,-8 -1,-13 -2,2 -5,7 -4,12 -6,-5 -7,-8 -6,-17 -5,3 -9,4 -14,1 2,-1 4,-2 5,-4 l 0,0 z"
   id="path3487"
   inkscape:connector-curvature="0"
   style="fill:#da251d" />
   <path
   class="fil5"
   d="m 2784,28988 c 1,5 4,8 8,10 10,6 19,-1 29,-1 4,0 10,1 15,5 0,1 0,2 -1,4 -7,-4 -13,-3 -21,-2 -4,0 -12,5 -21,5 -6,0 -11,-3 -13,-9 -1,-5 1,-9 4,-12 l 0,0 z"
   id="path3489"
   inkscape:connector-curvature="0"
   style="fill:#da251d" />
   <path
   class="fil6"
   d="m 2807,28938 c 6,-3 10,0 14,6 3,-4 10,-1 10,4 -8,3 -6,11 2,11 9,0 9,-9 2,-11 0,-3 2,-6 7,-6 0,-4 3,-8 5,-9 3,1 5,5 6,8 5,0 8,4 8,7 -9,2 -6,11 2,11 7,0 10,-8 2,-11 0,-5 7,-8 10,-5 4,-7 9,-6 14,-4 -11,10 -13,21 -13,28 l -56,0 c -1,-12 -5,-21 -13,-29 l 0,0 z"
   id="path3491"
   inkscape:connector-curvature="0"
   style="fill:#f8c300" />
   <path
   class="fil4"
   d="m 2961,29136 c 5,-9 7,-19 3,-28 -3,-9 -8,-13 -14,-18 l 21,0 c 1,2 2,3 4,5 3,-3 6,-5 10,-5 l 8,0 c 4,1 8,3 10,7 5,7 5,20 -8,24 8,-16 -12,-20 -13,-2 0,7 -2,12 -4,17 l -17,0 z"
   id="path3493"
   inkscape:connector-curvature="0"
   style="fill:#d9d4d3" />
   <path
   class="fil5"
   d="m 2913,29051 20,0 c 1,2 3,4 4,5 13,14 25,21 35,34 l -21,0 c -7,-5 -15,-11 -27,-24 -3,-3 -7,-11 -10,-16 l 0,0 z"
   id="path3495"
   inkscape:connector-curvature="0"
   style="fill:#da251d" />
   <path
   class="fil4"
   d="m 2913,29051 c -2,-2 -3,-4 -5,-4 -4,-2 -8,-2 -14,3 0,-12 5,-18 16,-17 3,-12 7,-18 12,-22 0,0 1,-1 1,-1 l 34,0 c -8,4 -17,8 -24,16 -7,8 -6,17 -1,26 l -20,0 z"
   id="path3497"
   inkscape:connector-curvature="0"
   style="fill:#d9d4d3" />
   <path
   class="fil5"
   d="m 2958,29009 -34,0 c 12,-10 30,-16 41,-24 6,-5 6,-9 5,-11 -7,-4 -3,-10 1,-12 6,-3 14,-3 22,1 6,4 11,14 1,26 -7,8 -24,14 -32,18 -1,1 -3,1 -4,2 l 0,0 z"
   id="path3499"
   inkscape:connector-curvature="0"
   style="fill:#da251d" />
   <path
   class="fil1"
   d="m 2823,28972 c 2,1 2,5 7,7 -4,0 -7,-4 -10,-1 -1,-2 3,-3 3,-7 l 0,0 z"
   id="path3501"
   inkscape:connector-curvature="0"
   style="fill:#1f1a17" />
   <path
   class="fil1"
   d="m 2873,28976 c -1,2 0,3 2,1 1,-1 2,-4 8,-7 -5,1 -9,5 -9,6 l 0,0 z"
   id="path3503"
   inkscape:connector-curvature="0"
   style="fill:#1f1a17" />
   <path
   class="fil1"
   d="m 2853,29159 c 1,1 3,3 4,3 4,0 6,-7 6,-8 0,-1 2,-1 2,0 0,3 -1,5 -3,8 -1,2 -2,3 -4,4 -5,5 -11,11 -11,21 0,1 -2,1 -2,0 1,-9 5,-15 11,-21 1,-2 -5,-7 -6,-8 -2,-2 -5,-5 -8,-7 -1,-1 0,-2 1,-1 4,2 8,7 10,9 l 0,0 z"
   id="path3505"
   inkscape:connector-curvature="0"
   style="fill:#1f1a17" />
   <path
   class="fil5"
   d="m 2773,29090 c -14,3 -31,3 -42,-5 4,-2 9,-4 11,-8 3,-5 7,-11 14,-14 -4,-5 -6,-9 -7,-13 l 139,0 c -1,6 0,12 5,24 -3,-1 -6,-2 -9,-5 2,5 5,12 3,21 l -114,0 z"
   id="path3507"
   inkscape:connector-curvature="0"
   style="fill:#da251d" />
   <path
   class="fil4"
   d="m 2800,29121 c 0,7 -6,11 -9,14 l 0,0 c 0,0 -1,1 -1,1 l -105,0 c 0,0 1,-1 1,-1 0,-1 1,-1 1,-2 -1,-6 3,-10 10,-6 0,0 2,4 7,4 6,-1 12,-4 20,-11 14,-9 23,-20 29,-25 1,-1 2,-2 3,-3 6,0 12,0 18,-1 l 0,0 c -2,8 -8,9 -11,21 7,-4 14,-4 24,-1 16,5 23,2 27,-1 2,7 9,6 10,15 4,-5 9,-7 15,-8 10,-2 15,-5 16,-12 5,7 12,8 20,7 2,0 5,0 9,0 l 0,0 0,0 0,0 0,0 0,0 0,0 0,0 0,1 c 1,2 2,5 3,8 1,1 1,1 1,2 2,4 5,7 8,10 l 1,1 -71,0 -2,-1 c -8,-5 -17,-9 -21,-9 1,-3 -2,-5 -2,-5 l 0,0 z"
   id="path3509"
   inkscape:connector-curvature="0"
   style="fill:#d9d4d3" />
   <path
   class="fil5"
   d="m 2682,29009 c 0,0 -1,-1 -1,-2 -1,-3 2,-6 6,-4 4,0 7,-4 4,-6 -2,-1 -6,-2 -7,-3 0,-4 3,-2 6,-4 3,-2 2,-4 6,-4 3,0 3,3 3,7 0,6 5,4 6,1 1,-6 -3,-8 2,-10 2,-1 4,5 7,6 4,2 6,-1 8,2 2,3 0,5 -4,8 0,1 -2,4 6,9 1,0 2,1 2,1 l -44,0 z"
   id="path3511"
   inkscape:connector-curvature="0"
   style="fill:#da251d" />
   <path
   class="fil1"
   d="m 2879,29303 c -4,6 -2,12 1,17 1,-4 2,-8 5,-10 0,0 0,-1 -1,-1 -1,-3 -3,-5 -5,-6 l 0,0 z m 20,-3 c -3,7 -1,14 3,19 0,-5 2,-8 4,-11 0,0 0,0 0,-1 0,-1 -1,-3 -2,-4 -1,-2 -3,-3 -5,-3 l 0,0 z m -159,-16 c -2,7 0,15 5,17 0,-3 0,-7 3,-10 -1,-1 -1,-2 -2,-4 -2,0 -5,-2 -6,-4 l 0,0 z m 135,0 c -3,2 -4,5 -5,9 0,1 0,2 0,2 3,-3 6,-3 10,-4 -1,-2 0,-4 0,-5 0,-1 -1,-2 -1,-3 l 2,0 c 0,1 1,2 1,3 l 0,0 c 0,1 -1,4 1,5 1,-1 3,-1 4,-1 l 0,2 c -1,0 -2,1 -4,1 -2,2 -7,5 -3,8 2,1 6,3 6,7 2,5 7,5 10,-3 0,-1 1,-4 2,-5 -4,-1 -1,-10 5,-11 l 0,2 c -2,1 -4,3 -5,5 0,1 -1,3 1,3 0,0 0,0 1,0 3,0 5,1 7,4 3,4 0,9 7,5 5,-3 6,-10 5,-14 0,0 0,-1 1,-1 2,1 3,2 4,1 0,-1 -1,-2 -1,-4 0,-2 0,-3 0,-5 l 2,0 c 0,2 0,3 0,5 4,1 8,3 10,6 1,-4 1,-7 -1,-11 l 2,0 c 2,5 2,10 -1,15 -3,-5 -6,-7 -10,-8 1,3 0,5 -5,3 1,5 -1,11 -6,14 -2,1 -5,2 -7,1 -3,3 -5,8 -3,14 -5,-3 -8,-9 -8,-14 -3,5 -8,6 -10,3 -4,3 -4,7 -5,13 -5,-8 -8,-14 -3,-22 -3,-3 1,-7 3,-9 -5,0 -8,1 -11,5 l -2,2 0,-2 c 0,-2 0,-3 1,-5 1,-4 2,-6 4,-9 l 2,0 z m -134,0 c 2,2 4,3 5,3 0,0 1,0 1,1 1,7 7,6 12,2 -1,-2 0,-4 0,-5 l 2,0 c -1,2 -1,4 0,5 1,1 4,1 5,1 3,-1 4,-4 6,-6 l 3,0 c -1,0 -2,1 -3,3 l 0,0 c 3,4 3,6 2,11 5,-3 8,-7 8,-14 l 2,0 c 1,9 -3,13 -12,18 2,-7 3,-9 0,-13 -1,1 -2,2 -3,2 -2,1 -5,1 -7,-1 -3,3 -9,5 -12,3 -4,3 -3,7 -2,11 -9,-3 -10,-12 -8,-20 -1,0 -2,1 -3,0 l 7,0 z m -16,0 c 0,1 1,3 2,4 0,-2 1,-3 2,-4 l 2,0 c -2,2 -3,4 -3,7 -2,-3 -3,-5 -4,-7 l 1,0 z"
   id="path3513"
   inkscape:connector-curvature="0"
   style="fill:#1f1a17" />
   <path
   class="fil1"
   d="m 2739,29254 c -9,-2 -15,3 -18,9 4,-2 8,-2 13,0 1,0 3,-1 3,-3 0,-3 1,-5 2,-7 l 0,0 z m 22,30 c 0,-1 1,-2 1,-2 l 1,1 c 0,0 -1,1 -1,1 l -2,0 z m 199,-41 c 1,3 0,5 0,8 0,1 -1,1 -1,1 -5,-4 -10,-4 -16,-2 4,6 5,9 4,18 0,0 0,1 -1,1 -3,-2 -9,-6 -12,-1 -2,4 2,5 -3,10 2,2 4,4 5,7 l -2,0 c -1,-2 -2,-4 -5,-6 -4,1 -5,4 -5,6 l -2,0 c 0,-1 0,-2 1,-3 2,-2 4,-4 6,-5 4,-4 0,-6 2,-10 3,-5 9,-3 13,0 0,-7 0,-10 -4,-16 0,0 0,-1 0,-1 6,-3 12,-4 17,1 0,-2 0,-4 0,-6 l 2,0 z m -62,0 c 2,4 3,9 3,16 1,5 -1,11 -4,16 -2,3 -4,4 -7,4 l 0,0 c -6,-3 -9,-2 -9,3 0,1 1,2 1,3 l -2,0 c 0,-1 -1,-1 -1,-2 -1,0 -2,1 -2,2 l -2,0 c 1,-1 3,-2 4,-3 1,-6 5,-6 11,-4 3,-1 4,-1 6,-4 3,-4 4,-9 4,-14 0,-7 -1,-12 -3,-16 l 2,0 z m -60,0 c 0,1 0,1 1,2 0,0 0,1 -1,1 -8,-2 -12,8 -20,5 2,5 2,9 -2,15 -1,1 -1,0 -1,0 -1,-6 -5,-8 -10,-9 3,4 3,12 0,16 -1,1 -1,0 -1,0 -2,-2 -3,-4 -8,-4 -3,0 -7,2 -8,3 1,1 2,2 1,4 -1,4 -2,7 -4,8 0,0 0,1 0,1 l -2,0 c 0,0 0,0 0,0 -1,0 -2,0 -4,0 -1,0 -1,0 -2,0 l -3,0 c 1,-1 2,-2 3,-2 2,0 3,0 5,0 2,0 4,-2 5,-7 0,-1 -1,-2 -2,-3 0,0 0,-1 0,-1 0,-2 6,-4 10,-4 5,0 7,1 9,3 3,-4 2,-11 -2,-14 0,0 0,-1 1,-1 6,1 10,2 13,8 3,-6 2,-9 0,-14 0,-1 0,-2 1,-1 8,4 12,-6 20,-5 0,0 0,0 0,-1 l 2,0 z m -68,0 c -2,4 -3,8 -4,9 -3,5 -8,8 -16,3 -5,-5 -9,-4 -11,5 -1,5 -6,3 -7,6 -1,3 0,5 3,7 3,2 1,6 1,9 1,2 2,2 3,1 0,-4 3,-9 10,-10 l 0,2 c -7,1 -9,6 -9,9 1,1 1,1 1,2 l -7,0 c 0,0 -1,-1 -1,-1 -1,0 -2,1 -3,1 l -2,0 c 1,-2 3,-3 4,-3 0,-2 1,-6 0,-7 -2,-1 -3,-2 -3,-3 -5,5 -5,9 -4,13 l -1,0 c -1,-5 0,-9 5,-14 0,-1 0,-3 1,-4 0,-1 1,-2 2,-2 -4,-2 -9,-1 -13,3 1,-9 10,-17 22,-14 2,-3 6,-2 10,2 7,4 11,2 14,-3 1,-1 2,-4 3,-8 l 2,0 z"
   id="path3515"
   inkscape:connector-curvature="0"
   style="fill:#1f1a17" />
   <path
   class="fil1"
   d="m 2679,29155 c -5,4 -6,14 -3,19 1,-5 3,-9 7,-11 0,-1 0,-1 0,-2 l 0,0 c 0,-1 -1,-5 -5,-6 l 0,0 z m 20,12 c 2,6 6,11 12,13 -3,-4 -3,-8 -3,-13 -1,0 -1,0 -2,0 l 0,0 c -2,-1 -5,-1 -6,1 l 0,0 c 0,0 0,0 -1,0 l 0,0 z m 23,-6 c 2,2 2,5 1,9 6,-2 8,-7 7,-11 -1,0 -1,0 -2,0 l 0,0 c -1,-1 -3,0 -4,1 0,1 -1,2 -1,2 l 0,0 z m 114,83 c -2,-4 -3,-4 -7,-5 -1,0 -1,-1 0,-2 4,-1 10,-6 10,-11 -5,1 -16,-1 -20,-3 -16,-9 -4,-44 26,-36 l 1,1 c 0,0 0,2 0,5 0,3 1,7 3,10 5,8 8,16 2,25 9,12 23,8 25,-2 0,0 1,-1 1,0 1,4 4,6 7,8 3,2 7,3 9,4 2,1 4,3 5,6 l -2,0 c -1,-3 -3,-4 -4,-5 -2,-1 -5,-2 -9,-4 -3,-1 -5,-4 -7,-6 -4,10 -18,13 -27,0 0,0 0,0 0,-1 6,-8 4,-15 -1,-24 -3,-4 -4,-10 -4,-15 -29,-8 -39,28 -23,33 8,3 15,4 18,2 0,0 1,0 1,1 0,6 -5,11 -9,13 l 0,0 c 3,1 5,3 6,6 l -2,0 z m 139,-98 c -4,6 -8,11 -15,16 -11,8 -25,12 -38,9 0,7 -1,12 -6,17 -9,16 2,29 15,32 8,1 23,3 28,-3 0,0 1,0 1,0 0,6 0,11 -7,15 4,4 6,7 7,11 l -2,0 c -1,-3 -3,-6 -7,-10 0,0 -1,-1 0,-1 6,-4 8,-8 7,-12 -6,5 -20,3 -28,2 -13,-3 -26,-17 -16,-34 4,-5 6,-11 5,-17 0,0 0,-1 1,-1 12,4 27,-1 37,-8 6,-5 10,-10 14,-15 l 2,0 z m -67,0 c 8,6 18,10 29,7 6,-1 11,-4 15,-7 l 2,0 c -5,4 -11,8 -18,9 -12,2 -23,-2 -32,-9 l 3,0 z m -78,0 c 3,1 6,1 9,2 -1,-1 -2,-2 -2,-2 l 2,0 c 2,1 3,3 4,4 l -1,1 c -3,-2 -16,-5 -24,-5 -11,0 -23,4 -34,15 -11,10 -20,24 -38,18 1,10 8,23 21,20 0,0 1,0 1,0 2,5 5,8 8,12 2,3 2,7 1,11 -1,7 -4,15 -6,22 l -2,0 c 2,-6 5,-15 6,-22 1,-3 1,-6 1,-8 0,-2 -3,-4 -4,-5 -2,-2 -4,-5 -5,-8 -14,2 -21,-11 -22,-23 0,-1 1,-1 1,-1 12,5 20,-1 28,-9 3,-3 6,-6 9,-9 8,-7 15,-11 23,-13 l 25,0 z m -49,0 c 0,1 1,2 1,3 0,-1 1,-2 1,-3 l 2,0 c -1,2 -1,3 -1,4 0,1 -1,1 -1,1 -2,-1 -2,-3 -3,-5 l 1,0 z m -45,0 c 0,0 0,0 0,0 5,4 5,9 4,14 3,-2 8,-8 10,-14 l 2,0 c 2,5 1,12 0,17 4,-3 9,-8 12,-17 l 3,0 c 1,3 1,6 0,9 3,-2 6,-5 9,-9 l 2,0 c -3,5 -6,8 -11,11 -1,1 -2,0 -2,0 1,-4 1,-7 0,-10 -3,10 -9,15 -14,18 -1,0 -2,0 -2,-1 2,-4 3,-11 2,-16 -2,7 -9,13 -11,14 -1,0 -1,-1 -1,-1 0,-2 1,-4 0,-6 0,-2 -1,-5 -4,-8 -1,-1 -2,-1 -2,-1 l 3,0 z m -42,0 c 0,1 -1,2 -3,3 -3,1 -6,1 -9,0 -2,0 -4,3 -2,5 4,1 7,6 6,8 -1,7 5,4 5,-1 -2,-9 8,-6 8,-2 -1,2 -3,7 1,6 2,-2 6,-2 8,-1 3,1 5,-2 2,-5 l -2,-2 0,0 c -2,-6 8,-9 10,-3 l 0,0 c 0,9 3,8 5,4 1,-2 4,-2 5,-1 3,0 5,-2 0,-5 -2,-2 -3,-4 -2,-6 l 2,0 c -1,1 -1,3 1,4 4,3 5,6 2,7 2,8 -3,12 -11,14 2,-5 3,-7 1,-10 -3,2 -6,0 -5,-8 -1,-4 -7,-2 -6,2 l 1,2 c 3,3 3,7 0,8 0,6 0,10 5,16 -9,-1 -15,-6 -18,-15 -4,0 -2,-6 -1,-9 0,-1 -6,-4 -5,2 1,6 -6,10 -8,5 -4,3 -5,7 -7,13 l -1,-1 c -5,-4 -5,-17 2,-23 -2,-3 0,-7 4,-6 2,0 9,1 10,-2 l 2,0 z"
   id="path3517"
   inkscape:connector-curvature="0"
   style="fill:#1f1a17" />
   <path
   class="fil1"
   d="m 2686,29129 c -10,1 -13,4 -15,10 3,-2 7,-3 11,-2 1,-1 3,-2 3,-4 0,-2 0,-3 0,-4 l 0,0 z m 119,17 c 4,-1 8,-2 13,-1 4,0 8,1 12,1 l -25,0 z m -23,0 c 2,-4 5,-9 8,-12 4,-4 8,-7 9,-13 0,0 1,-1 2,0 1,1 2,3 2,4 5,1 13,5 22,10 5,3 10,7 14,10 l -2,0 c -4,-3 -8,-6 -12,-9 -9,-6 -17,-10 -22,-10 -1,0 -1,-1 -1,-1 0,-1 0,-2 0,-3 -1,7 -6,9 -10,14 -2,2 -5,6 -6,9 l -2,0 z m -8,0 c 1,-2 2,-4 3,-7 0,0 1,-1 2,0 0,2 1,4 1,7 l -1,0 c 0,-1 -1,-2 -1,-4 0,1 -1,2 -2,4 l -2,0 z m -12,0 c 0,-1 0,-1 1,-2 0,-1 1,-1 2,0 0,1 0,1 1,2 l -3,0 z m -13,0 c 0,0 0,0 0,-1 0,0 1,-1 2,0 0,0 0,1 0,1 l -2,0 z m -25,0 c 1,-3 5,-4 11,0 l -3,0 c -3,-1 -5,-1 -6,0 l -2,0 z m 246,-57 c 1,2 3,4 4,6 3,-2 6,-4 10,-5 l 8,0 c 17,3 20,27 2,32 -1,0 -1,-1 -1,-1 8,-15 -10,-18 -12,-2 -1,11 -4,19 -9,27 l -2,0 c 5,-8 8,-16 9,-27 2,-19 22,-14 15,1 14,-6 11,-26 -3,-29 l -8,0 c -4,1 -7,2 -10,5 -1,0 -1,0 -1,0 -2,-3 -3,-5 -5,-7 l 2,0 z m -22,0 c 0,0 1,1 1,1 7,5 11,9 14,18 4,9 2,20 -3,29 -2,3 -4,7 -7,9 l -2,0 c 3,-3 6,-6 9,-10 5,-8 6,-18 3,-27 -3,-9 -7,-13 -14,-18 -1,-1 -2,-1 -3,-2 l 3,0 z m -210,0 c 10,3 23,3 33,1 1,0 1,1 1,1 -1,4 -3,6 -5,9 -2,3 -4,6 -6,10 7,-3 14,-3 22,0 16,5 22,2 27,-1 1,0 1,0 1,0 1,6 8,6 9,14 4,-4 9,-6 15,-7 9,-2 14,-5 15,-11 0,0 0,-1 1,0 5,6 11,8 20,7 3,0 10,0 16,2 -3,-8 -4,-15 -3,-21 0,-1 0,-2 0,-3 l 2,0 c 0,1 0,2 0,3 -1,6 0,14 4,22 0,0 0,1 -1,1 -2,-1 -5,-1 -7,-2 1,3 2,7 5,11 5,8 12,16 20,21 l -3,0 c -7,-6 -14,-13 -18,-20 -3,-4 -5,-9 -5,-12 -3,0 -6,0 -8,0 -8,1 -14,0 -20,-6 -1,7 -7,10 -16,11 -6,1 -11,3 -15,7 -1,1 -1,0 -1,0 -1,-8 -7,-8 -9,-14 -5,3 -12,5 -27,0 -9,-3 -16,-2 -23,1 -1,0 -1,-1 -1,-1 2,-6 4,-10 6,-12 2,-2 4,-5 5,-8 -5,1 -11,1 -17,1 -1,1 -3,2 -4,4 -9,9 -17,17 -27,24 -9,6 -14,10 -21,11 -3,0 -6,-2 -7,-4 -6,-3 -9,0 -8,6 l 0,0 c 0,2 -2,4 -4,5 -3,2 1,5 5,3 4,-2 6,2 5,4 l -2,0 c 0,0 0,-1 0,-2 -1,-4 -5,2 -10,-1 -1,-1 -2,-3 -1,-4 -4,-1 -9,0 -11,3 0,-7 4,-13 17,-14 2,-3 5,-4 10,-1 l 0,0 c 0,0 0,0 0,0 1,2 3,3 6,3 6,-1 11,-4 20,-10 10,-7 19,-15 27,-24 1,-1 2,-2 3,-3 -6,0 -12,-2 -17,-4 l 4,0 z"
   id="path3519"
   inkscape:connector-curvature="0"
   style="fill:#1f1a17" />
   <path
   class="fil1"
   d="m 2930,29032 c -2,5 -2,12 3,18 1,2 2,3 4,5 12,12 24,20 34,33 l -2,0 c -10,-12 -22,-21 -33,-32 -7,-7 -10,-16 -8,-25 l 2,0 z m -19,0 c 0,0 0,0 0,0 0,0 0,1 -1,1 -10,0 -15,4 -15,15 6,-4 9,-4 13,-2 5,2 11,16 15,20 6,6 11,11 16,15 4,3 7,6 10,8 l -3,0 c -3,-2 -5,-4 -9,-7 -4,-4 -10,-8 -16,-15 -4,-4 -10,-18 -15,-20 -4,-1 -7,-2 -13,3 -1,1 -1,0 -1,-1 0,-10 3,-16 10,-18 l 7,0 z m -23,0 c 1,7 1,12 -1,18 l 0,1 c -1,6 0,12 5,23 0,1 0,1 -1,1 -2,-1 -4,-2 -6,-3 2,6 3,11 2,17 l -2,0 c 1,-7 -1,-13 -4,-19 0,-1 1,-1 1,-1 2,3 4,4 6,5 -5,-11 -5,-17 -4,-23 1,-6 2,-11 1,-18 l 2,0 z m -176,0 c 0,0 0,0 0,0 -1,3 -1,6 -1,9 1,5 0,11 -5,14 5,2 8,2 12,-1 0,0 1,0 1,1 -1,9 0,11 5,16 0,-5 2,-9 4,-11 0,0 1,0 1,0 2,4 3,7 2,11 2,-2 4,-4 6,-8 0,0 1,-1 2,0 3,6 -3,13 1,16 0,0 0,0 1,-1 2,-4 7,-11 13,-14 -7,-9 -8,-16 -6,-24 0,0 0,-1 1,-1 9,3 16,3 24,-2 l 1,0 c -2,-2 -4,-3 -6,-5 l 3,0 c 2,1 4,3 5,4 7,-4 18,-4 25,-1 18,7 25,2 26,-3 0,0 0,-1 0,-1 l 2,0 c 0,0 0,1 0,1 -2,6 -10,11 -28,4 -6,-2 -15,-4 -22,-1 -4,2 -6,4 -10,5 -5,1 -10,2 -18,-1 -2,8 -1,13 7,22 0,0 1,1 0,1 -6,3 -11,9 -13,14 -2,3 -6,6 -10,7 2,1 4,2 7,3 l -4,0 c -2,-1 -3,-2 -5,-2 0,0 0,-1 0,-1 3,-1 7,-3 9,-5 -4,-3 1,-10 0,-16 -3,4 -5,7 -8,8 -1,0 -1,0 -1,-1 1,-4 1,-7 -1,-11 -2,2 -3,6 -3,10 0,1 -1,1 -1,1 -6,-5 -7,-8 -7,-16 -4,3 -8,3 -14,0 -1,0 0,-1 0,-1 5,-2 7,-7 6,-13 -1,-3 0,-6 1,-9 l 2,0 z m -23,0 c -1,1 -2,1 -4,2 4,3 7,3 13,0 0,0 0,0 0,-1 l 0,0 0,-1 2,0 0,0 c 2,2 3,2 3,0 0,0 0,-1 0,-1 l 2,0 c 0,1 0,1 -1,2 -1,2 -3,2 -5,1 -7,4 -11,4 -18,-2 1,0 3,-1 4,-1 l 3,0 z"
   id="path3521"
   inkscape:connector-curvature="0"
   style="fill:#1f1a17" />
   <path
   class="fil1"
   d="m 2837,29003 c 0,2 0,3 -1,5 1,-2 1,-3 1,-5 l 0,0 z m -118,-13 c 0,-8 -1,-10 -6,-13 1,4 0,8 -2,10 1,2 3,3 5,3 1,0 2,0 3,0 l 0,0 z m -27,-4 c -8,-5 -13,-3 -17,1 4,0 7,1 10,4 2,-1 4,-1 6,-3 1,-1 1,-1 1,-2 l 0,0 z m -12,22 c -6,4 -7,10 -5,15 1,-4 3,-6 6,-7 0,-2 1,-4 -1,-7 0,0 -1,-1 -1,-1 l 0,0 z m 139,-64 c -3,-5 -7,-8 -12,-6 7,7 11,16 12,28 l 55,0 c 0,-7 3,-17 13,-27 -6,-3 -9,0 -12,5 -3,-3 -9,-2 -9,3 8,3 5,12 -3,12 -9,0 -12,-9 -3,-12 -1,-4 -4,-6 -8,-6 -1,-3 -2,-7 -5,-8 -3,2 -5,6 -5,9 -3,0 -7,1 -7,5 7,2 6,12 -3,12 -8,0 -11,-9 -3,-12 -1,-5 -7,-5 -10,-2 l 0,-1 z m 15,62 c 0,-1 0,-2 0,-2 -7,-5 -13,-6 -21,-4 -8,2 -15,4 -23,0 -4,-2 -7,-5 -8,-10 -3,2 -4,6 -3,10 4,11 17,9 25,6 3,-1 6,-2 9,-3 8,-1 13,-2 20,2 l 0,0 z m 69,26 c 2,0 4,-1 6,-1 2,-10 6,-17 13,-23 10,-8 21,-12 32,-18 5,-3 17,-9 14,-16 -7,-5 -3,-11 1,-13 19,-8 40,9 24,29 -7,9 -25,15 -36,20 -10,5 -23,12 -27,22 l -2,0 c 1,-2 2,-5 5,-7 11,-13 29,-18 44,-25 6,-3 12,-7 15,-11 16,-19 -4,-33 -22,-26 -3,1 -6,6 0,10 l 0,0 c 4,9 -9,15 -14,18 -11,6 -23,11 -33,19 -5,4 -9,10 -12,22 l -7,0 z m -77,0 c 0,-3 -2,-9 -16,-7 -2,0 -4,0 -5,-2 -1,-2 -2,-6 -2,-9 l 0,0 c 0,-1 1,-1 2,-2 l 0,0 c 9,-3 13,-2 20,1 5,2 7,-1 8,-5 -7,-4 -12,-3 -19,-2 -3,0 -6,2 -9,3 -4,1 -8,2 -13,2 -6,0 -12,-3 -14,-10 -2,-6 1,-10 5,-13 1,5 3,9 8,11 10,6 19,-1 29,-1 5,0 10,2 14,4 0,-1 0,-1 0,-2 -1,-4 -2,-6 -8,-6 -7,0 -13,5 -20,4 -7,-2 -7,-7 -7,-13 0,-1 1,-2 1,-3 -2,-1 -1,-3 -1,-4 1,-3 4,-4 7,-5 1,-1 3,-1 5,-2 2,-1 4,-2 6,-3 -1,-12 -5,-20 -13,-28 7,-4 11,-2 15,5 5,-4 10,1 11,5 -8,3 -6,10 1,10 8,0 9,-8 2,-10 0,-5 2,-8 7,-8 0,-4 3,-8 6,-9 4,1 6,5 6,8 5,0 8,4 8,8 -9,2 -6,9 1,9 6,0 9,-7 1,-9 0,-5 5,-10 11,-6 4,-6 10,-6 15,-3 -8,8 -13,16 -14,27 3,-1 14,-3 16,1 1,4 2,12 -6,23 4,4 5,10 4,19 l 0,1 c -1,5 1,13 4,17 1,1 0,1 0,1 -2,0 -5,0 -7,-2 0,2 1,3 1,5 l -2,0 c 0,-2 -1,-4 -1,-7 0,-1 1,-1 1,-1 2,2 4,2 6,3 -2,-2 -5,-8 -4,-17 0,-9 0,-15 -4,-19 -1,1 -3,2 -4,2 l 0,-2 c 1,0 2,-1 4,-3 8,-11 7,-19 6,-22 -2,-3 -13,-1 -14,0 -2,1 -4,3 -4,4 l -2,-1 c 0,-1 1,-2 3,-3 l -54,0 c -3,2 -5,3 -8,5 -2,1 -4,2 -6,3 -1,1 -2,1 -2,2 0,1 0,2 0,3 1,-1 2,-2 2,-3 l 1,1 c -1,1 -2,2 -3,3 -2,3 -2,6 -1,9 1,2 2,4 5,5 6,1 13,-4 20,-4 6,0 8,3 9,8 0,1 0,2 0,3 0,2 0,3 -1,5 l 0,0 0,0 c -2,5 -5,8 -10,5 -6,-3 -11,-4 -19,-1 -1,1 -1,1 -1,2 0,3 1,7 2,8 1,1 1,1 3,1 15,-1 19,4 18,9 l -2,0 z m -122,0 c 0,-2 0,-5 -1,-8 -2,-8 11,-8 11,1 0,1 -1,5 -2,7 l -2,0 c 0,-1 1,-3 1,-4 0,-1 1,-2 1,-2 0,-7 -9,-8 -8,-2 1,3 1,6 1,8 l -2,0 z m -18,0 c 3,-2 5,-3 7,-6 -2,-2 -2,-5 1,-7 5,-4 1,-6 -3,-4 -3,5 -8,7 -9,4 -4,1 -5,2 -6,7 -4,-3 -5,-14 3,-19 0,-4 3,-6 7,-4 2,0 6,-3 3,-5 -2,-1 -7,-2 -7,-4 0,-1 0,-2 1,-3 -3,-3 -6,-3 -12,-2 6,-9 13,-9 21,-4 1,0 1,0 2,-1 5,0 4,5 4,8 0,4 3,3 4,1 0,-2 0,-4 -1,-6 -1,-4 3,-5 5,-3 1,0 1,1 1,2 3,-3 2,-9 1,-12 8,6 11,8 10,17 0,0 1,1 1,1 3,4 -1,6 -4,9 -1,4 3,6 6,8 13,5 32,14 46,24 l -3,0 c -13,-10 -31,-18 -44,-23 -3,-2 -7,-5 -7,-8 0,-1 0,-1 0,-1 l 0,0 c 1,-1 3,-2 4,-4 1,-1 1,-2 0,-3 -1,-1 -3,-1 -5,-1 -5,0 -8,-7 -9,-7 -3,1 -2,3 -1,5 0,1 0,3 0,4 l 0,0 c -2,3 -8,4 -7,-2 0,-2 1,-6 -2,-6 -4,0 -2,4 -8,5 -2,0 -3,0 -3,2 0,1 5,2 6,3 4,3 0,7 -4,8 l 0,0 c -3,-1 -7,0 -4,4 2,3 3,4 2,7 0,0 0,2 0,2 0,1 3,2 7,-4 l 0,0 c 6,-3 11,2 5,7 -3,2 -3,4 3,8 l 0,0 1,4 -2,0 -1,-3 c -1,-1 -2,-2 -3,-2 -1,2 -2,4 -5,5 l -3,0 z"
   id="path3523"
   inkscape:connector-curvature="0"
   style="fill:#1f1a17" />
   <path
   class="fil6"
   d="m 2692,28986 c -8,-5 -13,-3 -17,1 4,0 7,1 10,4 2,-1 4,-1 6,-3 1,-1 1,-1 1,-2 l 0,0 z"
   id="path3525"
   inkscape:connector-curvature="0"
   style="fill:#f8c300" />
   <path
   class="fil6"
   d="m 2719,28989 c 0,-8 -1,-10 -6,-13 1,4 0,8 -2,10 1,2 3,3 5,3 1,0 2,0 3,0 l 0,0 z"
   id="path3527"
   inkscape:connector-curvature="0"
   style="fill:#f8c300" />
   <path
   class="fil6"
   d="m 2681,29008 c -6,4 -7,10 -5,15 1,-4 3,-6 6,-7 0,-2 1,-4 -1,-7 0,0 -1,-1 -1,-1 l 0,0 z"
   id="path3529"
   inkscape:connector-curvature="0"
   style="fill:#f8c300" />
   <path
   class="fil6"
   d="m 2695,29027 c -2,3 -4,6 -8,7 4,3 7,3 13,0 0,0 0,0 0,-1 l 0,0 -1,-4 c -1,-1 -2,-2 -3,-2 l 0,0 z"
   id="path3531"
   inkscape:connector-curvature="0"
   style="fill:#f8c300" />
   <path
   class="fil6"
   d="m 2686,29129 c -10,1 -13,4 -15,10 3,-2 7,-3 11,-2 1,-1 3,-2 3,-4 0,-2 0,-3 0,-4 l 0,0 z"
   id="path3533"
   inkscape:connector-curvature="0"
   style="fill:#f8c300" />
   <path
   class="fil6"
   d="m 2679,29155 c -5,4 -6,14 -3,19 1,-5 3,-9 7,-11 0,-1 0,-1 0,-2 l 0,0 c 0,-1 -1,-5 -5,-6 l 0,0 z"
   id="path3535"
   inkscape:connector-curvature="0"
   style="fill:#f8c300" />
   <path
   class="fil6"
   d="m 2699,29166 c 2,6 6,11 12,13 -3,-4 -3,-8 -3,-13 -1,0 -1,0 -2,0 l 0,0 c -2,-1 -5,-1 -6,1 l 0,0 c 0,0 0,0 -1,0 l 0,0 z"
   id="path3537"
   inkscape:connector-curvature="0"
   style="fill:#f8c300" />
   <path
   class="fil6"
   d="m 2722,29161 c 2,2 2,5 1,9 6,-2 8,-7 7,-11 -1,0 -1,0 -2,0 l 0,0 c -1,-1 -3,0 -4,1 0,1 -1,2 -1,2 l 0,0 z"
   id="path3539"
   inkscape:connector-curvature="0"
   style="fill:#f8c300" />
   <path
   class="fil6"
   d="m 2739,29254 c -9,-2 -15,3 -18,9 4,-2 8,-2 13,0 1,0 3,-1 3,-3 0,-3 1,-5 2,-7 l 0,0 z"
   id="path3541"
   inkscape:connector-curvature="0"
   style="fill:#f8c300" />
   <path
   class="fil6"
   d="m 2730,29271 c -6,6 -5,11 -2,17 1,-4 3,-6 6,-7 0,-2 1,-6 0,-7 -2,-1 -3,-2 -3,-3 l 0,0 z"
   id="path3543"
   inkscape:connector-curvature="0"
   style="fill:#f8c300" />
   <path
   class="fil6"
   d="m 2740,29284 c -2,7 0,15 5,17 0,-3 0,-7 3,-10 -1,-1 -1,-2 -2,-4 -2,0 -5,-2 -6,-4 l 0,0 z"
   id="path3545"
   inkscape:connector-curvature="0"
   style="fill:#f8c300" />
   <path
   class="fil6"
   d="m 2772,29288 c 3,4 3,6 2,11 5,-3 8,-7 8,-15 -1,0 -2,0 -4,0 -3,0 -3,1 -5,3 l 0,0 z"
   id="path3547"
   inkscape:connector-curvature="0"
   style="fill:#f8c300" />
   <path
   class="fil6"
   d="m 2899,29300 c -3,7 -1,14 3,19 0,-5 2,-8 4,-11 0,0 0,0 0,-1 0,-1 -1,-3 -2,-4 -1,-2 -3,-3 -5,-3 l 0,0 z"
   id="path3549"
   inkscape:connector-curvature="0"
   style="fill:#f8c300" />
   <path
   class="fil6"
   d="m 2878,29282 c -4,2 -6,5 -7,10 0,1 0,2 0,2 3,-3 6,-3 10,-4 -1,-2 0,-4 0,-5 0,-1 -2,-3 -2,-4 l 0,0 z"
   id="path3551"
   inkscape:connector-curvature="0"
   style="fill:#f8c300" />
   <path
   class="fil6"
   d="m 2879,29303 c -4,6 -2,12 1,17 1,-4 2,-8 5,-10 0,0 0,-1 -1,-1 -1,-3 -3,-5 -5,-6 l 0,0 z"
   id="path3553"
   inkscape:connector-curvature="0"
   style="fill:#f8c300" />
   <path
   class="fil6"
   d="m 2925,29289 c 4,1 8,3 10,6 1,-6 0,-12 -5,-17 -6,2 -5,7 -5,11 l 0,0 z"
   id="path3555"
   inkscape:connector-curvature="0"
   style="fill:#f8c300" />
   <path
   class="fil1"
   d="m 3020,29247 c -34,76 -101,114 -182,113 -80,1 -148,-37 -182,-113 -11,-26 -13,-49 -14,-76 l 0,-261 390,0 0,261 c -1,27 -2,50 -14,76 l 0,0 z m -5,-2 c 11,-25 12,-48 13,-74 l 0,-256 -379,0 0,256 c 1,26 2,49 13,74 33,74 98,111 177,110 78,1 144,-36 177,-110 l 0,0 z"
   id="path3557"
   inkscape:connector-curvature="0"
   style="fill:#1f1a17" />
  </g>
 </g>
</svg>