<?xml version="1.0" encoding="utf-8"?><svg viewBox="0 0 16 20" width="100%" height="100%" version="1.1" xmlns:xlink="http://www.w3.org/1999/xlink" xmlns="http://www.w3.org/2000/svg"><defs /><path d="M18 4.6 L18 17 C18 18.9 17.5 20 15.6 20 L9.5 20 C8.6 20 7.7 19.6 7.1 19 L2.5 14 L2 13 C2 12 2.5 12 2.5 12 C2.8 12 3.1 12 3.5 12.2 L7 14 L7 3.3 C7 2.6 7.3 2 8 2 C8.6 2 9 2.7 9 3.4 L9 9 L10 9 L10 1.2 C10 0.6 10.3 0 11 0 C11.7 0 12 0.6 12 1.3 L12 9 L13 9 L13 2 C13 1.3 13.3 0.7 14 0.7 C14.7 0.7 15 1.3 15 2 L15 9 L16 9 L16 4.6 C16 3.9 16.3 3.3 17 3.3 C17.7 3.3 18 3.9 18 4.6 Z " fill="#000000" fill-opacity="1" transform="matrix(1 0 0 1 -2 0)" /></svg>