<?xml version="1.0" encoding="utf-8"?><svg viewBox="0 0 13 13" width="100%" height="100%" version="1.1" xmlns:xlink="http://www.w3.org/1999/xlink" xmlns="http://www.w3.org/2000/svg"><defs /><path d="M4 10 Q4 12.48528 5.75736 14.24264 Q7.514719 16 10 16 Q12.48528 16 14.24264 14.24264 Q16 12.48528 16 9.999999 Q16 7.514718 14.24264 5.757359 Q12.48528 4 10 3.999999 Q7.514719 3.999999 5.75736 5.757359 Q3.999999 7.514719 4 10M10 2 Q13.31371 2 15.65685 4.343146 Q18 6.686291 18 10 Q18 13.31371 15.65685 15.65685 Q13.31371 18 10 18 Q6.686292 18 4.343146 15.65685 Q1.999999 13.31371 2 9.999999 Q2 6.686289 4.343147 4.343145 Q6.68629 2 10 2M11 9 L11 14 L9 14 L9 9 Z M11 8 L11 6 L9 6 L9 8 Z " fill-rule="nonzero" fill="#000000" fill-opacity="1" transform="matrix(0.8124999 0 0 0.8124999 -1.624999 -1.624999)" /></svg>