<?xml version="1.0" encoding="utf-8"?><svg viewBox="0 0 12 16" width="100%" height="100%" version="1.1" xmlns:xlink="http://www.w3.org/1999/xlink" xmlns="http://www.w3.org/2000/svg"><defs /><path d="M8 19 Q8 19.41421 8.292893 19.70711 Q8.585787 20 9 20 L11 20 Q11.41421 20 11.70711 19.70711 Q12 19.41421 12 19 L12 18 L8 18 Z M17 7 Q17 4.110011 14.95998 2.06153 Q12.91997 0.0130496 10.02898 0.001080513 Q7.137996 -0.01088905 5.081087 2.020629 Q3.024179 4.052147 3.00024 6.943058 Q2.976302 9.833969 4.999286 11.89927 C2.998572 9.798542 7 14 7 15 L7 16 Q7 16.41421 7.292893 16.70711 Q7.585786 17 8 17 L12 17 Q12.41421 17 12.70711 16.70711 Q13 16.41421 13 16 L13 15 C13 14 15 11.9 15 11.9 Q17.00042 9.858335 17 7.000001 Z " fill-rule="nonzero" fill="#000000" fill-opacity="1" transform="matrix(0.8000404 0 0 0.8000404 -2.000388 -0.0008078858)" /></svg>