<?xml version="1.0" encoding="utf-8"?>
<!-- Generator: Adobe Illustrator 27.1.1, SVG Export Plug-In . SVG Version: 6.00 Build 0)  -->
<svg version="1.1" id="Nebenlogo_100_x2F_60" xmlns="http://www.w3.org/2000/svg" xmlns:xlink="http://www.w3.org/1999/xlink"
	 x="0px" y="0px" viewBox="0 0 408.2 408.2" style="enable-background:new 0 0 408.2 408.2;" xml:space="preserve">
<style type="text/css">
	.st0{fill:#D9DADA;}
	.st1{fill-rule:evenodd;clip-rule:evenodd;fill:#005CA9;}
</style>
<g>
	<polygon class="st0" points="408.2,260.5 311,260.5 272.2,147.6 408.2,147.6 	"/>
	<path class="st1" d="M263.7,147.6h-44.2l-30.4,87.4l-21-31.7l33.4-55.6h-44.9l-25.1,48.2v-48.2h-39v71.1c-0.9-3-2.2-5.6-4.2-7.9
		c-3.7-4.4-9.2-7.5-16.7-9c5.5-1.2,9.7-3.9,12.7-8.1c3-4.1,4.5-9.2,4.5-15.4c0-9.7-3.2-17.2-9.5-22.7c-6.3-5.4-15.1-8.2-26.4-8.2H0
		v113.1h52.7c13.5,0,23.8-2.7,30.7-8.1c4.5-3.5,7.5-8,9.1-13.6v21.6h38.9v-47.3l26.7,47.3h22h26h16.6l3.4-14.2h29.9l3.6,14.2h42.7
		L263.7,147.6z M37.3,174.5h5.2c3.2,0,5.6,0.6,7.3,2c1.6,1.3,2.6,3.3,2.6,5.9c0,2.6-0.8,4.5-2.6,5.9c-1.7,1.3-4.2,2-7.3,2h-5.2
		V174.5z M53,230.4c-2.1,1.5-5.2,2.3-9.2,2.3h-6.6v-18.1h6.7c4,0,7,0.8,9.2,2.3c2.1,1.5,3.2,3.8,3.2,6.7
		C56.2,226.6,55.1,228.7,53,230.4z M232.8,219.5l3.4-12.9c1.6-6.5,2.8-11.5,3.4-15c0.6-3.5,0.9-6.7,1.1-9.9h0.7
		c0.2,3.1,0.5,6.4,1.1,9.9c0.6,3.5,1.7,8.5,3.4,15l3.4,12.9H232.8z"/>
</g>
</svg>
